<?xml version="1.0" encoding="UTF-8" standalone="no"?>
<svg
   width="200"
   height="55"
   viewBox="0 0 52.916665 14.552084"
   version="1.1"
   id="svg5"
   xmlns:xlink="http://www.w3.org/1999/xlink"
   xmlns="http://www.w3.org/2000/svg"
   xmlns:svg="http://www.w3.org/2000/svg">
  <defs
     id="defs2">
    <path
       id="a"
       d="M-21-6.823314h42L-12.978714 17.863667 0-22.080707 12.978714 17.863667z" />
    <clipPath
       id="c1">
      <path
         d="M0 0H65V35H0z"
         id="path2447" />
    </clipPath>
    <clipPath
       id="c2">
      <path
         d="M0 0V15H65V30H60zM0,30V35H30V0H60z"
         id="path2450" />
    </clipPath>
  </defs>
  <path
     id="rect843"
     style="fill:#008ae6;fill-opacity:1;stroke-width:0.276597"
     d="M 2.2727233e-8,-2.8125001e-7 H 52.916667 V 14.552084 H 2.2727233e-8 Z" />
  <g
     stroke="#ffffff"
     id="g2479"
     transform="matrix(0.03145697,0,0,0.03145697,3.0045909,-0.58688813)"
     style="fill:#ffffff">
    <use
       xlink:href="#a"
       transform="matrix(1.2,0,0,1.2,756,100.8)"
       stroke-width="7"
       id="use2469"
       x="0"
       y="0"
       width="100%"
       height="100%" />
    <use
       xlink:href="#a"
       transform="matrix(1.4,0,0,1.4,756,403.2)"
       stroke-width="6"
       id="use2471"
       x="0"
       y="0"
       width="100%"
       height="100%" />
    <g
       transform="rotate(-8,756,201.6)"
       id="g2477">
      <use
         xlink:href="#a"
         transform="matrix(1.1883217,0.16700772,-0.16700772,1.1883217,638.4,201.6)"
         stroke-width="7"
         id="use2473"
         x="0"
         y="0"
         width="100%"
         height="100%" />
      <use
         xlink:href="#a"
         transform="rotate(8,-1013.1072,6227.2054)"
         stroke-width="8.4"
         id="use2475"
         x="0"
         y="0"
         width="100%"
         height="100%" />
    </g>
  </g>
  <path
     id="rect3498"
     style="fill:#ffffff;stroke:#ffffff;stroke-width:0.486248"
     d="M 0.24312356,0.24312364 H 10.340209 V 14.308959 H 0.24312356 Z" />
  <path
     id="rect3498-1"
     style="fill:#ffffff;stroke:#ffffff;stroke-width:0.486248"
     d="M 42.576458,0.24312488 H 52.673543 V 14.308959 H 42.576458 Z" />
  <g
     id="g2937"
     style="fill:#000000;fill-opacity:0.35023">
    <path
       id="rect1083"
       style="fill:#000000;fill-opacity:0.35023;stroke-width:0.198004"
       d="M -4.4638898e-7,0 H 52.916667 V 0.58208334 H -4.4638898e-7 Z" />
    <path
       id="rect1083-3"
       style="fill:#000000;fill-opacity:0.35023;stroke-width:0.198004"
       d="M -4.4638898e-7,1.1641666 H 52.916666 V 1.7462499 H -4.4638898e-7 Z" />
    <path
       id="rect1083-2"
       style="fill:#000000;fill-opacity:0.35023;stroke-width:0.198004"
       d="M -4.4638898e-7,2.3283332 H 52.916667 V 2.9104165 H -4.4638898e-7 Z" />
    <path
       id="rect1083-7"
       style="fill:#000000;fill-opacity:0.35023;stroke-width:0.198004"
       d="M -4.4638898e-7,3.4924998 H 52.916667 V 4.0745831 H -4.4638898e-7 Z" />
    <path
       id="rect1083-6"
       style="fill:#000000;fill-opacity:0.35023;stroke-width:0.198004"
       d="M -4.4638898e-7,4.6566664 H 52.916667 V 5.2387497 H -4.4638898e-7 Z" />
    <path
       id="rect1083-45"
       style="fill:#000000;fill-opacity:0.35023;stroke-width:0.198004"
       d="M -4.4638898e-7,5.820833 H 52.916667 V 6.4029163 H -4.4638898e-7 Z" />
    <path
       id="rect1083-78"
       style="fill:#000000;fill-opacity:0.35023;stroke-width:0.198004"
       d="M -4.4638898e-7,6.9849996 H 52.916667 V 7.5670829 H -4.4638898e-7 Z" />
    <path
       id="rect1083-25"
       style="fill:#000000;fill-opacity:0.35023;stroke-width:0.198004"
       d="M -4.4638898e-7,8.1491662 H 52.916667 v 0.582083 H -4.4638898e-7 Z" />
    <path
       id="rect1083-9"
       style="fill:#000000;fill-opacity:0.35023;stroke-width:0.198004"
       d="M -4.4638898e-7,9.3133322 H 52.916667 v 0.582083 H -4.4638898e-7 Z" />
    <path
       id="rect1083-22"
       style="fill:#000000;fill-opacity:0.35023;stroke-width:0.198004"
       d="M -4.4638898e-7,10.477498 H 52.916667 v 0.582083 H -4.4638898e-7 Z" />
    <path
       id="rect1083-33"
       style="fill:#000000;fill-opacity:0.35023;stroke-width:0.198004"
       d="M -4.4638898e-7,11.641664 H 52.916667 v 0.582083 H -4.4638898e-7 Z" />
    <path
       id="rect1083-1"
       style="fill:#000000;fill-opacity:0.35023;stroke-width:0.198004"
       d="M -4.4638898e-7,12.80583 H 52.916667 v 0.582083 H -4.4638898e-7 Z" />
    <path
       id="rect1083-95"
       style="fill:#000000;fill-opacity:0.35023;stroke-width:0.198004"
       d="M -4.4638898e-7,13.969996 H 52.916667 v 0.582083 H -4.4638898e-7 Z" />
  </g>
</svg>
