<?xml version="1.0" encoding="UTF-8" standalone="no"?>
<svg
   width="700.02081"
   height="700"
   viewBox="0 0 185.21384 185.20834"
   version="1.1"
   id="svg5"
   xmlns="http://www.w3.org/2000/svg"
   xmlns:svg="http://www.w3.org/2000/svg">
  <defs
     id="defs2" />
  <g
     id="layer1"
     transform="translate(-429.05742,-40.865402)">
    <g
       id="g1707"
       transform="translate(90.15186,-0.93421616)">
      <path
         style="fill:#254621;stroke-width:0.264583"
         d="M 338.91104,134.40379 V 41.799618 h 92.60417 92.60417 v 92.604172 92.60417 h -92.60417 -92.60417 z"
         id="path1713" />
      <path
         style="fill:#171e15;stroke-width:0.264583"
         d="m 342.28448,223.45388 -3.37344,-3.4783 v -7.16282 -7.16282 l 2.65651,-2.45129 c 1.46108,-1.34821 2.69928,-2.40648 2.75156,-2.35172 0.0523,0.0548 0.73736,1.66902 1.52241,3.58724 l 1.42736,3.48767 5.40779,-4.6003 c 5.27988,-4.49148 5.42041,-4.58926 5.94139,-4.13367 0.29348,0.25664 1.17156,1.02522 1.95128,1.70794 0.77973,0.68272 1.51328,1.24131 1.63013,1.24131 0.16651,0 6.66812,-8.87752 7.45318,-10.17682 0.11595,-0.19191 -1.35144,-1.19724 -4.0349,-2.76435 -2.31942,-1.35452 -4.21713,-2.54807 -4.21713,-2.65232 0,-0.10426 1.84964,-1.9055 4.1103,-4.00276 2.26066,-2.09726 3.99511,-3.8516 3.85432,-3.89853 -0.14079,-0.0469 -2.40838,0.22583 -5.0391,0.60614 -2.63071,0.38031 -4.8956,0.62194 -5.03309,0.53697 -0.33444,-0.2067 -6.73432,0.89168 -6.83487,1.17303 -0.11231,0.31428 -4.80492,-2.43554 -4.81092,-2.81915 -0.003,-0.17467 -0.1939,-0.42331 -0.42482,-0.55254 -0.35899,-0.2009 -0.10945,-0.85484 1.72135,-4.51106 1.17766,-2.35186 2.0512,-4.27791 1.9412,-4.28012 -0.10999,-0.002 -2.7003,-0.17829 -5.75624,-0.3913 -3.05594,-0.213 -5.70508,-0.38979 -5.88698,-0.39286 -0.26138,-0.004 -0.33073,-3.88911 -0.33073,-18.52641 0,-10.18646 0.0536,-18.52084 0.11905,-18.52084 0.6259,0 9.54561,-0.84521 9.61113,-0.91073 0.0477,-0.0477 0.47875,-2.42344 0.9578,-5.27933 0.47905,-2.85589 0.9382,-5.25973 1.02033,-5.34186 0.0821,-0.0821 2.28399,1.27695 4.893,3.02019 l 4.74366,3.16953 0.83689,-0.52988 c 0.48494,-0.30704 0.83689,-0.40429 0.83689,-0.23125 0,0.24441 3.50097,-1.89356 4.33679,-2.64839 0.13238,-0.11955 -0.71809,-1.96098 -1.93953,-4.19947 -1.19641,-2.19262 -2.13594,-4.08913 -2.08784,-4.21448 0.18144,-0.47283 7.48484,-9.78868 7.59092,-9.6826 0.0611,0.0611 0.79217,2.91545 1.62466,6.34307 0.83249,3.42761 1.57723,6.29562 1.65497,6.37337 0.0777,0.0777 1.01402,-0.40173 2.08062,-1.06549 1.0666,-0.66376 2.02831,-1.20684 2.13713,-1.20684 0.53149,0 7.45745,-4.6947 7.69495,-5.21595 0.16192,-0.35537 3.41192,-2.64638 7.99462,-5.63561 4.24699,-2.77025 8.08935,-5.307997 8.53859,-5.639436 l 0.81679,-0.602612 -5.14527,-1.6999 c -2.83403,-0.936305 -5.09828,-1.822384 -5.04064,-1.97257 0.12547,-0.32698 -7.45062,-5.824551 -8.02669,-5.824551 -0.22107,0 -1.05679,-0.482459 -1.85715,-1.072134 -0.80037,-0.589674 -2.03502,-1.482643 -2.74367,-1.984375 l -1.28845,-0.912241 -2.8361,3.020285 c -1.55985,1.661155 -2.90126,2.911311 -2.98092,2.778125 -0.0797,-0.133188 -0.23082,-0.996894 -0.33593,-1.919345 -0.15281,-1.341128 -0.33114,-1.801541 -0.89,-2.297809 -1.29725,-1.151969 -8.62995,-6.291551 -9.01362,-6.317763 -0.25362,-0.01733 -0.84515,1.200475 -1.77441,3.653033 l -1.39396,3.679029 1.17749,3.06718 c 0.64762,1.686951 1.17748,3.178796 1.17748,3.315216 0,0.136419 1.02681,1.297344 2.28179,2.579833 2.03055,2.075058 2.24176,2.381054 1.91823,2.779151 -1.67021,2.055164 -7.21605,8.152654 -7.41507,8.152654 -0.13855,0 -0.81265,-1.03067 -1.49801,-2.29038 l -1.2461,-2.29038 -4.94875,4.26936 c -2.99895,2.58724 -4.82206,4.33506 -4.62719,4.4361 0.17686,0.0917 1.39312,0.38039 2.70281,0.64153 1.30969,0.26113 2.46384,0.54572 2.56478,0.63241 0.14917,0.1281 -0.40125,3.65413 -0.9805,6.28117 -0.11088,0.50283 -4.39926,2.99034 -10.38167,6.02198 l -0.8599,0.43575 v -4.0715 -4.0715 l 3.14507,-2.84562 c 3.0527,-2.76206 3.13881,-2.86997 2.93197,-3.67436 -0.1172,-0.4558 -0.722,-4.45077 -1.34401,-8.87772 l -1.13093,-8.048981 -0.50018,1.500547 c -0.2751,0.825301 -0.59986,1.500547 -0.7217,1.500547 -0.26384,0 -0.25956,0.02044 -1.4491,-6.919598 l -0.9366,-5.464392 0.0689,-11.801885 0.0689,-11.801888 4.36563,3.598158 c 2.40109,1.978986 4.75079,3.966142 5.22155,4.4159 0.47077,0.449759 0.92977,0.743915 1.02,0.653679 0.23875,-0.238747 -2.87681,-6.016995 -3.24443,-6.017255 -0.39064,-2.77e-4 -3.37532,-5.523454 -3.32829,-6.159034 0.0358,-0.48421 -3.58648,-7.397698 -3.95865,-7.555422 -0.11445,-0.04851 -0.2081,-1.685617 -0.2081,-3.638021 v -3.549827 l 31.41927,0.0061 31.41927,0.0061 2.77813,4.600989 2.77812,4.600991 2.24896,0.161011 c 1.23693,0.08856 2.69004,0.205973 3.22913,0.260925 l 0.98017,0.09991 -2.36923,-4.732928 c -1.30308,-2.60311 -2.36923,-4.793711 -2.36923,-4.868003 0,-0.07429 25.89609,-0.135076 57.54687,-0.135076 h 57.54688 v 13.49375 c 0,7.421563 -0.0998,13.493751 -0.2218,13.493751 -0.23684,0 -7.98028,9.909543 -7.98028,10.212634 0,0.09894 0.68461,1.020633 1.52135,2.048208 2.48165,3.047627 2.34882,2.607588 1.41653,4.692616 -0.45167,1.01014 -0.82122,1.883823 -0.82122,1.941518 0,0.0577 1.33847,-0.4196 2.97437,-1.060662 1.63591,-0.641059 3.00512,-1.165563 3.04271,-1.165563 0.0376,0 0.0683,1.819648 0.0683,4.043661 v 4.043662 l -3.24115,3.666278 c -1.78263,2.016456 -3.21744,3.79845 -3.18848,3.95999 0.029,0.16153 0.59189,2.88304 1.25095,6.04779 l 1.1983,5.75409 -3.05537,4.33953 -3.05536,4.33952 -3.35497,0.10132 c -1.84523,0.0557 -3.41795,0.014 -3.49494,-0.0928 -0.077,-0.10675 -0.42925,-1.33095 -0.7828,-2.72046 -0.35355,-1.3895 -0.72781,-2.52637 -0.83169,-2.52637 -0.10388,0 -0.31873,0.39348 -0.47745,0.8744 l -0.28857,0.87439 -8.39705,2.39571 c -5.21956,1.48915 -8.42121,2.28462 -8.4609,2.10216 -0.0351,-0.16144 0.39859,-1.84135 0.9638,-3.73312 0.56521,-1.89177 0.99675,-3.47334 0.95898,-3.51459 -0.0846,-0.0925 -13.16576,0.71032 -13.26979,0.81435 -0.0411,0.0411 0.096,2.15377 0.30473,4.69479 0.20872,2.54102 0.38197,4.81189 0.385,5.04637 0.004,0.29579 0.18778,0.39421 0.60082,0.32144 0.45653,-0.0804 1.36632,0.58129 3.90261,2.83851 1.81901,1.61886 3.39559,3.09898 3.50352,3.28914 0.13183,0.23228 -0.76101,1.23536 -2.72058,3.05649 l -2.91681,2.71074 4.0435,1.96524 4.04349,1.96525 1.19063,-0.57588 c 1.37461,-0.66487 1.50056,-0.87271 -1.60033,2.64077 -2.34196,2.65357 -2.16651,2.58663 1.40409,-0.53569 1.48897,-1.30203 2.73804,-2.27485 2.77572,-2.16181 0.0377,0.11304 -0.69595,2.0233 -1.63029,4.24503 l -1.69879,4.03951 0.83782,-0.13982 c 0.4608,-0.0769 2.32367,-0.32606 4.13972,-0.55368 1.81605,-0.22762 3.34279,-0.45474 3.39275,-0.5047 0.05,-0.05 0.95392,-2.96925 2.0088,-6.48731 l 1.91795,-6.39647 1.30388,-0.76755 c 0.71714,-0.42216 1.42869,-0.76959 1.58122,-0.77207 0.15254,-0.002 0.81322,1.74116 1.46819,3.87477 0.82159,2.67638 1.31799,3.89795 1.60085,3.93946 0.2255,0.0331 1.08134,0.50592 1.90186,1.05072 1.04747,0.69548 1.59139,0.91383 1.82598,0.73304 0.27475,-0.21175 10.10055,-8.12856 10.51513,-8.47223 0.0698,-0.0578 -0.89794,-1.11168 -2.15046,-2.34189 -1.25252,-1.2302 -2.19543,-2.28733 -2.09536,-2.34917 0.10007,-0.0618 1.87145,0.42287 3.93639,1.07715 l 3.75446,1.18961 v 9.64285 c 0,5.30356 -0.0619,9.64284 -0.13758,9.64284 -0.0757,0 -1.20492,-0.53605 -2.50946,-1.19123 l -2.37188,-1.19123 -2.84835,1.07915 c -1.5666,0.59353 -2.93675,1.1644 -3.04478,1.2686 -0.15489,0.14937 3.61956,13.67663 3.90942,14.01096 0.0408,0.0471 0.74005,0.17599 1.55384,0.28642 0.81378,0.11043 1.54703,0.26821 1.62944,0.35062 0.0824,0.0824 -0.21377,0.87012 -0.65817,1.75047 -0.4444,0.88036 -0.74218,1.77218 -0.66173,1.98183 0.0804,0.20965 -0.49999,1.66945 -1.28988,3.24399 l -1.43616,2.8628 3.56984,4.77329 c 1.96341,2.62531 3.7331,4.90548 3.93265,5.06704 0.3016,0.2442 0.3628,3.69212 0.3628,20.43907 v 20.14531 h -4.23333 -4.23334 l -0.0207,-1.12448 c -0.0614,-3.33394 -0.42596,-9.46455 -0.57148,-9.61007 -0.19805,-0.19805 -6.08518,1.71194 -6.30412,2.04529 -0.0822,0.12512 -2.04671,0.89573 -4.36562,1.71246 -2.31891,0.81673 -4.49468,1.59061 -4.83504,1.71973 -0.59421,0.22543 -0.52709,0.33473 1.68623,2.74592 l 2.30507,2.51115 h -17.49508 c -9.62229,0 -17.49508,-0.0427 -17.49508,-0.0949 0,-0.11006 3.1496,-7.32288 3.31336,-7.58786 0.0603,-0.0975 0.78388,-0.0715 1.60804,0.0577 0.82417,0.12924 1.55731,0.17617 1.62919,0.10428 0.0719,-0.0719 -0.82862,-1.83217 -2.00113,-3.91175 l -2.13183,-3.78105 1.00245,-4.43946 c 0.55134,-2.4417 0.92044,-4.49013 0.8202,-4.55208 -0.10023,-0.0619 -1.6515,-0.65932 -3.44728,-1.32749 -1.79577,-0.66818 -3.42029,-1.30175 -3.61004,-1.40794 -0.21604,-0.1209 0.88885,-0.77264 2.95581,-1.74355 1.81545,-0.85277 3.30081,-1.64483 3.30081,-1.76014 0,-0.11531 -1.36922,-1.49478 -3.04271,-3.06549 -1.67349,-1.57071 -3.04271,-2.91907 -3.04271,-2.99635 0,-0.0773 1.72641,-1.68139 3.83646,-3.56468 2.11006,-1.88329 3.83646,-3.48453 3.83646,-3.55831 0,-0.0738 -0.58412,-3.05687 -1.29805,-6.62912 -0.71392,-3.57224 -1.37389,-6.93998 -1.46658,-7.48387 l -0.16853,-0.9889 -2.70061,1.34665 c -1.48533,0.74065 -3.00378,1.63119 -3.37433,1.97896 l -0.67373,0.63232 -2.89815,-2.02635 c -1.59398,-1.1145 -4.611,-3.14659 -6.70449,-4.51576 l -3.80634,-2.48941 -1.61762,0.71062 c -1.92369,0.84508 -8.83645,4.57894 -9.01641,4.87012 -0.23652,0.3827 4.47161,13.69149 4.80423,13.58045 0.36577,-0.12211 2.85518,7.44455 2.59026,7.8732 -0.24191,0.39143 0.38543,2.1097 0.77026,2.1097 0.43111,0 1.22427,2.59203 1.05251,3.43958 -0.1906,0.94057 1.91211,6.85512 2.70813,7.61748 0.62824,0.60167 0.68679,0.77779 0.76614,2.3044 0.0723,1.39174 3.29426,10.98021 3.68957,10.98021 0.19837,0 0.53741,0.50601 0.75343,1.12448 1.1284,3.23064 3.09656,9.01283 3.09656,9.09731 0,0.0533 -25.74727,0.0799 -57.21615,0.0591 l -57.21614,-0.0379 z m 53.03551,-10.73368 4.6829,-3.1862 3.49094,2.12321 3.49094,2.12321 1.08657,-0.89218 c 3.98992,-3.27607 7.47817,-6.33515 7.71621,-6.76687 0.15379,-0.27893 1.57755,-1.55126 3.16389,-2.8274 l 2.88427,-2.32024 -6.40928,-1.09823 c -3.5251,-0.60403 -6.46996,-1.15892 -6.54414,-1.2331 -0.13184,-0.13184 0.34572,-4.99794 0.50626,-5.15848 0.0447,-0.0447 2.44787,-0.32459 5.3404,-0.622 5.07436,-0.52174 5.65548,-0.62085 5.36191,-0.91442 -0.0745,-0.0745 -3.14408,-1.20248 -6.82128,-2.50661 l -6.68583,-2.37115 -4.29154,2.17588 -4.29155,2.17588 -0.75606,-2.68355 -0.75605,-2.68356 -3.58719,-1.11152 c -1.97296,-0.61133 -3.72184,-1.28233 -3.88641,-1.4911 -0.38313,-0.48604 -6.48795,-2.54685 -6.75463,-2.28017 -0.1104,0.11039 0.68742,1.55135 1.77292,3.20212 1.0855,1.65077 1.97364,3.11741 1.97364,3.2592 0,0.14179 -1.50835,2.12379 -3.35188,4.40444 -4.17605,5.16622 -3.89704,4.79112 -3.70595,4.98221 0.0887,0.0887 0.45222,0.19327 0.80774,0.23229 0.85471,0.0938 4.398,2.20904 4.398,2.62545 0,0.17914 1.20385,1.05603 2.67522,1.94865 2.25698,1.36921 2.74471,1.57209 3.11973,1.29777 0.24449,-0.17883 1.58433,-1.24788 2.97742,-2.37567 l 2.5329,-2.05052 h 6.68248 6.68248 l -0.19217,3.9026 c -0.10569,2.14644 -0.20938,3.92172 -0.23042,3.94507 -0.021,0.0234 -2.41951,0.29312 -5.32993,0.59946 -2.91042,0.30635 -5.32897,0.66705 -5.37457,0.80156 -0.0456,0.13451 -0.95364,-0.28407 -2.01788,-0.93019 -1.06424,-0.64611 -2.04505,-1.17475 -2.17959,-1.17475 -0.13453,0 -1.23812,2.38734 -2.45241,5.30519 -1.3045,3.13462 -2.32939,5.25854 -2.50498,5.19116 -0.16345,-0.0627 -0.49486,0.34885 -0.73648,0.91461 l -0.43929,1.02865 1.63489,-1.18725 c 0.89919,-0.65298 3.7422,-2.62104 6.3178,-4.37345 z m 94.48639,-24.28159 c 0.38014,-0.59559 6.57658,-3.56041 6.8564,-3.28058 0.24634,0.24633 1.60684,-0.29602 7.4394,-2.96567 l 2.07551,-0.94999 -0.96245,-1.12815 c -0.52935,-0.62047 -1.37857,-1.62219 -1.88716,-2.22603 l -0.9247,-1.09789 0.93612,-3.7173 c 0.51487,-2.04451 0.93613,-3.76452 0.93613,-3.82225 0,-0.0577 -1.63711,0.17297 -3.63802,0.51265 -2.00091,0.33969 -3.70785,0.61899 -3.79319,0.62067 -0.0853,0.002 -0.85925,-0.82807 -1.71979,-1.84388 -0.86055,-1.01581 -1.66363,-1.84925 -1.78462,-1.85208 -0.2443,-0.006 -7.6813,5.77002 -7.77919,6.04149 -0.0339,0.0941 0.83585,1.30216 1.93283,2.68461 l 1.99452,2.51354 -0.17092,3.70416 -0.17091,3.70417 -1.47777,1.98438 c -0.81277,1.0914 -1.77613,2.3812 -2.14079,2.86621 l -0.66302,0.88185 2.36325,-1.14643 c 1.29978,-0.63053 2.46005,-1.2981 2.57837,-1.48348 z m -11.76753,-6.61182 c 2.08028,-4.8354 2.11959,-4.78949 -1.35867,-1.58652 l -1.79858,1.65623 0.41912,1.85208 c 0.48724,2.15311 0.63721,2.62902 0.78264,2.48359 0.0581,-0.0581 0.9381,-2.04055 1.95549,-4.40538 z M 370.39646,178.7215 c 0.26976,-0.32505 0.25168,-0.39688 -0.0999,-0.39688 -0.2361,0 -0.42927,0.1786 -0.42927,0.39688 0,0.21828 0.0449,0.39687 0.0999,0.39687 0.0549,0 0.24811,-0.17859 0.42927,-0.39687 z m 50.38686,-14.78096 c 2.17386,-1.98417 4.08532,-3.60758 4.24768,-3.60758 0.16235,0 0.87958,0.3706 1.59382,0.82356 0.71425,0.45297 1.33977,0.70016 1.39005,0.54933 0.0503,-0.15083 1.65611,0.66524 3.56853,1.8135 1.91241,1.14826 3.50642,2.05844 3.54225,2.02261 0.0684,-0.0684 -0.88938,-7.05051 -1.09996,-8.01871 -0.0971,-0.4463 -0.37919,-0.59202 -1.38237,-0.71403 -0.69322,-0.0843 -2.41465,-0.29233 -3.82539,-0.46226 l -2.56499,-0.30898 -0.57253,-2.54886 c -0.3149,-1.40188 -0.68419,-2.66794 -0.82066,-2.81346 -0.13646,-0.14552 -2.17717,-1.10553 -4.53489,-2.13335 -3.81258,-1.66205 -4.31492,-1.95473 -4.54124,-2.64583 -0.13996,-0.42739 -0.26999,-0.80765 -0.28896,-0.84504 -0.10991,-0.2166 -7.41311,-1.34274 -7.5861,-1.16976 -0.27492,0.27493 1.79647,7.17244 2.26924,7.55636 0.20045,0.16278 1.53502,4.07484 2.96572,8.69348 2.59946,8.3917 2.60164,8.39718 3.14429,7.90707 0.29866,-0.26975 2.32164,-2.11387 4.49551,-4.09805 z m 18.85476,-19.54059 c 2.3719,-0.46847 4.30792,-0.91496 4.30227,-0.99219 -0.006,-0.0772 -0.81257,-1.56706 -1.79316,-3.31073 l -1.78288,-3.17029 -6.47507,-1.41852 c -3.56129,-0.78019 -6.50113,-1.44336 -6.53297,-1.47372 -0.0319,-0.0303 -0.11779,-1.2396 -0.19099,-2.68722 -0.11808,-2.33532 -0.19173,-2.64695 -0.65322,-2.76433 -0.43252,-0.11 0.0231,-0.70235 2.70453,-3.51632 1.77356,-1.86122 3.3306,-3.37926 3.46008,-3.37344 0.12947,0.006 0.3676,0.17374 0.52916,0.37313 0.17701,0.21844 3.23814,0.91152 7.70209,1.74384 4.07458,0.75973 7.61033,1.43603 7.85722,1.5029 0.32607,0.0883 1.07374,-0.71032 2.73278,-2.91908 1.25614,-1.67236 2.44648,-3.07735 2.6452,-3.12219 0.5403,-0.12194 7.53313,-9.17529 7.37557,-9.54888 -0.0747,-0.17724 -2.28163,-2.04865 -4.90418,-4.15871 -2.62254,-2.11005 -4.84814,-4.0339 -4.94576,-4.27523 -0.0976,-0.24132 -0.93493,-1.04349 -1.86069,-1.782595 l -1.68319,-1.343824 -1.67128,1.518012 c -0.91921,0.834907 -2.69805,2.461007 -3.95298,3.613557 -2.24094,2.05812 -2.29049,2.08647 -2.77384,1.5875 -3.74421,-3.8652 -11.0485,-12.167417 -10.7595,-12.229494 0.32446,-0.06969 1.60063,-1.447659 3.16554,-3.418046 0.48277,-0.607848 0.47326,-0.631881 -1.81068,-4.576204 -1.2628,-2.180831 -2.37416,-3.922052 -2.46969,-3.869376 -2.63661,1.453801 -11.1539,6.633946 -11.1539,6.783708 0,0.114395 0.60015,0.665671 1.33367,1.225058 0.73351,0.559385 1.23141,1.051147 1.10643,1.092806 -0.24634,0.08211 -3.74259,-0.610584 -3.87127,-0.767001 -0.0431,-0.05243 -0.64035,-1.135234 -1.32714,-2.406232 -0.68679,-1.270997 -1.58251,-2.580685 -1.99048,-2.910416 -0.40797,-0.329732 -0.87002,-0.849141 -1.02678,-1.154243 l -0.28502,-0.55473 -2.85669,0.520636 c -1.57117,0.286351 -2.94805,0.603544 -3.05973,0.704874 -0.25272,0.229285 4.02535,9.541243 4.3834,9.541243 0.14314,0 1.28701,-0.647859 2.54193,-1.439685 1.25492,-0.791829 2.45844,-1.503318 2.67449,-1.581087 0.28681,-0.10324 1.01759,0.996045 2.70792,4.073457 1.27331,2.31817 2.31511,4.330128 2.31511,4.471019 0,0.140888 -1.38338,1.842953 -3.07416,3.782373 -4.91134,5.63355 -7.41632,9.14961 -10.39429,14.58971 -1.49878,2.73794 -2.66936,5.03376 -2.6013,5.10183 0.0681,0.0681 1.34633,0.4732 2.84058,0.9003 1.49425,0.4271 2.76249,0.82221 2.8183,0.87802 0.0558,0.0558 1.09885,2.23257 2.31788,4.83725 l 2.21642,4.73577 4.2612,1.83032 c 2.34366,1.00668 4.2612,1.9762 4.2612,2.15451 0,0.1783 0.15727,0.38453 0.34948,0.45829 0.19222,0.0738 1.5912,0.94807 3.10886,1.94292 1.51765,0.99484 2.87843,1.80928 3.02395,1.80987 0.14552,5.3e-4 1.57348,0.86542 3.17323,1.92185 1.59976,1.05643 3.08216,1.92079 3.29423,1.92079 0.21206,0 2.32622,-0.3833 4.69812,-0.85176 z m 2.19588,-34.34324 c -1.09141,-0.27259 -2.67165,-0.57716 -3.51165,-0.67683 -0.84,-0.0997 -1.57552,-0.25926 -1.63449,-0.35467 -0.17571,-0.28432 3.57868,-3.55016 3.79014,-3.29695 0.10694,0.12805 0.90498,1.06626 1.77343,2.0849 2.32083,2.72224 2.36254,2.78185 1.93007,2.75865 -0.19972,-0.0107 -1.25609,-0.24251 -2.3475,-0.5151 z m 55.29253,-2.25989 c 3.13592,-0.39305 3.67745,-0.51129 3.42292,-0.74737 -0.0606,-0.0562 -1.69255,-0.89289 -3.62648,-1.85924 l -3.51624,-1.75699 -0.42097,0.99934 c -0.23153,0.54964 -0.44876,1.55011 -0.48273,2.22326 -0.034,0.67316 -0.14918,1.36536 -0.25603,1.53823 -0.14131,0.22866 0.0472,0.27375 0.69169,0.16547 0.48726,-0.0819 2.37179,-0.33508 4.18784,-0.5627 z m -47.61961,-12.0222 c 2.25557,-0.290714 4.20466,-0.528706 4.3313,-0.528868 0.21292,-2.64e-4 0.1823,-1.155197 -0.26065,-9.831872 L 453.42006,82.329182 450.0744,81.0756 c -1.84011,-0.68947 -3.48597,-1.305129 -3.65748,-1.368129 -0.1715,-0.063 -2.16555,2.354443 -4.43121,5.372095 -4.10645,5.469403 -4.11752,5.487914 -3.52463,5.892946 0.98413,0.672311 6.14431,4.91622 6.2392,5.131342 0.1202,0.272481 0.15831,0.26987 4.8066,-0.329234 z m 47.36042,-28.249168 4.6302,-1.15534 2.33851,-2.164934 2.33851,-2.164934 -0.57226,-5.953125 c -0.31474,-3.274219 -0.65939,-6.179251 -0.76588,-6.455626 -0.14386,-0.373371 -0.8357,-0.659555 -2.69228,-1.113671 -1.37428,-0.336143 -2.67727,-0.613491 -2.89555,-0.616329 -0.41976,-0.0055 -2.03544,2.074387 -1.90886,2.457239 0.0409,0.123606 -1.06758,1.752759 -2.46321,3.620339 -1.90039,2.543015 -2.71639,3.432145 -3.24991,3.54115 -0.39182,0.08005 -3.69439,0.684974 -7.33904,1.344269 l -6.62664,1.198718 -2.4701,-1.07134 c -1.35855,-0.589237 -2.49538,-1.037373 -2.52628,-0.995857 -0.37234,0.500256 -2.81149,5.296276 -2.73333,5.37444 0.0582,0.05818 2.98789,1.469978 6.51046,3.137331 l 6.40467,3.03155 1.50058,-2.095898 c 0.82531,-1.152744 1.63549,-2.095898 1.80039,-2.095898 0.16491,0 1.48294,1.367625 2.92896,3.039165 l 2.62913,3.039169 0.26586,-1.37254 0.26586,-1.372539 z m -61.79859,2.191953 c 2.95542,-0.827644 4.3121,-1.099749 4.54004,-0.91058 0.22447,0.186299 0.85361,0.128953 2.03299,-0.185306 l 1.70792,-0.455096 1.81429,-3.658402 c 0.99786,-2.012121 1.9563,-3.658402 2.12987,-3.658402 0.17357,0 1.60572,-2.384426 3.18255,-5.298724 l 2.86697,-5.298723 1.52135,0.165327 c 0.83674,0.09093 1.52105,0.06434 1.52068,-0.05909 -2.6e-4,-0.123428 -0.58943,-1.109098 -1.30903,-2.190376 -0.7196,-1.081278 -1.23961,-2.077194 -1.15559,-2.213146 0.0942,-0.152497 -1.96347,-0.173854 -5.3717,-0.05575 l -5.52446,0.191434 -2.84428,1.092142 c -1.56434,0.600678 -2.84427,1.166081 -2.84427,1.256451 0,0.09037 1.33946,0.243677 2.97657,0.340682 3.96266,0.234804 6.01968,0.46067 6.01736,0.66072 -0.003,0.272926 -5.28508,7.003712 -5.94251,7.572596 -0.33635,0.291042 -1.294,1.451901 -2.12812,2.579688 -0.83412,1.127786 -1.53192,2.056423 -1.55067,2.063637 -0.0188,0.0072 -2.03377,0.230887 -4.47784,0.497049 -2.44406,0.266163 -4.4979,0.538087 -4.56409,0.604275 -0.15265,0.152654 2.82471,8.147022 3.03271,8.142971 0.0849,-0.0016 2.05103,-0.534173 4.36926,-1.183375 z"
         id="path1711" />
      <path
         style="fill:#013500;stroke-width:0.264583"
         d="m 383.96507,226.66533 c 0.0723,-0.18844 0.62737,-1.55195 1.23347,-3.03002 l 1.10199,-2.6874 -2.1312,-3.81971 c -1.17216,-2.10084 -2.13121,-3.89184 -2.13121,-3.97999 0,-0.0881 1.36922,0.52129 3.04271,1.35431 1.67349,0.83302 3.04271,1.67172 3.04271,1.86377 0,0.19206 -0.18921,0.71509 -0.42046,1.16228 -0.41597,0.80439 -0.40252,0.80006 1.25677,-0.40454 0.92248,-0.66969 3.78454,-2.65142 6.36014,-4.40383 l 4.6829,-3.1862 3.49094,2.12321 3.49094,2.12321 1.08657,-0.89218 c 3.98992,-3.27607 7.47817,-6.33515 7.71621,-6.76687 0.3585,-0.65019 5.80785,-5.04258 6.256,-5.04258 0.18614,0 2.54225,2.18785 5.23578,4.86188 l 4.89734,4.86187 5.01581,-2.08375 c 2.75869,-1.14606 5.02385,-2.08375 5.03369,-2.08375 0.16869,0 4.16638,8.49418 4.05168,8.60889 -0.34317,0.34317 -3.88178,1.1078 -4.103,0.88659 -0.13092,-0.13092 -1.65441,0.15813 -3.52683,0.66915 -1.81299,0.49479 -3.80237,1.03413 -4.42083,1.19853 -0.61846,0.1644 -1.12448,0.39859 -1.12448,0.52043 0,0.12184 0.56674,0.61225 1.25942,1.08981 1.14126,0.78681 1.38332,1.15318 2.57969,3.90448 0.72615,1.66991 1.35995,3.13943 1.40846,3.26562 0.0494,0.12859 -11.91066,0.22942 -27.21425,0.22942 -22.23881,0 -27.27805,-0.0635 -27.17096,-0.34263 z m 91.20639,0.11895 c 0,-0.2406 1.14455,-1.13568 10.31875,-8.06963 3.27422,-2.47469 6.00011,-4.53547 6.05752,-4.57951 0.0574,-0.044 -1.41911,-1.69584 -3.28118,-3.67068 -1.92868,-2.04548 -3.28296,-3.68609 -3.1471,-3.8125 0.13116,-0.12204 1.4291,-1.26111 2.8843,-2.53127 1.45521,-1.27015 2.62156,-2.39819 2.59188,-2.50676 -0.18194,-0.66569 -0.86277,-13.03615 -0.72935,-13.25204 0.33368,-0.53991 6.53647,-3.4639 6.7965,-3.20386 0.24634,0.24633 1.60684,-0.29602 7.4394,-2.96567 l 2.07551,-0.94999 -0.96245,-1.12815 c -0.52935,-0.62047 -1.37791,-1.62139 -1.8857,-2.22425 l -0.92325,-1.09612 0.96749,-3.86482 c 0.62954,-2.51482 1.08843,-3.86482 1.31372,-3.86482 0.4724,0 0.75673,-1.00354 0.40455,-1.42789 -0.20987,-0.25289 -0.0402,-1.17806 0.6396,-3.48845 0.50888,-1.72936 0.92523,-3.27553 0.92523,-3.43593 0,-0.1604 -2.08359,-1.28345 -4.63021,-2.49565 -2.54661,-1.21221 -4.63021,-2.28571 -4.63021,-2.38557 0,-0.0999 1.28856,-0.75411 2.86347,-1.45391 l 2.86346,-1.27236 0.73924,-2.74901 c 0.40659,-1.51196 0.69561,-2.79096 0.64227,-2.84222 -0.0533,-0.0513 -1.73735,0.0904 -3.74225,0.3147 -2.0049,0.22434 -3.7139,0.33927 -3.79777,0.2554 -0.0839,-0.0839 0.66353,-2.90474 1.6609,-6.26859 l 1.81339,-6.1161 1.35513,-0.77971 c 0.74531,-0.42885 1.46543,-0.77972 1.60025,-0.77972 0.13482,0 0.78101,1.74568 1.43598,3.87929 0.82159,2.67638 1.31799,3.89795 1.60085,3.93946 0.2255,0.0331 1.08134,0.50592 1.90186,1.05072 1.0506,0.69755 1.59069,0.91398 1.82598,0.7317 0.18377,-0.14237 2.64946,-2.13182 5.47932,-4.42101 l 5.1452,-4.16216 1.65868,1.67381 1.65869,1.67382 0.009,2.54176 0.009,2.54176 -4.36562,1.92 c -2.4011,1.05601 -4.36563,2.02669 -4.36563,2.15707 0,0.13038 0.77391,0.61869 1.71979,1.08513 0.94589,0.46643 1.71924,0.91181 1.71856,0.98971 -7.9e-4,0.0779 -1.25582,0.60758 -2.78921,1.17704 -1.53338,0.56946 -2.83924,1.11834 -2.9019,1.21973 -0.0969,0.15686 3.77036,13.7267 3.98138,13.97009 0.0408,0.0471 0.74005,0.17599 1.55384,0.28642 0.81378,0.11043 1.54703,0.26821 1.62944,0.35062 0.0824,0.0824 -0.21377,0.87012 -0.65817,1.75047 -0.4444,0.88036 -0.74218,1.77218 -0.66173,1.98183 0.0805,0.20965 -0.49999,1.66945 -1.28988,3.24399 l -1.43616,2.8628 3.56984,4.77329 c 1.96341,2.62531 3.7331,4.90548 3.93265,5.06704 0.29685,0.24036 0.3628,2.29954 0.3628,11.32816 v 11.03442 l -5.22552,-2.69825 c -3.25719,-1.68188 -5.63266,-3.08827 -6.3064,-3.73369 l -1.08089,-1.03545 -3.53225,4.30441 -3.53225,4.30441 2.19007,4.19433 c 1.20454,2.30687 2.13652,4.24787 2.07108,4.31331 -0.0654,0.0654 -2.01116,0.78542 -4.32381,1.59994 -2.31265,0.81452 -4.4833,1.5866 -4.82366,1.71572 -0.59421,0.22543 -0.52709,0.33473 1.68623,2.74592 l 2.30508,2.51115 H 489.359 c -7.80328,0 -14.18779,-0.10066 -14.18779,-0.22368 z m 28.575,-16.84447 c 0,-0.27154 -5.29869,-10.7131 -5.43648,-10.7131 -0.32676,0 -6.88336,2.18732 -7.06666,2.35748 -0.22375,0.20771 0.17823,6.83705 0.42983,7.08866 0.12248,0.12247 6.06855,0.81595 11.74258,1.36951 0.1819,0.0178 0.33073,-0.0284 0.33073,-0.10255 z M 374.10062,194.23623 c -0.3638,-0.26168 -3.37013,-2.05933 -6.68072,-3.99476 -3.3106,-1.93543 -6.01928,-3.60187 -6.01928,-3.70319 0,-0.10131 1.84964,-1.90015 4.1103,-3.99741 2.26066,-2.09726 3.99511,-3.8516 3.85432,-3.89853 -0.14079,-0.0469 -2.40838,0.22583 -5.0391,0.60614 -2.63071,0.38031 -4.8956,0.62194 -5.03309,0.53697 -0.33444,-0.2067 -6.73432,0.89168 -6.83487,1.17303 -0.11231,0.31428 -4.80492,-2.43554 -4.81092,-2.81915 -0.003,-0.17467 -0.1939,-0.42331 -0.42482,-0.55254 -0.35899,-0.2009 -0.10945,-0.85484 1.72135,-4.51106 1.17766,-2.35186 2.0512,-4.27791 1.9412,-4.28012 -0.10999,-0.002 -2.7003,-0.17829 -5.75624,-0.3913 -3.05594,-0.213 -5.70508,-0.38979 -5.88698,-0.39286 -0.25046,-0.004 -0.33073,-1.02515 -0.33073,-4.20661 v -4.20104 l 7.55918,-4.3085 7.55918,-4.30851 -0.14465,-1.87536 c -0.0795,-1.03144 -0.21051,-2.76832 -0.29101,-3.85972 l -0.14636,-1.98438 5.54509,-4.29314 c 3.0498,-2.36122 5.67837,-4.32575 5.84126,-4.36562 0.1629,-0.0399 0.6589,0.85644 1.10222,1.99179 0.44333,1.13536 0.91147,2.02833 1.04033,1.98438 0.64061,-0.21851 8.92861,-7.96646 8.82119,-8.24639 -0.10178,-0.26523 4.04637,-4.21847 7.29303,-6.95036 l 0.74197,-0.62433 3.33616,4.4578 c 1.83489,2.45179 3.33616,4.54096 3.33616,4.64258 0,0.10163 -0.73312,0.10183 -1.62917,5.3e-4 l -1.62916,-0.18432 0.87718,1.56024 c 0.48246,0.85814 1.28656,2.27075 1.78689,3.13915 l 0.90969,1.57891 -0.65781,0.53776 c -3.85888,3.15461 -9.10563,7.96735 -8.84246,8.11101 0.17672,0.0965 1.77982,0.50791 3.56245,0.91432 1.78263,0.40642 3.24114,0.82019 3.24114,0.91949 0,0.0993 -1.82296,1.56593 -4.05103,3.25917 l -4.05103,3.0786 -3.55574,-1.52772 c -3.41526,-1.46736 -3.57638,-1.57193 -4.07806,-2.64689 -0.28728,-0.61555 -0.58493,-1.11818 -0.66146,-1.11697 -0.11558,0.002 -5.93864,4.82254 -6.73702,5.57733 -0.14884,0.14072 0.0925,0.353 0.60397,0.53131 0.60351,0.21038 0.81308,0.42351 0.71886,0.73107 -0.0731,0.23877 -0.90923,2.92576 -1.85798,5.97108 -0.94875,3.04533 -1.69647,5.55653 -1.66161,5.58046 0.23888,0.16392 13.09074,5.22864 13.3331,5.25436 0.48271,0.0512 4.05955,-3.03214 4.06918,-3.50779 0.005,-0.23571 0.53502,-0.87855 1.17833,-1.42852 l 1.16966,-0.99996 0.30101,1.13225 c 1.39751,5.25678 1.79267,6.40686 2.26598,6.5949 0.27517,0.10931 2.10764,0.45171 4.07218,0.76088 4.1216,0.64865 4.55228,0.75048 4.37657,1.03478 -0.21461,0.34726 1.90923,7.66425 2.35364,8.10866 0.52888,0.52887 0.54821,1.27778 0.0278,1.07809 -0.21214,-0.0814 -1.78971,-0.5813 -3.50573,-1.11087 -1.71601,-0.52958 -3.25467,-1.13392 -3.41924,-1.34298 -0.42878,-0.54472 -6.49563,-2.5397 -6.79944,-2.23589 -0.15098,0.15098 -1.05063,-0.0394 -2.33633,-0.49435 l -2.0908,-0.73987 -2.83607,2.22891 c -1.55983,1.2259 -2.87208,2.33023 -2.91611,2.45407 -0.044,0.12384 0.64059,2.33192 1.52136,4.90686 0.88077,2.57494 1.6014,4.78859 1.6014,4.91923 0,0.35347 -0.31939,0.2765 -1.05834,-0.25502 z m -3.70416,-15.51473 c 0.26976,-0.32505 0.25168,-0.39688 -0.0999,-0.39688 -0.2361,0 -0.42927,0.1786 -0.42927,0.39688 0,0.21828 0.0449,0.39687 0.0999,0.39687 0.0549,0 0.24811,-0.17859 0.42927,-0.39687 z m 50.86615,14.24456 c -0.61847,-0.21892 -1.12448,-0.55537 -1.12448,-0.74767 0,-0.20786 -1.26654,-0.79624 -3.12325,-1.45095 l -3.12325,-1.1013 -0.57323,-2.93034 c -0.31527,-1.61169 -0.51718,-3.02102 -0.44869,-3.13185 0.0685,-0.11082 1.49378,-0.95406 3.16731,-1.87387 1.67352,-0.91981 3.04277,-1.81068 3.04277,-1.9797 0,-0.16902 -0.71685,-2.67232 -1.59301,-5.56289 -0.87616,-2.89057 -1.56076,-5.40191 -1.52135,-5.58077 0.0942,-0.42753 8.69741,-8.27376 9.07198,-8.27376 0.15883,0 0.87317,0.3706 1.58741,0.82356 0.71425,0.45297 1.33977,0.70016 1.39005,0.54933 0.0503,-0.15083 1.65611,0.66524 3.56853,1.8135 1.91241,1.14826 3.50568,2.05918 3.5406,2.02426 0.0959,-0.0959 -1.12023,-8.36714 -1.24846,-8.49076 -0.0612,-0.0591 -1.77825,-0.30799 -3.81554,-0.55318 -2.03729,-0.24519 -3.73161,-0.47288 -3.76516,-0.50597 -0.0335,-0.0331 -0.64637,-2.6124 -1.36184,-5.73181 -0.81754,-3.56445 -1.20226,-5.73302 -1.03551,-5.83684 0.16886,-0.10513 0.004,-1.28898 -0.4534,-3.25593 -0.39531,-1.69991 -0.67579,-3.12946 -0.62329,-3.17679 0.0525,-0.0473 1.33018,0.72847 2.83929,1.72397 1.50912,0.9955 2.82584,1.78501 2.92606,1.75447 0.10021,-0.0305 1.52375,0.82998 3.16341,1.91226 l 2.98121,1.96779 4.60993,-0.89681 c 2.53546,-0.49324 4.6053,-0.96203 4.59965,-1.04174 -0.006,-0.0797 -0.81257,-1.57157 -1.79316,-3.31524 l -1.78288,-3.17029 -6.47507,-1.41852 c -3.56129,-0.78019 -6.50113,-1.44336 -6.53297,-1.47372 -0.0319,-0.0303 -0.11779,-1.2396 -0.19099,-2.68722 -0.11808,-2.33532 -0.19173,-2.64695 -0.65322,-2.76433 -0.43252,-0.11 0.0231,-0.70235 2.70453,-3.51632 1.77356,-1.86122 3.34372,-3.37687 3.48925,-3.36811 0.45704,0.0275 3.62686,6.14153 3.33526,6.43313 -0.40231,0.40231 1.16821,3.31532 1.98904,3.68932 0.45758,0.20849 1.03968,1.03058 1.7973,2.53831 l 1.12053,2.22995 1.51312,-2.15938 c 0.98398,-1.40426 1.62465,-2.09186 1.83206,-1.96628 0.17541,0.10621 3.39718,2.32007 7.15947,4.9197 3.7623,2.59963 6.86622,4.68937 6.8976,4.64387 0.0314,-0.0455 0.20426,-0.59504 0.38417,-1.22119 0.17991,-0.62616 0.49328,-1.20224 0.69638,-1.28017 0.20309,-0.0779 0.50406,-0.55015 0.66882,-1.04935 0.28981,-0.87814 0.20339,-1.07953 -2.65801,-6.19431 -1.80457,-3.22569 -3.11302,-5.28667 -3.35632,-5.28667 -0.3312,0 -0.37252,-0.30258 -0.24391,-1.78593 0.0852,-0.98227 0.22838,-2.68811 0.31824,-3.79076 l 0.16339,-2.00483 3.66576,-4.68451 c 2.01616,-2.57649 3.60456,-4.82948 3.52976,-5.00664 -0.0748,-0.17717 -2.33176,-2.09941 -5.01548,-4.27166 -2.68371,-2.17225 -4.88016,-4.07725 -4.88099,-4.23333 -8e-4,-0.15609 -1.25913,-1.28174 -2.7962,-2.50145 -1.53708,-1.219708 -2.69726,-2.304418 -2.57817,-2.410463 0.11908,-0.106045 1.46667,-0.335397 2.99463,-0.509672 1.52797,-0.174276 3.23793,-0.386837 3.79992,-0.472358 l 1.02178,-0.155493 -0.16449,-3.334888 c -0.0905,-1.834187 -0.23554,-4.726083 -0.32238,-6.426431 l -0.15789,-3.091542 -4.27128,-1.572845 c -2.3492,-0.865066 -4.92612,-1.781876 -5.72649,-2.037358 -0.80036,-0.255482 -1.49692,-0.500102 -1.54792,-0.543597 -0.051,-0.0435 0.29092,-0.556448 0.75979,-1.139894 l 0.85249,-1.060812 -1.12965,-2.065579 c -0.6213,-1.13607 -1.47193,-2.675334 -1.8903,-3.420586 l -0.76065,-1.355005 1.8199,-0.472022 1.8199,-0.472022 1.81661,-3.663077 c 0.99913,-2.014693 1.95728,-3.663077 2.12922,-3.663077 0.17193,0 1.59419,-2.351485 3.16057,-5.225521 1.56638,-2.874037 2.86832,-5.255839 2.89321,-5.292894 0.0648,-0.09643 11.27507,0.936795 11.38787,1.049588 0.0516,0.05157 -1.79934,2.228949 -4.11312,4.838618 -2.31379,2.609669 -4.15779,4.793945 -4.09779,4.853947 0.06,0.06 -0.71685,1.074254 -1.72633,2.253893 l -1.83542,2.144798 0.72091,0.366327 c 0.55696,0.283015 10.62526,5.832173 10.81809,5.962406 0.0237,0.01598 -0.25171,1.100609 -0.61193,2.410297 -0.36022,1.309687 -0.69365,3.214687 -0.74095,4.233333 -0.0473,1.018646 -0.17956,2.081112 -0.2939,2.361039 -0.16778,0.41077 -0.12044,0.475398 0.24541,0.335007 0.24932,-0.09567 1.43353,-0.375716 2.63158,-0.622321 l 2.17827,-0.448376 5.28572,3.115582 c 2.90714,1.713569 5.39882,3.223102 5.53707,3.354512 0.13824,0.131414 0.32833,0.238932 0.42241,0.238932 0.0941,0 0.98768,-1.015391 1.98577,-2.256425 1.28931,-1.603134 1.93305,-2.208609 2.22342,-2.091282 0.22479,0.09083 0.55889,0.226504 0.74244,0.301506 0.19892,0.08128 0.28196,-0.0091 0.20557,-0.223819 -1.14758,-3.225332 -3.24854,-10.446648 -3.1077,-10.681645 0.85587,-1.427975 4.7128,-6.479585 4.94719,-6.479585 0.16385,0 1.48101,1.367625 2.92703,3.039165 l 2.62913,3.039169 0.26586,-1.371124 0.26586,-1.371124 4.60943,-1.151667 4.60944,-1.151668 2.33587,-2.132506 c 1.28474,-1.172879 2.33588,-2.283584 2.33588,-2.468234 0,-0.184651 1.01203,-1.25452 2.24896,-2.377488 1.23693,-1.122968 2.24896,-1.919286 2.24896,-1.769595 0,0.149691 -0.53724,1.786611 -1.19387,3.6376 -0.65662,1.850989 -1.16264,3.396388 -1.12448,3.43422 0.0382,0.03783 1.70362,-0.321715 3.70102,-0.798995 1.99739,-0.477279 3.58974,-0.794509 3.53855,-0.704955 -0.60903,1.065445 -4.91452,8.767691 -5.12894,9.175329 -0.24674,0.469096 -0.0847,0.799811 1.15248,2.352275 0.90258,1.132589 1.3559,1.915944 1.21524,2.099996 -2.27238,2.973472 -4.84965,6.567236 -7.70551,10.744602 -1.93996,2.837657 -3.56452,5.204072 -3.61014,5.258697 -0.0456,0.05463 -2.24475,-1.119632 -4.88698,-2.609463 l -4.80407,-2.708786 -1.90186,2.080297 c -1.04603,1.144164 -2.31216,2.525768 -2.81363,3.070233 l -0.91177,0.989933 -3.69952,-3.062846 c -2.03473,-1.684565 -3.78307,-3.114489 -3.88521,-3.177611 -0.25243,-0.156012 -4.33812,5.183375 -4.25698,5.56324 0.0355,0.16619 -1.37496,2.130756 -3.13434,4.3657 l -3.19889,4.06354 3.71243,3.73301 3.71243,3.73302 0.29556,3.56476 c 0.16256,1.96061 0.41428,3.63812 0.55936,3.72779 0.20573,0.12715 0.99902,7.70556 1.02611,9.80253 0.004,0.29579 0.18778,0.39421 0.60082,0.32144 0.45653,-0.0804 1.36632,0.58129 3.90261,2.83851 1.81901,1.61886 3.39559,3.09898 3.50352,3.28914 0.13183,0.23228 -0.76101,1.23536 -2.72058,3.05649 l -2.91681,2.71074 4.0435,1.96524 4.04349,1.96525 1.19063,-0.57588 c 1.36202,-0.65878 1.47668,-0.85831 -1.3741,2.39128 -3.77727,4.30568 -7.85821,9.35642 -7.72892,9.56562 0.075,0.12133 -0.30664,0.75054 -0.84806,1.39824 l -0.98439,1.17765 -2.77682,-2.58735 -2.77683,-2.58735 -2.94466,1.67518 -2.94467,1.67518 -6.86859,-2.48008 c -3.77773,-1.36404 -8.17449,-2.9649 -9.77059,-3.55745 -1.59611,-0.59256 -2.94918,-1.03019 -3.00685,-0.97253 -0.11357,0.11357 1.41666,3.02297 4.8707,9.2606 1.20872,2.18281 2.26836,4.15478 2.35477,4.38214 0.12177,0.3204 -0.69312,0.82036 -3.62246,2.22247 -4.03081,1.92933 -10.44715,5.35614 -10.65327,5.68965 -0.0683,0.11057 0.88475,3.14212 2.11796,6.73681 1.2332,3.59468 2.24219,6.63138 2.24219,6.74822 0,0.11684 -0.74414,0.41665 -1.65365,0.66625 -3.78172,1.03782 -4.43177,1.25116 -4.43177,1.45448 0,0.11743 0.65485,0.61039 1.45521,1.09546 0.80037,0.48507 1.45521,0.95938 1.45521,1.05401 0,0.18554 -9.82244,6.6648 -9.91277,6.53885 -0.0299,-0.0417 -0.68005,-1.18034 -1.44473,-2.53029 l -1.39034,-2.45444 -2.62742,2.42248 c -1.44509,1.33237 -2.69151,2.52616 -2.76983,2.65288 -0.17796,0.28796 -0.2555,0.27802 -1.63251,-0.20941 z M 405.8945,149.87281 c -1.64936,-0.18927 -3.03984,-0.38512 -3.08995,-0.43523 -0.0501,-0.0501 1.04386,-1.02387 2.43104,-2.1639 1.38717,-1.14003 2.61772,-1.97206 2.73454,-1.84894 0.11682,0.12311 0.47119,1.10223 0.78749,2.17582 0.31631,1.07359 0.6378,2.11539 0.71444,2.3151 0.0782,0.20377 -0.0182,0.34955 -0.21969,0.3322 -0.19747,-0.017 -1.70851,-0.18579 -3.35787,-0.37505 z m -15.12512,-31.4864 c -1.81902,-0.49414 -5.56948,-1.53768 -8.33438,-2.31897 l -5.02708,-1.42052 1.91823,-1.23407 c 1.05502,-0.67873 2.74128,-1.76241 3.74723,-2.40816 1.00596,-0.64576 1.90367,-1.40933 1.99492,-1.69683 0.0983,-0.30967 3.32562,-2.58376 7.91824,-5.57946 4.26378,-2.78121 8.11889,-5.327182 8.56691,-5.657718 l 0.81457,-0.600974 -5.07172,-1.6758 c -2.78944,-0.921692 -5.1078,-1.706277 -5.15189,-1.743522 -0.0441,-0.03725 0.95774,-2.147594 2.22632,-4.689663 l 2.3065,-4.621943 3.19763,-0.590547 c 1.7587,-0.3248 3.50221,-0.650016 3.87445,-0.722702 0.64753,-0.126439 0.77231,0.07484 2.8845,4.653259 1.21422,2.631977 2.32551,4.785413 2.46953,4.785413 0.14402,0 1.2886,-0.647859 2.54352,-1.439685 1.25492,-0.791829 2.45844,-1.503318 2.67449,-1.581087 0.28681,-0.10324 1.01759,0.996045 2.70792,4.073457 1.27331,2.31817 2.31511,4.330128 2.31511,4.471019 0,0.140888 -1.38428,1.842953 -3.07617,3.782373 -1.6919,1.93942 -4.08771,4.86567 -5.32404,6.50278 -1.23632,1.63711 -2.27796,2.97656 -2.31474,2.97656 -0.0368,0 -2.40432,-0.88024 -5.26118,-1.95608 -2.85686,-1.07585 -5.23651,-1.87952 -5.28812,-1.78594 -0.0516,0.0936 -0.17928,0.52614 -0.28369,0.96124 -0.10442,0.43511 -0.29609,0.85676 -0.42595,0.93702 -0.12985,0.0803 -0.68283,2.25434 -1.22885,4.8313 -0.89496,4.22383 -1.04557,4.68352 -1.52887,4.66654 -0.29486,-0.0104 -2.02438,-0.42314 -3.84339,-0.91729 z m -45.8439,-8.52273 c -0.0754,-0.40018 -0.64905,-4.34964 -1.27473,-8.77659 l -1.13761,-8.048981 -0.50018,1.500547 c -0.2751,0.825301 -0.59986,1.500547 -0.7217,1.500547 -0.26384,0 -0.25956,0.02044 -1.4491,-6.919598 l -0.9366,-5.464392 0.0689,-11.804939 0.0689,-11.804939 5.00006,4.172454 c 2.75003,2.29485 5.30988,4.407699 5.68854,4.695219 1.45528,1.10499 6.78288,5.551755 6.95795,5.807567 0.10123,0.14791 0.24669,0.206296 0.32324,0.129746 0.25849,-0.258497 2.613,-12.26965 2.66671,-13.603827 0.0609,-1.513799 0.74558,-4.386616 1.32414,-5.556251 0.21595,-0.436562 0.7528,-2.393251 1.19301,-4.348197 0.44021,-1.954946 0.84631,-3.600372 0.90244,-3.656503 0.0561,-0.05613 1.92929,1.080104 4.16257,2.524967 l 4.06051,2.627024 0.21915,-0.822604 c 0.12053,-0.452432 0.3024,-0.909226 0.40416,-1.015097 0.10176,-0.105871 2.74882,1.271935 5.88237,3.061792 l 5.69736,3.254285 1.30681,-1.168083 c 0.71875,-0.642446 2.73557,-2.366471 4.48182,-3.831166 1.74625,-1.464696 3.33006,-2.8036 3.51958,-2.975342 0.27504,-0.24925 0.27982,-0.454372 0.0237,-1.016562 -0.1765,-0.387368 -0.4794,-0.704305 -0.67311,-0.704305 -0.1937,0 -1.00902,-1.309688 -1.81182,-2.910417 l -1.45963,-2.910417 6.41836,0.0061 6.41835,0.0061 2.77813,4.600989 2.77812,4.600991 2.24896,0.161011 c 1.23693,0.08856 2.69004,0.205973 3.22913,0.260925 l 0.98017,0.09991 -2.36923,-4.732928 c -1.30308,-2.60311 -2.36923,-4.793711 -2.36923,-4.868003 0,-0.07429 2.31045,-0.135076 5.13435,-0.135076 h 5.13435 l 0.84369,2.315104 c 0.46402,1.273308 1.26639,3.50573 1.78303,4.960938 0.51664,1.455208 1.10001,2.777483 1.29637,2.938387 0.392,0.321225 3.15456,7.452415 2.9617,7.645269 -0.1962,0.196203 -14.85057,-1.720326 -15.16791,-1.983691 -0.43519,-0.361177 -2.42534,-0.624313 -2.59882,-0.343614 -0.0892,0.144258 -2.44132,-0.0046 -5.76912,-0.365121 -3.09023,-0.334777 -5.67064,-0.556633 -5.73426,-0.493015 -0.0636,0.06362 0.50042,1.268729 1.25343,2.678024 l 1.3691,2.562355 -3.24226,6.976017 c -1.78324,3.836808 -3.32999,6.976015 -3.43721,6.976015 -0.10723,0 -0.27053,-0.238125 -0.3629,-0.529167 -0.0924,-0.291041 -0.32483,-0.529166 -0.51658,-0.529166 -0.19174,0 -1.2554,1.518046 -2.36369,3.373437 -1.10829,1.855391 -2.12582,3.545806 -2.26118,3.756478 -0.19282,0.300098 -1.27464,-0.601843 -4.996,-4.165275 -4.03612,-3.864835 -4.79915,-4.488963 -5.07768,-4.153353 -0.18029,0.217229 -0.40594,0.394962 -0.50146,0.394962 -0.0955,0 -0.45753,-1.012031 -0.80447,-2.248958 -0.34695,-1.236927 -0.76023,-2.250715 -0.91842,-2.252861 -0.15818,-0.0021 -2.84745,-0.238514 -5.97615,-0.525264 -3.1287,-0.28675 -5.82768,-0.523118 -5.99775,-0.525264 -0.17519,-0.0021 0.23696,1.215829 0.95091,2.81029 l 1.26011,2.814196 2.59532,1.944709 c 1.42743,1.069591 2.63487,1.984253 2.6832,2.032582 0.1878,0.187799 1.18326,7.651216 1.03967,7.794813 -0.0838,0.08376 -0.41972,-0.0872 -0.74656,-0.379915 -1.18296,-1.059408 -8.26184,-5.9871 -8.63856,-6.0134 -0.26135,-0.01826 -0.83723,1.163111 -1.78027,3.652057 l -1.39396,3.679029 1.17749,3.06718 c 0.64762,1.686951 1.17748,3.178796 1.17748,3.315216 0,0.136419 1.02681,1.297344 2.28179,2.579833 2.03055,2.075058 2.24176,2.381054 1.91823,2.779151 -1.67021,2.055165 -7.21605,8.152655 -7.41507,8.152655 -0.13855,0 -0.81294,-1.03121 -1.49865,-2.29157 l -1.24674,-2.29156 -5.02343,4.34099 c -2.76288,2.38754 -5.09783,4.34147 -5.18878,4.34208 -0.091,6e-4 -0.22707,-0.32632 -0.30249,-0.72651 z M 472.966,58.109939 l -4.45443,-1.890529 0.17707,-2.910417 c 0.0974,-1.600729 0.25918,-2.996535 0.35955,-3.101791 0.10036,-0.105256 3.09673,-0.79481 6.6586,-1.532343 3.56187,-0.737532 6.68977,-1.426441 6.95089,-1.530908 0.40423,-0.161721 0.15647,-0.562983 -1.66775,-2.70099 l -2.14251,-2.511051 6.0813,-0.07098 c 3.34472,-0.03904 8.87943,-0.03904 12.29937,0 l 6.21807,0.07098 -3.14648,4.133748 c -1.73057,2.273562 -3.07594,4.204291 -2.98973,4.290509 0.11943,0.119428 -4.83641,7.053868 -5.04119,7.053868 -0.0241,0 -3.31255,0.595313 -7.30771,1.322917 -3.99517,0.727604 -7.32619,1.310451 -7.40228,1.295216 -0.0761,-0.01524 -2.14284,-0.878439 -4.59277,-1.918229 z"
         id="path1709" />
    </g>
  </g>
</svg>
