<?xml version="1.0" encoding="UTF-8" standalone="no"?>
<svg
   width="700"
   height="700.06122"
   viewBox="0 0 185.20833 185.22454"
   version="1.1"
   id="svg5"
   xmlns="http://www.w3.org/2000/svg"
   xmlns:svg="http://www.w3.org/2000/svg">
  <defs
     id="defs2" />
  <g
     id="layer1"
     transform="translate(-498.18939,-39.914994)">
    <g
       id="g1931"
       transform="translate(69.131989,-0.93421607)">
      <path
         style="fill:#fed6aa;stroke-width:0.264583"
         d="M 429.0574,133.46957 V 40.865398 h 92.60417 92.60417 v 92.604172 92.60417 H 521.66157 429.0574 Z"
         id="path1937" />
      <path
         style="fill:#ecccac;stroke-width:0.264583"
         d="m 429.0574,180.74111 v -45.33262 l 3.42271,-2.68925 c 1.88249,-1.47909 3.52393,-2.68926 3.64764,-2.68926 0.32625,0 1.77104,9.09142 1.46121,9.19469 -0.13994,0.0466 -0.43814,0.22935 -0.66266,0.406 -0.36031,0.28348 -0.23535,0.80263 1.06444,4.42223 0.80997,2.25557 1.51183,4.14992 1.5597,4.20966 0.0781,0.0975 1.85267,-0.24874 3.48453,-0.67989 0.57718,-0.15249 0.53395,7.9e-4 -0.68416,2.42732 l -1.30026,2.59009 1.44421,3.86235 c 0.79431,2.12429 1.57843,3.99618 1.74248,4.15975 0.16406,0.16357 1.07163,0.55258 2.01682,0.86446 l 1.71854,0.56706 3.21012,-2.18738 3.21011,-2.18738 0.3105,-3.08609 0.31049,-3.08609 -1.47705,-2.94515 c -0.81238,-1.61984 -1.40679,-3.05883 -1.32093,-3.19776 0.0859,-0.13894 1.32662,-0.25261 2.75724,-0.25261 h 2.60111 l 0.19468,-5.49011 c 0.10707,-3.01956 0.27148,-6.39095 0.36534,-7.49199 l 0.17066,-2.00189 -3.18051,1.37069 -3.1805,1.37068 -0.0712,-5.78494 c -0.0392,-3.18172 -0.14179,-5.78495 -0.22807,-5.78495 -0.0863,0 -1.7101,0.79945 -3.60851,1.77655 -1.89841,0.9771 -3.60384,1.79888 -3.78985,1.82618 -0.186,0.0273 -1.90164,0.90658 -3.81252,1.95395 -1.91088,1.04738 -3.54915,1.8295 -3.64059,1.73806 -0.0914,-0.0914 -0.60852,-3.09711 -1.14907,-6.67926 l -0.9828,-6.51301 1.47288,-2.21324 c 0.81008,-1.21728 1.4038,-2.28232 1.31936,-2.36676 -0.0844,-0.0844 -1.56161,-0.50639 -3.28261,-0.93769 -1.721,-0.43129 -3.57558,-0.90139 -4.12128,-1.04467 l -0.99219,-0.2605 V 74.721869 40.865398 h 13.94354 c 7.66895,0 13.83043,0.09883 13.69219,0.219621 -0.13824,0.120791 -2.57307,1.538073 -5.41073,3.149515 -2.83766,1.611442 -6.27411,3.583624 -7.63655,4.382626 l -2.47718,1.452731 3.13863,0.165889 c 1.72626,0.09124 4.42933,0.236601 6.00685,0.323026 l 2.8682,0.157138 -1.00329,1.027458 c -0.60148,0.615978 -0.90246,1.116151 -0.75153,1.248923 0.13846,0.121806 1.72889,1.461437 3.53429,2.976957 1.80539,1.51552 3.69034,3.099587 4.18877,3.520149 l 0.90623,0.764657 -1.09959,-2.186967 c -0.62638,-1.245803 -1.00019,-2.286366 -0.86861,-2.417938 0.29371,-0.293711 16.53801,-7.402752 16.6529,-7.28786 0.047,0.04702 0.29006,1.058574 0.5401,2.247905 0.25003,1.189331 0.52194,2.16242 0.60424,2.16242 0.0823,0 0.50354,-0.797561 0.9361,-1.772359 0.43257,-0.974798 0.81615,-1.838001 0.8524,-1.918229 0.0363,-0.08023 -1.53524,-1.931808 -3.49221,-4.11462 l -3.55814,-3.96875 5.71386,-0.07141 c 3.14262,-0.03928 5.76307,-0.0222 5.82321,0.03794 0.0601,0.06015 -0.73093,1.786731 -1.75794,3.836855 -1.80365,3.600426 -1.84704,3.732017 -1.27267,3.860072 1.53362,0.341921 10.34673,1.437312 10.55055,1.311341 0.1268,-0.07837 0.23055,-0.3615 0.23055,-0.629184 0,-0.511196 -0.0117,-0.509174 5.4901,-0.947163 l 1.78594,-0.142175 2.18281,1.78083 2.18282,1.78083 0.0332,2.396241 c 0.0183,1.317933 0.10759,4.080004 0.19844,6.137936 l 0.16519,3.741695 1.94556,-0.772978 c 1.07005,-0.425139 2.37974,-0.82229 2.91041,-0.882559 0.53068,-0.06027 2.03643,-0.516037 3.34611,-1.012818 2.3534,-0.892674 2.38323,-0.896716 2.55001,-0.345595 0.3952,1.305961 3.13038,8.707477 3.26902,8.846114 0.0835,0.08352 1.50983,-1.202265 3.16958,-2.857302 2.75259,-2.744782 3.05981,-2.976362 3.49685,-2.63586 1.46579,1.142024 5.2546,4.372172 5.32982,4.543942 0.19177,0.43787 0.57519,0.101391 2.84565,-2.49729 3.69407,-4.228079 3.45951,-3.700081 2.08297,-4.688635 -0.64919,-0.466215 -1.18035,-0.947249 -1.18035,-1.068964 0,-0.121715 0.87656,-0.541 1.94791,-0.931744 l 1.94791,-0.710443 -1.53709,-6.129421 c -0.8454,-3.371181 -1.44412,-6.222712 -1.33049,-6.336734 0.36242,-0.363679 7.01689,-2.304773 7.20979,-2.10308 0.1019,0.10655 1.1346,1.352872 2.29489,2.769605 l 2.10962,2.575879 0.17513,-0.988379 c 0.24914,-1.406113 0.419,-1.91442 0.63971,-1.91442 0.10591,0 1.36278,0.838544 2.79305,1.863432 1.43026,1.024887 2.65064,1.813269 2.71195,1.751961 0.0984,-0.09841 1.66429,-8.997345 1.67206,-9.502372 0.002,-0.109141 1.71906,-0.198438 3.81639,-0.198438 h 3.81332 l 0.67672,1.785938 c 0.3722,0.982265 1.26367,3.33375 1.98104,5.225521 0.71737,1.89177 1.42419,3.413514 1.57072,3.381653 0.14652,-0.03186 1.24579,2.38718 2.4428,5.375648 2.26284,5.649401 2.30643,5.919777 0.97788,6.065616 -0.56239,0.06173 -10.93622,6.325018 -11.76187,7.101316 -0.24963,0.234712 0.0582,0.75575 1.36229,2.305529 l 1.6848,2.002284 -2.86418,2.336909 -2.86418,2.336911 -0.42726,1.877274 c -0.88108,3.871336 -0.8851,3.83136 0.60769,6.043576 0.7371,1.092338 1.32308,2.213174 1.30217,2.490743 -0.0294,0.389742 3.81414,6.411095 4.84732,7.593976 0.10958,0.125454 1.66821,-0.260983 3.46363,-0.858753 l 3.2644,-1.086856 5.39628,2.253449 c 2.96795,1.239398 5.42567,2.221148 5.46159,2.181672 0.0359,-0.03948 0.37873,-2.033289 0.7618,-4.430689 0.38307,-2.3974 0.78379,-4.446215 0.8905,-4.552921 0.1067,-0.106706 2.44596,-0.976614 5.19834,-1.933125 3.51609,-1.221918 5.06036,-1.648447 5.19274,-1.434246 0.13426,0.217239 1.03855,0.02159 3.14619,-0.680709 1.62678,-0.542065 3.01856,-0.924782 3.09287,-0.850485 0.12762,0.127625 -0.25994,5.817989 -0.60367,8.863233 l -0.15834,1.402834 3.14106,-1.99508 c 1.72758,-1.097296 3.17944,-1.881339 3.22634,-1.742321 0.0469,0.139017 0.52315,-0.02257 1.05833,-0.359088 0.53518,-0.336513 1.94014,-1.216845 3.12214,-1.956292 l 2.14908,-1.344448 3.46729,2.824945 3.46729,2.824946 0.006,2.003862 0.006,2.003864 -4.36562,3.925785 c -2.4011,2.15918 -4.36563,3.99911 -4.36563,4.08874 0,0.0896 1.02096,0.66929 2.26879,1.28815 l 2.2688,1.1252 2.03068,-1.62127 2.03069,-1.62128 0.0719,5.07037 c 0.0396,2.7887 0.0396,7.26672 0,9.95115 l -0.0719,4.88078 -2.10847,-1.85134 c -1.42831,-1.25414 -2.16727,-1.74599 -2.29076,-1.52476 -0.10025,0.17962 -1.33349,3.11972 -2.74052,6.53356 -1.40703,3.41384 -2.66364,6.40393 -2.79247,6.64465 -0.18136,0.33887 0.33693,1.11766 2.2962,3.4503 1.39174,1.65696 2.62362,3.11199 2.73751,3.2334 0.1139,0.12142 1.19005,-1.21804 2.39145,-2.97656 1.20139,-1.75852 2.28672,-3.19731 2.41185,-3.19731 0.12605,0 0.22749,20.23364 0.22749,45.37604 v 45.37605 h -26.20937 c -20.89444,0 -26.17007,-0.0671 -26.0156,-0.33073 0.88727,-1.51451 4.72349,-7.54304 4.9616,-7.79703 0.23456,-0.25022 1.39904,0.26688 5.19285,2.30597 2.68976,1.44569 4.92934,2.74512 4.97684,2.88762 0.0475,0.1425 1.77528,-0.34443 3.8395,-1.08208 2.06423,-0.73765 3.9614,-1.36382 4.21594,-1.39148 0.25454,-0.0277 2.106,-1.60705 4.11436,-3.50974 l 3.65155,-3.45943 1.07395,-2.793 1.07395,-2.79299 -1.35185,-0.14623 c -0.74352,-0.0804 -3.7331,-0.32534 -6.64351,-0.54427 -2.91042,-0.21892 -5.96639,-0.4678 -6.79106,-0.55305 l -1.49939,-0.155 -0.17023,1.54478 c -0.30355,2.7546 -0.48898,2.70345 -1.30054,-0.3587 -0.41674,-1.57246 -0.86793,-2.97808 -1.00264,-3.1236 -0.15959,-0.1724 -0.40126,-0.0701 -0.69366,0.2936 l -0.44873,0.55819 -8.16233,-3.40176 c -4.48928,-1.87098 -8.25519,-3.34438 -8.36869,-3.27423 -0.1135,0.0701 -1.07775,1.52835 -2.14277,3.24046 -1.06502,1.7121 -2.32851,3.73072 -2.80776,4.48583 l -0.87136,1.37293 -2.18501,-1.01439 c -1.20175,-0.55792 -3.3436,-1.49436 -4.75966,-2.08099 l -2.57465,-1.0666 -3.31233,2.80234 c -1.82177,1.54128 -3.31929,2.991 -3.32782,3.2216 -0.009,0.2306 -0.16829,1.90755 -0.35503,3.72656 -0.18674,1.81901 -0.32164,3.33409 -0.29977,3.36685 0.0219,0.0328 1.09133,-0.82568 2.37658,-1.90765 1.82875,-1.5395 2.43447,-1.91493 2.78597,-1.72681 0.24704,0.13221 3.41523,1.38998 7.04044,2.79504 3.6252,1.40507 6.63421,2.59515 6.68669,2.64463 0.0525,0.0495 -0.88807,1.70398 -2.09012,3.67666 l -2.18554,3.5867 h -19.44828 c -18.4941,0 -19.42919,-0.0227 -19.05898,-0.46302 0.21412,-0.25466 1.675,-1.92727 3.24641,-3.71691 l 2.8571,-3.25389 -2.98463,-4.49262 c -1.64155,-2.47094 -3.0665,-4.4595 -3.16657,-4.41903 -0.10007,0.0405 -1.19315,1.24368 -2.42908,2.67379 -2.16292,2.50274 -2.26386,2.678 -2.69334,4.6766 l -0.44619,2.07642 -2.57102,0.58422 c -1.41406,0.32132 -2.70492,0.63487 -2.86857,0.69678 -0.19481,0.0737 -0.63558,-1.65158 -1.27643,-4.99624 -0.53838,-2.80985 -1.09662,-5.66345 -1.24052,-6.34133 l -0.26165,-1.23252 -1.73234,-0.30168 c -1.37945,-0.24022 -1.82686,-0.23169 -2.19643,0.0419 -0.25525,0.18896 -1.58154,1.10526 -2.9473,2.03621 -1.36575,0.93095 -2.51641,1.71823 -2.557,1.7495 -0.25219,0.19429 -3.49807,13.69939 -3.49807,14.55439 0,0.0701 -12.68015,0.12743 -28.17812,0.12743 H 429.0574 Z m 34.66255,29.56087 c 0.74003,-1.25291 1.29529,-2.41377 1.2339,-2.57969 -0.0614,-0.16592 0.11373,-0.67629 0.38915,-1.13415 0.49976,-0.83083 0.49889,-0.84131 -0.43496,-5.2734 -0.51464,-2.44251 -0.8392,-4.53744 -0.72124,-4.6554 0.11796,-0.11796 1.8764,-0.51467 3.90764,-0.88159 2.03124,-0.36691 3.95723,-0.72641 4.27996,-0.79888 0.39408,-0.0885 1.02405,-0.87206 1.91823,-2.38594 0.73229,-1.2398 1.33144,-2.35149 1.33144,-2.47042 0,-0.11893 -2.14895,-1.20763 -4.77543,-2.41932 -2.62649,-1.2117 -4.82484,-2.28301 -4.88521,-2.3807 -0.11264,-0.18226 5.7206,-5.60451 6.20192,-5.76495 0.14705,-0.049 2.01043,0.82816 4.14084,1.94926 2.9449,1.54973 3.83727,1.91907 3.72245,1.54068 -0.13982,-0.46081 -1.22957,-5.40385 -1.22957,-5.57728 0,-0.0425 2.38125,-1.26904 5.29167,-2.72563 2.91041,-1.4566 5.29166,-2.69653 5.29166,-2.7554 0,-0.0589 -0.71437,-0.96207 -1.5875,-2.0071 -0.87312,-1.04503 -1.5875,-1.98222 -1.5875,-2.08264 0,-0.10041 1.54781,-0.94917 3.43959,-1.88611 l 3.43958,-1.70354 v -3.85064 -3.85064 l 2.13181,-2.97051 c 1.17249,-1.63378 2.2403,-2.9705 2.3729,-2.9705 0.19192,0 0.98988,-0.99023 2.50808,-3.1124 0.0377,-0.0528 11.11367,-1.6501 11.4417,-1.6501 0.0365,0 0.0663,-0.10021 0.0663,-0.22269 0,-0.12247 -1.10644,-0.93445 -2.45877,-1.8044 l -2.45877,-1.58172 -1.51868,-3.6857 c -0.83527,-2.02714 -1.60886,-3.83094 -1.71909,-4.00844 -0.15455,-0.24888 -1.04568,-0.17827 -3.89391,0.30854 l -3.69349,0.63128 -5.22552,-3.21433 c -2.87403,-1.76788 -5.22552,-3.28715 -5.22552,-3.37615 0,-0.089 2.82774,-1.50356 6.28386,-3.14345 3.45612,-1.6399 6.32524,-3.09233 6.37584,-3.22763 0.15436,-0.41279 8.56124,-4.50921 8.77712,-4.27682 0.11093,0.11942 1.94279,2.59838 4.07078,5.5088 2.12799,2.91041 3.9178,5.29166 3.97734,5.29166 0.16185,0 6.4984,-7.37962 6.4984,-7.56812 0,-0.0893 -1.75618,-1.26942 -3.90261,-2.62249 -2.14643,-1.35307 -4.01032,-2.55511 -4.14198,-2.67121 -0.13166,-0.11611 0.69603,-0.63738 1.8393,-1.15838 1.14327,-0.52101 2.11076,-0.97937 2.14998,-1.01858 0.0392,-0.0392 0.43448,-2.5056 0.87837,-5.48084 0.44389,-2.97525 0.86013,-5.6528 0.92497,-5.95012 0.0973,-0.44593 0.81423,-0.74457 4.09535,-1.70584 2.1876,-0.64089 3.97651,-1.231072 3.97536,-1.311506 -10e-4,-0.08044 -0.96371,-1.217808 -2.13903,-2.527496 -1.17532,-1.309687 -2.78044,-3.107364 -3.56693,-3.994835 l -1.42998,-1.613588 0.6356,-3.281204 c 0.34958,-1.804665 0.70798,-3.462885 0.79645,-3.684939 0.12199,-0.306216 -0.55198,-0.75356 -2.79037,-1.852084 -1.62317,-0.796591 -3.05411,-1.418685 -3.17988,-1.382429 -0.12577,0.03626 -1.53641,-0.636424 -3.13476,-1.494843 l -2.9061,-1.560762 -2.89602,3.095903 -2.89603,3.095906 4.47671,6.988397 c 3.09043,4.824331 4.37486,7.04413 4.1478,7.168376 -0.37556,0.205504 -8.61999,3.146314 -8.82056,3.146314 -0.0723,0 -0.59689,-1.01203 -1.16564,-2.248962 -0.56876,-1.236927 -1.15007,-2.248958 -1.2918,-2.248958 -0.14172,0 -0.51588,0.684609 -0.83145,1.521354 -0.31557,0.836745 -0.8737,2.325026 -1.24029,3.307296 -0.46786,1.25361 -0.80207,1.78593 -1.12128,1.78593 -0.25011,0 -1.62977,0.4781 -3.06589,1.06244 -1.43613,0.58434 -2.69343,1.03082 -2.79401,0.99219 -0.10058,-0.0386 -1.79387,-2.07604 -3.76285,-4.52755 l -3.57998,-4.4573 1.83232,-2.545731 c 1.00777,-1.400154 1.82957,-2.668588 1.82623,-2.818744 -0.003,-0.150156 -0.23545,-1.817515 -0.5158,-3.705244 -0.33727,-2.271064 -0.41869,-3.488489 -0.24065,-3.598521 0.25521,-0.157729 -1.07708,-10.639761 -1.39242,-10.955102 -0.0717,-0.07171 -2.84885,0.589954 -6.17143,1.470361 -6.28119,1.664372 -6.47543,1.677609 -6.48624,0.442058 -0.008,-0.967277 -0.44496,-0.381371 -1.48489,1.993143 l -1.07569,2.456164 1.41161,1.711024 c 2.52503,3.060613 3.60342,4.500097 3.47069,4.632828 -0.0716,0.07162 -1.00243,-0.05326 -2.06847,-0.277503 -1.06604,-0.224248 -2.02277,-0.315643 -2.12606,-0.203097 -0.1033,0.112546 -1.22692,3.16579 -2.49693,6.784988 -2.39177,6.815937 -2.42636,7.030027 -1.13744,7.041632 0.8807,0.0079 3.12188,0.580742 3.12188,0.797904 0,0.12146 -1.1586,0.60683 -2.57466,1.07859 l -2.57467,0.85776 2.63215,2.45858 2.63216,2.45858 -1.40679,2.01487 c -0.77372,1.10818 -1.34774,2.07391 -1.27558,2.14607 0.12451,0.12451 2.96585,-0.30318 3.95932,-0.59598 0.39914,-0.11763 0.42725,-0.0493 0.19618,0.47675 -0.23625,0.53789 -2.64644,8.33736 -2.64644,8.564 0,0.0476 1.19062,0.82762 2.64583,1.73336 1.45521,0.90574 2.64583,1.73391 2.64583,1.84037 0,0.10646 -1.84477,0.93319 -4.0995,1.83717 -2.70918,1.08618 -4.03834,1.74636 -3.91914,1.94658 0.38208,0.64179 4.89301,6.53448 7.31357,9.55381 1.39572,1.74098 2.41926,3.23859 2.27454,3.32804 -0.39481,0.244 -5.57403,12.54462 -5.3179,12.62999 0.12169,0.0406 1.37902,0.90338 2.79408,1.91737 1.41506,1.01399 2.83376,1.98619 3.15266,2.16045 0.50918,0.27823 0.21753,0.38545 -2.39385,0.88007 -1.63552,0.30979 -3.03263,0.6222 -3.10469,0.69426 -0.10874,0.10874 1.36886,11.46405 1.83819,14.12641 0.13982,0.79311 0.10619,0.8194 -3.03474,2.37245 -1.74687,0.86375 -3.17613,1.69665 -3.17613,1.85089 0,0.39409 -7.79536,4.22187 -8.15069,4.00226 -0.16018,-0.099 -1.94895,0.65046 -3.97505,1.66544 l -3.68383,1.84543 -0.16831,3.91723 c -0.5327,12.39753 -0.53007,11.45785 -0.0321,11.45785 0.42125,0 0.4505,0.38794 0.36272,4.80983 l -0.0955,4.80983 4.89479,1.79242 c 2.69214,0.98584 5.03901,1.79797 5.21529,1.80476 0.17627,0.007 0.92597,-1.01278 1.66601,-2.26568 z m 67.84162,-34.21257 3.14486,-3.15307 -1.56149,-2.66301 c -0.85882,-1.46466 -1.70573,-2.66515 -1.88203,-2.66776 -0.34982,-0.005 -0.35182,0.001 -1.92631,6.34525 -0.59594,2.40109 -1.14588,4.57398 -1.2221,4.82865 -0.0762,0.25466 -0.0394,0.46302 0.0818,0.46302 0.12122,0 1.63559,-1.41889 3.36526,-3.15308 z M 595.04798,163.243 c 1.74134,-2.71804 2.95681,-4.87136 2.8376,-5.02708 -2.29306,-2.99518 -6.99443,-8.86829 -7.0525,-8.81022 -0.0428,0.0428 0.0434,1.84868 0.19166,4.01304 0.17368,2.53606 0.17835,3.99297 0.0131,4.0977 -0.16424,0.10411 -0.12882,2.01651 0.0986,5.32188 0.19521,2.83766 0.36309,5.33797 0.37307,5.55625 0.0161,0.35278 0.0445,0.35278 0.25523,0 0.13039,-0.21828 1.60785,-2.53648 3.28323,-5.15157 z m -23.64474,-6.10146 c 3.46467,-2.42997 5.18876,-3.57824 8.67208,-5.77572 l 1.13146,-0.71379 -0.12482,0.60304 c -0.0687,0.33167 -0.19726,1.16257 -0.28577,1.84645 l -0.16095,1.24341 5.07845,-2.95885 5.07846,-2.95885 -0.15975,-2.98091 -0.15975,-2.98092 4.28977,-0.003 4.28978,-0.003 -1.37931,-1.25385 -1.37931,-1.25385 1.05397,-5.42396 c 0.76713,-3.94781 0.98074,-5.54861 0.7849,-5.88195 -0.19522,-0.33228 -0.05,-1.48533 0.52899,-4.20089 0.43893,-2.0586 0.86143,-3.84544 0.93888,-3.97075 0.0774,-0.12532 -0.0142,-0.17351 -0.20365,-0.10709 -0.18946,0.0664 -2.309,0.66545 -4.7101,1.33117 -2.40109,0.66572 -4.57398,1.27288 -4.82864,1.34924 -0.41138,0.12336 -0.46314,-0.0771 -0.4641,-1.79722 -5.3e-4,-1.06483 -0.0785,-3.4541 -0.17312,-5.30949 l -0.17205,-3.37344 h -2.34042 c -1.28723,0 -2.34028,-0.0893 -2.34012,-0.19844 5.3e-4,-0.35644 -5.65499,-0.0491 -6.08571,0.33073 -0.26058,0.22978 -1.37173,0.38074 -3.23551,0.43957 l -2.83864,0.0896 -2.14185,2.11666 c -1.17802,1.16417 -2.72846,2.7878 -3.44543,3.60805 l -1.30359,1.49139 -0.68789,4.42186 c -0.37834,2.43203 -0.5866,4.5149 -0.46281,4.62861 0.1238,0.11371 2.10032,0.64729 4.39228,1.18573 l 4.16719,0.97897 0.004,0.97082 c 0.006,1.65057 0.50227,11.45711 0.67199,13.28489 l 0.16071,1.73073 -1.36159,0.63773 c -0.74887,0.35076 -1.41677,0.72702 -1.48421,0.83615 -0.20001,0.32362 -3.81139,10.62923 -3.81139,10.87637 0,0.29722 0.0306,0.27781 4.49792,-2.85538 z M 529.74219,115.6455 c 0.16326,-0.87023 0.20402,-0.89459 1.7706,-1.05834 0.88192,-0.0922 2.27063,-0.17946 3.08603,-0.19397 2.9289,-0.0521 2.93347,0.13081 -0.11055,-4.42243 -2.63489,-3.94126 -2.71598,-4.0316 -2.96859,-3.30729 -0.22972,0.65865 -0.92087,1.03099 -5.98495,3.22423 -3.14888,1.36378 -5.72524,2.57304 -5.72524,2.68724 0,0.11421 1.75617,0.88993 3.9026,1.72383 2.14643,0.8339 4.25979,1.66876 4.69636,1.85524 1.13069,0.48299 1.14905,0.47598 1.33374,-0.50851 z m 6.06544,-27.10801 c 0.25049,-1.289627 0.53478,-2.473153 0.63175,-2.630056 0.097,-0.156903 1.53253,-0.411909 3.19012,-0.566674 1.65759,-0.154768 3.04828,-0.31587 3.09041,-0.358008 0.0421,-0.04214 -0.95805,-1.581491 -2.22263,-3.420787 -1.26459,-1.839296 -2.34032,-3.303572 -2.39051,-3.253941 -0.0502,0.04963 -0.34865,1.259636 -0.66324,2.688907 l -0.57199,2.598677 -4.67423,1.5875 c -2.57083,0.873125 -4.74653,1.660557 -4.83487,1.749848 -0.18784,0.189849 7.56653,4.210873 7.81927,4.054677 0.0938,-0.05795 0.37543,-1.160516 0.62592,-2.450143 z m 43.27015,-19.01498 c 9e-4,-0.117922 0.23829,-2.178934 0.52754,-4.580028 0.28925,-2.401094 0.52678,-4.425156 0.52784,-4.497917 10e-4,-0.07276 1.3114,1.83224 2.91186,4.233334 l 2.90993,4.365625 -0.85971,0.168733 c -1.52702,0.299701 -6.01913,0.531307 -6.01746,0.310253 z m 31.91868,-3.268912 c -1.57983,-1.155723 -2.97349,-2.038846 -3.09703,-1.962496 -0.12354,0.07635 -2.28376,0.493337 -4.8005,0.926636 -2.51675,0.4333 -4.84379,0.848551 -5.17121,0.92278 -0.54653,0.123902 -0.59531,0.04102 -0.59531,-1.01138 0,-0.630488 0.17866,-2.500923 0.39702,-4.156522 0.21836,-1.6556 0.3041,-3.07678 0.19052,-3.158178 -0.11357,-0.0814 -1.18459,-0.842092 -2.38005,-1.69043 -1.19544,-0.848338 -2.2667,-1.7089 -2.38056,-1.91236 -0.11387,-0.20346 -1.26366,-1.139665 -2.5551,-2.080454 l -2.34808,-1.710527 -0.95198,0.488099 c -0.52359,0.268455 -2.44026,1.349266 -4.25927,2.401804 -1.81901,1.052537 -3.72402,2.149302 -4.23334,2.437254 l -0.92604,0.523549 -3.43958,-1.639006 -3.43959,-1.639006 4.10105,-3.938852 c 2.25557,-2.166369 4.21038,-3.942661 4.34403,-3.947315 0.13365,-0.0047 1.05891,0.58685 2.05614,1.314454 0.99723,0.727604 1.84823,1.322917 1.8911,1.322917 0.0429,0 1.19337,-1.547813 2.55664,-3.439584 l 2.47869,-3.439583 h 12.91586 12.91587 v 13.758334 c 0,7.567083 -0.0893,13.752224 -0.19844,13.744758 -0.10914,-0.0075 -1.49102,-0.959168 -3.07084,-2.114892 z m -108.98498,-22.130795 -2.58446,-3.125113 3.33731,-0.07424 3.33732,-0.07424 3.2159,2.575758 c 1.76874,1.416667 3.36467,2.721436 3.5465,2.899487 0.38059,0.372677 -0.57093,0.50884 -5.35769,0.766686 l -2.91042,0.156774 z"
         id="path1935" />
      <path
         style="fill:#b49f82;stroke-width:0.264583"
         d="M 429.0574,215.25732 V 204.4409 l 5.61167,-3.19518 c 3.08641,-1.75735 5.65065,-3.15619 5.6983,-3.10854 0.0477,0.0477 0.60392,1.7392 1.23614,3.759 0.63222,2.01979 1.26987,3.64685 1.417,3.61568 0.14714,-0.0312 1.97696,-1.05552 4.06627,-2.27634 2.08931,-1.22082 4.08075,-2.36793 4.42542,-2.54912 l 0.62668,-0.32944 -0.0975,4.30654 -0.0975,4.30654 4.89479,1.79264 c 2.69214,0.98596 5.03901,1.79819 5.21529,1.80498 0.39416,0.0152 3.05418,-4.42627 2.90194,-4.84537 -0.14751,-0.40608 0.6497,-1.75689 1.03687,-1.75689 0.23111,0 1.71168,-2.0481 2.63426,-3.64402 0.0893,-0.15449 5.23438,0.71851 5.41255,0.91838 0.10398,0.11666 2.16219,2.84823 4.57379,6.07016 l 4.38472,5.85806 -2.56252,1.6958 -2.56252,1.6958 -3.29659,-1.26748 c -1.81313,-0.69711 -3.38846,-1.1756 -3.50076,-1.06331 -0.11228,0.11229 0.0292,1.56421 0.31439,3.22649 0.2852,1.66228 0.41919,3.08732 0.29774,3.16675 -3.31989,2.17138 -4.53041,3.03189 -4.53041,3.22048 0,0.12977 -8.35853,0.23123 -19.05,0.23123 h -19.05 z m 83.12577,10.3534 c 0.21626,-0.25466 2.51701,-2.90381 5.11277,-5.88698 2.59577,-2.98318 4.88178,-5.61603 5.08002,-5.85079 0.31365,-0.3714 0.20751,-0.61099 -0.81741,-1.8452 -0.64783,-0.78011 -1.13005,-1.49576 -1.0716,-1.59032 0.26442,-0.42785 8.34263,-5.28201 8.56328,-5.14564 0.13646,0.0843 1.94253,0.38903 4.01349,0.6771 2.07096,0.28807 3.80342,0.5618 3.84992,0.6083 0.0465,0.0465 -0.13122,2.39841 -0.39491,5.22648 -0.2637,2.82807 -0.46302,5.16874 -0.44295,5.2015 0.0201,0.0328 1.08807,-0.82568 2.37332,-1.90765 1.82875,-1.5395 2.43447,-1.91493 2.78597,-1.72681 0.24704,0.13221 3.41523,1.38998 7.04044,2.79504 3.6252,1.40507 6.63421,2.59515 6.68669,2.64463 0.0525,0.0495 -0.88807,1.70398 -2.09012,3.67666 l -2.18554,3.5867 h -19.44828 c -18.49558,0 -19.42903,-0.0227 -19.05509,-0.46302 z m -29.62026,-18.24783 c -2.35586,-2.86941 -4.19219,-5.3083 -4.08073,-5.41976 0.11146,-0.11147 2.04406,-0.33872 4.29467,-0.50501 2.25061,-0.1663 4.12499,-0.33015 4.16529,-0.36411 0.0403,-0.034 -0.009,-2.05838 -0.10858,-4.49869 l -0.18186,-4.43694 -4.32319,-2.06828 c -2.37776,-1.13755 -4.32319,-2.14305 -4.32319,-2.23443 0,-0.0914 0.5382,-0.99812 1.196,-2.01498 0.6578,-1.01686 1.13176,-1.95279 1.05323,-2.07984 -0.11628,-0.18814 -1.45548,-5.94525 -1.45548,-6.25697 0,-0.05 2.38125,-1.28272 5.29167,-2.73931 2.91041,-1.4566 5.29166,-2.69653 5.29166,-2.7554 0,-0.0589 -0.71437,-0.96207 -1.5875,-2.0071 -0.87312,-1.04503 -1.5875,-1.98222 -1.5875,-2.08264 0,-0.10041 1.54781,-0.94917 3.43959,-1.88611 l 3.43958,-1.70354 v -3.85064 -3.85064 l 2.13181,-2.97051 c 1.17249,-1.63378 2.15475,-2.97 2.18281,-2.96938 0.32772,0.007 7.43579,1.34234 7.50268,1.40923 0.0501,0.0501 0.39008,3.46586 0.7555,7.59057 0.36543,4.12472 0.69538,7.53045 0.73321,7.56828 0.0378,0.0378 3.03759,-1.50186 6.6661,-3.42156 l 6.59731,-3.49035 0.40748,-1.63506 c 0.22411,-0.89929 0.47425,-1.70028 0.55585,-1.77998 0.0816,-0.0797 2.40333,-0.27215 5.15938,-0.42767 l 5.011,-0.28275 1.23509,-1.21327 c 0.6793,-0.66729 1.18932,-1.34641 1.13337,-1.50914 -0.1231,-0.35805 11.13179,-12.00724 11.3738,-11.77227 0.14424,0.14004 -0.60168,7.00895 -1.05074,9.67594 l -0.14235,0.84539 3.3827,-1.60804 c 4.43492,-2.10823 10.12958,-4.69834 10.12958,-4.60725 0,0.0396 -1.17434,2.62165 -2.60966,5.73786 -1.43531,3.1162 -2.58338,5.69846 -2.55126,5.73835 0.0321,0.0399 1.3553,-0.51247 2.94039,-1.22746 l 2.88199,-1.29997 0.13405,-4.99026 0.13405,-4.99026 1.75859,-3.57187 1.75859,-3.57188 0.31606,0.8599 c 0.17383,0.47294 0.42347,0.85989 0.55476,0.85989 0.13128,0 0.23869,-0.0489 0.23869,-0.10879 0,-0.23694 1.33413,-8.79037 1.45274,-9.31386 0.12572,-0.5549 0.15892,-0.55137 4.41528,0.47015 2.35873,0.56609 4.31292,1.05582 4.34264,1.08828 0.0297,0.0325 0.18699,2.97605 0.34948,6.54131 0.1625,3.56526 0.36496,7.13713 0.44991,7.9375 l 0.15446,1.45521 -1.45094,0.70988 c -1.34989,0.66044 -1.48816,0.81706 -1.98559,2.24896 -0.29407,0.84649 -1.21733,3.5036 -2.05168,5.9047 -2.26108,6.50683 -3.81356,11.62615 -3.6528,12.04509 0.18934,0.49341 -0.94728,3.87997 -1.26651,3.77356 -0.13712,-0.0457 -1.01485,-1.27212 -1.9505,-2.72536 l -1.7012,-2.64225 0.16135,2.53404 0.16134,2.53403 -4.14984,1.53306 c -2.28242,0.84319 -4.20918,1.47373 -4.28169,1.40122 -0.0725,-0.0725 -1.75757,0.50701 -3.74457,1.28785 -1.987,0.78083 -3.67849,1.31957 -3.75887,1.19719 -0.0804,-0.12237 -0.74144,-1.13158 -1.46905,-2.24267 -0.7276,-1.1111 -1.38929,-2.02171 -1.47042,-2.02359 -0.0811,-0.002 -0.29736,1.57416 -0.4805,3.50231 -0.42125,4.43493 -0.58074,5.4901 -0.82984,5.4901 -0.34088,0 -5.32575,-8.72236 -5.14865,-9.00892 0.21573,-0.34906 -2.8155,-5.53214 -3.23904,-5.53841 -0.17629,-0.003 -0.43724,0.44173 -0.5799,0.98744 -0.14266,0.5457 -0.49491,1.92525 -0.7828,3.06566 -0.28788,1.1404 -0.57441,2.12445 -0.63672,2.18676 -0.0623,0.0623 -1.9407,0.34854 -4.17421,0.63609 -2.98385,0.38413 -4.11017,0.44312 -4.24658,0.2224 -0.10212,-0.16522 -0.31757,-0.9678 -0.4788,-1.78352 -0.45129,-2.28321 -0.82058,-3.4675 -1.08125,-3.4675 -0.13057,0 -1.02322,1.48132 -1.98369,3.29182 -1.51636,2.85837 -1.84382,3.73782 -2.48693,6.67888 l -0.74063,3.38707 -3.92138,1.24732 c -2.15676,0.68603 -3.99108,1.35809 -4.07627,1.49346 -0.0852,0.13538 -0.62025,0.43993 -1.18901,0.67678 l -1.03413,0.43063 0.16102,7.24172 0.16101,7.24171 -5.21231,3.46169 c -2.86677,1.90393 -6.69977,4.47742 -8.5178,5.71885 -1.81802,1.24144 -3.37091,2.25716 -3.45086,2.25716 -0.0799,0 -2.07289,-2.3477 -4.42876,-5.2171 z m 123.89763,2.836 c -0.1004,-1.13429 -0.0969,-2.97683 0.008,-4.09454 l 0.19043,-2.0322 1.85626,2.86485 c 1.02095,1.57568 1.86929,3.02777 1.88522,3.22688 0.0163,0.20461 -0.79415,0.73927 -1.86414,1.22968 l -1.89308,0.86767 -0.18256,-2.06234 z m 2.77812,-11.96702 c -2.4011,-0.58446 -4.39117,-1.0835 -4.42238,-1.10899 -0.19766,-0.16136 -0.8446,-10.338 -0.66839,-10.51421 0.12,-0.12 2.41585,0.728 5.10187,1.88445 l 4.88369,2.10264 0.0725,4.37753 c 0.0567,3.41928 -10e-4,4.37137 -0.26458,4.34938 -0.18542,-0.0155 -2.30166,-0.50634 -4.70275,-1.0908 z M 451.81493,183.80538 c 0.0188,-1.10116 0.81922,-9.44242 0.91537,-9.53857 0.07,-0.07 1.02994,0.69346 2.13319,1.69659 1.10325,1.00313 2.60085,2.35966 3.32799,3.0145 l 1.32209,1.19063 -3.851,1.91706 c -2.11805,1.05439 -3.84949,1.8283 -3.84764,1.71979 z M 429.0574,159.30986 v -23.90137 l 3.42271,-2.68925 c 1.88249,-1.47909 3.52393,-2.68926 3.64764,-2.68926 0.32625,0 1.77104,9.09142 1.46121,9.19469 -0.13994,0.0466 -0.43814,0.22935 -0.66266,0.406 -0.36031,0.28348 -0.23535,0.80263 1.06444,4.42223 0.80997,2.25557 1.51183,4.14992 1.5597,4.20966 0.0781,0.0975 1.85267,-0.24874 3.48433,-0.67984 0.57776,-0.15265 0.53542,-7.9e-4 -0.68353,2.45321 l -1.29945,2.61593 1.51069,3.96875 c 0.83087,2.18281 1.48446,3.99979 1.45241,4.03772 -0.032,0.0379 -0.57461,-0.1132 -1.20568,-0.33585 -0.63106,-0.22266 -1.23844,-0.31322 -1.34973,-0.20127 -0.29432,0.29611 -0.77973,13.36436 -0.58851,15.84405 l 0.16238,2.10561 -3.07998,1.42124 c -1.69399,0.78167 -3.15236,1.34885 -3.24082,1.26039 -0.0885,-0.0885 -1.33536,0.42856 -2.77089,1.14895 -1.43554,0.72038 -2.67176,1.30979 -2.74716,1.30979 -0.0754,0 -0.1371,-10.75562 -0.1371,-23.90138 z m 181.46585,17.99615 c -1.84008,-0.89947 -3.39917,-1.81399 -3.46463,-2.03227 -0.0675,-0.22525 -3.39273,-1.81037 -7.68895,-3.66534 -7.40323,-3.19649 -7.56195,-3.28097 -7.2081,-3.83646 0.19899,-0.3124 1.61631,-2.52771 3.14958,-4.92292 1.60583,-2.50857 2.69902,-4.47164 2.57844,-4.63021 -0.11513,-0.1514 -1.75641,-2.24059 -3.64729,-4.64264 l -3.43797,-4.36736 -0.15931,-3.37171 -0.15931,-3.3717 4.28324,-0.003 4.28325,-0.003 -1.37931,-1.25385 -1.37931,-1.25385 1.05397,-5.42396 c 0.76713,-3.94781 0.98074,-5.54861 0.7849,-5.88195 -0.19522,-0.33228 -0.05,-1.48533 0.52899,-4.20089 0.43893,-2.0586 0.86143,-3.84544 0.93888,-3.97075 0.0774,-0.12532 -0.0142,-0.17351 -0.20365,-0.10709 -0.18946,0.0664 -2.309,0.66545 -4.7101,1.33117 -2.40109,0.66572 -4.57398,1.27288 -4.82864,1.34924 -0.41138,0.12336 -0.46314,-0.0771 -0.4641,-1.79722 -5.3e-4,-1.06483 -0.0785,-3.4541 -0.17312,-5.30949 l -0.17205,-3.37344 h -2.34042 c -1.28723,-2e-5 -2.34042,-0.1119 -2.34042,-0.24865 0,-1.30027 0.86053,-9.97814 1.00366,-10.12128 0.10309,-0.10309 1.79468,-0.43054 3.75908,-0.72767 5.95801,-0.90119 5.28844,-0.62261 5.31104,-2.209717 0.0108,-0.757391 0.10008,-1.905548 0.19844,-2.551462 0.17661,-1.15983 0.21654,-1.198327 3.22153,-3.105468 1.67349,-1.062093 3.08109,-1.817478 3.12799,-1.678638 0.0469,0.13884 0.52315,-0.02289 1.05833,-0.359408 0.53518,-0.336513 1.94014,-1.216845 3.12214,-1.956292 l 2.14908,-1.344448 3.46729,2.824945 3.46729,2.824946 0.006,2.003862 0.006,2.003864 -4.36562,3.925786 c -2.4011,2.15918 -4.36563,3.99911 -4.36563,4.08874 0,0.0896 1.02096,0.66929 2.26879,1.28815 l 2.2688,1.1252 2.03068,-1.62127 2.03069,-1.62128 0.0719,5.07037 c 0.0396,2.7887 0.0396,7.26672 0,9.95115 l -0.0719,4.88078 -2.10847,-1.85134 c -1.42831,-1.25414 -2.16727,-1.74599 -2.29076,-1.52476 -0.10025,0.17962 -1.33349,3.11972 -2.74052,6.53356 -1.40703,3.41384 -2.66364,6.40393 -2.79247,6.64465 -0.18136,0.33887 0.33693,1.11766 2.2962,3.4503 1.39174,1.65696 2.62362,3.11199 2.73751,3.2334 0.1139,0.12142 1.19005,-1.21804 2.39145,-2.97656 1.20139,-1.75852 2.28672,-3.19731 2.41185,-3.19731 0.12512,0 0.22749,9.82266 0.22749,21.82813 0,12.00547 -0.0893,21.81991 -0.19844,21.80988 -0.10914,-0.01 -1.70396,-0.75418 -3.54405,-1.65365 z M 450.5548,163.0269 c -1.34607,-0.45605 -2.44251,-0.89341 -2.43653,-0.9719 0.0143,-0.18817 6.09325,-4.3196 6.18293,-4.20212 0.0381,0.0498 -0.06,1.39895 -0.21802,2.99799 -0.22116,2.23857 -0.37853,2.91861 -0.68411,2.95628 -0.21828,0.0269 -1.49821,-0.3242 -2.84427,-0.78025 z m 5.69141,-10.08623 c -0.3986,-0.81369 -0.84409,-1.47943 -0.98997,-1.47943 -0.35735,0 -3.23818,-5.77738 -3.0404,-6.09739 0.0859,-0.13894 1.31536,-0.25261 2.73222,-0.25261 h 2.57609 l -0.1012,3.37343 c -0.0557,1.85539 -0.18012,3.94989 -0.2766,4.65443 l -0.17541,1.281 z m 55.43925,-6.96801 c -0.12278,-0.33002 -1.28199,-1.27998 -2.60967,-2.13859 l -2.38878,-1.5448 -1.51725,-3.68225 c -0.83449,-2.02523 -1.60744,-3.82748 -1.71767,-4.00498 -0.15455,-0.24888 -1.04568,-0.17827 -3.89391,0.30854 l -3.69349,0.63128 -5.22552,-3.21433 c -2.87403,-1.76788 -5.22552,-3.28715 -5.22552,-3.37615 0,-0.089 2.82774,-1.50356 6.28386,-3.14345 3.45612,-1.6399 6.32524,-3.09233 6.37584,-3.22763 0.0506,-0.1353 2.00794,-1.20538 4.34966,-2.37797 4.03553,-2.02073 4.27682,-2.10642 4.62467,-1.64226 0.20184,0.26934 2.04859,2.78596 4.10389,5.59249 l 3.73691,5.10279 1.02588,-1.20019 c 0.56423,-0.66009 1.13751,-1.20018 1.27395,-1.20018 0.34289,0 8.44201,6.1008 8.44201,6.35908 0,0.52496 -1.67118,7.29134 -1.84843,7.48404 -0.10982,0.11939 -2.24143,-0.80514 -4.7369,-2.05451 -5.3214,-2.66418 -4.57427,-3.05113 -5.84677,3.02806 -0.96583,4.61414 -1.17502,5.2089 -1.51276,4.30101 z m -75.0823,-17.8609 c -0.0755,-0.32743 -0.54322,-3.32135 -1.03943,-6.65316 l -0.90219,-6.05785 1.47273,-2.21301 c 0.81,-1.21716 1.40365,-2.2821 1.31921,-2.36654 -0.0844,-0.0844 -1.56161,-0.50639 -3.28261,-0.93769 -1.721,-0.43129 -3.57558,-0.90139 -4.12128,-1.04467 l -0.99219,-0.2605 0.0218,-14.608033 0.0218,-14.608033 1.87438,3.902605 c 1.03091,2.146432 2.01443,3.902604 2.18559,3.902604 0.28551,0 7.01306,13.815607 7.02176,14.419797 0.006,0.40758 2.28476,1.69752 2.54291,1.43938 0.12661,-0.12662 3.12618,1.58411 6.77339,3.86303 3.60038,2.24966 6.65338,4.09029 6.78445,4.09029 0.18787,0 6.38904,-8.51929 7.23925,-9.94543 0.13411,-0.22496 -0.28876,-0.73831 -1.25966,-1.529199 -0.80385,-0.654809 -1.35798,-1.25457 -1.2314,-1.332799 0.12658,-0.07823 2.41983,0.270677 5.09612,0.775351 2.67629,0.504671 4.89575,0.918035 4.93213,0.918583 0.0364,5.29e-4 0.0661,0.110241 0.0661,0.243764 0,0.13352 -1.1586,0.62875 -2.57466,1.10051 l -2.57467,0.85776 2.63215,2.45858 2.63216,2.45858 -1.40679,2.01487 c -0.77372,1.10818 -1.34774,2.07391 -1.27558,2.14607 0.1207,0.1207 2.94374,-0.29818 3.90902,-0.58001 0.33633,-0.0982 0.25099,0.39643 -0.44745,2.59341 -0.47468,1.49312 -1.1164,3.56685 -1.42605,4.60829 l -0.563,1.89353 -4.40009,-2.75361 c -2.42005,-1.51449 -4.49476,-2.65894 -4.61047,-2.54323 -0.11571,0.11571 0.37415,1.72314 1.08858,3.57206 0.71444,1.84892 1.24843,3.36167 1.18665,3.36167 -0.0618,0 -2.49132,-1.19062 -5.39897,-2.64583 -2.90764,-1.45521 -5.34729,-2.64583 -5.42143,-2.64583 -0.0741,0 -0.13615,1.10133 -0.13778,2.44739 l -0.003,2.4474 -3.89142,1.97736 c -2.14028,1.08755 -4.0363,1.99863 -4.21338,2.02462 -0.17708,0.026 -1.8638,0.89235 -3.74826,1.92524 -1.88445,1.03289 -3.49717,1.87799 -3.58381,1.87799 -0.0866,0 -0.21929,-0.26789 -0.29477,-0.59531 z m 51.67578,-26.68896 -3.617,-4.520269 1.83107,-2.543993 c 1.00708,-1.399196 1.82832,-2.666847 1.82498,-2.817003 -0.003,-0.150156 -0.23545,-1.817515 -0.5158,-3.705244 -0.33891,-2.282092 -0.41913,-3.488216 -0.23939,-3.599299 0.17875,-0.110471 0.0378,-1.816012 -0.4161,-5.034436 -0.85507,-6.063234 -0.87224,-6.140339 -1.32846,-5.96527 -0.20186,0.07746 -0.80738,0.223449 -1.34562,0.324422 l -0.9786,0.183589 0.16831,-3.938387 c 0.0926,-2.166112 0.23985,-5.568278 0.32728,-7.560368 l 0.15896,-3.621982 -4.2369,-2.12157 -4.2369,-2.121569 0.19821,-0.878824 c 0.3377,-1.497318 1.63849,-4.132893 2.23032,-4.518951 0.4893,-0.319168 1.27342,-0.268961 5.95616,0.381369 2.96598,0.411908 5.49606,0.685038 5.6224,0.606955 0.12634,-0.07808 0.22971,-0.360983 0.22971,-0.628667 0,-0.511196 -0.0117,-0.509174 5.4901,-0.947163 l 1.78594,-0.142175 2.18281,1.78083 2.18282,1.78083 0.0332,2.396241 c 0.0183,1.317933 0.10759,4.080004 0.19844,6.137936 l 0.16519,3.741695 1.94556,-0.772978 c 1.07005,-0.425139 2.37974,-0.82229 2.91041,-0.882559 0.53068,-0.06027 2.03643,-0.516037 3.34611,-1.012818 2.3534,-0.892674 2.38323,-0.896716 2.55001,-0.345595 0.3952,1.305961 3.13038,8.707477 3.26902,8.846114 0.0835,0.08352 1.50983,-1.202265 3.16958,-2.857302 2.75259,-2.744782 3.05981,-2.976362 3.49685,-2.63586 0.67856,0.528677 5.21453,4.304156 5.37392,4.472939 0.46848,0.496078 3.39104,2.613975 3.48183,2.523183 0.0612,-0.06122 1.59002,1.069044 3.39734,2.511695 1.80731,1.442651 3.33088,2.57814 3.38571,2.523313 0.0548,-0.05483 0.38656,-1.448679 0.73718,-3.09744 0.35062,-1.648762 0.69503,-3.246766 0.76536,-3.551124 0.10895,-0.471538 0.56887,-0.645338 3.10991,-1.175205 1.64012,-0.342006 3.10111,-0.775653 3.24663,-0.963661 0.14552,-0.188007 1.54703,-0.614951 3.11446,-0.948763 l 2.84987,-0.606931 -4.0405,-4.641964 c -2.22227,-2.55308 -4.19469,-4.83065 -4.38316,-5.061267 -0.28364,-0.347083 -0.2436,-0.799513 0.23247,-2.626777 0.31633,-1.21411 0.60063,-2.98138 0.6318,-3.927265 0.059,-1.789618 0.3026,-2.910417 0.63265,-2.910417 0.10591,0 1.36278,0.838544 2.79305,1.863432 1.43026,1.024887 2.65064,1.813269 2.71195,1.751961 0.0984,-0.09841 1.66429,-8.997345 1.67206,-9.502372 0.002,-0.109141 1.71906,-0.198438 3.81639,-0.198438 h 3.81332 l 0.67672,1.785938 c 0.3722,0.982265 1.26367,3.33375 1.98104,5.225521 0.71737,1.89177 1.42419,3.413514 1.57072,3.381653 0.14652,-0.03186 1.24579,2.38718 2.4428,5.375648 2.26284,5.649401 2.30643,5.919777 0.97788,6.065616 -0.56239,0.06173 -10.93622,6.325018 -11.76187,7.101316 -0.24963,0.234712 0.0582,0.75575 1.36229,2.305529 l 1.6848,2.002284 -2.86418,2.336909 -2.86418,2.336911 -0.42726,1.877274 c -0.88108,3.871336 -0.8851,3.83136 0.60769,6.043576 0.7371,1.092338 1.32308,2.213174 1.30217,2.490743 -0.0209,0.277571 1.01025,2.025684 2.29147,3.884697 1.28121,1.859013 2.27104,3.438472 2.1996,3.509907 -0.10463,0.104635 -5.49797,2.22023 -5.66008,2.22023 -0.0252,0 -0.61396,-0.773906 -1.30848,-1.719792 l -1.26276,-1.719791 -1.47032,0.0026 c -2.58772,0.0044 -12.80083,0.533088 -14.15374,0.73264 -1.18442,0.174701 -1.3267,0.271277 -1.52456,1.03487 -0.12003,0.463203 -0.42515,0.902589 -0.67805,0.976416 -0.2529,0.07382 -1.63615,0.449553 -3.0739,0.834953 -2.53573,0.67972 -2.62782,0.686115 -3.07211,0.213312 -0.25192,-0.268075 -1.62762,-1.7971 -3.05712,-3.397829 -1.4295,-1.600729 -2.87455,-3.214341 -3.21122,-3.585806 l -0.61212,-0.675388 0.63793,-3.293362 c 0.35087,-1.811348 0.71032,-3.47504 0.79879,-3.697094 0.12199,-0.306216 -0.55198,-0.75356 -2.79037,-1.852084 -1.62317,-0.796591 -3.05411,-1.418685 -3.17988,-1.382429 -0.12577,0.03626 -1.53641,-0.636423 -3.13476,-1.494843 l -2.9061,-1.560761 -2.89602,3.095903 -2.89603,3.095905 4.47671,6.988398 c 3.09043,4.82433 4.37486,7.044129 4.1478,7.168375 -0.37556,0.205372 -8.61999,3.146177 -8.82056,3.146177 -0.0723,0 -0.59689,-1.01203 -1.16564,-2.248957 -0.56876,-1.236927 -1.15007,-2.248958 -1.2918,-2.248958 -0.14172,0 -0.51588,0.684609 -0.83145,1.521354 -0.31557,0.836745 -0.8737,2.325021 -1.24029,3.307291 -0.46786,1.25361 -0.80207,1.78593 -1.12128,1.78593 -0.25011,0 -1.62523,0.47625 -3.05581,1.05834 -1.43058,0.58208 -2.67066,1.05612 -2.75574,1.05341 -0.0851,-0.003 -1.78233,-2.03904 -3.77168,-4.52518 z m 47.52869,-12.88531 c 0.25049,-1.289627 0.53478,-2.473153 0.63175,-2.630056 0.097,-0.156903 1.53253,-0.411909 3.19012,-0.566674 1.65759,-0.154768 3.04828,-0.31587 3.09041,-0.358008 0.0421,-0.04214 -0.95805,-1.581491 -2.22263,-3.420787 -1.26459,-1.839296 -2.34032,-3.303572 -2.39051,-3.253941 -0.0502,0.04963 -0.34865,1.259636 -0.66324,2.688907 l -0.57199,2.598677 -4.67423,1.5875 c -2.57083,0.873125 -4.74653,1.660557 -4.83487,1.749848 -0.18784,0.189849 7.56653,4.210873 7.81927,4.054677 0.0938,-0.05795 0.37543,-1.160516 0.62592,-2.450143 z m -64.59597,-3.315798 c -2.20854,-0.457785 -4.0721,-0.891865 -4.14126,-0.964626 -0.0691,-0.07276 1.16073,-0.677039 2.73307,-1.342845 l 2.85879,-1.210553 1.54321,1.926629 c 0.84876,1.059646 1.58462,2.050878 1.63524,2.202741 0.12201,0.366012 0.0231,0.352955 -4.62905,-0.611346 z m 139.7848,-18.968094 c -1.57983,-1.155723 -2.97349,-2.038846 -3.09703,-1.962496 -0.12354,0.07635 -2.28376,0.493337 -4.8005,0.926636 -2.51675,0.4333 -4.84379,0.848551 -5.17121,0.92278 -0.54653,0.123902 -0.59531,0.04102 -0.59531,-1.01138 0,-0.630488 0.17866,-2.500923 0.39702,-4.156522 0.21836,-1.6556 0.3041,-3.07678 0.19052,-3.158178 -0.11357,-0.0814 -1.18459,-0.842092 -2.38005,-1.69043 -1.19544,-0.848338 -2.2667,-1.7089 -2.38056,-1.91236 -0.11387,-0.20346 -1.26366,-1.139665 -2.5551,-2.080454 l -2.34808,-1.710527 -0.95198,0.488099 c -0.52359,0.268455 -2.44026,1.349266 -4.25927,2.401804 -1.81901,1.052537 -3.72402,2.149302 -4.23334,2.437254 l -0.92604,0.523549 -3.43958,-1.639006 -3.43959,-1.639006 4.10105,-3.938852 c 2.25557,-2.166369 4.21038,-3.942661 4.34403,-3.947315 0.13365,-0.0047 1.05891,0.58685 2.05614,1.314454 0.99723,0.727604 1.84823,1.322917 1.8911,1.322917 0.0429,0 1.19337,-1.547813 2.55664,-3.439584 l 2.47869,-3.439583 h 12.91586 12.91587 v 13.758334 c 0,7.567083 -0.0893,13.752224 -0.19844,13.744758 -0.10914,-0.0075 -1.49102,-0.959168 -3.07084,-2.114892 z M 439.90532,65.46162 c -2.4011,-0.805881 -5.82414,-1.912492 -7.60677,-2.459136 l -3.24115,-0.9939 V 51.436991 40.865398 l 5.35781,-0.0055 5.35782,-0.0055 4.56406,2.165812 c 2.51023,1.191196 4.56406,2.254673 4.56406,2.363282 0,0.108609 -1.72034,1.190284 -3.82299,2.403724 l -3.82298,2.206253 2.8308,0.196043 c 1.55694,0.107823 4.24174,0.269144 5.96624,0.358491 l 3.13544,0.162449 -1.01878,1.04466 -1.01877,1.044659 0.57244,0.448933 c 0.31484,0.246912 1.72201,1.401432 3.12706,2.565599 l 2.55462,2.116667 -2.67595,0.07553 c -2.16095,0.061 -2.70717,0.156919 -2.83822,0.498421 -0.0892,0.232589 -0.53706,2.16313 -0.99512,4.290092 l -0.83285,3.867204 -2.89557,0.132292 -2.89558,0.132291 z m 62.10616,-21.338817 -2.58446,-3.125113 3.33731,-0.07424 3.33732,-0.07424 3.2159,2.575758 c 1.76874,1.416667 3.36467,2.721436 3.5465,2.899487 0.38059,0.372677 -0.57093,0.50884 -5.35769,0.766686 l -2.91042,0.156774 z"
         id="path1933" />
    </g>
  </g>
</svg>