<?xml version="1.0" encoding="UTF-8" standalone="no"?>
<svg
   width="700.05634"
   height="700.07721"
   viewBox="0 0 185.22324 185.22877"
   version="1.1"
   id="svg5"
   xmlns="http://www.w3.org/2000/svg"
   xmlns:svg="http://www.w3.org/2000/svg">
  <defs
     id="defs2" />
  <g
     id="layer1"
     transform="translate(-263.90415,-38.945183)">
    <g
       id="g1259"
       transform="translate(185.20833)">
      <path
         style="fill:#373737;stroke-width:0.264583"
         d="M 78.695824,131.56007 V 38.955902 h 92.604166 92.60416 v 92.604168 92.60416 H 171.29999 78.695824 Z"
         id="path1265" />
      <path
         style="fill:#282828;stroke-width:0.264583"
         d="m 78.695824,212.19972 v -11.97426 l 4.142702,-4.14878 4.142701,-4.14878 -1.033847,-0.26426 c -0.568616,-0.14534 -2.432832,-0.58334 -4.142702,-0.97332 l -3.108854,-0.70907 v -21.62976 -21.62976 l 2.819284,-0.1725 c 1.550607,-0.0949 3.231757,-0.1725 3.73589,-0.1725 h 0.916605 l -0.169286,3.10886 c -0.09311,1.70987 -0.239375,4.19378 -0.325039,5.51981 l -0.155752,2.41096 2.067659,0.30753 c 1.137213,0.16913 2.132408,0.40308 2.211545,0.51987 0.166265,0.24538 5.578308,1.17529 5.76333,0.99027 0.06779,-0.0678 -0.251255,-2.35573 -0.708992,-5.08431 -0.664144,-3.95896 -0.763139,-5.00071 -0.490101,-5.15743 2.104073,-1.20771 5.633815,-3.68434 5.633815,-3.95296 0,-0.18916 -1.689478,-1.42415 -3.754395,-2.74441 l -3.754394,-2.40048 -0.286997,-1.71979 c -0.455906,-2.73196 -0.566997,-3.175 -0.796123,-3.175 -0.11852,0 -0.734138,1.48778 -1.36804,3.30619 -0.633903,1.8184 -1.212082,3.3039 -1.284843,3.30111 -0.07276,-0.003 -1.50151,-1.90451 -3.174999,-4.22605 -1.67349,-2.32154 -3.107509,-4.22376 -3.186709,-4.22716 -0.0792,-0.003 -0.912638,1.03172 -1.852084,2.30024 l -1.708082,2.30642 -0.06962,-9.05329 c -0.03829,-4.97931 -0.03829,-13.13118 0,-18.11527 l 0.06962,-9.06198 1.148185,1.67404 c 0.631502,0.92072 1.205156,1.61706 1.274788,1.54743 0.06963,-0.0696 -0.17606,-1.11214 -0.54598,-2.31669 -0.392715,-1.27878 -0.578249,-2.30801 -0.445878,-2.473477 0.226315,-0.282903 -0.757665,-4.074218 -1.291487,-4.976151 -0.17012,-0.287433 -0.27192,-3.468222 -0.27192,-8.496276 v -8.036843 l 1.653646,-0.166071 c 2.858563,-0.287081 13.200433,-0.751536 13.352313,-0.599657 0.07978,0.07978 -0.04261,0.890051 -0.271975,1.800596 -0.229367,0.910545 -0.393892,1.675185 -0.365612,1.699199 0.08824,0.07493 9.689834,-6.635978 9.699524,-6.779358 0.005,-0.07467 -0.88378,-0.835215 -1.97519,-1.690113 -1.091404,-0.854896 -1.984373,-1.597105 -1.984373,-1.649352 0,-0.05225 1.041797,-1.553882 2.315103,-3.33697 l 2.31511,-3.241974 0.0717,5.215189 0.0717,5.215191 2.83872,2.304664 c 1.56129,1.267566 3.00336,2.453148 3.2046,2.634626 0.3071,0.276952 0.002,1.215419 -1.89934,5.841605 -1.24587,3.031403 -2.46525,6.017657 -2.70972,6.636121 -0.24447,0.618463 -0.46171,1.124479 -0.48276,1.124479 -0.021,0 -0.87094,-0.238125 -1.88865,-0.529167 -1.01772,-0.291042 -1.94008,-0.529167 -2.04968,-0.529167 -0.10961,0 -0.19928,3.22461 -0.19928,7.165798 0,3.941188 0.10071,7.126108 0.22381,7.077608 0.12309,-0.0485 2.92106,-1.15111 6.2177,-2.45023 l 5.9939,-2.36204 v -3.005084 c 0,-2.776752 0.0352,-2.986905 0.46302,-2.765806 1.0334,0.534043 8.01074,2.452016 8.2907,2.278997 0.1657,-0.102413 0.37727,-0.07204 0.47013,0.06749 0.18177,0.273092 13.7949,-5.175448 13.7949,-5.521291 0,-0.112305 -1.27992,-1.1001 -2.84427,-2.195102 -1.56435,-1.094999 -3.17375,-2.289373 -3.57644,-2.654165 -0.4027,-0.364789 -0.865,-0.663255 -1.02733,-0.663255 -0.16233,0 -1.8006,-0.97291 -3.6406,-2.162024 l -3.34544,-2.162024 -2.23355,-9.787864 c -1.22845,-5.383323 -2.36989,-9.915223 -2.53653,-10.070888 -0.22618,-0.211289 -0.17629,-0.578566 0.19683,-1.449019 0.27489,-0.641296 0.46704,-1.191962 0.427,-1.223702 -0.04,-0.03174 -1.44201,-0.56738 -3.1155,-1.190312 -1.67349,-0.622931 -3.07286,-1.155969 -3.10972,-1.184527 -0.0369,-0.02856 0.21512,-1.440598 0.55995,-3.137865 0.4214,-2.074165 0.53012,-3.086133 0.3316,-3.086526 -0.16246,-3.18e-4 -2.53636,-0.127096 -5.27535,-0.281719 l -4.97998,-0.281134 -0.70856,-0.78431 -0.70856,-0.78431 -2.116671,1.894729 c -1.164167,1.0421 -2.317995,2.069685 -2.564063,2.283521 -0.40974,0.356068 -0.577752,0.128807 -1.996147,-2.700089 l -1.548751,-3.088883 -1.556555,3.604598 c -0.856106,1.982529 -1.624715,3.646448 -1.70802,3.697598 -0.08331,0.05115 -1.374976,-0.366672 -2.870378,-0.928493 -1.495403,-0.561821 -2.865668,-0.965178 -3.045035,-0.896349 -0.205201,0.07874 -1.036504,-1.299629 -2.242023,-3.717466 l -1.915903,-3.84261 v -3.56954 -3.569541 h 44.764366 44.76437 l 2.72286,0.960177 c 1.49757,0.528097 2.66475,1.05419 2.59374,1.169095 -0.071,0.114905 0.25887,0.297277 0.73308,0.405271 0.74549,0.169771 0.27122,0.345452 -3.50342,1.297751 -2.40109,0.60577 -4.69304,1.184212 -5.09323,1.285427 -0.40018,0.101215 -0.7276,0.281594 -0.7276,0.400842 0,0.119249 1.21927,0.963922 2.70949,1.877053 2.68283,1.643905 2.72121,1.657553 3.90172,1.387414 0.65573,-0.150052 1.31251,-0.173004 1.45952,-0.051 0.15057,0.124967 1.69041,-0.168085 3.52664,-0.671166 l 3.25936,-0.892985 4.9409,1.193597 c 2.7175,0.656478 5.17904,1.26624 5.47008,1.355027 0.42155,0.128601 0.20651,0.307945 -1.05742,0.881892 l -1.58657,0.720462 1.52043,0.74569 c 0.83624,0.41013 1.52043,0.872338 1.52043,1.027129 0,0.154791 1.25016,0.903182 2.77813,1.663092 l 2.77812,1.381654 -0.001,1.522936 c -7.9e-4,0.837615 -0.0787,2.690135 -0.17312,4.11671 l -0.17176,2.593774 -2.27427,1.963295 -2.27427,1.963296 -1.5875,0.0093 c -0.87313,0.0051 -2.1995,0.08282 -2.94748,0.172694 l -1.35998,0.163404 -0.5733,3.736901 c -0.31531,2.055296 -0.63034,3.933488 -0.70007,4.173757 -0.0836,0.288033 -0.75527,0.590878 -1.97168,0.888973 -1.0147,0.248666 -1.90486,0.549111 -1.97812,0.667658 -0.0733,0.118544 -0.49142,2.561637 -0.92922,5.429096 -0.4378,2.867456 -0.86008,5.317225 -0.93838,5.443926 -0.0783,0.126701 -0.30809,0.230368 -0.51062,0.230368 -0.20253,0 -0.96653,0.128312 -1.69778,0.285136 l -1.32954,0.285136 2.441,2.070698 c 4.92628,4.178956 4.93795,4.192249 5.23274,5.957988 0.14577,0.873125 0.32369,1.855451 0.39537,2.182947 0.0971,0.443757 0.81991,0.940166 2.83723,1.94862 1.4888,0.74424 2.75776,1.40027 2.81991,1.45783 0.0622,0.0576 -0.22682,0.45937 -0.64217,0.8929 -0.41534,0.43352 -0.69806,0.84533 -0.62827,0.91513 0.11632,0.11632 9.22213,4.37653 9.35443,4.37653 0.0318,0 1.40901,-1.60364 3.06037,-3.56365 1.65137,-1.96001 3.03598,-3.53016 3.07691,-3.48922 0.092,0.092 -1.49255,12.68789 -1.61104,12.80638 -0.047,0.047 -1.66309,-0.1145 -3.59132,-0.35888 l -3.50587,-0.44432 -2.90111,3.08109 c -1.59565,1.69461 -3.04911,3.08111 -3.22995,3.08111 -0.28429,0 -2.62993,2.41939 -6.06101,6.25156 l -0.97788,1.0922 1.8675,3.92664 c 1.02713,2.15965 1.91679,3.97593 1.97704,4.03617 0.19685,0.19685 10.03522,-2.36734 10.44456,-2.72219 0.47091,-0.40821 6.2985,-1.80053 6.64357,-1.58727 0.36536,0.22581 7.73227,-1.44888 7.95436,-1.80822 0.10774,-0.17433 0.9969,-2.24284 1.97591,-4.59671 l 1.78002,-4.27974 1.31935,1.76201 c 1.1651,1.55601 4.72705,6.16294 5.21084,6.73958 0.0992,0.11829 1.21433,-0.3956 2.47796,-1.14197 1.71007,-1.01006 2.266,-1.47096 2.17425,-1.80257 -0.0678,-0.24504 -0.6984,-3.64292 -1.40134,-7.55084 l -1.27807,-7.1053 -2.04114,-1.22907 c -1.12263,-0.67599 -2.04536,-1.35839 -2.05052,-1.51644 -0.005,-0.15805 -3.35015,-1.81789 -7.43332,-3.68853 -4.08316,-1.87064 -7.46132,-3.46773 -7.50703,-3.54909 -0.0457,-0.0814 0.1352,-1.814807 0.40201,-3.852098 0.26682,-2.037292 0.48982,-3.789424 0.49558,-3.893625 0.006,-0.1042 0.87366,-0.668176 1.92869,-1.253273 l 1.91823,-1.063815 -3.53301,-0.0035 -3.53301,-0.0035 -3.70738,3.571875 c -2.03906,1.964532 -3.81352,3.571875 -3.94324,3.571875 -0.12972,0 0.59977,-1.668068 1.62109,-3.70682 1.74083,-3.475024 1.87663,-3.874564 2.17167,-6.389293 0.21232,-1.809584 0.45614,-2.820355 0.74931,-3.106201 0.78469,-0.765106 6.43406,-9.12473 6.46681,-9.569227 0.0176,-0.238816 1.33529,-2.200733 2.9282,-4.359812 1.59293,-2.159082 3.06473,-4.159525 3.27069,-4.445434 0.36422,-0.505621 0.32806,-0.515332 -1.32292,-0.355222 -0.93356,0.09054 -3.31892,0.244565 -5.30081,0.342289 l -3.60342,0.177681 0.61969,-3.67471 c 0.34083,-2.02109 0.99179,-5.439042 1.44658,-7.595449 0.45478,-2.156407 0.76984,-3.977781 0.70012,-4.047497 -0.0697,-0.06972 -1.41297,-0.474689 -2.98501,-0.89994 -2.049,-0.554273 -2.95326,-0.694338 -3.1938,-0.494705 -0.77646,0.644404 -1.29354,-0.05144 -2.8025,-3.771423 -0.83354,-2.054879 -1.46416,-3.819242 -1.40139,-3.920807 0.0628,-0.101565 0.77452,-0.343089 1.58166,-0.536721 0.80715,-0.193631 1.46754,-0.430211 1.46754,-0.525734 0,-0.09552 -0.7236,-0.519528 -1.60801,-0.942235 -0.8844,-0.422707 -1.66534,-0.861318 -1.73541,-0.97469 -0.0701,-0.113373 16.07213,-0.206132 35.87156,-0.206132 h 35.99894 v 26.19375 26.193749 h -7.65476 -7.65478 l -4.33633,6.019271 c -7.42779,10.310533 -7.36591,10.218663 -7.00985,10.408773 0.18133,0.0968 2.77046,0.73251 5.75364,1.41266 2.98318,0.68014 5.88785,1.35881 6.45483,1.50816 l 1.03087,0.27153 -3.2116,1.9188 -3.2116,1.91879 -3.67287,4.87361 c -2.02008,2.68049 -3.9199,5.01963 -4.22182,5.19809 -0.30191,0.17846 -1.1206,1.07899 -1.81931,2.00117 l -1.27037,1.67668 0.23821,8.03974 c 0.17807,6.00972 0.16137,8.06536 -0.0661,8.1412 -0.18249,0.0608 -0.30245,0.70183 -0.29959,1.60077 l 0.005,1.4993 5.48532,2.2222 c 3.01693,1.22222 7.98564,3.27736 11.04158,4.56699 l 5.55625,2.34477 1.32595,-1.39198 c 0.72928,-0.76559 2.72358,-2.87572 4.43177,-4.68919 l 3.10581,-3.29721 v 17.93646 17.93646 l -0.7276,-0.14933 c -0.40018,-0.0821 -2.97453,-0.52164 -5.72076,-0.97669 -3.62752,-0.60108 -5.04408,-0.74496 -5.17936,-0.52608 -0.13568,0.21954 -1.57936,0.0888 -5.3212,-0.48188 -2.82426,-0.43074 -5.17376,-0.7444 -5.22113,-0.69703 -0.0474,0.0474 0.75432,0.77755 1.78154,1.62261 1.02723,0.84507 1.86768,1.59052 1.86768,1.65656 0,0.066 -0.60747,1.73893 -1.34994,3.71754 l -1.34994,3.59747 -2.15579,0.99505 -2.15579,0.99505 -5.00459,-1.31442 c -2.75252,-0.72292 -5.10233,-1.25401 -5.22178,-1.18018 -0.11946,0.0738 0.2587,1.08075 0.84035,2.2376 0.58166,1.15684 0.95144,2.10336 0.82174,2.10336 -0.1297,0 -1.75506,-0.53894 -3.61191,-1.19765 -1.85684,-0.65871 -3.40707,-1.16472 -3.44493,-1.12448 -0.0379,0.0402 -0.83898,1.35752 -1.78024,2.92728 l -1.7114,2.85411 -3.60664,-5.69658 c -1.98365,-3.1331 -3.60664,-5.81612 -3.60664,-5.96222 0,-0.14611 1.32893,-2.46924 2.95319,-5.16252 1.62425,-2.69327 2.90071,-4.94933 2.83659,-5.01346 -0.0641,-0.0641 -2.24902,-0.47613 -4.85532,-0.91557 -3.32803,-0.56113 -4.83709,-0.71734 -5.06917,-0.52473 -0.20814,0.17274 -0.72969,0.19385 -1.40904,0.057 -1.06729,-0.21497 -1.10333,-0.26151 -3.44024,-4.4424 -1.62503,-2.90727 -2.2816,-4.32164 -2.10497,-4.53445 0.32346,-0.38976 -0.22852,-1.69144 -0.71727,-1.69144 -0.36554,0 -0.4041,0.12103 -1.70729,5.35782 l -0.83949,3.37343 -0.82714,-0.0152 c -0.45493,-0.008 -2.19289,-0.21707 -3.86215,-0.46383 l -3.035,-0.44865 -1.65256,-3.57107 c -0.9089,-1.96409 -1.65651,-3.66003 -1.66134,-3.76875 -0.005,-0.10872 2.25339,-1.70524 5.01829,-3.54782 2.76489,-1.84259 5.02401,-3.4205 5.02027,-3.5065 -0.004,-0.086 -1.28367,-2.60753 -2.84427,-5.60341 l -2.83746,-5.44708 -4.61018,2.99288 c -2.5356,1.64608 -4.71095,3.09365 -4.83412,3.21682 -0.12317,0.12316 0.3913,1.61269 1.14326,3.31005 l 1.36721,3.08612 -1.92705,2.91444 c -1.05987,1.60295 -1.95784,2.91445 -1.99548,2.91445 -0.0376,0 -0.94411,-0.36985 -2.01438,-0.82189 -1.07026,-0.45205 -2.75262,-1.1624 -3.73857,-1.57857 l -1.79264,-0.75666 -2.40872,3.70631 -2.40873,3.70632 -1.16952,-0.17538 c -1.1299,-0.16944 -1.1645,-0.15413 -1.0213,0.45193 0.0815,0.34503 0.50063,2.51891 0.93136,4.83085 0.43073,2.31195 0.84184,4.26223 0.91358,4.33397 0.0717,0.0717 2.16149,-0.56969 4.64389,-1.42541 l 4.51346,-1.55584 2.74669,2.77812 c 1.51068,1.52797 2.91081,2.74463 3.11139,2.70369 0.41389,-0.0845 7.19797,7.15272 7.79246,8.31293 0.55168,1.07666 4.12817,4.62605 4.51269,4.4785 0.1766,-0.0678 1.95119,1.59732 3.94352,3.70021 1.99234,2.10288 3.69452,3.82201 3.78264,3.82028 0.0881,-0.002 0.84985,-1.30749 1.69274,-2.90171 0.84289,-1.59422 1.62946,-2.95847 1.74792,-3.03169 0.21111,-0.13048 5.52846,1.2958 5.78415,1.55149 0.0715,0.0715 -0.81054,2.5038 -1.96017,5.40502 l -2.09024,5.27494 2.42748,2.60723 c 1.33512,1.43398 2.52282,2.51384 2.63933,2.3997 0.11652,-0.11415 1.65044,1.22759 3.40871,2.98164 l 3.19685,3.18917 6.19141,-0.67069 c 3.40528,-0.36888 6.27399,-0.57952 6.37491,-0.46809 0.10093,0.11142 0.96964,1.45275 1.93048,2.98072 l 1.74698,2.77812 -39.35134,0.067 c -22.9693,0.0391 -39.38418,-0.0315 -39.43023,-0.16964 -0.0434,-0.13015 -1.38296,-1.40405 -2.97685,-2.83088 l -2.89797,-2.59423 V 207.9727 197.44126 h 0.66146 c 0.3638,0 0.66146,-0.0814 0.66146,-0.1809 0,-0.0995 -0.6581,-2.61639 -1.46245,-5.5931 -0.80434,-2.97672 -1.40917,-5.4655 -1.34405,-5.53062 0.20743,-0.20743 4.8821,3.74718 4.91848,4.16087 0.0192,0.21828 0.8578,0.99218 1.86358,1.71979 1.00577,0.7276 1.83241,1.41221 1.83698,1.52135 0.0273,0.65212 0.70795,-0.18398 2.61812,-3.21584 l 2.15111,-3.41428 2.31589,-0.82088 c 1.27373,-0.45149 2.66981,-0.98018 3.10238,-1.17486 0.78422,-0.35295 0.78115,-0.35495 -1.05833,-0.68953 -1.01466,-0.18455 -1.97781,-0.50177 -2.14034,-0.70492 -0.16252,-0.20316 -1.66196,-0.66982 -3.33208,-1.03703 l -3.03659,-0.66766 -2.13844,0.78848 -2.13845,0.78847 -0.15579,-1.63978 c -0.0857,-0.90187 -0.27994,-3.18451 -0.43167,-5.07253 -0.15173,-1.88801 -0.30076,-3.45763 -0.33117,-3.48804 -0.0304,-0.0304 -1.63315,1.13126 -3.56164,2.5815 -2.21527,1.66591 -3.54791,2.51184 -3.61923,2.29743 -0.44746,-1.34531 -0.58606,-2.30276 -0.36529,-2.52353 0.15599,-0.15599 -0.19537,-2.0194 -0.93883,-4.97901 -0.65347,-2.60135 -1.1583,-4.75956 -1.12184,-4.79601 0.0365,-0.0365 0.8298,0.0567 1.763,0.20697 1.45566,0.23443 1.74046,0.21342 2.00464,-0.14787 0.16935,-0.23161 2.13729,-3.45324 4.3732,-7.15917 2.23589,-3.70594 4.26181,-6.80178 4.50203,-6.87964 0.45343,-0.14697 7.00768,-10.36112 6.78893,-10.57987 -0.24833,-0.24834 -8.29122,2.2771 -8.76688,2.75276 -0.26906,0.26906 -2.25309,1.01132 -4.40896,1.64947 l -3.91976,1.16027 -1.27365,1.84836 -1.27365,1.84837 -3.30622,-6.78376 c -3.84103,-7.88111 -2.87889,-7.09167 -8.64891,-7.09651 l -3.47025,-0.003 -2.54902,-5.56032 c -1.40196,-3.05817 -2.54902,-5.67754 -2.54902,-5.82083 0,-0.14328 -0.45773,-0.26052 -1.01717,-0.26052 -0.55945,0 -2.26937,-0.0766 -3.79983,-0.17025 l -2.78264,-0.17026 -1.37704,5.71029 c -0.75737,3.14066 -1.50907,5.7543 -1.67045,5.80809 -0.42947,0.14315 -1.80052,5.40269 -1.40837,5.40269 0.50261,0 5.64809,2.99652 5.79273,3.37345 0.0727,0.18946 1.83899,1.31085 3.92508,2.49198 2.0861,1.18113 3.94606,2.24937 4.13325,2.37388 0.24235,0.1612 0.45105,2.04851 0.72482,6.55482 0.21147,3.48064 0.38573,6.40945 0.38726,6.50847 0.002,0.099 -0.26511,0.21809 -0.59253,0.26459 -0.52472,0.0745 -0.68325,0.44173 -1.33687,3.0968 l -0.74156,3.01226 2.03181,4.59451 c 1.11749,2.52699 2.16557,4.59645 2.32906,4.59881 0.16348,0.002 0.86201,1.34181 1.55228,2.97656 1.1729,2.77778 1.281,3.23197 1.65201,6.94102 0.21833,2.18281 0.46703,4.4914 0.55266,5.1302 l 0.15568,1.16145 -1.36886,-0.18158 c -0.75287,-0.0999 -1.50681,-0.0747 -1.6754,0.0559 -0.17234,0.13353 -1.29113,0.15185 -2.5555,0.0418 -1.23693,-0.10761 -3.38348,-0.27373 -4.77011,-0.36914 l -2.52116,-0.17348 -0.67054,3.4167 -0.67055,3.4167 3.91931,1.94573 c 2.15561,1.07015 3.9193,2.0083 3.9193,2.08476 0,0.0765 -0.54464,1.77322 -1.2103,3.77057 l -1.21031,3.63155 -3.99524,0.0729 -3.99524,0.0729 -0.61903,2.89211 c -0.34046,1.59066 -0.65992,2.933 -0.7099,2.98299 -0.05,0.05 -2.47549,-1.7043 -5.39001,-3.8984 l -5.29912,-3.98928 -3.66824,0.27762 c -2.017529,0.15268 -3.864033,0.27809 -4.103342,0.27868 -0.386728,0.001 -0.398631,0.12461 -0.107053,1.11212 0.307878,1.04272 0.275335,1.22487 -0.529121,2.96164 -0.471447,1.01782 -0.808084,1.97852 -0.748084,2.13488 0.06,0.15636 -0.522597,1.77042 -1.294661,3.5868 l -1.403754,3.30251 -6.141631,0.071 -6.14163,0.071 z m 89.164586,-96.15555 c 1.96453,-0.3848 3.65675,-0.77337 3.76049,-0.86351 0.10375,-0.0901 -1.16586,-2.70957 -2.82135,-5.82096 -1.65548,-3.11139 -2.9514,-5.80971 -2.87981,-5.99626 0.17258,-0.44974 -3.39182,-7.245919 -3.80371,-7.252454 -0.18336,-0.0029 -0.94597,1.947125 -1.78289,4.558974 l -1.46248,4.56407 2.54044,5.75468 c 1.39725,3.16508 2.61627,5.75478 2.70894,5.75488 0.0927,1.1e-4 1.77583,-0.31463 3.74037,-0.69942 z M 143.76726,72.261921 c -0.30579,-0.599397 -0.45545,-1.190342 -0.33258,-1.313209 0.12287,-0.122867 2.54353,-0.409527 5.37925,-0.637021 2.83572,-0.227494 5.3785,-0.440222 5.65062,-0.472729 0.39481,-0.04716 0.0117,-0.67379 -1.89616,-3.101811 -1.31501,-1.673489 -3.34739,-4.173802 -4.51639,-5.556249 -1.24251,-1.469389 -2.0276,-2.611417 -1.88989,-2.749152 0.1377,-0.137733 -0.25251,-0.834765 -0.93932,-1.6779 -0.64619,-0.793259 -1.17488,-1.552025 -1.17488,-1.686145 0,-0.134121 0.83065,-1.902004 1.8459,-3.928629 1.6021,-3.198096 1.78477,-3.704172 1.38312,-3.831654 -0.25454,-0.08079 -3.13053,0.805044 -6.39111,1.968507 -3.26058,1.163464 -5.96963,2.115389 -6.02012,2.115389 -0.0505,0 0.0761,0.327422 0.28129,0.727605 0.20521,0.400182 0.37694,1.02526 0.38164,1.389062 0.005,0.363802 0.67299,2.140134 1.48508,3.947405 0.8121,1.807271 1.42117,3.341318 1.35349,3.408992 -0.0677,0.06767 -1.51606,-0.423428 -3.21864,-1.091339 -1.70258,-0.667912 -3.20115,-1.149151 -3.33016,-1.069422 -0.129,0.07973 0.17801,0.461374 0.68225,0.8481 0.50424,0.386726 2.61299,2.783836 4.68611,5.32691 4.63335,5.683676 6.95726,8.473104 7.05907,8.473104 0.0426,0 -0.17278,-0.490416 -0.47857,-1.089814 z m 80.59714,-7.906019 2.14852,-2.248959 -0.82079,-3.439583 -0.82079,-3.439583 -0.92265,-0.09025 c -0.50747,-0.04964 -1.99422,-0.0102 -3.30391,0.08764 l -2.38125,0.177885 -3.57188,5.177319 c -1.96453,2.847525 -3.60815,5.268406 -3.65249,5.379734 -0.0443,0.111329 1.61701,1.220693 3.69188,2.465248 l 3.77249,2.26283 1.85618,-2.041663 c 1.0209,-1.122912 2.82301,-3.053693 4.00469,-4.29062 z m 18.90225,159.639288 c 0,-0.65503 1.12947,-6.61737 1.28309,-6.77327 0.21023,-0.21335 10.96463,6.25444 11.10823,6.68059 0.0565,0.16767 -2.15412,0.26172 -6.15156,0.26172 -3.43187,0 -6.23976,-0.0761 -6.23976,-0.16904 z m 17.33021,-11.75635 c -1.74625,-1.31278 -3.2086,-2.58967 -3.24967,-2.83752 -0.11029,-0.66561 -1.59117,-16.055 -1.54891,-16.09642 0.0198,-0.0195 1.85179,1.52177 4.07098,3.42495 l 4.03489,3.46032 v 7.22453 c 0,3.97349 -0.0298,7.22149 -0.0661,7.21778 -0.0364,-0.004 -1.4949,-1.08085 -3.24115,-2.39364 z m -15.52222,0.86914 c -0.0485,-0.11458 -1.54671,-1.38968 -3.32934,-2.83355 -2.71693,-2.20063 -3.5906,-3.03839 -3.175,-3.0445 0.0364,-5.3e-4 1.90404,-0.35538 4.15036,-0.78853 2.24632,-0.43316 4.13217,-0.7396 4.19078,-0.681 0.0876,0.0877 -0.49682,3.52987 -1.15942,6.82831 -0.13953,0.69461 -0.48956,0.96294 -0.67738,0.51927 z M 185.81928,87.678395 c 1.50004,-1.791628 1.56408,-1.831038 3.70784,-2.281994 2.26073,-0.475559 2.14579,-0.467077 2.14579,-0.158371 0,0.226943 -6.33274,3.724121 -6.74369,3.724121 -0.10161,0 0.29891,-0.577691 0.89006,-1.283756 z"
         id="path1263" />
      <path
         style="fill:#000000;stroke-width:0.264583"
         d="m 78.695824,212.19972 v -11.97426 l 4.142702,-4.14878 4.142701,-4.14878 -1.033847,-0.26426 c -0.568616,-0.14534 -2.432832,-0.58334 -4.142702,-0.97332 l -3.108854,-0.70907 v -21.62976 -21.62976 l 2.819284,-0.1725 c 1.550607,-0.0949 3.231757,-0.1725 3.73589,-0.1725 h 0.916605 l -0.169286,3.10886 c -0.09311,1.70987 -0.239375,4.19378 -0.325039,5.51981 l -0.155752,2.41096 2.063021,0.30684 c 1.134661,0.16876 2.088223,0.33398 2.119026,0.36716 0.0308,0.0332 0.143078,2.88807 0.249499,6.34419 0.162164,5.26643 0.134305,6.2816 -0.172065,6.26993 -0.201057,-0.008 -1.228761,-0.16843 -2.283787,-0.35728 -1.055026,-0.18885 -1.918229,-0.32386 -1.918229,-0.30002 0,0.29515 4.038498,9.28205 4.222134,9.39555 0.154595,0.0955 -0.03709,2.55576 -0.495934,6.36518 -0.411361,3.4152 -0.673899,6.28219 -0.583419,6.37109 0.09048,0.0889 1.712323,0.54123 3.604093,1.00517 5.261888,1.29043 5.423959,1.34205 5.423959,1.72741 0,0.21687 0.552959,0.49001 1.389062,0.68615 0.763984,0.17923 1.485304,0.38102 1.602934,0.44842 0.11763,0.0674 -1.608779,1.25493 -3.836459,2.63895 -2.227681,1.38402 -4.196776,2.65449 -4.375766,2.82327 -0.293841,0.27709 0.661635,4.40753 2.517255,10.88188 0.183885,0.64158 0.06438,1.14588 -0.623475,2.63091 -0.468032,1.01045 -0.801875,1.96511 -0.741875,2.12147 0.06,0.15636 -0.522597,1.77042 -1.294661,3.5868 l -1.403754,3.30251 -6.141631,0.071 -6.14163,0.071 z m 78.052086,11.73988 c 0,-0.12355 -1.30969,-1.39706 -2.91042,-2.83001 l -2.91042,-2.60538 v -10.53145 c 0,-9.8522 0.0299,-10.53167 0.46302,-10.535 0.25466,-0.002 2.16296,0.13928 4.24066,0.31384 3.46539,0.29116 3.78821,0.36253 3.90559,0.86345 0.25867,1.10381 2.23865,10.748 2.23865,10.90412 0,0.0887 0.68461,0.0871 1.52135,-0.004 l 1.52136,-0.16498 1.71979,3.07672 c 0.94588,1.6922 1.9832,3.2501 2.30515,3.46201 0.32196,0.21191 1.49987,2.07117 2.61761,4.13169 1.11773,2.06052 2.08173,3.8357 2.14223,3.94484 0.0605,0.10914 -3.70704,0.19844 -8.37229,0.19844 -4.66526,-1e-5 -8.48228,-0.10109 -8.48228,-0.22464 z m 48.167,-1.16443 c -0.15909,-0.76398 -0.86132,-4.1275 -1.56051,-7.47448 -0.85838,-4.10903 -1.1787,-6.13758 -0.98627,-6.24604 0.15674,-0.0883 1.23748,-0.31413 2.40165,-0.50174 1.16417,-0.18762 2.21018,-0.39286 2.32447,-0.45609 0.1143,-0.0632 -0.84319,-1.26621 -2.12775,-2.67326 -1.50758,-1.65134 -2.32175,-2.75356 -2.29659,-3.10912 0.0401,-0.5668 2.89803,-6.08578 3.2707,-6.3161 0.20628,-0.12749 5.5266,1.30534 5.77711,1.55584 0.0715,0.0715 -0.81035,2.50331 -1.95975,5.40394 l -2.08981,5.27388 2.44918,2.63961 2.44917,2.63961 0.40106,5.12807 c 0.22058,2.82044 0.40109,5.21736 0.40112,5.3265 2e-5,0.10915 -1.83698,0.19844 -4.08223,0.19844 h -4.08229 z m -21.97325,-2.91153 c 0,-0.094 -0.1843,-2.27455 -0.40954,-4.84573 -0.22525,-2.57118 -0.36682,-4.7176 -0.31461,-4.76981 0.0701,-0.0701 3.56896,2.70191 4.39752,3.48407 0.0558,0.0527 -0.41293,0.96296 -1.04166,2.02279 -1.60786,2.7103 -2.63171,4.30877 -2.63171,4.10868 z m -74.34792,-5.12053 c -2.54661,-1.94985 -4.86833,-3.71203 -5.15937,-3.91597 -1.05348,-0.73816 -0.0666,-0.9681 5.82102,-1.3563 3.17298,-0.2092 5.7906,-0.41182 5.81693,-0.45026 0.0263,-0.0384 0.38053,-1.67723 0.7871,-3.64176 1.12712,-5.44613 0.4999,-5.1161 5.23091,-2.75239 2.22193,1.11012 4.082,2.05701 4.13349,2.10419 0.0515,0.0472 -0.46337,1.75709 -1.14416,3.79979 l -1.23778,3.714 -4.00366,0.0729 -4.00366,0.0729 -0.21315,1.05834 c -0.63572,3.15647 -1.07267,4.89175 -1.22558,4.86724 -0.0945,-0.0152 -2.25548,-1.62288 -4.80209,-3.57274 z m 152.00312,-2.50427 c -1.74625,-1.31278 -3.2086,-2.58967 -3.24967,-2.83752 -0.11029,-0.66561 -1.59117,-16.055 -1.54891,-16.09642 0.0198,-0.0195 1.85179,1.52177 4.07098,3.42495 l 4.03489,3.46032 v 7.22453 c 0,3.97349 -0.0298,7.22149 -0.0661,7.21778 -0.0364,-0.004 -1.4949,-1.08085 -3.24115,-2.39364 z m -43.62214,-17.32543 c -1.25569,-1.98446 -2.28,-3.68602 -2.27626,-3.78125 0.004,-0.0952 2.15114,-1.64992 4.77198,-3.45488 2.62084,-1.80496 4.82702,-3.38182 4.90262,-3.50415 0.0756,-0.12232 0.36241,-1.53351 0.63734,-3.13598 0.54449,-3.17348 0.63781,-3.43958 1.20625,-3.43958 0.31435,0 0.38125,-0.67048 0.38125,-3.82085 0,-2.10146 0.10484,-3.88563 0.23297,-3.96482 0.23506,-0.14527 13.23604,2.38106 13.47304,2.61807 0.12434,0.12434 -0.43496,0.80914 -4.00214,4.90023 -0.95031,1.08987 -1.69117,2.01825 -1.64636,2.06306 0.0448,0.0448 1.60238,0.31814 3.46127,0.6074 l 3.37981,0.52593 1.61269,1.36254 c 0.88697,0.7494 1.7734,1.50549 1.96982,1.6802 0.29574,0.26305 0.1205,0.94837 -1.01921,3.98597 l -1.37635,3.66831 -2.15579,0.99505 -2.15579,0.99505 -5.00459,-1.31442 c -2.75252,-0.72292 -5.10233,-1.25401 -5.22178,-1.18018 -0.11946,0.0738 0.2587,1.08075 0.84035,2.2376 0.58166,1.15684 0.95144,2.10336 0.82174,2.10336 -0.1297,0 -1.75506,-0.53894 -3.61191,-1.19765 -1.85684,-0.65871 -3.40707,-1.16472 -3.44493,-1.12448 -0.0379,0.0402 -0.83927,1.35801 -1.7809,2.92837 l -1.71205,2.8552 z m 40.68846,-12.50132 -5.57951,-0.94552 -1.56424,-2.18452 c -0.86033,-1.20148 -1.77275,-2.22083 -2.02761,-2.26523 -0.25486,-0.0444 -1.64701,-1.73641 -3.09368,-3.76004 l -2.63029,-3.67933 1.45399,-1.60671 1.45399,-1.60671 -2.99052,-1.46084 c -1.64479,-0.80345 -3.02105,-1.47151 -3.05836,-1.48456 -0.12037,-0.0421 1.73164,-11.78244 1.88244,-11.93325 0.12471,-0.1247 7.56923,2.87147 12.04334,4.84704 l 1.42254,0.62813 -1.12003,1.21508 c -0.61601,0.6683 -1.01802,1.3076 -0.89337,1.42068 0.12466,0.11307 1.89353,0.46368 3.93083,0.77911 2.03729,0.31545 4.4483,0.70029 5.35781,0.85521 l 1.65364,0.28167 v 10.95305 c 0,8.60226 -0.071,10.94653 -0.33073,10.92266 -0.1819,-0.0167 -2.84151,-0.45588 -5.91024,-0.97592 z m -64.79193,-9.53843 -2.90271,-0.43547 -1.65256,-3.57187 c -0.90891,-1.96453 -1.65653,-3.65957 -1.66136,-3.76676 -0.005,-0.10718 2.16409,-1.6402 4.81985,-3.4067 2.65575,-1.7665 4.9316,-3.30577 5.05744,-3.42059 0.12585,-0.11482 -1.04201,-2.65975 -2.59522,-5.65539 -1.55322,-2.99565 -2.76384,-5.54403 -2.69027,-5.66307 0.0736,-0.11904 1.26143,-0.92006 2.63969,-1.78004 1.37825,-0.85998 2.44715,-1.65868 2.37533,-1.77488 -0.0718,-0.11621 -0.52333,-2.55264 -1.00334,-5.4143 l -0.87276,-5.20301 0.54165,-0.4386 c 0.58701,-0.47533 6.45035,-1.9251 6.83194,-1.68927 0.36225,0.22389 7.72945,-1.45439 7.94985,-1.811 0.10774,-0.17433 0.99602,-2.24075 1.97397,-4.59205 l 1.77808,-4.27509 2.14218,2.81568 c 1.1782,1.54863 2.64576,3.45146 3.26125,4.22851 0.61548,0.77706 1.11875,1.49143 1.11837,1.5875 -2.6e-4,0.0961 -1.54722,1.11381 -3.43742,2.26163 -1.89019,1.14782 -3.53963,2.21938 -3.66541,2.38125 -0.12578,0.16186 -1.13151,2.02071 -2.23497,4.13076 l -2.00627,3.83646 2.29894,2.55781 c 1.26442,1.4068 4.17025,4.51259 6.45741,6.90176 l 4.15846,4.34394 -0.92979,3.54929 c -0.51138,1.9521 -0.98511,3.71151 -1.05272,3.90978 -0.0793,0.23263 -1.18632,-0.63127 -3.12095,-2.43562 l -2.99802,-2.7961 -3.91009,2.77885 c -2.15055,1.52837 -4.8658,3.50637 -6.03389,4.39556 -1.9957,1.5192 -2.14537,1.58721 -2.48148,1.12755 -0.19673,-0.26904 -0.35769,-0.58548 -0.35769,-0.70318 0,-0.11771 -0.17401,-0.21402 -0.38668,-0.21402 -0.41235,0 -0.42961,0.0529 -1.74976,5.35782 l -0.83949,3.37343 -0.95943,-0.0275 c -0.52769,-0.0152 -2.26565,-0.22351 -3.86213,-0.46302 z m -52.54422,-29.25622 c -3.79409,-7.80124 -2.8397,-7.02253 -8.61292,-7.02738 l -3.47025,-0.003 -2.54902,-5.56032 c -1.40196,-3.05817 -2.54902,-5.67754 -2.54902,-5.82083 0,-0.14328 -0.45773,-0.26052 -1.01717,-0.26052 -0.55945,0 -2.26937,-0.0766 -3.79983,-0.17025 l -2.78264,-0.17026 -1.37704,5.71029 c -0.75737,3.14066 -1.5114,5.75507 -1.67562,5.80981 -0.16422,0.0547 -0.66497,1.48848 -1.11277,3.18609 l -0.81419,3.08656 -3.54693,-5.68633 c -3.11277,-4.9903 -3.61405,-5.66555 -4.09526,-5.51656 -0.30159,0.0934 -1.46902,0.4936 -2.59429,0.88941 l -2.045952,0.71964 -0.136191,-0.82034 c -0.395185,-2.38039 -0.90692,-7.128 -0.788896,-7.31897 0.07475,-0.12095 1.442517,-0.72073 3.039479,-1.33283 1.59695,-0.6121 2.90355,-1.19391 2.90355,-1.29292 0,-0.099 -2.55984,-1.31945 -5.688538,-2.71208 -5.522536,-2.45818 -5.688542,-2.51317 -5.688542,-1.88433 0,0.35626 0.886372,2.16043 1.969715,4.00926 1.083343,1.84884 2.038142,3.54268 2.121776,3.76409 0.117237,0.31038 -0.409584,0.60017 -2.300444,1.26546 -1.348878,0.47458 -2.595381,0.95162 -2.770007,1.06008 -0.243414,0.15118 -0.195453,1.0284 0.205532,3.75926 0.30815,2.09862 0.420887,3.59612 0.274404,3.64495 -0.136746,0.0456 -0.765017,1.56419 -1.396157,3.37469 -0.63114,1.8105 -1.207058,3.28954 -1.279819,3.28675 -0.07276,-0.003 -1.50151,-1.90451 -3.174999,-4.22605 -1.67349,-2.32154 -3.107509,-4.22376 -3.186709,-4.22716 -0.0792,-0.003 -0.893553,1.00586 -1.809672,2.24279 -0.916119,1.23692 -1.714522,2.24895 -1.774228,2.24895 -0.05971,0 -0.108558,-1.11993 -0.108558,-2.48873 v -2.48874 l 2.976562,-1.24471 c 2.732957,-1.14285 3.920455,-1.81899 3.622272,-2.06246 -0.0641,-0.0523 -1.575058,-1.20531 -3.357688,-2.56216 l -3.241146,-2.467 v -11.33476 c 0,-6.23412 0.05065,-11.33477 0.112557,-11.33477 0.06191,0 0.884294,1.10133 1.827529,2.4474 0.943234,1.34606 2.714032,3.77525 3.935106,5.3982 1.856759,2.46784 2.294541,2.90917 2.674729,2.6964 0.250027,-0.13992 2.023781,-0.90572 3.941676,-1.70178 1.917895,-0.79605 3.548164,-1.50845 3.62282,-1.58311 0.07466,-0.0746 -1.047669,-2.51205 -2.494055,-5.41643 l -2.629794,-5.280696 2.573466,-2.583159 2.573465,-2.583159 -1.652604,-1.661774 c -0.908932,-0.913976 -1.47401,-1.601398 -1.255729,-1.527606 0.218282,0.0738 1.623819,0.493178 3.123417,0.931966 l 2.726541,0.79779 4.724202,-2.364864 4.7242,-2.364867 -1.29639,3.205818 c -0.71301,1.763199 -1.33521,3.244641 -1.38266,3.292089 -0.0475,0.04745 -0.91153,-0.149736 -1.92018,-0.438182 -1.00865,-0.288449 -1.92167,-0.524452 -2.02893,-0.524452 -0.10727,0 -0.22671,3.239545 -0.26543,7.198987 l -0.0704,7.198989 -1.653651,0.64794 c -0.909505,0.35636 -1.653645,0.71912 -1.653645,0.80612 0,0.12548 4.107706,1.33187 7.849556,2.30533 l 0.57351,0.1492 -0.64774,-2.55089 c -0.35626,-1.40299 -0.58182,-2.65754 -0.50126,-2.7879 0.0806,-0.13036 2.04874,-0.97733 4.37371,-1.88216 l 4.22722,-1.64514 v -3.009754 c 0,-2.781199 0.0352,-2.991586 0.46302,-2.770476 1.0334,0.534043 8.01074,2.452016 8.2907,2.278997 0.1657,-0.102413 0.37727,-0.07204 0.47013,0.06749 0.18177,0.273092 13.7949,-5.175448 13.7949,-5.521291 0,-0.188767 -5.34552,-4.071254 -5.84426,-4.244729 -0.3259,-0.113352 -2.40859,-10.318686 -2.15714,-10.570135 0.11754,-0.117541 3.19437,2.373886 6.8374,5.536504 3.64303,3.162617 6.812,5.903656 7.04217,6.091195 0.35163,0.28652 1.02495,0.100695 4.21546,-1.163402 2.08835,-0.827413 3.89878,-1.594609 4.02319,-1.704883 0.21721,-0.192539 -2.3554,-6.230998 -2.7616,-6.482042 -0.10881,-0.06725 -1.32017,0.398634 -2.69191,1.035298 -2.46813,1.14554 -2.49763,1.151861 -2.83728,0.608 -0.18877,-0.302268 -2.41029,-3.085037 -4.93671,-6.183929 -2.52641,-3.098893 -4.59348,-5.743723 -4.59348,-5.877399 0,-0.133675 0.42764,-0.38418 0.95032,-0.55668 0.52268,-0.172498 2.06129,-0.758942 3.41914,-1.303203 l 2.46881,-0.989571 2.58765,3.13477 c 1.4232,1.724123 2.62544,3.134768 2.67165,3.134768 0.0462,0 -0.16618,-0.490416 -0.47197,-1.089814 -0.30579,-0.599397 -0.45545,-1.190342 -0.33258,-1.313209 0.12287,-0.122867 2.54353,-0.409527 5.37925,-0.637021 2.83572,-0.227494 5.37886,-0.440222 5.65143,-0.472729 0.39855,-0.04753 0.0733,-0.597315 -1.66094,-2.807888 -1.18608,-1.511831 -2.11007,-2.795223 -2.05332,-2.851982 0.1755,-0.175493 8.08611,-1.649907 11.13981,-2.076284 1.59172,-0.222247 2.93245,-0.442496 2.97939,-0.489443 0.047,-0.04695 0.3991,-1.681503 0.78257,-3.632348 0.38346,-1.950845 0.78102,-3.642213 0.88345,-3.758596 0.17249,-0.195963 3.85953,2.68093 4.2966,3.352502 0.1424,0.21882 0.19547,0.21937 0.19843,0.0021 0.002,-0.163145 1.64117,-1.045889 3.64208,-1.961653 2.00091,-0.915763 5.51157,-2.597842 7.80146,-3.737952 l 4.16345,-2.072928 1.98812,0.983746 c 1.09346,0.54106 1.98811,1.109087 1.98811,1.262282 0,0.153195 1.25016,0.900281 2.77813,1.660191 l 2.77812,1.381654 -10e-4,1.522936 c -7.9e-4,0.837615 -0.0787,2.690134 -0.17312,4.11671 l -0.17176,2.593773 -2.27427,1.963296 -2.27427,1.963296 -1.5875,0.0093 c -0.87313,0.0051 -2.1995,0.08282 -2.94748,0.172693 l -1.35998,0.163404 -0.5733,3.736901 c -0.31531,2.055297 -0.63034,3.933489 -0.70007,4.173757 -0.0836,0.288033 -0.75527,0.590878 -1.97168,0.888974 -1.0147,0.248666 -1.90486,0.549111 -1.97812,0.667657 -0.0733,0.118544 -0.49142,2.561638 -0.92922,5.429097 -0.4378,2.867456 -0.86008,5.317225 -0.93838,5.443926 -0.0783,0.126701 -0.30809,0.230367 -0.51062,0.230367 -0.20253,0 -0.96653,0.128313 -1.69778,0.285137 l -1.32954,0.285136 2.441,2.070698 c 4.92628,4.178956 4.93795,4.192248 5.23274,5.957988 0.14577,0.873125 0.32369,1.855451 0.39537,2.182947 0.0971,0.443756 0.81991,0.940165 2.83723,1.948611 1.4888,0.74424 2.75776,1.40027 2.81991,1.45784 0.0622,0.0576 -0.22682,0.45936 -0.64217,0.89289 -0.41534,0.43353 -0.69806,0.84534 -0.62827,0.91513 0.11632,0.11633 9.22213,4.37654 9.35443,4.37654 0.0318,0 1.40901,-1.60364 3.06037,-3.56365 1.65137,-1.96001 3.03598,-3.53016 3.07691,-3.48923 0.092,0.092 -1.49255,12.68789 -1.61104,12.80638 -0.047,0.047 -1.66309,-0.1145 -3.59132,-0.35888 l -3.50587,-0.44432 -2.90111,3.0811 c -1.59565,1.6946 -3.05469,3.0811 -3.24236,3.0811 -0.18767,0 -1.75205,1.54518 -3.4764,3.43374 -1.72436,1.88856 -3.21117,3.34707 -3.30404,3.24114 -0.0929,-0.10592 -1.62581,-1.97853 -3.40654,-4.16134 -1.78072,-2.18281 -3.38729,-4.00389 -3.57016,-4.04685 -0.18286,-0.0429 -1.72712,1.40842 -3.43168,3.22526 -2.81336,2.99869 -3.07118,3.35573 -2.79538,3.87107 0.16711,0.31225 0.26192,0.60963 0.21069,0.66086 -0.0512,0.0512 -1.43462,-0.292 -3.07421,-0.76272 l -2.98107,-0.85585 1.69545,-2.24777 1.69546,-2.24777 -0.74694,-1.47717 -0.74693,-1.47716 3.7579,-0.7308 c 2.06685,-0.40194 3.84278,-0.80525 3.94652,-0.89624 0.10375,-0.091 -1.16586,-2.71113 -2.82135,-5.82252 -1.65548,-3.11139 -2.9514,-5.80971 -2.87981,-5.99626 0.17375,-0.45277 -3.39326,-7.245959 -3.80816,-7.252452 -0.1892,-0.003 -0.90202,1.817921 -1.70701,4.360542 -0.76018,2.40109 -1.45656,4.36562 -1.54751,4.36562 -0.0909,0 -0.70082,-1.16086 -1.35527,-2.57969 l -1.18991,-2.579682 -3.11567,-1.018715 c -1.71362,-0.560292 -3.20761,-0.917479 -3.31999,-0.79375 -0.11237,0.12373 -0.88816,2.406737 -1.72398,5.073357 l -1.51966,4.8484 0.75221,0.84014 c 0.41371,0.46208 1.7074,1.83876 2.87485,3.05928 1.16745,1.22052 1.88452,2.13103 1.59347,2.02335 -0.29104,-0.10768 -1.17281,-0.42165 -1.95949,-0.69772 l -1.43033,-0.50195 -1.74467,1.19301 c -0.95957,0.65615 -2.07497,1.4598 -2.47867,1.78588 l -0.73399,0.59288 3.33445,4.63021 c 1.84376,2.56024 3.54608,4.66596 3.80784,4.71017 0.26217,0.0443 1.522,1.6055 2.82351,3.49898 1.29255,1.88046 2.41129,3.42205 2.48608,3.42576 0.0748,0.004 0.42868,-0.46684 0.78642,-1.04568 0.35774,-0.57884 0.73681,-0.96579 0.84237,-0.85989 0.10556,0.10589 1.30748,2.57929 2.67093,5.49644 l 2.47901,5.30391 -3.70766,1.04609 c -2.16995,0.61224 -3.98787,1.28345 -4.38327,1.61839 -0.38355,0.3249 -2.35355,1.06837 -4.55702,1.7198 l -3.88141,1.14749 -1.13693,1.67343 c -0.62531,0.92039 -1.21368,1.72086 -1.30748,1.77883 -0.0938,0.058 -1.63989,-2.91582 -3.43577,-6.60843 z m 86.42018,-6.63341 c 0.10435,-0.43657 0.20847,-0.81933 0.23139,-0.8506 0.0229,-0.0313 -0.77488,-0.92423 -1.77289,-1.98437 -0.99801,-1.06015 -2.52801,-2.72439 -3.4,-3.69832 l -1.58544,-1.77079 0.60913,-0.3754 c 0.33502,-0.20647 1.35336,-0.81728 2.26298,-1.35735 1.37124,-0.81415 1.63191,-1.08037 1.5255,-1.55798 -0.60088,-2.69684 -2.54747,-13.99611 -2.43121,-14.11236 0.0818,-0.0818 1.04511,0.43012 2.14072,1.13757 1.09561,0.70744 2.22216,1.39901 2.50345,1.53681 0.32936,0.16135 1.10179,1.69203 2.16966,4.29948 0.91201,2.22691 1.76466,4.04893 1.89477,4.04893 0.1301,0 2.67148,-1.51054 5.6475,-3.35675 2.97602,-1.84621 5.61706,-3.37866 5.86898,-3.40544 0.25192,-0.0268 0.68337,-0.14285 0.95878,-0.25792 0.61373,-0.25641 -6.43789,9.14073 -7.19627,9.58992 -0.66331,0.39287 -2.83338,3.22487 -6.69253,8.7339 -1.83624,2.62127 -2.85365,3.87909 -2.73452,3.38067 z m -19.3316,-33.90668 c -2.32833,-1.08858 -4.30877,-2.06069 -4.40097,-2.16024 -0.0922,-0.0995 0.0519,-1.847876 0.32026,-3.885167 0.26836,-2.037292 0.49262,-3.789424 0.49838,-3.893625 0.006,-0.1042 0.87366,-0.668176 1.92869,-1.253273 l 1.91823,-1.063815 -3.53301,-0.0035 -3.53301,-0.0035 -3.70738,3.571875 c -2.03906,1.964532 -3.81352,3.571875 -3.94324,3.571875 -0.12972,0 0.59977,-1.668068 1.62109,-3.70682 1.73303,-3.459454 1.87761,-3.882954 2.16662,-6.346201 0.17032,-1.45166 0.37728,-2.746123 0.45992,-2.876587 0.0826,-0.13046 1.51948,-0.527301 3.19297,-0.881861 l 3.0427,-0.644657 0.16882,-3.818292 c 0.0928,-2.100059 0.21847,-4.070927 0.27914,-4.379704 0.0607,-0.308776 1.57398,-2.545664 3.36289,-4.970856 l 3.25256,-4.409443 1.21442,0.711695 c 0.66793,0.391435 2.46627,1.463627 3.99632,2.382655 l 2.78189,1.670955 1.83558,-2.042004 c 1.00956,-1.123101 3.1867,-3.366352 4.83808,-4.984999 l 3.00251,-2.942995 1.12765,0.201857 c 0.6202,0.111022 3.11361,0.351633 5.54091,0.534691 2.42729,0.183059 4.53419,0.407575 4.682,0.498925 0.17735,0.109608 0.1918,1.018581 0.0425,2.672887 -0.12444,1.378738 -0.30951,4.73988 -0.41127,7.469202 l -0.18502,4.962409 -1.02959,0.164637 c -0.56627,0.09055 -1.02631,0.238717 -1.02231,0.329261 0.004,0.09054 3.25956,2.325293 7.23457,4.966112 l 7.22729,4.801494 2.17256,-2.899193 c 1.1949,-1.594553 2.23264,-3.055786 2.30609,-3.247181 0.0981,-0.25555 1.16606,0.09949 4.02048,1.336551 l 3.88694,1.684541 0.0736,3.574169 0.0736,3.574169 h -7.66296 -7.66296 l -3.52315,4.896112 -3.52316,4.896121 -5.91105,-5.954454 c -3.25108,-3.274944 -6.06529,-5.954446 -6.25379,-5.954446 -0.18851,0 -1.80084,-1.550249 -3.58296,-3.444999 l -3.24022,-3.444999 -1.4862,0.826439 c -0.8174,0.454541 -1.66479,1.040744 -1.88307,1.302673 -0.21828,0.26193 -1.25161,0.901735 -2.29629,1.421792 l -1.89943,0.945555 1.44216,3.487464 1.44215,3.487465 -3.06775,5.646807 c -1.68726,3.105743 -3.08883,5.636653 -3.1146,5.624233 -0.0258,-0.0124 -1.95186,-0.91323 -4.2802,-2.00181 z M 85.898785,54.551408 C 84.403382,53.989587 83.033117,53.58623 82.85375,53.655059 82.648549,53.733802 81.817246,52.35543 80.611727,49.937593 l -1.915903,-3.84261 v -3.56954 -3.569541 h 2.022053 c 1.704784,0 2.400147,0.150515 4.43177,0.95928 1.325345,0.527605 2.826437,0.989209 3.33576,1.025788 0.509323,0.03658 1.738041,0.376607 2.730484,0.755619 l 1.804442,0.689113 -0.481526,-0.629488 c -0.264839,-0.346218 -0.878483,-1.117923 -1.363653,-1.7149 l -0.882129,-1.085412 h 14.457635 c 11.48856,0 14.41959,0.06792 14.27234,0.330729 -0.4384,0.782436 -3.12549,5.11268 -3.29542,5.310562 -0.10265,0.119534 -0.51826,-0.09001 -0.92358,-0.465647 -0.40532,-0.37564 -0.77804,-0.641896 -0.82825,-0.59168 -0.0502,0.05022 -0.46051,1.926633 -0.91175,4.169815 -0.45125,2.243182 -0.85273,4.113104 -0.89219,4.155382 -0.0395,0.04228 -2.41681,-0.05446 -5.283,-0.214981 l -5.21126,-0.291851 -0.70909,-0.784902 -0.70909,-0.784902 -2.116671,1.894729 c -1.164167,1.0421 -2.317995,2.069685 -2.564063,2.283521 -0.40974,0.356068 -0.577752,0.128807 -1.996147,-2.700089 l -1.548751,-3.088883 -1.556555,3.604598 c -0.856106,1.982529 -1.624715,3.646448 -1.70802,3.697598 -0.08331,0.05115 -1.374976,-0.366672 -2.870378,-0.928493 z m 169.753045,-0.0035 c -0.12103,-0.363096 -8.4827,-4.998934 -8.73516,-4.842906 -0.11574,0.07153 -0.21043,0.885477 -0.21043,1.808771 v 1.678716 l -2.71198,0.181256 c -1.49159,0.09969 -3.18543,0.140914 -3.7641,0.09161 l -1.05212,-0.08965 -1.37869,-7.011458 c -0.75828,-3.856302 -1.38615,-7.100755 -1.39527,-7.209896 -0.009,-0.10914 6.17466,-0.198437 13.74174,-0.198437 h 13.75833 v 6.729045 c 0,6.181648 -0.0377,6.739846 -0.46302,6.861813 -2.09483,0.600676 -7.14046,2.069513 -7.39124,2.151667 -0.1725,0.05651 -0.35162,-0.01123 -0.39806,-0.150528 z m -94.6405,-12.905463 -4.07095,-2.554242 5.62689,-0.07151 5.62688,-0.07151 2.73806,0.965539 c 1.50594,0.531047 2.67996,1.059553 2.60895,1.174458 -0.071,0.114905 0.25887,0.297277 0.73308,0.405271 0.74549,0.169771 0.27122,0.345452 -3.50342,1.297751 -2.40109,0.60577 -4.66328,1.170493 -5.02708,1.254941 -0.52238,0.121257 -1.51743,-0.383524 -4.73241,-2.400701 z m 32.64595,-1.575068 -1.85208,-0.979174 3.22574,-0.07417 c 1.77416,-0.04079 4.75072,-0.04079 6.61458,0 l 3.38884,0.07417 -2.34225,0.604524 c -1.28825,0.332488 -2.54094,0.541465 -2.78377,0.464394 -0.24283,-0.07707 -1.27203,0.09738 -2.28711,0.387663 -1.01508,0.290287 -1.90551,0.521938 -1.97873,0.514781 -0.0732,-0.0072 -0.96657,-0.453642 -1.98522,-0.992188 z"
         id="path1261" />
    </g>
  </g>
</svg>
