<?xml version="1.0" encoding="UTF-8" standalone="no"?>
<!-- Created with Inkscape (http://www.inkscape.org/) -->

<svg
   width="700.00037"
   height="700.00006"
   viewBox="0 0 185.20843 185.20836"
   version="1.1"
   id="svg5"
   inkscape:version="1.1.1 (3bf5ae0d25, 2021-09-20)"
   sodipodi:docname="Camo - Snow.svg"
   inkscape:export-filename="C:\Users\jvcup\OneDrive\Pictures\SVG files\Camo - Urban (SVG).png"
   inkscape:export-xdpi="96"
   inkscape:export-ydpi="96"
   xmlns:inkscape="http://www.inkscape.org/namespaces/inkscape"
   xmlns:sodipodi="http://sodipodi.sourceforge.net/DTD/sodipodi-0.dtd"
   xmlns="http://www.w3.org/2000/svg"
   xmlns:svg="http://www.w3.org/2000/svg">
  <sodipodi:namedview
     id="namedview7"
     pagecolor="#707070"
     bordercolor="#ffffff"
     borderopacity="1"
     inkscape:pageshadow="2"
     inkscape:pageopacity="0"
     inkscape:pagecheckerboard="true"
     inkscape:document-units="px"
     showgrid="false"
     inkscape:showpageshadow="false"
     borderlayer="true"
     units="px"
     fit-margin-top="0"
     fit-margin-left="0"
     fit-margin-right="0"
     fit-margin-bottom="0"
     inkscape:zoom="1.132857"
     inkscape:cx="350.00003"
     inkscape:cy="350.00003"
     inkscape:window-width="1920"
     inkscape:window-height="1017"
     inkscape:window-x="-8"
     inkscape:window-y="-8"
     inkscape:window-maximized="1"
     inkscape:current-layer="layer1" />
  <defs
     id="defs2" />
  <g
     inkscape:label="Layer 1"
     inkscape:groupmode="layer"
     id="layer1"
     transform="translate(-339.26136,-41.449279)">
    <g
       id="g1483"
       transform="translate(75.230252,2.8442698)">
      <path
         style="fill:#fefefe;stroke-width:0.264583"
         d="M 264.03116,131.2092 V 38.605026 h 92.60417 92.60417 v 92.604174 92.60417 h -92.60417 -92.60417 z"
         id="path1489" />
      <path
         style="fill:#e5e5e5;stroke-width:0.264583"
         d="m 264.03116,202.36007 c 0,-13.21402 0.0951,-21.41943 0.2477,-21.36511 0.13624,0.0485 1.48287,1.6557 2.9925,3.57154 l 2.7448,3.48335 1.84064,-5.3494 1.84065,-5.34941 -4.83314,-2.59032 -4.83315,-2.59032 v -17.83477 c 0,-9.80912 0.0298,-17.83272 0.0661,-17.83022 0.51442,0.0353 14.07593,5.33411 14.04244,5.4867 -0.0256,0.11684 3.10995,1.39777 6.96799,2.84651 3.85804,1.44875 7.05568,2.70052 7.10586,2.78172 0.16003,0.25893 -0.61383,5.60364 -0.84277,5.82062 -0.12093,0.11462 -1.70816,0.81879 -3.52717,1.56482 -1.81901,0.74602 -3.48588,1.47152 -3.70417,1.61221 -0.57991,0.37377 -0.0843,0.61871 2.39986,1.18608 1.15394,0.26355 2.09806,0.50044 2.09806,0.52642 0,0.026 0.71368,2.04741 1.58595,4.49207 l 1.58595,4.44483 -0.58347,0.95476 c -1.54182,2.52293 -3.43424,5.32003 -3.59729,5.31697 -0.1,-0.002 -0.93702,-0.24016 -1.86011,-0.52952 -1.93083,-0.60525 -2.50172,-0.46823 -1.43937,0.34546 0.54234,0.4154 8.98339,7.4272 10.72442,8.90856 0.10911,0.0928 0.0294,1.45561 -0.1772,3.0284 -0.31213,2.37662 -0.31727,3.05335 -0.0304,4.00652 l 0.34516,1.1469 -4.46744,1.75451 c -2.4571,0.96498 -4.46745,1.84813 -4.46745,1.96256 0,0.11443 -1.24629,0.77819 -2.76952,1.47502 l -2.76953,1.26696 2.45823,3.59871 c 2.86831,4.19904 2.9962,4.40262 2.61944,4.16977 -0.1532,-0.0947 -0.97734,0.65187 -1.83142,1.65902 l -1.55288,1.83117 2.8731,5.90687 c 1.5802,3.24879 2.91687,5.95164 2.97039,6.00634 0.0535,0.0547 1.06832,-0.51701 2.25512,-1.27049 1.1868,-0.75348 2.19984,-1.32794 2.25119,-1.27659 0.0514,0.0514 -0.45305,1.48629 -1.12091,3.18873 l -1.21428,3.09535 h -13.19697 -13.19696 z m 57.32918,20.55985 c 0.41077,-0.49139 1.97024,-2.26703 3.46547,-3.94587 l 2.7186,-3.05242 -0.4011,-4.19007 c -0.2206,-2.30454 -0.47134,-4.71164 -0.55718,-5.34912 l -0.15609,-1.15905 -3.61663,0.1881 -3.61662,0.18809 3.57187,-2.68063 c 1.96453,-1.47434 3.61156,-2.79358 3.66007,-2.93164 0.0485,-0.13807 -0.30868,-0.26261 -0.79375,-0.27676 -0.48507,-0.0142 -3.50132,-0.16595 -6.70278,-0.33732 l -5.82083,-0.31159 2.64583,-0.50112 c 1.45521,-0.27562 2.73843,-0.57956 2.8516,-0.67542 0.16027,-0.13577 -5.86477,-13.02415 -6.28494,-13.44432 -0.0552,-0.0552 -1.84266,0.81641 -3.97205,1.93698 -2.12939,1.12058 -3.92019,1.98884 -3.97956,1.92948 -0.0594,-0.0594 0.60274,-1.9906 1.47133,-4.29163 0.86859,-2.30103 1.57925,-4.26764 1.57925,-4.37025 0,-0.10261 -1.21033,-0.47228 -2.68961,-0.8215 -1.47928,-0.34921 -2.87827,-0.82994 -3.10885,-1.06829 -0.23059,-0.23836 -1.55034,-0.70347 -2.93279,-1.03359 -1.38245,-0.33012 -2.65319,-0.73406 -2.82387,-0.89765 -0.2912,-0.27908 -3.26155,-7.86735 -3.26155,-8.33217 0,-0.11795 2.53008,-1.36317 5.6224,-2.76716 l 5.62239,-2.55271 1.97429,0.51378 c 1.08586,0.28258 2.03258,0.4555 2.10382,0.38426 0.0712,-0.0712 -1.4588,-1.72112 -3.40008,-3.6664 l -3.52959,-3.53687 -0.45651,-2.70209 -0.45652,-2.70209 1.35313,-0.58826 c 0.74422,-0.32354 2.03774,-0.86752 2.87448,-1.20886 0.83675,-0.34133 1.52136,-0.75935 1.52136,-0.92893 0,-0.16958 -1.36922,-1.58668 -3.04271,-3.14912 -1.67349,-1.56244 -3.04271,-2.93259 -3.04271,-3.04479 0,-0.11219 2.49614,-2.09444 5.54698,-4.405 3.05084,-2.31055 5.46186,-4.27236 5.35782,-4.35956 -0.24426,-0.20472 -7.37517,-2.12483 -8.22945,-2.21591 -0.55363,-0.059 -0.77528,-0.39899 -1.49371,-2.29097 -1.36113,-3.58454 -1.34248,-3.46273 -0.49779,-3.25073 0.61997,0.1556 0.69995,0.11415 0.54729,-0.28366 -0.27432,-0.71487 -6.0542,-10.04117 -6.34334,-10.23549 -0.22569,-0.15168 1.51761,-3.58175 2.82913,-5.56653 l 0.46954,-0.71058 -2.59896,-1.69426 -2.59897,-1.69427 -3.13412,4.7861 c -1.72377,2.63235 -3.2197,4.87709 -3.32429,4.9883 -0.19982,0.21247 -3.93367,-0.52656 -4.3895,-0.86879 -0.14553,-0.10926 -4.19365,2.52731 -8.99584,5.85904 l -8.73125,6.0577 -0.0675,-24.65166 c -0.0371,-13.558414 -0.0336,-24.685615 0.008,-24.727115 0.0415,-0.0415 2.00755,0.241827 4.369,0.629616 l 4.29355,0.705075 2.97131,-3.166579 c 1.63422,-1.741617 3.56808,-3.794225 4.29747,-4.56135 l 1.32616,-1.39477 3.49879,1.490668 3.49879,1.490668 0.64733,2.15306 c 0.35603,1.184185 0.79699,2.666682 0.97992,3.294443 0.27783,0.953416 0.4229,1.119707 0.88097,1.009772 0.3016,-0.07238 1.91758,-0.332827 3.59107,-0.578763 1.67349,-0.245932 3.30968,-0.613172 3.63597,-0.816083 0.32629,-0.202914 2.58848,-0.680956 5.02708,-1.062315 2.43861,-0.38136 4.52844,-0.777442 4.64408,-0.880182 0.11563,-0.10274 -0.6947,-2.498945 -1.80075,-5.324898 l -2.011,-5.138098 -2.59056,-1.381662 c -1.42481,-0.759914 -2.65463,-1.317598 -2.73293,-1.239297 -0.0783,0.0783 -1.85268,-0.809438 -3.94307,-1.972752 -2.09038,-1.163315 -3.98815,-2.186237 -4.21727,-2.273161 -0.26664,-0.101155 -1.06465,0.373161 -2.217,1.317726 -1.56772,1.285036 -1.85584,1.429566 -2.22925,1.118286 -1.68721,-1.40647 -4.71291,-3.834151 -4.95051,-3.972055 -0.16105,-0.09347 -2.13879,1.87202 -4.48,4.452269 -2.30541,2.540793 -4.20334,4.619624 -4.21761,4.619624 -0.0143,0 -1.03437,-0.425481 -2.26688,-0.945513 -1.2325,-0.520032 -3.10412,-1.305049 -4.15915,-1.744482 l -1.91823,-0.798969 V 49.969994 38.630175 l 35.83842,0.0038 c 33.39878,0.0036 35.84765,0.03422 35.97413,0.450447 0.0747,0.245646 0.61795,2.70073 1.20733,5.455742 0.58939,2.755012 1.09954,5.033217 1.13368,5.062678 0.18587,0.160409 4.97336,2.495917 5.11631,2.495917 0.0935,0 0.0824,-3.036093 -0.0246,-6.746875 l -0.19462,-6.746875 h 38.01542 c 36.08025,0 38.00853,0.02357 37.88025,0.463021 -0.0743,0.254661 -0.70381,2.546615 -1.39882,5.093229 -0.69501,2.546615 -1.41893,4.749737 -1.60873,4.895827 -0.18979,0.14609 -1.04486,3.00359 -1.90016,6.35 -1.40987,5.516202 -2.90899,11.009413 -3.05025,11.177019 -0.0304,0.03606 -1.4017,-0.943354 -3.04736,-2.176465 l -2.99212,-2.242018 -1.3397,1.118131 c -0.73684,0.614973 -2.6322,2.207178 -4.21193,3.538236 l -2.87222,2.420107 -4.79357,-2.737607 c -2.63646,-1.505683 -4.88126,-2.683404 -4.98845,-2.617156 -0.1072,0.06625 -0.27525,0.596076 -0.37347,1.177397 l -0.17857,1.056947 h -2.29592 -2.29591 l -3.42546,6.86717 c -1.88401,3.776943 -3.37046,6.913592 -3.30323,6.970327 0.0672,0.05673 1.06209,0.803815 2.21079,1.660176 l 2.08855,1.557022 2.60068,-2.772658 c 1.43038,-1.524964 2.60263,-2.653599 2.605,-2.508079 0.002,0.145521 -0.23298,1.802038 -0.52301,3.681148 -0.29003,1.879114 -0.47481,3.469088 -0.41062,3.533278 0.0642,0.06419 4.08299,-1.198388 8.93065,-2.805726 11.15987,-3.70027 15.6148,-5.104384 15.75385,-4.96533 0.0604,0.06042 -0.20774,1.401008 -0.59593,2.979079 -0.38818,1.57807 -0.73806,3.285937 -0.77751,3.79526 -0.0395,0.509323 -0.69944,3.394284 -1.46664,6.411024 l -1.3949,5.484984 -0.95559,0.170784 c -5.04135,0.901006 -12.76117,2.428729 -12.88167,2.549236 -0.28713,0.287131 -3.11331,19.201278 -2.90569,19.446318 0.0295,0.0349 2.53899,-0.71303 5.57656,-1.66198 3.03757,-0.94896 5.69503,-1.6593 5.90547,-1.57855 0.21045,0.0808 2.06226,-0.41078 4.11515,-1.09229 l 3.73252,-1.23912 3.34828,-7.23285 3.34827,-7.232845 -1.07715,0.172244 c -0.86169,0.137789 -1.04952,0.09791 -0.93898,-0.199335 0.076,-0.204366 0.76503,-2.39564 1.5312,-4.869495 0.76617,-2.473854 1.46792,-4.579181 1.55946,-4.678503 0.0915,-0.09932 2.36908,-0.308271 5.06121,-0.464333 2.69214,-0.156062 5.74657,-0.351777 6.78763,-0.434922 l 1.89285,-0.151175 1.93391,-4.243102 c 1.06366,-2.333704 2.08711,-4.301887 2.27435,-4.373737 0.18724,-0.07185 0.34043,-0.21 0.34043,-0.307001 0,-0.097 -1.96453,-2.553806 -4.36563,-5.459567 -2.40109,-2.90576 -4.36562,-5.349917 -4.36562,-5.431456 0,-0.08154 1.20121,-0.341175 2.66935,-0.576961 1.46814,-0.235789 2.71547,-0.474824 2.77183,-0.531191 0.0564,-0.05637 0.40285,-2.595708 0.76997,-5.642978 0.36711,-3.047271 0.73523,-5.973018 0.81805,-6.501662 l 0.15058,-0.961171 1.86228,0.479022 c 1.02425,0.263463 1.9984,0.427423 2.16479,0.364357 0.16639,-0.06307 1.548,0.24193 3.07024,0.677769 1.52224,0.435839 2.84835,0.704406 2.94691,0.596814 0.0986,-0.107591 0.56443,-1.862496 1.03526,-3.899788 0.47084,-2.037291 0.90938,-3.795812 0.97454,-3.907822 0.0651,-0.112012 1.4792,1.066786 3.14233,2.61955 l 3.02387,2.823206 v 53.291512 c 0,50.62961 -0.0231,53.28466 -0.46302,53.15451 -0.25466,-0.0754 -2.54662,-0.69185 -5.09323,-1.37002 -2.54661,-0.67816 -4.70072,-1.34531 -4.7869,-1.48255 -0.0862,-0.13724 -0.83044,-0.42547 -1.6539,-0.6405 -1.77549,-0.46365 -0.87989,-0.872 -8.46352,3.85899 -3.14909,1.96453 -5.72732,3.7207 -5.7294,3.9026 -0.002,0.18191 -0.0799,0.33073 -0.17283,0.33073 -0.093,0 -1.58658,0.24186 -3.31914,0.53746 -1.73255,0.29561 -3.24597,0.47821 -3.36315,0.40579 -0.11718,-0.0724 -3.23514,0.45753 -6.92881,1.17767 -5.25057,1.02369 -6.80336,1.41922 -7.11728,1.81293 -0.22084,0.27697 -2.35067,1.54792 -4.73295,2.82433 l -4.33142,2.32075 -1.35712,-1.5629 c -0.74642,-0.8596 -1.77665,-2.01941 -2.2894,-2.57736 l -0.93227,-1.01445 -3.94755,12.06081 c -2.17115,6.63344 -4.02513,12.06081 -4.11995,12.06081 -0.0948,0 -0.3879,-0.23813 -0.65129,-0.52917 -0.26339,-0.29104 -0.62722,-0.52917 -0.80852,-0.52917 -0.29142,0 -4.91281,-4.82304 -6.76394,-7.05909 l -0.69329,-0.83745 -2.86527,0.37631 c -1.5759,0.20697 -2.96188,0.47293 -3.07996,0.59101 -0.11808,0.11808 0.025,0.91156 0.3181,1.76329 0.29304,0.85172 0.47425,1.60713 0.4027,1.67868 -0.0716,0.0716 -1.28599,-0.0621 -2.69875,-0.29704 -1.83058,-0.3044 -2.66611,-0.34626 -2.90778,-0.14569 -0.54521,0.45248 -1.47421,-0.0143 -6.30329,-3.16747 l -4.49792,-2.93688 -0.99728,1.97822 c -0.86385,1.71355 -1.07625,1.96082 -1.5875,1.84814 -1.61241,-0.35538 -4.81397,-0.65431 -5.0013,-0.46698 -0.27827,0.27827 6.86935,9.97597 7.68104,10.42144 0.55688,0.30562 5.67539,6.76405 11.18492,14.11289 2.46576,3.28892 2.44949,3.26087 2.12009,3.65777 -0.18648,0.2247 -0.15451,1.85919 0.10198,5.21393 0.20548,2.68765 0.377,5.09499 0.38114,5.34966 0.007,0.43725 -1.19373,0.46302 -21.57526,0.46302 h -21.58281 z m 46.14176,-53.87531 c 2.67878,-3.05593 4.9382,-5.55625 5.02093,-5.55625 0.0827,0 0.61973,1.54168 1.19334,3.42595 0.5736,1.88427 1.11806,3.34278 1.2099,3.24114 0.0918,-0.10164 1.02398,-3.77018 2.07143,-8.15232 l 1.90444,-7.96753 -1.24214,-3.93872 c -0.68318,-2.1663 -1.29901,-4.03463 -1.36852,-4.15185 -0.0695,-0.11722 -0.58663,0.40376 -1.14917,1.15774 -0.56254,0.75397 -1.07568,1.42373 -1.1403,1.48835 -0.0646,0.0646 -1.05176,-1.67505 -2.19365,-3.86594 -1.14188,-2.19089 -2.20778,-3.98513 -2.36865,-3.98721 -0.16088,-0.002 -1.03938,0.9463 -1.95222,2.1075 -0.91285,1.1612 -1.76233,2.04786 -1.88773,1.97036 -0.1254,-0.0775 -2.3332,-1.92054 -4.90622,-4.09565 -2.57302,-2.1751 -4.74708,-3.9526 -4.83124,-3.94999 -0.0842,0.003 -0.84411,1.18351 -1.68879,2.62421 l -1.53577,2.61945 0.8343,2.68544 c 0.45886,1.47698 0.7591,2.76062 0.6672,2.85252 -0.28046,0.28046 -5.6861,-5.29419 -5.97112,-6.15781 -0.30205,-0.9152 -4.61699,-5.34174 -4.84595,-4.97128 -0.24011,0.38851 4.05733,6.97075 4.76017,7.29098 0.61353,0.27954 4.25019,5.64482 3.99745,5.89756 -1.01629,1.0163 -6.26847,4.61669 -6.73473,4.61669 -0.33879,0 -0.61598,0.0916 -0.61598,0.20347 0,0.11191 2.20975,2.87359 4.91055,6.13706 2.7008,3.26348 5.00306,6.09891 5.11613,6.30096 0.13039,0.23299 1.14324,0.4875 2.76899,0.69581 1.40988,0.18064 2.66179,0.43857 2.78203,0.57317 0.12024,0.13461 0.42485,1.01864 0.67691,1.96453 0.94546,3.548 1.25098,4.49791 1.44667,4.49791 0.11067,0 2.39296,-2.50031 5.07174,-5.55625 z m -44.45523,-15.25839 c -0.89417,-1.28155 -1.79284,-2.33152 -1.99705,-2.33325 -0.2042,-0.002 -1.49708,-1.6485 -2.87305,-3.65948 -2.83754,-4.14706 -2.55917,-4.1786 -3.08102,0.34904 -0.15934,1.38245 -0.35632,2.85586 -0.43774,3.27425 -0.0899,0.46193 -0.0466,0.69802 0.11019,0.60112 0.14202,-0.0878 2.38717,0.83116 4.98923,2.04206 2.60206,1.21091 4.77247,2.16896 4.82312,2.12901 0.0506,-0.04 -0.63951,-1.12119 -1.53368,-2.40275 z m 112.96321,-10.67033 1.63561,-2.90997 0.0878,-9.24791 0.0878,-9.24791 -5.02133,3.34631 -5.02132,3.34631 -3.45743,-3.63528 c -1.90158,-1.9994 -3.50408,-3.58862 -3.56111,-3.53159 -0.057,0.057 0.0804,2.53272 0.30535,5.50154 0.40564,5.35295 0.40458,5.4015 -0.12823,5.83713 -0.2955,0.24161 -0.53727,0.48924 -0.53727,0.55029 0,0.061 1.1904,1.16336 2.64533,2.44957 1.45494,1.28622 2.59466,2.38926 2.53272,2.4512 -0.0619,0.0619 0.3247,0.48836 0.8592,0.9476 2.41048,2.07108 7.33269,6.59465 7.4124,6.81208 0.21107,0.57581 0.62159,0.0686 2.16051,-2.66937 z m -34.38793,-6.75732 c 1.10246,-1.4413 1.82676,-2.61588 1.68891,-2.73886 -0.13274,-0.11843 -1.47979,-1.08459 -2.99344,-2.14703 -2.23182,-1.56653 -2.67874,-1.98661 -2.3641,-2.22208 1.42217,-1.06433 6.04223,-5.0309 6.04223,-5.18758 0,-0.10544 -1.57758,-1.18128 -3.50573,-2.39075 -1.92815,-1.20948 -3.7645,-2.36414 -4.08078,-2.56592 -0.55169,-0.35197 -0.67251,-0.22949 -2.97381,3.01473 -2.11136,2.97645 -2.34362,3.41229 -1.9385,3.6376 0.25316,0.1408 1.5562,1.06455 2.89567,2.05279 2.15415,1.58931 2.46951,1.92744 2.73086,2.928 0.1625,0.62215 0.57764,2.20275 0.92253,3.51243 0.34488,1.30969 0.75769,2.88727 0.91736,3.50573 0.15966,0.61847 0.3889,1.12448 0.50941,1.12448 0.12051,0 1.08774,-1.13559 2.14939,-2.52354 z m -45.53683,-8.17749 c 2.97171,-0.94029 5.50608,-1.64598 5.63192,-1.56821 0.12584,0.0778 1.68948,-0.30533 3.47475,-0.85134 l 3.24596,-0.99275 2.46384,-8.25767 c 1.6204,-5.43088 2.38537,-8.38921 2.23463,-8.64192 -0.12607,-0.21134 -1.23151,-1.5882 -2.45654,-3.05969 -1.81225,-2.17686 -2.31092,-2.63071 -2.6759,-2.43538 -0.24671,0.13204 -0.84427,1.19848 -1.3279,2.36987 -0.80874,1.95882 -0.95501,2.14962 -1.82202,2.37673 -4.42942,1.16025 -6.47438,1.59553 -6.6469,1.41483 -0.11175,-0.11704 -1.40109,-3.12984 -2.86519,-6.69511 -2.46571,-6.004277 -5.73981,-12.964579 -6.0985,-12.964579 -0.33878,0 -12.04931,4.254082 -12.24259,4.447366 -0.11428,0.114281 0.16096,1.307272 0.61166,2.651088 l 0.81944,2.443305 -0.96214,1.380683 c -1.39778,2.005837 -1.72129,2.413847 -1.8137,2.287407 -0.0454,-0.0621 -0.27687,-0.76782 -0.51435,-1.56818 -0.23747,-0.800366 -0.68564,-2.306063 -0.99593,-3.345992 l -0.56415,-1.890781 -6.13413,-1.521854 c -3.37377,-0.83702 -6.17946,-1.55947 -6.23486,-1.605442 -0.0554,-0.04597 0.16852,-0.746985 0.49761,-1.557808 0.32909,-0.810824 0.54889,-1.523677 0.48845,-1.584116 -0.0604,-0.06044 -0.93921,0.420328 -1.95282,1.068377 -1.01361,0.648046 -2.02152,1.136899 -2.2398,1.086334 -0.21828,-0.05056 -3.16844,-1.260938 -6.5559,-2.689725 l -6.15903,-2.597791 -2.04306,1.41336 c -3.71397,2.569276 -3.96791,1.832959 1.92609,5.58478 2.82974,1.801267 5.14582,3.334562 5.14685,3.407323 0.001,0.07276 -1.47991,1.908741 -3.29096,4.079955 l -3.29284,3.94767 3.38892,1.94528 3.38891,1.94528 0.15471,9.41191 c 0.0851,5.17655 0.21811,9.47531 0.2956,9.55281 0.34881,0.34881 6.24702,1.57029 6.24787,1.2939 0.007,-2.41394 1.69589,-14.92944 2.06378,-15.29733 0.10831,-0.1083 1.56329,0.58454 3.2333,1.53966 1.67002,0.95511 3.35032,1.90059 3.73402,2.10106 l 0.69764,0.36448 -1.41453,-4.42054 c -0.90091,-2.81539 -1.32258,-4.51251 -1.16127,-4.67381 0.1393,-0.1393 1.17628,-0.27449 2.3044,-0.30042 1.12812,-0.0259 4.25378,-0.35172 6.94592,-0.72397 2.69213,-0.37225 5.42183,-0.71445 6.06599,-0.76044 l 1.17119,-0.0836 0.68089,2.27593 c 0.37449,1.25176 0.82868,2.45334 1.00932,2.67018 0.18064,0.21683 0.2576,0.46508 0.17103,0.55165 -0.12829,0.12828 0.96542,3.89574 3.11383,10.72611 0.18076,0.57469 0.40194,0.82977 0.64021,0.73834 0.26772,-0.10274 0.64676,0.75002 1.43256,3.223 0.58769,1.84949 1.12093,3.50722 1.18498,3.68385 0.0841,0.23204 0.32166,0.251 0.85604,0.0684 0.40677,-0.13904 3.17099,-1.02212 6.1427,-1.9624 z m -27.0234,-45.440793 c 3.4725,-2.305312 4.03831,-2.77499 3.90457,-3.241146 -0.54061,-1.884333 -0.78607,-1.558213 4.87286,-6.47406 2.91622,-2.533293 5.3039,-4.676418 5.30593,-4.762501 0.002,-0.08608 -0.67029,-1.609838 -1.49406,-3.386129 l -1.49777,-3.229617 -3.6427,2.501639 c -2.00348,1.375903 -3.80964,2.565702 -4.01368,2.644003 -0.24334,0.09338 -0.91155,-0.619657 -1.94201,-2.072275 l -1.57101,-2.214636 -6.61167,2.028448 -6.61167,2.028447 -0.45493,3.650332 c -0.25022,2.00768 -0.50569,3.70109 -0.56774,3.76313 -0.062,0.06204 -1.25839,0.303294 -2.65856,0.536122 -1.40016,0.232828 -2.51469,0.449477 -2.47672,0.481444 0.038,0.03196 1.48287,0.664549 3.21091,1.405745 l 3.14188,1.347628 3.34041,-2.340009 c 1.83723,-1.287005 3.36946,-2.31588 3.40497,-2.286389 0.0355,0.02949 -0.82698,2.118794 -1.91664,4.642898 -1.08967,2.524104 -1.95216,4.6146 -1.91665,4.645551 0.12799,0.111554 5.88838,3.000434 6.00935,3.013734 0.0682,0.0075 1.9514,-1.199565 4.18493,-2.682359 z M 372.65014,64.62785 c 1.01451,-0.810745 2.13548,-1.704744 2.49103,-1.986665 l 0.64647,-0.512583 -4.57991,-4.585527 -4.57991,-4.585526 -4.29429,2.798182 -4.2943,2.798182 0.49764,1.942565 c 0.2737,1.068412 0.4254,2.059462 0.33709,2.202336 -0.0883,0.142873 0.036,0.882172 0.27616,1.642887 0.24018,0.760714 0.47169,1.50218 0.51447,1.647701 0.0496,0.16864 2.08366,0.237014 5.60939,0.188555 l 5.53161,-0.07603 z m 1.35911,156.34125 c 0.66087,-1.56435 1.32245,-3.17874 1.47017,-3.58754 0.24783,-0.6858 0.35802,-0.47105 1.42549,2.77813 0.63629,1.93676 1.15797,3.55115 1.15928,3.58753 10e-4,0.0364 -1.18087,0.0661 -2.62707,0.0661 h -2.62946 z m 45.44783,-2.43059 5.26991,-5.27485 -7.04425,-7.24453 -7.04425,-7.24452 1.06421,-1.77696 1.06421,-1.77696 -2.33506,-2.65811 c -1.28428,-1.46195 -2.71443,-3.10384 -3.17811,-3.64862 l -0.84304,-0.99053 5.00562,-5.00041 5.00562,-5.00042 -0.16411,-1.39629 c -0.0903,-0.76795 -0.10894,-1.39628 -0.0415,-1.39628 0.0674,0 1.22532,1.19215 2.57312,2.64923 l 2.45053,2.64923 -0.71944,1.25337 c -0.39569,0.68936 -0.94174,1.62439 -1.21346,2.07785 l -0.49402,0.82447 3.08562,-0.6269 c 1.69709,-0.34479 3.12485,-0.58767 3.17279,-0.53973 0.0479,0.0479 0.36392,2.66579 0.70218,5.81745 0.33826,3.15167 0.69539,5.81068 0.79363,5.90892 0.0982,0.0982 3.30028,0.70074 7.11565,1.3389 3.81537,0.63817 7.00119,1.22657 7.07962,1.30756 0.0784,0.081 -0.77933,1.01893 -1.90612,2.0843 l -2.0487,1.93705 3.50391,2.1884 c 1.92715,1.20362 4.7243,3.00149 6.21589,3.99527 l 2.71198,1.80688 v 7.00555 7.00554 h -17.52616 -17.52617 z"
         id="path1487" />
      <path
         style="fill:#c8c8c8;stroke-width:0.264583"
         d="m 374.00925,220.9691 c 0.66087,-1.56435 1.32245,-3.17874 1.47017,-3.58754 0.24783,-0.6858 0.35802,-0.47105 1.42549,2.77813 0.63629,1.93676 1.15797,3.55115 1.15928,3.58753 10e-4,0.0364 -1.18087,0.0661 -2.62707,0.0661 h -2.62946 z m 54.06358,-0.46303 c 0,-2.02847 -0.1023,-3.30729 -0.26458,-3.30729 -0.16312,0 -0.26458,-1.3486 -0.26458,-3.51664 0,-2.1187 -0.31544,-6.39949 -0.79352,-10.76877 -0.43644,-3.98867 -0.7023,-7.34336 -0.59081,-7.45485 0.20238,-0.20237 14.33518,2.05498 14.60395,2.33261 0.078,0.0806 -0.78008,1.01818 -1.90687,2.08355 l -2.0487,1.93705 3.50391,2.1884 c 1.92715,1.20362 4.7243,3.00149 6.21589,3.99527 l 2.71198,1.80688 v 7.00555 7.00554 h -10.58333 -10.58334 z m -96.09741,-8.77489 c 0.6004,-0.7036 2.28496,-2.58896 3.74347,-4.18969 1.45852,-1.60073 2.65373,-2.98675 2.65602,-3.08005 0.002,-0.0933 -1.81153,-1.15965 -4.03073,-2.36968 -2.21919,-1.21001 -4.49524,-2.46077 -5.05789,-2.77945 l -1.023,-0.57942 1.72952,-1.41557 c 0.95123,-0.77856 1.70366,-1.44143 1.67206,-1.47302 -0.0316,-0.0316 -2.89529,0.41861 -6.36377,1.00046 -3.46847,0.58186 -6.3444,1.01984 -6.39094,0.9733 -0.0465,-0.0465 -1.5249,-3.05288 -3.28525,-6.68074 -1.76034,-3.62786 -3.24581,-6.6413 -3.30105,-6.69654 -0.0552,-0.0552 -1.84266,0.81641 -3.97205,1.93698 -2.12939,1.12058 -3.92019,1.98884 -3.97956,1.92948 -0.0594,-0.0594 0.60274,-1.9906 1.47133,-4.29163 0.86859,-2.30103 1.57925,-4.26764 1.57925,-4.37025 0,-0.10261 -1.21033,-0.47228 -2.68961,-0.8215 -1.47928,-0.34921 -2.87827,-0.82994 -3.10885,-1.06829 -0.23059,-0.23836 -1.55034,-0.70347 -2.93279,-1.03359 -1.38245,-0.33012 -2.65319,-0.73406 -2.82387,-0.89765 -0.2944,-0.28215 -3.26155,-7.86987 -3.26155,-8.34055 0,-0.12256 1.02817,-0.68098 2.28482,-1.24092 l 2.28481,-1.01807 4.53203,4.7221 4.53203,4.7221 2.06394,-1.27372 c 1.13516,-0.70054 2.21477,-1.5616 2.39913,-1.91346 0.25885,-0.49404 1.50538,-1.11846 5.47287,-2.74154 l 5.13766,-2.10179 2.20433,0.54941 2.20433,0.5494 2.22744,-1.64973 c 1.2251,-0.90736 2.22745,-1.72644 2.22745,-1.82019 0,-0.0937 -0.33396,-0.63479 -0.74213,-1.20233 -1.22914,-1.70906 -1.23973,-1.67698 0.41129,-1.24601 6.63041,1.73077 11.25582,2.98112 11.34022,3.06552 0.16101,0.16101 1.39225,6.3987 1.28432,6.50664 -0.0538,0.0538 -0.93017,-0.10616 -1.9475,-0.35547 -1.01732,-0.24931 -1.97394,-0.37649 -2.12582,-0.28262 -0.15188,0.0939 -2.85732,-0.49427 -6.01209,-1.30696 -3.15477,-0.8127 -5.82462,-1.38433 -5.93301,-1.27031 -0.14874,0.15649 -2.74185,6.33494 -4.65131,11.08242 -0.0645,0.16046 -0.70665,0.56776 -1.42691,0.90512 -0.72026,0.33735 -1.30956,0.68448 -1.30956,0.7714 0,0.0869 2.51947,0.47976 5.59882,0.87298 l 5.59883,0.71494 3.86003,2.42521 c 2.12301,1.33387 6.73967,4.26753 10.25923,6.51925 l 6.39921,4.09404 3.08147,4.00577 3.08146,4.00578 -3.92442,0.13229 -3.92443,0.13229 -9.10545,4.58657 -9.10546,4.58656 z m -63.21846,-5.71366 -2.54395,-5.09584 1.40601,-4.09307 c 0.81402,-2.36973 1.29884,-4.15932 1.15146,-4.2504 -0.32619,-0.2016 4.23576,-13.53044 4.59049,-13.4122 0.14421,0.0481 0.75314,1.74264 1.35317,3.76572 l 1.09098,3.67832 5.15937,3.65518 c 2.83766,2.01035 5.19293,3.75473 5.23395,3.8764 0.041,0.12167 -1.17551,0.79309 -2.70338,1.49204 l -2.77795,1.27082 2.45823,3.59871 c 1.35203,1.97929 2.54763,3.75049 2.6569,3.93599 0.41441,0.70355 -0.56078,0.13001 -3.6305,-2.1352 -1.73446,-1.2799 -3.19561,-2.28504 -3.24701,-2.23363 -0.0514,0.0514 -0.29176,2.17315 -0.53413,4.71501 l -0.44067,4.62156 -3.20407,0.86285 c -1.76224,0.47457 -3.26502,0.85852 -3.33952,0.85322 -0.0745,-0.005 -1.28021,-2.30276 -2.67938,-5.10548 z m 111.02941,-14.21874 c -0.26339,-0.29104 -0.62722,-0.52917 -0.80852,-0.52917 -0.29138,0 -4.91283,-4.82306 -6.76349,-7.05855 l -0.69284,-0.83692 -2.7422,0.35836 c -1.5082,0.1971 -2.77144,0.32911 -2.80719,0.29336 -0.097,-0.097 -2.9868,-9.43402 -2.9868,-9.65046 0,-0.22766 9.19476,-10.72617 9.4812,-10.82555 0.11224,-0.0389 0.67403,1.47296 1.24842,3.35979 0.57439,1.88684 1.11948,3.34745 1.21132,3.24581 0.0918,-0.10164 1.02398,-3.77018 2.07143,-8.15232 l 1.90444,-7.96753 -1.24214,-3.93872 c -0.68318,-2.1663 -1.29901,-4.03463 -1.36852,-4.15185 -0.0695,-0.11722 -0.58663,0.40376 -1.14917,1.15774 -0.56254,0.75397 -1.07568,1.42373 -1.1403,1.48835 -0.0646,0.0646 -1.05176,-1.67505 -2.19365,-3.86594 -1.14188,-2.19089 -2.20778,-3.98513 -2.36865,-3.98721 -0.16088,-0.002 -1.03938,0.9463 -1.95222,2.1075 -0.91285,1.1612 -1.76233,2.04786 -1.88773,1.97036 -0.1254,-0.0775 -2.3332,-1.92054 -4.90622,-4.09565 -2.57302,-2.1751 -4.74708,-3.9526 -4.83124,-3.94999 -0.0842,0.003 -0.84411,1.18351 -1.68879,2.62421 l -1.53577,2.61945 0.8343,2.68544 c 0.45886,1.47698 0.7591,2.76062 0.6672,2.85252 -0.28061,0.28061 -5.68612,-5.29423 -5.9713,-6.15836 -0.14633,-0.44338 -1.22245,-1.75536 -2.39137,-2.91551 -1.40186,-1.39134 -2.76244,-3.12259 -3.99702,-5.08593 -1.02944,-1.63711 -1.89664,-2.97656 -1.92711,-2.97656 -0.35855,0 -9.84019,3.54262 -9.94784,3.7168 -0.0808,0.13069 -1.4515,0.72743 -3.04608,1.32609 -1.59458,0.59866 -2.93668,1.1255 -2.98246,1.17077 -0.0458,0.0453 0.64189,1.07221 1.52813,2.2821 0.94631,1.29188 1.54957,2.3608 1.46166,2.5899 -0.40373,1.05209 -5.79383,10.08825 -5.97899,10.02339 -0.11727,-0.0411 -1.3352,-1.71606 -2.70651,-3.7222 -2.09356,-3.06272 -2.51621,-3.55056 -2.63617,-3.04271 -0.0786,0.33265 -0.35736,2.48005 -0.61952,4.772 -0.26215,2.29196 -0.55319,4.16719 -0.64674,4.16719 -0.0935,0 -1.20482,-1.48549 -2.46949,-3.30109 -1.26467,-1.8156 -2.40284,-3.36502 -2.52927,-3.44316 -0.12643,-0.0781 -0.86481,0.0955 -1.64084,0.38585 l -1.41098,0.52791 -3.30486,-3.15164 c -2.19933,-2.09736 -3.21635,-3.23981 -3.04028,-3.41522 0.14552,-0.14497 2.59212,-2.02855 5.43687,-4.18573 2.84476,-2.15717 5.22601,-4.02994 5.29167,-4.1617 0.0657,-0.13177 -1.69371,-0.72958 -3.90971,-1.32848 l -4.02908,-1.08891 1.78013,-2.04381 c 1.11318,-1.27808 1.97838,-2.04326 2.30929,-2.04233 0.29104,8e-4 2.76159,0.51591 5.4901,1.14464 3.02694,0.69751 4.96129,1.03171 4.96185,0.85727 0.008,-2.40813 1.69679,-14.92172 2.06378,-15.28871 0.10831,-0.1083 1.56329,0.58454 3.2333,1.53966 1.67002,0.95511 3.35032,1.90059 3.73402,2.10106 l 0.69764,0.36448 -1.41453,-4.42054 c -0.90091,-2.81539 -1.32258,-4.51251 -1.16127,-4.67381 0.1393,-0.1393 1.17628,-0.27449 2.3044,-0.30042 1.12812,-0.0259 4.25378,-0.35172 6.94592,-0.72397 2.69213,-0.37225 5.42183,-0.71445 6.06599,-0.76044 l 1.17119,-0.0836 0.68862,2.30961 c 0.37875,1.27029 0.82467,2.44566 0.99095,2.61193 0.16627,0.16627 0.25053,0.43727 0.18723,0.60221 -0.0633,0.16495 0.52191,2.33689 1.30045,4.82654 l 1.41554,4.52664 -3.13186,1.54857 c -1.72252,0.85171 -3.13186,1.63348 -3.13186,1.73727 0,0.10379 0.89297,0.68164 1.98437,1.28411 1.09141,0.60247 1.98438,1.2547 1.98438,1.44941 0,0.19471 1.24908,1.08411 2.77572,1.97644 2.11555,1.23654 2.88643,1.56483 3.24115,1.38029 1.03516,-0.53852 11.91026,-3.82938 12.89778,-3.90294 0.58377,-0.0435 3.26405,-0.81261 5.95618,-1.70919 2.69214,-0.89658 5.05879,-1.64756 5.25923,-1.66885 0.24999,-0.0266 0.68416,1.07688 1.38246,3.51347 0.55991,1.9537 1.16982,3.64514 1.35535,3.75876 0.8732,0.53474 7.06231,5.42039 7.162,5.65365 0.0622,0.14552 -0.34403,1.86455 -0.90273,3.82007 -0.93887,3.28617 -1.09836,4.414 -0.48764,3.44831 0.37795,-0.59762 0.29935,-0.077 -0.39931,2.64465 -0.35362,1.37758 -0.61913,2.52476 -0.59001,2.5493 0.0291,0.0245 1.2846,0.66033 2.78996,1.41288 l 2.73702,1.36828 1.36632,-0.94102 c 0.75147,-0.51756 1.48434,-0.94062 1.6286,-0.94013 0.14427,5.3e-4 1.16786,-0.6193 2.27465,-1.37731 1.70248,-1.16598 2.46576,-1.97077 4.95683,-5.22641 1.61946,-2.11651 3.83831,-4.9793 4.93078,-6.36175 1.09247,-1.38245 1.98729,-2.57906 1.98849,-2.65915 0.001,-0.0801 -1.3277,-1.07896 -2.95309,-2.21972 -2.41313,-1.69361 -2.88322,-2.128 -2.56254,-2.36793 1.44346,-1.07996 6.04697,-5.03517 6.04697,-5.19539 0,-0.10783 -1.67367,-1.24434 -3.71925,-2.52557 -2.04559,-1.28123 -3.76818,-2.40867 -3.82798,-2.50542 -0.0598,-0.0968 0.51254,-1.02354 1.27186,-2.05954 l 1.38058,-1.88363 3.70416,-1.23936 3.70417,-1.23936 3.28759,-7.11542 c 1.80818,-3.91347 3.41552,-7.285409 3.57188,-7.493189 0.18869,-0.250756 2.08547,-0.646734 5.64117,-1.177673 2.94629,-0.439944 5.4617,-0.799897 5.58981,-0.799897 0.12811,0 0.49072,-0.599246 0.80579,-1.331661 0.31508,-0.732414 0.67329,-1.269598 0.79602,-1.193744 0.12274,0.07586 1.512,1.210868 3.08724,2.522254 1.96018,1.631837 2.92228,2.279968 3.04849,2.053641 0.10142,-0.181886 0.7432,-1.848745 1.42617,-3.704135 0.68297,-1.855391 1.38751,-3.373438 1.56564,-3.373438 0.17814,0 2.27403,2.083594 4.65753,4.630208 2.38349,2.546615 4.40745,4.630204 4.49767,4.630204 0.0902,0 1.1585,-0.297651 2.37396,-0.661453 1.21546,-0.363803 2.24847,-0.661459 2.29559,-0.661459 0.0471,0 0.0857,4.715942 0.0857,10.479872 v 10.47987 l -1.74832,2.86068 -1.74832,2.86069 -1.22824,0.14737 c -0.67554,0.0811 -1.89516,0.22104 -2.71029,0.31106 l -1.48204,0.16369 -0.90864,-3.66359 -0.90865,-3.6636 0.20697,-4.36562 c 0.11383,-2.4011 0.17712,-4.45639 0.14064,-4.56732 -0.11577,-0.35206 -8.93829,7.09623 -15.08214,12.73291 l -0.73048,0.67018 -1.18775,-1.16569 c -0.65326,-0.64112 -1.18688,-1.05159 -1.18582,-0.91215 0.001,0.13944 0.18331,2.63477 0.40502,5.54519 0.39939,5.24302 0.39816,5.29571 -0.13421,5.73095 -0.29552,0.24161 -0.53731,0.48924 -0.53731,0.55029 0,0.061 1.1904,1.16336 2.64533,2.44957 1.45494,1.28622 2.59466,2.38926 2.53272,2.4512 -0.0619,0.0619 0.32524,0.4874 0.86039,0.94546 1.8848,1.61327 6.7991,6.06979 7.23313,6.55935 0.24161,0.27251 0.49862,0.49547 0.57114,0.49547 0.25455,0 3.3552,-5.74011 3.3552,-6.21136 0,-0.59966 3.39378,-6.75322 3.7245,-6.75322 0.13434,0 0.24384,0.0893 0.24334,0.19844 -0.002,0.40446 -0.78535,8.70269 -0.91805,9.72343 -0.12236,0.94128 0.0256,0.75839 1.33821,-1.65364 0.81169,-1.49159 1.61496,-2.70925 1.78505,-2.70592 0.17008,0.003 1.4701,1.84677 2.88893,4.09652 l 2.57969,4.09046 v 6.50464 c 0,6.0707 -0.0309,6.49551 -0.46302,6.36765 -0.25466,-0.0754 -2.54662,-0.69185 -5.09323,-1.37002 -2.54661,-0.67816 -4.70072,-1.34531 -4.7869,-1.48255 -0.0862,-0.13724 -0.83044,-0.42547 -1.6539,-0.6405 -1.77549,-0.46365 -0.87989,-0.872 -8.46352,3.85899 -3.14909,1.96453 -5.72732,3.7207 -5.7294,3.9026 -0.002,0.18191 -0.0799,0.33073 -0.17283,0.33073 -0.093,0 -1.58658,0.24186 -3.31914,0.53746 -1.73255,0.29561 -3.24597,0.47821 -3.36315,0.40579 -0.11718,-0.0724 -3.23514,0.45753 -6.92881,1.17767 -5.25057,1.02369 -6.80336,1.41922 -7.11728,1.81293 -0.22084,0.27697 -2.35067,1.54792 -4.73295,2.82433 l -4.33142,2.32075 -1.35712,-1.5629 c -0.74642,-0.8596 -1.77665,-2.01941 -2.2894,-2.57736 l -0.93227,-1.01445 -3.94755,12.06081 c -2.17115,6.63344 -4.02513,12.06081 -4.11995,12.06081 -0.0948,0 -0.3879,-0.23813 -0.65129,-0.52917 z M 270.91033,161.52677 c -2.98318,-0.76137 -5.75138,-1.46719 -6.15157,-1.56848 l -0.7276,-0.18417 v -8.57067 -8.57066 l 0.99219,-0.15067 c 3.92816,-0.59653 5.37629,-0.69832 5.90546,-0.41511 0.62491,0.33443 5.79233,-0.10123 6.05421,-0.51044 0.0803,-0.12552 0.41812,-0.12443 0.75733,0.002 0.33677,0.12597 0.5543,0.32289 0.4834,0.43761 -0.0709,0.11471 3.02729,1.39375 6.88485,2.84232 3.85757,1.44857 7.05482,2.7002 7.105,2.78139 0.16033,0.25942 -0.61408,5.60405 -0.84277,5.81643 -0.12093,0.11232 -1.82698,0.87134 -3.79122,1.68672 -1.96424,0.81538 -3.60788,1.59212 -3.65253,1.72607 -0.0466,0.13979 -0.39883,0.15245 -0.82681,0.0297 -0.6944,-0.19915 -0.93884,-0.02 -3.55737,2.60664 -1.54646,1.55133 -2.81174,2.96743 -2.81174,3.14696 0,0.41245 0.50405,0.50823 -5.82083,-1.10602 z m -6.87917,-41.35668 v -5.53483 l 2.97656,-2.13339 2.97657,-2.1334 0.17525,1.22609 c 0.0964,0.67435 0.19305,2.23812 0.2148,3.47505 0.0217,1.23693 0.12443,3.09412 0.22818,4.1271 l 0.18865,1.87814 -2.63543,1.82603 c -1.44949,1.00431 -2.97049,2.04608 -3.38,2.31503 l -0.74458,0.489 z m 71.08909,-19.71908 c -0.26439,-0.909297 -0.71872,-2.444595 -1.00962,-3.411763 l -0.52892,-1.75849 -6.13413,-1.521854 c -3.37377,-0.83702 -6.17946,-1.55947 -6.23486,-1.605442 -0.0554,-0.04597 0.16852,-0.746985 0.49761,-1.557808 0.32909,-0.810824 0.54889,-1.523677 0.48845,-1.584116 -0.0604,-0.06044 -0.93921,0.416991 -1.95282,1.060958 -1.01361,0.643969 -1.9243,1.173948 -2.02376,1.177734 -0.0994,0.0038 -3.00054,-1.183743 -6.44685,-2.638951 -3.44632,-1.455209 -6.34734,-2.645834 -6.44672,-2.645834 -0.0994,0 -1.53824,0.9525 -3.19747,2.116667 -1.65923,1.164167 -3.09751,2.116667 -3.19619,2.116667 -0.2815,0 -0.5977,-7.689028 -0.32732,-7.959408 0.22212,-0.22212 8.77734,1.126689 9.33589,1.471888 0.13193,0.08154 1.49806,-0.74739 3.03584,-1.842064 l 2.79595,-1.99032 5.58693,2.795884 5.58693,2.795884 4.07255,-2.703677 c 2.2399,-1.487022 4.11322,-2.655612 4.16293,-2.59687 0.36793,0.434796 3.36222,10.948094 3.13928,11.022408 -0.16613,0.05538 0.20222,1.52681 0.91898,3.671004 l 1.19625,3.578582 -0.87477,1.236157 c -0.48112,0.679884 -1.06019,1.500304 -1.28682,1.823154 -0.22663,0.32285 -0.47158,0.59058 -0.54434,0.59495 -0.0728,0.004 -0.34861,-0.73603 -0.613,-1.64534 z m 21.03727,-9.279716 c -1.32618,-0.898687 -2.41605,-1.739649 -2.42192,-1.868808 -0.006,-0.129159 1.19324,-2.30859 2.66471,-4.843177 1.47147,-2.534589 2.63233,-4.643401 2.57969,-4.686247 -0.0526,-0.04285 -1.59848,-0.449982 -3.4352,-0.904746 l -3.33948,-0.826844 -2.03344,0.683684 c -1.11839,0.376025 -2.08496,0.632155 -2.14794,0.569179 -0.44319,-0.443195 -5.11227,-10.573896 -5.00371,-10.856786 0.0753,-0.196238 -0.47791,-1.660789 -1.22936,-3.254557 -0.75145,-1.593766 -1.40061,-3.135882 -1.44258,-3.426924 -0.042,-0.291041 -0.68086,-3.07052 -1.41976,-6.17662 -0.7389,-3.106099 -1.27799,-5.753377 -1.19798,-5.882839 0.08,-0.129463 1.32806,0.358063 2.77345,1.08339 1.44538,0.725328 2.70426,1.318777 2.7975,1.318777 0.0933,0 0.082,-3.036093 -0.025,-6.746875 l -0.19462,-6.746875 h 5.70822 5.70822 l 0.263,0.992188 c 1.46559,5.528972 2.32638,9.740849 2.02562,9.911333 -0.18232,0.103342 -0.59018,0.400998 -0.90637,0.661458 l -0.57488,0.473563 0.8121,3.042709 c 0.44665,1.673489 0.92901,3.489192 1.07192,4.034896 0.1429,0.545703 0.4108,0.992187 0.59534,0.992187 0.36428,0 1.30578,3.457411 1.09667,4.027239 -0.0683,0.186112 0.0924,1.030606 0.35719,1.876652 l 0.48136,1.538267 6.92422,-0.02492 c 3.80833,-0.01371 6.92295,0.06798 6.9214,0.181526 -0.006,0.449887 -5.31256,8.408532 -5.60637,8.408532 -0.17276,0 -1.18492,1.376024 -2.24925,3.05783 l -1.93516,3.057829 1.45722,4.857853 c 1.5751,5.250829 1.5858,5.298364 1.19263,5.298364 -0.14552,0 -0.26458,-0.178594 -0.26458,-0.396875 0,-0.218281 -0.0409,-0.396875 -0.091,-0.396875 -0.05,0 -1.75814,0.586459 -3.79578,1.303245 l -3.7048,1.303247 z m 72.05364,-18.024336 c -2.32502,-2.82534 -4.26174,-5.24029 -4.30383,-5.366554 -0.0421,-0.126267 1.12664,-0.422807 2.59717,-0.65898 1.47053,-0.236169 2.71982,-0.475519 2.77618,-0.531886 0.0564,-0.05637 0.40285,-2.595708 0.76997,-5.642978 0.36711,-3.047271 0.73523,-5.973018 0.81805,-6.501662 l 0.15058,-0.961171 1.86228,0.479022 c 1.02425,0.263463 1.9984,0.427423 2.16479,0.364357 0.16639,-0.06307 1.548,0.24193 3.07024,0.677769 1.52224,0.435839 2.84835,0.704406 2.94691,0.596814 0.0986,-0.107591 0.56443,-1.862496 1.03526,-3.899788 0.47084,-2.037291 0.90938,-3.795812 0.97454,-3.907822 0.0651,-0.112012 1.4792,1.066786 3.14233,2.61955 l 3.02387,2.823206 v 10.940346 c 0,6.017191 -0.0432,10.940346 -0.0959,10.940346 -0.0528,0 -1.55335,0.296831 -3.33467,0.659625 -1.78133,0.362794 -3.49818,0.594522 -3.81522,0.514948 -0.31704,-0.07957 -2.58087,0.337971 -5.03074,0.927875 -2.44986,0.589905 -4.47009,1.070618 -4.4894,1.068258 -0.0193,-0.0024 -1.93739,-2.315937 -4.2624,-5.141275 z m -20.51621,-8.96048 c -1.81628,-1.371782 -4.67155,-3.582048 -6.34504,-4.911702 l -3.0427,-2.417554 -5.23231,0.06817 -5.2323,0.06817 0.12906,-0.661458 c 0.071,-0.363802 0.21074,-1.254605 0.3106,-1.979562 l 0.18155,-1.318103 -0.89913,0.675812 c -0.49453,0.371696 -1.95708,1.469338 -3.25011,2.439203 l -2.35098,1.763393 -5.01531,-4.825268 c -2.75841,-2.653897 -6.22485,-5.928009 -7.70319,-7.275805 -1.47834,-1.347795 -2.71441,-2.53842 -2.74684,-2.645833 -0.0324,-0.107413 1.42541,-1.177562 3.23964,-2.378108 l 3.29859,-2.182813 h 15.87651 c 8.73208,0 15.87651,0.04818 15.87651,0.107056 0,0.05888 -0.18177,1.746531 -0.40394,3.750334 -0.28558,2.575792 -0.32046,3.69487 -0.11902,3.819361 0.20184,0.124748 0.16085,1.778131 -0.14061,5.671094 -0.23404,3.022256 -0.38884,5.526911 -0.344,5.5659 0.0448,0.03899 2.23649,0.174895 4.87035,0.302011 l 4.78882,0.23112 -1.10668,3.96875 c -0.60867,2.182812 -1.15853,4.124275 -1.2219,4.314362 -0.0745,0.223316 -1.28376,-0.536943 -3.41757,-2.148536 z"
         id="path1485" />
    </g>
  </g>
</svg>
