<?xml version="1.0" encoding="UTF-8" standalone="no"?>
<!-- Created with Inkscape (http://www.inkscape.org/) -->

<svg
   xmlns:dc="http://purl.org/dc/elements/1.1/"
   xmlns:cc="http://creativecommons.org/ns#"
   xmlns:rdf="http://www.w3.org/1999/02/22-rdf-syntax-ns#"
   xmlns:svg="http://www.w3.org/2000/svg"
   xmlns="http://www.w3.org/2000/svg"
   xmlns:sodipodi="http://sodipodi.sourceforge.net/DTD/sodipodi-0.dtd"
   xmlns:inkscape="http://www.inkscape.org/namespaces/inkscape"
   width="236.82918"
   height="70.066666"
   viewBox="0 0 62.661052 18.538472"
   version="1.1"
   id="svg4731"
   inkscape:version="0.92.1 r15371"
   sodipodi:docname="AirRoyal logo.svg">
  <defs
     id="defs4725" />
  <sodipodi:namedview
     id="base"
     pagecolor="#ffffff"
     bordercolor="#666666"
     borderopacity="1.0"
     inkscape:pageopacity="0.0"
     inkscape:pageshadow="2"
     inkscape:zoom="6.0803319"
     inkscape:cx="118.41459"
     inkscape:cy="35.033333"
     inkscape:document-units="px"
     inkscape:current-layer="layer1"
     showgrid="false"
     units="px"
     inkscape:showpageshadow="false"
     borderlayer="true"
     inkscape:pagecheckerboard="true"
     fit-margin-top="0"
     fit-margin-left="0"
     fit-margin-right="0"
     fit-margin-bottom="0"
     inkscape:window-width="1920"
     inkscape:window-height="1017"
     inkscape:window-x="-8"
     inkscape:window-y="-8"
     inkscape:window-maximized="1" />
  <metadata
     id="metadata4728">
    <rdf:RDF>
      <cc:Work
         rdf:about="">
        <dc:format>image/svg+xml</dc:format>
        <dc:type
           rdf:resource="http://purl.org/dc/dcmitype/StillImage" />
        <dc:title></dc:title>
      </cc:Work>
    </rdf:RDF>
  </metadata>
  <g
     inkscape:label="Layer 1"
     inkscape:groupmode="layer"
     id="layer1"
     transform="translate(-40.700475,-141.49051)">
    <g
       aria-label="airRoyal"
       style="font-style:normal;font-variant:normal;font-weight:normal;font-stretch:normal;font-size:17.63888931px;line-height:1.25;font-family:'Adobe Heiti Std';-inkscape-font-specification:'Adobe Heiti Std';letter-spacing:0px;word-spacing:0px;fill:#000000;fill-opacity:1;stroke:none;stroke-width:0.26458332"
       id="text4735">
      <path
         d="m 48.179365,149.65732 c 0,-2.06375 -0.79375,-3.95111 -3.651251,-3.95111 -1.305277,0 -2.451805,0.37041 -3.139722,0.81139 l 0.423334,1.35819 c 0.617361,-0.40569 1.499305,-0.67028 2.363611,-0.67028 1.957916,0 1.957916,1.44639 1.957916,2.16959 -3.33375,0 -5.432778,1.19944 -5.432778,3.61597 0,1.4993 1.040695,2.83986 2.857501,2.83986 1.217083,0 2.169583,-0.56444 2.716389,-1.32292 h 0.05292 l 0.141111,1.12889 h 1.852084 c -0.123473,-0.635 -0.141111,-1.48166 -0.141111,-2.31069 z m -1.993195,2.69875 c 0,1.12889 -0.917222,1.97555 -2.028472,1.97555 -0.758472,0 -1.42875,-0.47625 -1.42875,-1.55222 0,-1.72861 1.852083,-2.02847 3.457222,-2.02847 z"
         style="font-style:normal;font-variant:normal;font-weight:normal;font-stretch:normal;font-size:17.63888931px;font-family:'Adobe Heiti Std';-inkscape-font-specification:'Adobe Heiti Std';stroke-width:0.26458332;fill:#4f4f4f;fill-opacity:1"
         id="path4737" />
      <path
         d="m 52.963913,143.23676 c 0,-0.68791 -0.47625,-1.19944 -1.181805,-1.19944 -0.705556,0 -1.199445,0.51153 -1.199445,1.19944 0,0.65264 0.47625,1.18181 1.181806,1.18181 0.740833,0 1.199444,-0.52917 1.199444,-1.18181 z m -0.176389,2.66347 h -2.046111 v 9.73667 h 2.046111 z"
         style="font-style:normal;font-variant:normal;font-weight:normal;font-stretch:normal;font-size:17.63888931px;font-family:'Adobe Heiti Std';-inkscape-font-specification:'Adobe Heiti Std';stroke-width:0.26458332;fill:#4f4f4f;fill-opacity:1"
         id="path4739" />
      <path
         d="m 60.312716,145.75912 c -0.176389,-0.0353 -0.3175,-0.0529 -0.511528,-0.0529 -1.058333,0 -2.081389,0.75847 -2.522361,1.99319 h -0.07056 l -0.07056,-1.78153 h -1.781528 c 0.05292,0.89959 0.07055,1.83445 0.07055,2.96334 v 6.75569 h 2.046112 v -5.15055 c 0,-1.69334 0.864305,-2.82223 2.240139,-2.82223 0.229305,0 0.423333,0.0176 0.599722,0.0529 z"
         style="font-style:normal;font-variant:normal;font-weight:normal;font-stretch:normal;font-size:17.63888931px;font-family:'Adobe Heiti Std';-inkscape-font-specification:'Adobe Heiti Std';stroke-width:0.26458332;fill:#4f4f4f;fill-opacity:1"
         id="path4741" />
      <path
         d="m 67.794911,149.18107 c 1.358194,-0.51153 2.416527,-1.69334 2.416527,-3.42195 0,-1.09361 -0.370416,-2.02847 -1.075972,-2.64583 -0.846667,-0.75847 -2.081389,-1.07597 -3.845278,-1.07597 -1.217083,0 -2.416528,0.12347 -3.280833,0.28222 v 13.31736 h 2.028472 v -5.715 h 1.234722 c 1.42875,0 2.081389,0.68792 2.451806,2.48709 0.335139,1.65805 0.652639,2.83986 0.846667,3.22791 h 2.116666 c -0.264583,-0.51153 -0.599722,-1.905 -1.005416,-3.66889 -0.3175,-1.42875 -0.881945,-2.38125 -1.887361,-2.75166 z m -3.757084,-0.79375 v -4.63903 c 0.246945,-0.0706 0.740833,-0.12347 1.42875,-0.12347 1.464028,0 2.69875,0.59972 2.69875,2.34597 0,1.44639 -1.058333,2.41653 -2.751667,2.41653 z"
         style="font-style:normal;font-variant:normal;font-weight:normal;font-stretch:normal;font-size:17.63888931px;font-family:'Adobe Heiti Std';-inkscape-font-specification:'Adobe Heiti Std';stroke-width:0.26458332;fill:#c40253;fill-opacity:1"
         id="path4743" />
      <path
         d="m 76.379813,145.70621 c -2.575278,0 -4.586111,1.85208 -4.586111,5.13291 0,3.13973 1.922639,4.99181 4.445,4.99181 2.187222,0 4.550834,-1.49931 4.550834,-5.13292 0,-2.98097 -1.74625,-4.9918 -4.409723,-4.9918 z m 2.310695,5.04472 c 0,1.94028 -0.917222,3.54542 -2.398889,3.54542 -1.499306,0 -2.398889,-1.60514 -2.398889,-3.51014 0,-1.6757 0.670278,-3.54542 2.416528,-3.54542 1.710972,0 2.38125,1.905 2.38125,3.51014 z"
         style="font-style:normal;font-variant:normal;font-weight:normal;font-stretch:normal;font-size:17.63888931px;font-family:'Adobe Heiti Std';-inkscape-font-specification:'Adobe Heiti Std';stroke-width:0.26458332;fill:#c40253;fill-opacity:1"
         id="path4745" />
      <path
         d="m 88.353864,145.91787 -1.569861,5.46806 c -0.176389,0.65264 -0.370416,1.37583 -0.511527,1.94028 h -0.05292 c -0.141111,-0.56445 -0.335139,-1.30528 -0.529167,-1.94028 l -1.763889,-5.46806 h -2.240139 l 3.33375,8.96056 c 0.08819,0.19403 0.105834,0.3175 0.105834,0.42333 0,0.26459 -0.758472,2.24014 -2.875139,2.99861 l 0.529166,1.72862 c 0.47625,-0.10584 1.375834,-0.44098 2.257778,-1.25237 1.164167,-1.12888 1.975556,-2.92805 3.122084,-6.12069 l 2.345972,-6.73806 z"
         style="font-style:normal;font-variant:normal;font-weight:normal;font-stretch:normal;font-size:17.63888931px;font-family:'Adobe Heiti Std';-inkscape-font-specification:'Adobe Heiti Std';stroke-width:0.26458332;fill:#c40253;fill-opacity:1"
         id="path4747" />
      <path
         d="m 98.753366,149.65732 c 0,-2.06375 -0.79375,-3.95111 -3.65125,-3.95111 -1.305278,0 -2.451806,0.37041 -3.139723,0.81139 l 0.423334,1.35819 c 0.617361,-0.40569 1.499305,-0.67028 2.363611,-0.67028 1.957917,0 1.957917,1.44639 1.957917,2.16959 -3.33375,0 -5.432778,1.19944 -5.432778,3.61597 0,1.4993 1.040694,2.83986 2.8575,2.83986 1.217083,0 2.169583,-0.56444 2.716389,-1.32292 h 0.05292 l 0.141112,1.12889 h 1.852083 c -0.123472,-0.635 -0.141111,-1.48166 -0.141111,-2.31069 z m -1.993195,2.69875 c 0,1.12889 -0.917222,1.97555 -2.028472,1.97555 -0.758472,0 -1.42875,-0.47625 -1.42875,-1.55222 0,-1.72861 1.852083,-2.02847 3.457222,-2.02847 z"
         style="font-style:normal;font-variant:normal;font-weight:normal;font-stretch:normal;font-size:17.63888931px;font-family:'Adobe Heiti Std';-inkscape-font-specification:'Adobe Heiti Std';stroke-width:0.26458332;fill:#c40253;fill-opacity:1"
         id="path4749" />
      <path
         d="m 103.36153,141.49051 h -2.04611 v 14.14639 h 2.04611 z"
         style="font-style:normal;font-variant:normal;font-weight:normal;font-stretch:normal;font-size:17.63888931px;font-family:'Adobe Heiti Std';-inkscape-font-specification:'Adobe Heiti Std';stroke-width:0.26458332;fill:#c40253;fill-opacity:1"
         id="path4751" />
    </g>
  </g>
</svg>
