<?xml version="1.0" encoding="UTF-8" standalone="no"?>
<!-- Created with Inkscape (http://www.inkscape.org/) -->

<svg
   xmlns:dc="http://purl.org/dc/elements/1.1/"
   xmlns:cc="http://creativecommons.org/ns#"
   xmlns:rdf="http://www.w3.org/1999/02/22-rdf-syntax-ns#"
   xmlns:svg="http://www.w3.org/2000/svg"
   xmlns="http://www.w3.org/2000/svg"
   xmlns:sodipodi="http://sodipodi.sourceforge.net/DTD/sodipodi-0.dtd"
   xmlns:inkscape="http://www.inkscape.org/namespaces/inkscape"
   width="233.62691"
   height="70.066666"
   viewBox="0 0 61.813785 18.538472"
   version="1.1"
   id="svg8"
   inkscape:version="0.92.1 r15371"
   sodipodi:docname="Skylines logo.svg">
  <defs
     id="defs2" />
  <sodipodi:namedview
     id="base"
     pagecolor="#ffffff"
     bordercolor="#666666"
     borderopacity="1.0"
     inkscape:pageopacity="0.0"
     inkscape:pageshadow="2"
     inkscape:zoom="4.3526326"
     inkscape:cx="116.81346"
     inkscape:cy="35.033339"
     inkscape:document-units="px"
     inkscape:current-layer="layer1"
     showgrid="false"
     units="px"
     inkscape:showpageshadow="false"
     borderlayer="true"
     fit-margin-top="0"
     fit-margin-left="0"
     fit-margin-right="0"
     fit-margin-bottom="0"
     inkscape:window-width="1920"
     inkscape:window-height="1017"
     inkscape:window-x="-8"
     inkscape:window-y="-8"
     inkscape:window-maximized="1" />
  <metadata
     id="metadata5">
    <rdf:RDF>
      <cc:Work
         rdf:about="">
        <dc:format>image/svg+xml</dc:format>
        <dc:type
           rdf:resource="http://purl.org/dc/dcmitype/StillImage" />
        <dc:title></dc:title>
      </cc:Work>
    </rdf:RDF>
  </metadata>
  <g
     inkscape:label="Layer 1"
     inkscape:groupmode="layer"
     id="layer1"
     transform="translate(86.789455,-123.3974)">
    <g
       id="g4511"
       transform="translate(2.96346e-4,-3.9019879e-6)">
      <g
         aria-label="sky"
         style="font-style:normal;font-variant:normal;font-weight:normal;font-stretch:normal;font-size:17.63888931px;line-height:1.25;font-family:'Adobe Heiti Std';-inkscape-font-specification:'Adobe Heiti Std';letter-spacing:0px;word-spacing:0px;fill:#4f4f4f;fill-opacity:1;stroke:none;stroke-width:0.26458332"
         id="text4487">
        <path
           d="m -80.863085,128.17754 c -0.529167,-0.29986 -1.358194,-0.56444 -2.310694,-0.56444 -2.046112,0 -3.369028,1.28764 -3.369028,2.91041 0,1.12889 0.758472,2.09903 2.487083,2.78695 1.164167,0.49389 1.569861,0.89958 1.569861,1.64042 0,0.74083 -0.529166,1.27 -1.622778,1.27 -0.829027,0 -1.728611,-0.35278 -2.2225,-0.65264 l -0.458611,1.51694 c 0.652639,0.38806 1.622778,0.65264 2.645834,0.65264 2.204861,0 3.633611,-1.11125 3.633611,-2.98097 0,-1.41111 -0.846667,-2.29306 -2.451806,-2.9457 -1.181805,-0.51152 -1.622778,-0.84666 -1.622778,-1.51694 0,-0.65264 0.493889,-1.18181 1.411112,-1.18181 0.79375,0 1.464027,0.29986 1.852083,0.54681 z"
           style="font-style:normal;font-variant:normal;font-weight:normal;font-stretch:normal;font-size:17.63888931px;font-family:'Adobe Heiti Std';-inkscape-font-specification:'Adobe Heiti Std';fill:#4f4f4f;fill-opacity:1;stroke-width:0.26458332"
           id="path4513" />
        <path
           d="m -74.273306,131.82879 3.421944,-4.00403 h -2.416527 l -2.416528,3.24556 c -0.246945,0.33514 -0.511528,0.75847 -0.740834,1.12889 h -0.03528 v -8.80181 h -2.046111 v 14.14639 h 2.046111 v -3.4925 l 0.79375,-0.97014 2.786944,4.46264 h 2.469445 z"
           style="font-style:normal;font-variant:normal;font-weight:normal;font-stretch:normal;font-size:17.63888931px;font-family:'Adobe Heiti Std';-inkscape-font-specification:'Adobe Heiti Std';fill:#4f4f4f;fill-opacity:1;stroke-width:0.26458332"
           id="path4515" />
        <path
           d="m -63.735172,127.82476 -1.569862,5.46806 c -0.176388,0.65264 -0.370416,1.37583 -0.511527,1.94028 h -0.05292 c -0.141111,-0.56445 -0.335139,-1.30528 -0.529167,-1.94028 l -1.763889,-5.46806 h -2.240139 l 3.33375,8.96056 c 0.08819,0.19403 0.105834,0.3175 0.105834,0.42333 0,0.26459 -0.758472,2.24014 -2.875139,2.99862 l 0.529167,1.72861 c 0.47625,-0.10584 1.375833,-0.44098 2.257777,-1.25236 1.164167,-1.12889 1.975556,-2.92806 3.122084,-6.1207 l 2.345972,-6.73806 z"
           style="font-style:normal;font-variant:normal;font-weight:normal;font-stretch:normal;font-size:17.63888931px;font-family:'Adobe Heiti Std';-inkscape-font-specification:'Adobe Heiti Std';fill:#4f4f4f;fill-opacity:1;stroke-width:0.26458332"
           id="path4517" />
      </g>
      <g
         aria-label="lines"
         style="font-style:normal;font-variant:normal;font-weight:normal;font-stretch:normal;font-size:17.63888931px;line-height:1.25;font-family:'Adobe Heiti Std';-inkscape-font-specification:'Adobe Heiti Std';letter-spacing:0px;word-spacing:0px;fill:#c40253;fill-opacity:1;stroke:none;stroke-width:0.26458332"
         id="text4487-3">
        <path
           d="m -58.098768,123.3974 h -2.046111 v 14.14639 h 2.046111 z"
           style="font-style:normal;font-variant:normal;font-weight:normal;font-stretch:normal;font-size:17.63888931px;font-family:'Adobe Heiti Std';-inkscape-font-specification:'Adobe Heiti Std';fill:#c40253;fill-opacity:1;stroke-width:0.26458332"
           id="path4520" />
        <path
           d="M -53.447889,127.80713 H -55.494 v 9.73666 h 2.046111 z"
           style="font-style:normal;font-variant:normal;font-weight:normal;font-stretch:normal;font-size:17.63888931px;font-family:'Adobe Heiti Std';-inkscape-font-specification:'Adobe Heiti Std';fill:#c40253;fill-opacity:1;stroke-width:0.26458332"
           id="path4522"
           inkscape:connector-curvature="0"
           sodipodi:nodetypes="ccccc" />
        <path
           d="m -42.782976,131.59949 c 0,-2.99861 -1.693334,-3.98639 -3.210278,-3.98639 -1.464028,0 -2.487084,0.82903 -2.945695,1.65805 h -0.05292 l -0.105834,-1.44639 h -1.781528 c 0.03528,0.82903 0.07056,1.65806 0.07056,2.73403 v 6.985 h 2.046111 v -5.85611 c 0,-1.55222 1.075972,-2.38125 2.081389,-2.38125 1.393472,0 1.852083,1.16417 1.852083,2.54 v 5.69736 h 2.046112 z"
           style="font-style:normal;font-variant:normal;font-weight:normal;font-stretch:normal;font-size:17.63888931px;font-family:'Adobe Heiti Std';-inkscape-font-specification:'Adobe Heiti Std';fill:#c40253;fill-opacity:1;stroke-width:0.26458332"
           id="path4524" />
        <path
           d="m -33.424442,135.70935 c -0.635,0.26458 -1.375834,0.45861 -2.451806,0.45861 -1.534583,0 -2.892778,-0.82903 -2.945694,-3.01625 h 6.173611 c 0.03528,-0.24695 0.05292,-0.52917 0.05292,-0.86431 0,-2.39889 -1.093611,-4.6743 -3.827639,-4.6743 -2.751666,0 -4.374444,2.31069 -4.374444,5.20347 0,2.96333 1.693333,4.92125 4.621389,4.92125 1.322917,0 2.398889,-0.26458 3.086806,-0.58208 z m -5.379862,-4.02167 c 0.105834,-1.12889 0.740834,-2.61055 2.240139,-2.61055 1.569861,0 2.046112,1.44638 2.028473,2.61055 z"
           style="font-style:normal;font-variant:normal;font-weight:normal;font-stretch:normal;font-size:17.63888931px;font-family:'Adobe Heiti Std';-inkscape-font-specification:'Adobe Heiti Std';fill:#c40253;fill-opacity:1;stroke-width:0.26458332"
           id="path4526" />
        <path
           d="m -25.328743,128.17754 c -0.529167,-0.29986 -1.358195,-0.56444 -2.310695,-0.56444 -2.046111,0 -3.369028,1.28764 -3.369028,2.91041 0,1.12889 0.758473,2.09903 2.487084,2.78695 1.164167,0.49389 1.569861,0.89958 1.569861,1.64042 0,0.74083 -0.529167,1.27 -1.622778,1.27 -0.829028,0 -1.728611,-0.35278 -2.2225,-0.65264 l -0.458611,1.51694 c 0.652639,0.38806 1.622778,0.65264 2.645833,0.65264 2.204862,0 3.633612,-1.11125 3.633612,-2.98097 0,-1.41111 -0.846667,-2.29306 -2.451806,-2.9457 -1.181806,-0.51152 -1.622778,-0.84666 -1.622778,-1.51694 0,-0.65264 0.493889,-1.18181 1.411111,-1.18181 0.79375,0 1.464028,0.29986 1.852084,0.54681 z"
           style="font-style:normal;font-variant:normal;font-weight:normal;font-stretch:normal;font-size:17.63888931px;font-family:'Adobe Heiti Std';-inkscape-font-specification:'Adobe Heiti Std';fill:#c40253;fill-opacity:1;stroke-width:0.26458332"
           id="path4528" />
      </g>
    </g>
  </g>
</svg>
