<?xml version="1.0" encoding="UTF-8" standalone="no"?>
<svg
   xmlns:dc="http://purl.org/dc/elements/1.1/"
   xmlns:cc="http://creativecommons.org/ns#"
   xmlns:svg="http://www.w3.org/2000/svg"
   xmlns="http://www.w3.org/2000/svg"
   xmlns:xlink="http://www.w3.org/1999/xlink"
   width="500"
   height="150"
   viewBox="0 0 132.29166 39.687499"
   version="1.1"
   id="svg8">
  <defs
     id="defs2">
    <linearGradient
       id="linearGradient5992">
      <stop
         style="stop-color:#a5a5a5;stop-opacity:1;"
         offset="0"
         id="stop5988" />
      <stop
         style="stop-color:#a5a5a5;stop-opacity:0;"
         offset="1"
         id="stop5990" />
    </linearGradient>
    <linearGradient
       xlink:href="#linearGradient5992"
       id="linearGradient5994"
       x1="55.138072"
       y1="282.71549"
       x2="80.368403"
       y2="282.71549"
       gradientUnits="userSpaceOnUse" />
  </defs>
  <g
     id="layer1"
     transform="translate(-47.909487,-262.87174)">
    <g
       id="g5199">
      <g
         transform="matrix(0.84609991,0,0,0.84609991,-2.5734027,-0.9366209)"
         id="g5162"
         style="fill:#555555;fill-opacity:1">
        <path
           style="fill:#555555;fill-opacity:1;stroke:none;stroke-width:0.26458335px;stroke-linecap:butt;stroke-linejoin:miter;stroke-opacity:1"
           d="m 106.5718,311.79339 -18.708881,1e-5 -4.744319,4.74432 18.70888,-10e-6 -10e-6,18.70888 4.74432,-4.74432 z"
           id="path5013-6-5" />
        <path
           style="fill:#555555;fill-opacity:1;stroke:none;stroke-width:0.26458335px;stroke-linecap:butt;stroke-linejoin:miter;stroke-opacity:1"
           d="m 106.5718,358.69979 -1e-5,-18.70888 -4.74432,-4.74432 10e-6,18.70888 -18.708881,-10e-6 4.74432,4.74432 z"
           id="path5013-6-5-6" />
        <path
           style="fill:#555555;fill-opacity:1;stroke:none;stroke-width:0.26458335px;stroke-linecap:butt;stroke-linejoin:miter;stroke-opacity:1"
           d="m 59.6654,311.79339 18.708881,1e-5 4.744319,4.74432 -18.70888,-10e-6 1e-5,18.70888 -4.74432,-4.74432 z"
           id="path5013-6-5-5" />
        <path
           style="fill:#555555;fill-opacity:1;stroke:none;stroke-width:0.26458335px;stroke-linecap:butt;stroke-linejoin:miter;stroke-opacity:1"
           d="m 59.6654,358.69979 1e-5,-18.70888 4.74432,-4.74432 -1e-5,18.70888 18.708881,-10e-6 -4.74432,4.74432 z"
           id="path5013-6-5-6-7" />
      </g>
      <path
         id="path5191"
         d="m 55.138072,269.48632 v 26.45834 h 5.291666 v -13.22917 l 13.229183,13.22917 h 6.709482 L 67.139217,282.71549 80.368403,269.48632 h -6.709484 l -13.229181,13.22917 v -13.22917 z"
         style="fill:#0b60ad;fill-opacity:1;stroke:none;stroke-width:0.26458335px;stroke-linecap:butt;stroke-linejoin:miter;stroke-opacity:1" />
      <path
         id="path5191-3"
         d="m 55.138072,269.48632 v 26.45834 h 5.291666 v -13.22917 l 13.229183,13.22917 h 6.709482 L 67.139217,282.71549 80.368403,269.48632 h -6.709484 l -13.229181,13.22917 v -13.22917 z"
         style="fill:url(#linearGradient5994);fill-opacity:1;stroke:none;stroke-width:0.26458335px;stroke-linecap:butt;stroke-linejoin:miter;stroke-opacity:1" />
    </g>
    <g
       style="font-style:normal;font-variant:normal;font-weight:normal;font-stretch:normal;font-size:33.57656479px;line-height:1.25;font-family:'Adobe Heiti Std';letter-spacing:0px;word-spacing:0px;fill:#000000;fill-opacity:1;stroke:none;stroke-width:2.65078139"
       id="text5388">
      <path
         d="m 111.28861,269.88925 h -3.59269 v 9.46859 c 0,4.09634 0.10073,7.38684 0.40292,10.8788 l -0.10073,0.0336 c -1.10803,-2.7197 -2.55182,-5.67444 -4.16349,-8.49487 l -6.715318,-11.8861 h -4.230647 v 25.68607 h 3.592693 v -9.6029 c 0,-4.49926 -0.06715,-7.82334 -0.268613,-11.08027 l 0.134306,-0.0336 c 1.17518,2.88758 2.719702,5.90947 4.264219,8.69633 l 6.74889,12.02041 h 3.92846 z"
         style="font-style:normal;font-variant:normal;font-weight:normal;font-stretch:normal;font-family:'Adobe Heiti Std';stroke-width:2.65078139"
         id="path5398" />
      <path
         d="M 130.69534,292.31839 H 120.5888 v -8.52845 h 8.99852 v -3.22335 h -8.99852 v -7.42042 h 9.53574 v -3.25692 h -13.43063 v 25.68607 h 14.00143 z"
         style="font-style:normal;font-variant:normal;font-weight:normal;font-stretch:normal;font-family:'Adobe Heiti Std';stroke-width:2.65078139"
         id="path5400" />
      <path
         d="m 158.53556,269.88925 -2.75328,12.12114 c -0.67153,3.12262 -1.27591,6.0102 -1.7124,9.03209 h -0.10073 c -0.36934,-2.95474 -0.97372,-5.90947 -1.61168,-8.93137 l -2.68612,-12.22186 h -3.89488 l -2.92117,12.15471 c -0.73868,3.25693 -1.47736,6.27882 -1.88028,9.0321 h -0.0672 c -0.43649,-2.65255 -1.00729,-5.80875 -1.64525,-8.96495 l -2.55182,-12.22186 h -4.12991 l 6.0102,25.68607 h 4.09634 l 3.05547,-12.38976 c 0.77226,-3.05546 1.34306,-5.5737 1.74598,-8.32698 h 0.10073 c 0.30219,2.75328 0.80584,5.33867 1.47737,8.32698 l 2.78685,12.38976 h 4.06277 l 6.58101,-25.68607 z"
         style="font-style:normal;font-variant:normal;font-weight:normal;font-stretch:normal;font-family:'Adobe Heiti Std';stroke-width:2.65078139"
         id="path5402" />
      <path
         d="m 178.57657,270.66151 c -1.10802,-0.57081 -2.95474,-1.17518 -5.40582,-1.17518 -5.10364,0 -8.36057,3.05546 -8.36057,7.11823 0,3.49196 2.5854,5.80874 6.41312,7.35327 3.05547,1.27591 4.36496,2.61897 4.36496,4.80144 0,2.31679 -1.71241,3.89489 -4.76787,3.89489 -2.11533,0 -4.19707,-0.67154 -5.57371,-1.51095 l -0.87299,3.25693 c 1.24233,0.83941 3.79415,1.54452 6.21166,1.54452 5.77517,0 8.96494,-3.22335 8.96494,-7.52115 0,-3.52554 -1.98101,-5.77517 -6.11093,-7.5883 -3.25693,-1.41022 -4.70072,-2.48467 -4.70072,-4.66715 0,-1.64525 1.27591,-3.42481 4.33138,-3.42481 2.11532,0 3.72699,0.67153 4.56641,1.14161 z"
         style="font-style:normal;font-variant:normal;font-weight:normal;font-stretch:normal;font-family:'Adobe Heiti Std';stroke-width:2.65078139"
         id="path5404" />
    </g>
  </g>
</svg>
