<?xml version="1.0" encoding="UTF-8" standalone="no"?>
<!-- Created with Inkscape (http://www.inkscape.org/) -->

<svg
   width="700"
   height="150"
   viewBox="0 0 185.20833 39.687501"
   version="1.1"
   id="svg9715"
   inkscape:version="1.1.1 (3bf5ae0d25, 2021-09-20)"
   sodipodi:docname="De Gronne logo.svg"
   xmlns:inkscape="http://www.inkscape.org/namespaces/inkscape"
   xmlns:sodipodi="http://sodipodi.sourceforge.net/DTD/sodipodi-0.dtd"
   xmlns="http://www.w3.org/2000/svg"
   xmlns:svg="http://www.w3.org/2000/svg">
  <sodipodi:namedview
     id="namedview9717"
     pagecolor="#505050"
     bordercolor="#ffffff"
     borderopacity="1"
     inkscape:pageshadow="0"
     inkscape:pageopacity="0"
     inkscape:pagecheckerboard="1"
     inkscape:document-units="px"
     showgrid="false"
     units="px"
     fit-margin-top="0"
     fit-margin-left="0"
     fit-margin-right="0"
     fit-margin-bottom="0"
     inkscape:zoom="1.61"
     inkscape:cx="350"
     inkscape:cy="74.84472"
     inkscape:window-width="1920"
     inkscape:window-height="1017"
     inkscape:window-x="-8"
     inkscape:window-y="-8"
     inkscape:window-maximized="1"
     inkscape:current-layer="layer1" />
  <defs
     id="defs9712" />
  <g
     inkscape:label="Layer 1"
     inkscape:groupmode="layer"
     id="layer1"
     transform="translate(-43.193508,-63.540863)">
    <rect
       style="fill:#17aa5c;fill-opacity:1;stroke-width:1.16607;stop-color:#000000"
       id="rect18435"
       width="185.20833"
       height="39.6875"
       x="43.193508"
       y="63.540863"
       rx="7.5735741"
       ry="6.3269925" />
    <g
       aria-label="DE GRØNNE"
       id="text13862"
       style="font-style:italic;font-weight:600;font-size:31.7627px;line-height:1.25;font-family:'Uni Sans';-inkscape-font-specification:'Uni Sans Semi-Bold Italic';fill:#ffffff;stroke-width:0.317627">
      <path
         d="m 55.438165,72.108857 -3.144507,22.487991 h 8.067725 c 4.415016,0 8.70298,-2.032813 9.369997,-6.956032 l 1.206982,-8.448878 c 0.06353,-0.412915 0.09529,-0.794067 0.09529,-1.175219 0,-0.730542 -0.127051,-1.397559 -0.349389,-2.00105 -1.016407,-2.668067 -3.843287,-3.906812 -7.17837,-3.906812 z m 1.016406,18.803517 2.128101,-15.119044 h 4.415015 c 1.937525,0 3.462135,0.571728 4.097389,1.842236 0.12705,0.317627 0.190576,0.667017 0.190576,1.048169 0,0.158814 0,0.34939 -0.03176,0.508203 l -1.206983,8.448878 c -0.349389,2.382203 -2.636304,3.271558 -5.177319,3.271558 z"
         id="path27075" />
      <path
         d="m 78.783714,75.761567 h 11.148707 l 0.508203,-3.684473 H 75.607444 L 72.462936,94.596848 H 87.296117 L 87.80432,90.912374 H 76.655613 l 0.794067,-5.717285 h 10.259352 l 0.508203,-3.684474 H 77.957883 Z"
         id="path27077" />
      <path
         d="m 108.32294,71.79123 c -4.31973,0 -8.988848,2.382202 -9.655865,7.17837 l -1.206983,8.607691 c -0.06352,0.412915 -0.09529,0.794068 -0.09529,1.143457 0,0.762305 0.127051,1.461084 0.381153,2.064576 1.079931,2.795117 4.002105,4.097388 7.305425,4.097388 4.38325,0 9.08413,-2.35044 9.75115,-7.305421 l 0.73054,-5.272608 h -9.97349 l -0.5082,3.52566 h 6.32077 l -0.22233,1.778711 c -0.34939,2.445728 -3.01746,3.620947 -5.55848,3.620947 -1.874,0 -3.62094,-0.667016 -4.2562,-2.032812 -0.15881,-0.317627 -0.2541,-0.69878 -0.2541,-1.111695 0,-0.158813 0,-0.317627 0.0318,-0.47644 l 1.20699,-8.544166 c 0.34938,-2.382203 2.98569,-3.557423 5.39965,-3.557423 1.93753,0 3.84329,0.794068 4.57383,2.826881 l 3.52566,-1.651661 c -1.17522,-3.462134 -4.19267,-4.891455 -7.49599,-4.891455 z"
         id="path27079" />
      <path
         d="m 120.26566,72.108857 -3.1445,22.487991 h 3.68447 l 1.20698,-8.70298 h 2.69983 l 5.52671,8.70298 h 4.47854 l -5.71728,-8.830031 c 3.49389,-0.508203 6.25725,-2.47749 6.86074,-6.701929 0.0318,-0.412915 0.0635,-0.825831 0.0635,-1.206983 0,-0.730542 -0.0953,-1.365796 -0.25411,-1.969287 -0.88935,-2.636304 -3.36684,-3.779761 -6.70193,-3.779761 z m 2.19163,10.576978 0.98464,-6.892505 h 5.05027 0.28587 c 0.5082,0 0.95288,0.03176 1.36579,0.12705 0.98465,0.222339 1.68343,0.730543 1.96929,1.588135 0.0953,0.254102 0.12705,0.571729 0.12705,0.921119 0,0.222339 -0.0318,0.444677 -0.0635,0.667016 -0.34939,2.541016 -2.1281,3.589185 -4.66912,3.589185 z"
         id="path27081" />
      <path
         d="m 156.66568,78.016719 c 0,-0.984644 -0.19057,-1.842237 -0.60349,-2.572779 -0.57173,-0.984644 -1.36579,-1.778711 -2.3822,-2.382202 l 1.33403,-2.445728 -2.03281,-0.889356 -1.36579,2.477491 c -0.98465,-0.285865 -2.06458,-0.412915 -3.11275,-0.412915 -4.57383,0 -9.43352,2.445727 -10.10054,7.273658 l -1.23874,8.544166 c -0.0635,0.412915 -0.0953,0.794067 -0.0953,1.17522 0,0.889355 0.19058,1.683423 0.57173,2.382202 0.5082,0.984644 1.23874,1.778711 2.22339,2.382202 l -1.39756,2.604542 2.19162,0.889355 1.3658,-2.541016 c 0.95288,0.285865 2.00105,0.412916 3.17627,0.412916 4.54207,0 9.49705,-2.445728 10.16406,-7.305421 l 1.23875,-8.544166 c 0.0318,-0.34939 0.0635,-0.69878 0.0635,-1.048169 z M 140.8161,88.053732 c 0,-0.158814 0,-0.317627 0.0318,-0.476441 l 1.20698,-8.417115 c 0.34939,-2.509253 3.20804,-3.652711 5.93963,-3.652711 0.53996,0 1.11169,0.06353 1.71518,0.158814 l -7.90891,14.388503 c -0.34939,-0.285865 -0.63525,-0.635254 -0.79407,-1.04817 -0.12705,-0.285864 -0.19057,-0.603491 -0.19057,-0.95288 z m 12.19687,-9.465285 c 0,0.158814 -0.0318,0.34939 -0.0635,0.571729 l -1.20698,8.417115 c -0.34939,2.445728 -3.2398,3.65271 -6.00315,3.65271 -0.63526,0 -1.23875,-0.06352 -1.81048,-0.190576 l 7.90891,-14.547316 c 0.41292,0.285864 0.73055,0.667017 0.95289,1.079932 0.15881,0.285864 0.22233,0.635254 0.22233,1.016406 z"
         id="path27083" />
      <path
         d="m 161.71593,94.596848 1.74695,-12.546267 0.0953,-4.700879 0.22234,-0.06352 1.49284,4.287964 5.84434,13.022707 h 4.28796 l 3.14451,-22.487991 h -3.68447 l -1.81047,12.863893 -0.12706,4.82793 -0.2541,0.06352 -1.68342,-4.47854 -5.93963,-13.276808 h -3.87504 l -3.14451,22.487991 z"
         id="path27085" />
      <path
         d="m 183.34632,94.596848 1.74695,-12.546267 0.0953,-4.700879 0.22234,-0.06352 1.49285,4.287964 5.84434,13.022707 h 4.28796 l 3.14451,-22.487991 h -3.68447 l -1.81048,12.863893 -0.12705,4.82793 -0.2541,0.06352 -1.68342,-4.47854 -5.93963,-13.276808 h -3.87505 l -3.14451,22.487991 z"
         id="path27087" />
      <path
         d="m 207.64478,75.761567 h 11.14871 l 0.5082,-3.684473 H 204.46851 L 201.324,94.596848 h 14.83318 l 0.50821,-3.684474 h -11.14871 l 0.79407,-5.717285 h 10.25935 l 0.5082,-3.684474 h -10.25935 z"
         id="path27089" />
    </g>
  </g>
</svg>
