<?xml version="1.0" encoding="UTF-8" standalone="no"?>
<!-- Created with Inkscape (http://www.inkscape.org/) -->

<svg
   width="1580.8014"
   height="145.60008"
   viewBox="0 0 418.25369 38.523356"
   version="1.1"
   id="svg5"
   xmlns="http://www.w3.org/2000/svg"
   xmlns:svg="http://www.w3.org/2000/svg">
  <defs
     id="defs2" />
  <g
     id="layer1"
     transform="translate(-37.647071,-112.14564)">
    <g
       id="text233"
       style="font-style:italic;font-weight:600;font-size:52.9167px;line-height:1.25;font-family:'Uni Sans';fill:#ff218c;stroke-width:0.264583">
      <path
         d="m 48.177494,118.81315 h 18.520845 l 0.846667,-6.13834 H 42.885825 l -5.238754,37.46502 h 6.138337 l 2.010835,-14.65792 h 16.245426 l 0.899584,-6.13834 H 46.695827 Z"
         id="path1673" />
      <path
         d="m 86.647934,112.14564 c -7.620004,0 -15.716259,4.07459 -16.82751,12.11793 l -2.063751,14.23459 c -0.05292,0.635 -0.105833,1.21708 -0.105833,1.79917 0,1.27 0.211667,2.43416 0.635,3.4925 1.905001,4.60375 7.090838,6.87917 12.858758,6.87917 7.567088,0 15.822093,-4.07459 16.933343,-12.17084 l 2.063749,-14.23459 c 0.0529,-0.58209 0.10584,-1.16417 0.10584,-1.74626 0,-1.32291 -0.21167,-2.48708 -0.687921,-3.54541 -1.905001,-4.49792 -7.143754,-6.82626 -12.911675,-6.82626 z m -12.805841,27.04043 c 0,-0.26458 0,-0.47625 0.05292,-0.74083 l 2.010835,-14.02292 c 0.582083,-4.18042 5.344586,-6.08542 9.895422,-6.08542 3.439586,0 6.667504,1.00541 7.831672,3.33375 0.3175,0.58208 0.47625,1.21708 0.47625,1.95792 0,0.26458 0,0.52916 -0.05292,0.79375 l -2.010834,14.02292 c -0.582084,4.07459 -5.397504,6.08542 -10.001256,6.08542 -3.492502,0 -6.561671,-1.21708 -7.778755,-3.38667 -0.264583,-0.58208 -0.423334,-1.21708 -0.423334,-1.95792 z"
         id="path1675" />
      <path
         d="m 107.76166,112.67481 -5.23876,37.46502 h 6.13834 l 2.01084,-14.49917 h 4.49791 l 9.20751,14.49917 h 7.46125 l -9.525,-14.71084 c 5.82084,-0.84667 10.42459,-4.1275 11.43001,-11.16542 0.0529,-0.68792 0.10583,-1.37584 0.10583,-2.01084 0,-1.21708 -0.15875,-2.27542 -0.42333,-3.28083 -1.48167,-4.39209 -5.60917,-6.29709 -11.16543,-6.29709 z m 3.65125,17.62126 1.64042,-11.48292 h 8.41375 0.47625 c 0.84667,0 1.5875,0.0529 2.27542,0.21166 1.64042,0.37042 2.80459,1.21709 3.28084,2.64584 0.15875,0.42333 0.21166,0.9525 0.21166,1.53458 0,0.37042 -0.0529,0.74084 -0.10583,1.11125 -0.58208,4.23334 -3.54542,5.97959 -7.77876,5.97959 z"
         id="path1677" />
      <path
         d="m 145.91465,118.76023 h 18.57376 l 0.84666,-6.13834 h -24.71209 l -5.23876,37.51794 h 24.7121 l 0.84667,-6.13834 h -18.57376 l 1.32292,-9.525 h 17.09209 l 0.84667,-6.13834 h -17.0921 z"
         id="path1679" />
      <path
         d="M 177.18842,112.67481 H 171.103 l -5.23875,37.46502 h 6.08542 z"
         id="path1681" />
      <path
         d="m 197.77302,112.14564 c -7.19667,0 -14.97543,3.96875 -16.08668,11.95918 l -2.01083,14.34042 c -0.10584,0.68792 -0.15875,1.32292 -0.15875,1.905 0,1.27 0.21166,2.43417 0.635,3.43959 1.79916,4.65667 6.6675,6.82625 12.17084,6.82625 7.3025,0 15.13417,-3.91583 16.24542,-12.17084 l 1.21709,-8.78417 h -16.61585 l -0.84666,5.87375 h 10.53042 l -0.37042,2.96334 c -0.58208,4.07458 -5.02708,6.0325 -9.26042,6.0325 -3.12209,0 -6.0325,-1.11125 -7.09084,-3.38667 -0.26458,-0.52916 -0.42333,-1.16416 -0.42333,-1.85208 0,-0.26459 0,-0.52917 0.0529,-0.79375 l 2.01083,-14.23459 c 0.58208,-3.96876 4.97417,-5.92667 8.99584,-5.92667 3.22792,0 6.40292,1.32291 7.62,4.70958 l 5.87376,-2.75167 c -1.95792,-5.76792 -6.98501,-8.14917 -12.48834,-8.14917 z"
         id="path1683" />
      <path
         d="m 218.56931,150.13983 2.91042,-20.90209 0.15875,-7.83168 0.37042,-0.10583 2.48708,7.14376 9.73668,21.69584 h 7.14375 l 5.23875,-37.46502 h -6.13833 l -3.01625,21.43126 -0.21167,8.04334 -0.42333,0.10583 -2.80459,-7.46125 -9.89542,-22.11918 h -6.45584 l -5.23875,37.46502 z"
         id="path1685" />
      <path
         d="m 279.21189,112.67481 h -6.40292 l -18.73251,37.46502 h 6.56167 l 4.70959,-9.73667 h 13.44084 l 2.32834,9.73667 h 6.40292 z m -3.70416,6.19125 0.3175,5.92667 1.74625,9.47209 h -9.26043 l 4.33917,-9.36625 2.11667,-6.03251 z"
         id="path1687" />
      <path
         d="m 301.48987,118.81315 h 18.52085 l 0.84666,-6.13834 H 296.1982 l -5.23875,37.46502 h 6.13834 l 2.01083,-14.65792 h 16.24543 l 0.89958,-6.13834 H 300.0082 Z"
         id="path1689" />
      <path
         d="m 331.33484,118.81315 h 18.52085 l 0.84666,-6.13834 h -24.65918 l -5.23875,37.46502 h 6.13834 l 2.01083,-14.65792 h 16.24543 l 0.89958,-6.13834 h -16.24542 z"
         id="path1691" />
      <path
         d="m 368.58816,112.67481 h -6.40292 l -18.73251,37.46502 h 6.56167 l 4.70959,-9.73667 h 13.44084 l 2.32833,9.73667 h 6.40292 z m -3.70417,6.19125 0.3175,5.92667 1.74625,9.47209 h -9.26042 l 4.33917,-9.36625 2.11667,-6.03251 z"
         id="path1693" />
      <path
         d="m 391.65987,112.67481 h -6.08542 l -5.23875,37.46502 h 6.08542 z"
         id="path1695" />
      <path
         d="m 398.75072,112.67481 -5.23875,37.46502 h 6.13834 l 2.01083,-14.49917 h 4.49792 l 9.20751,14.49917 h 7.46125 l -9.525,-14.71084 c 5.82083,-0.84667 10.42459,-4.1275 11.43,-11.16542 0.0529,-0.68792 0.10584,-1.37584 0.10584,-2.01084 0,-1.21708 -0.15875,-2.27542 -0.42334,-3.28083 -1.48166,-4.39209 -5.60917,-6.29709 -11.16542,-6.29709 z m 3.65126,17.62126 1.64041,-11.48292 h 8.41376 0.47625 c 0.84667,0 1.5875,0.0529 2.27542,0.21166 1.64041,0.37042 2.80458,1.21709 3.28083,2.64584 0.15875,0.42333 0.21167,0.9525 0.21167,1.53458 0,0.37042 -0.0529,0.74084 -0.10583,1.11125 -0.58209,4.23334 -3.54542,5.97959 -7.77876,5.97959 z"
         id="path1697" />
      <path
         d="m 434.68119,123.4169 c 0,-0.26458 0.0529,-0.52917 0.10583,-0.79375 0.58209,-3.175 4.39209,-4.86834 7.99042,-4.86834 3.43959,0 6.13834,1.27 7.24959,4.81542 l 5.87376,-2.43417 c -1.69334,-5.92667 -6.72043,-7.99042 -12.3296,-7.99042 -6.61458,0 -13.49375,3.43959 -14.9225,10.26584 -0.0529,0.58209 -0.10584,1.11125 -0.10584,1.64042 0,1.21708 0.15875,2.2225 0.52917,3.12208 1.69333,4.02167 5.97959,5.82084 10.68917,6.56168 3.4925,0.52916 6.40292,1.27 7.40834,3.38666 0.21167,0.42334 0.3175,0.89959 0.3175,1.48167 0,0.37042 -0.0529,0.74084 -0.10583,1.16417 -0.74084,3.28083 -4.55084,4.70958 -8.36084,4.70958 -3.54542,0 -6.61459,-1.74625 -7.72584,-5.34458 l -5.97959,2.54 c 1.85209,5.97959 7.03792,8.99584 12.75293,8.99584 6.77334,0 14.18167,-3.28084 15.45167,-10.42459 0.15875,-0.9525 0.26459,-1.85209 0.26459,-2.64584 0,-1.05833 -0.15875,-2.01083 -0.47625,-2.80458 -1.64042,-4.445 -6.50876,-5.97959 -11.37709,-6.93209 -2.91042,-0.52917 -5.82084,-1.42875 -6.87917,-3.12208 -0.26459,-0.42334 -0.37042,-0.84667 -0.37042,-1.32292 z"
         id="path1699" />
    </g>
  </g>
</svg>
