<?xml version="1.0" encoding="UTF-8" standalone="no"?>
<!-- Created with Inkscape (http://www.inkscape.org/) -->

<svg
   width="1075"
   height="105"
   viewBox="0 0 284.42706 27.78125"
   version="1.1"
   id="svg5"
   inkscape:version="1.1.1 (3bf5ae0d25, 2021-09-20)"
   sodipodi:docname="Hoyre logo.svg"
   inkscape:export-filename="C:\Users\jvcup\OneDrive\Pictures\Populistisk Venstre logo.png"
   inkscape:export-xdpi="96"
   inkscape:export-ydpi="96"
   xmlns:inkscape="http://www.inkscape.org/namespaces/inkscape"
   xmlns:sodipodi="http://sodipodi.sourceforge.net/DTD/sodipodi-0.dtd"
   xmlns="http://www.w3.org/2000/svg"
   xmlns:svg="http://www.w3.org/2000/svg">
  <sodipodi:namedview
     id="namedview7"
     pagecolor="#ffffff"
     bordercolor="#000000"
     borderopacity="1"
     inkscape:pageshadow="0"
     inkscape:pageopacity="0"
     inkscape:pagecheckerboard="false"
     inkscape:document-units="px"
     showgrid="false"
     units="px"
     inkscape:showpageshadow="false"
     fit-margin-top="0"
     fit-margin-left="0"
     fit-margin-right="0"
     fit-margin-bottom="0"
     borderlayer="true"
     inkscape:zoom="0.83025144"
     inkscape:cx="575.12698"
     inkscape:cy="205.35948"
     inkscape:window-width="1920"
     inkscape:window-height="1017"
     inkscape:window-x="-8"
     inkscape:window-y="-8"
     inkscape:window-maximized="1"
     inkscape:current-layer="layer1" />
  <defs
     id="defs2">
    <rect
       x="317.97595"
       y="149.95457"
       width="315.56705"
       height="151.76125"
       id="rect44653" />
  </defs>
  <g
     inkscape:label="Layer 1"
     inkscape:groupmode="layer"
     id="layer1"
     transform="translate(-34.954313,-70.672783)">
    <g
       aria-label="FORENTE HØYRE"
       id="text4225"
       style="font-style:italic;font-weight:bold;font-size:34.7128px;line-height:1.25;font-family:'Gill Sans MT';-inkscape-font-specification:'Gill Sans MT Bold Italic';fill:#3a5fcd;stroke-width:0.347128"
       transform="translate(0.43006233,0.66145493)">
      <path
         d="m 51.920872,71.605011 -0.576287,3.966209 h -8.576502 l -0.762732,5.62727 h 7.390029 l -0.559337,3.949259 h -7.39003 l -1.457666,10.135866 h -5.034034 l 3.339073,-23.678604 z"
         id="path8667" />
      <path
         d="m 66.514484,71.299918 q 5.152681,0 8.407006,3.017031 3.254325,3.01703 3.254325,7.77987 0,5.983212 -3.830612,9.746026 -3.830611,3.745863 -9.813823,3.745863 -5.18658,0 -8.559553,-3.101778 -3.372972,-3.101779 -3.372972,-7.898518 0,-5.712018 3.949259,-9.491781 3.966209,-3.796713 9.96637,-3.796713 z m -1.949205,19.915791 q 3.508569,0 5.949313,-2.559391 2.457693,-2.559391 2.457693,-6.220506 0,-2.932283 -1.932255,-4.847589 -1.915306,-1.915305 -4.864538,-1.915305 -3.423821,0 -5.898464,2.559391 -2.474643,2.55939 -2.474643,6.118808 0,3.03398 1.881407,4.949286 1.898356,1.915306 4.881487,1.915306 z"
         id="path8669" />
      <path
         d="m 84.226827,71.605011 h 8.118863 q 3.796712,0 5.881514,2.118702 2.101756,2.101751 2.101756,5.000134 0,2.339046 -1.372922,4.017058 -1.355969,1.678011 -3.898411,2.169549 v 0.0678 q 1.423768,0.559337 2.491593,2.779736 l 3.64417,7.525626 h -5.559476 l -2.254298,-4.79674 Q 91.871101,87.300349 91.04057,86.503718 90.210039,85.707086 88.345582,85.707086 h -1.067825 l -1.32207,9.576529 h -5.034033 z m 4.474697,3.966209 -0.898329,6.457801 h 2.491592 q 2.288198,0 3.559418,-0.966128 1.271221,-0.983077 1.271221,-2.474643 0,-1.406817 -1.050876,-2.203449 -1.050876,-0.813581 -2.915333,-0.813581 z"
         id="path8671" />
      <path
         d="m 121.43122,71.605011 -0.55934,3.966209 h -9.74602 l -0.79664,5.576421 h 8.57651 l -0.55934,3.966209 h -8.5765 l -0.86443,6.220506 h 12.28846 l -0.55933,3.949259 h -17.3225 l 3.33907,-23.678604 z"
         id="path8673" />
      <path
         d="m 148.72009,71.605011 -3.30518,23.678604 h -4.77979 l -9.79687,-16.03433 -2.2204,16.03433 h -5.03403 l 3.33907,-23.678604 h 5.03403 l 9.61043,15.458044 2.1187,-15.458044 z"
         id="path8675" />
      <path
         d="m 172.31394,71.605011 -0.55934,3.966209 h -7.69512 l -2.77973,19.712395 h -5.03404 l 2.77974,-19.712395 h -7.50868 l 0.55934,-3.966209 z"
         id="path8677" />
      <path
         d="m 190.26357,71.605011 -0.55934,3.966209 h -9.74602 l -0.79663,5.576421 h 8.5765 l -0.55934,3.966209 h -8.5765 l -0.86443,6.220506 h 12.28847 l -0.55934,3.949259 h -17.3225 l 3.33907,-23.678604 z"
         id="path8679" />
      <path
         d="m 227.53577,71.605011 -3.32212,23.678604 h -5.03404 l 1.38987,-9.644327 h -12.08507 l -1.35597,9.644327 h -5.03403 l 3.33907,-23.678604 h 5.03403 l -1.32206,9.373134 h 12.05117 l 1.30512,-9.373134 z"
         id="path8681" />
      <path
         d="m 234.97665,93.622553 -3.16958,3.508569 -1.62716,-1.542414 3.01703,-3.356022 q -3.05093,-3.118729 -3.05093,-7.644274 0,-5.712018 3.94926,-9.491781 3.96621,-3.796713 9.96637,-3.796713 3.61026,0 6.4239,1.593264 l 1.9831,-2.220399 2.356,0.932228 -2.3899,2.644139 q 3.28823,3.118728 3.28823,7.847669 0,5.983212 -3.83061,9.746026 -3.83061,3.745863 -9.81383,3.745863 -3.98315,0 -7.10188,-1.966155 z m 1.55936,-5.135731 10.67825,-11.949474 q -1.67801,-0.86443 -3.49161,-0.86443 -3.42383,0 -5.89847,2.559391 -2.47464,2.55939 -2.47464,6.118808 0,2.440744 1.18647,4.135705 z m 12.49186,-10.457909 -10.8647,12.051172 q 1.79666,1.135624 3.94926,1.135624 3.50857,0 5.94932,-2.559391 2.45769,-2.559391 2.45769,-6.220506 0,-2.474643 -1.49157,-4.406899 z"
         id="path8683" />
      <path
         d="m 278.43544,71.605011 -8.93244,13.746133 -1.38987,9.932471 h -5.03403 l 1.38986,-9.932471 -5.00013,-13.746133 h 5.03403 l 3.06788,9.13584 5.47473,-9.13584 z"
         id="path8685" />
      <path
         d="m 281.31687,71.605011 h 8.11886 q 3.79671,0 5.88152,2.118702 2.10175,2.101751 2.10175,5.000134 0,2.339046 -1.37292,4.017058 -1.35597,1.678011 -3.89841,2.169549 v 0.0678 q 1.42377,0.559337 2.49159,2.779736 l 3.64417,7.525626 h -5.55947 l -2.2543,-4.796739 q -1.50852,-3.186527 -2.33905,-3.983158 -0.83053,-0.796632 -2.69499,-0.796632 h -1.06782 l -1.32207,9.576529 h -5.03403 z m 4.4747,3.966209 -0.89833,6.457801 h 2.49159 q 2.2882,0 3.55942,-0.966128 1.27122,-0.983077 1.27122,-2.474643 0,-1.406817 -1.05088,-2.203449 -1.05087,-0.813581 -2.91533,-0.813581 z"
         id="path8687" />
      <path
         d="m 318.52126,71.605011 -0.55934,3.966209 h -9.74602 l -0.79663,5.576421 h 8.5765 l -0.55934,3.966209 h -8.5765 l -0.86443,6.220506 h 12.28847 l -0.55934,3.949259 h -17.3225 l 3.33907,-23.678604 z"
         id="path8689" />
    </g>
    <g
       aria-label="V"
       id="text32217"
       style="font-weight:bold;font-size:26.4583px;line-height:1.25;font-family:'Aero Matics';-inkscape-font-specification:'Aero Matics Bold';stroke-width:0.264583"
       transform="translate(15.420244,2.28216)" />
    <text
       xml:space="preserve"
       style="font-weight:bold;font-size:26.4583px;line-height:1.25;font-family:'Aero Matics';-inkscape-font-specification:'Aero Matics Bold';stroke-width:0.264583"
       x="33.07489"
       y="112.07207"
       id="text9827"><tspan
         sodipodi:role="line"
         id="tspan9825"
         style="stroke-width:0.264583"
         x="33.07489"
         y="112.07207" /></text>
  </g>
</svg>
