<?xml version="1.0" encoding="UTF-8" standalone="no"?>
<!-- Created with Inkscape (http://www.inkscape.org/) -->

<svg
   width="630"
   height="160"
   viewBox="0 0 166.68749 42.333333"
   version="1.1"
   id="svg5"
   inkscape:version="1.1.1 (3bf5ae0d25, 2021-09-20)"
   sodipodi:docname="Hoyre logo.svg"
   inkscape:export-filename="C:\Users\jvcup\OneDrive\Pictures\Populistisk Venstre logo.png"
   inkscape:export-xdpi="96"
   inkscape:export-ydpi="96"
   xmlns:inkscape="http://www.inkscape.org/namespaces/inkscape"
   xmlns:sodipodi="http://sodipodi.sourceforge.net/DTD/sodipodi-0.dtd"
   xmlns="http://www.w3.org/2000/svg"
   xmlns:svg="http://www.w3.org/2000/svg">
  <sodipodi:namedview
     id="namedview7"
     pagecolor="#ffffff"
     bordercolor="#000000"
     borderopacity="1"
     inkscape:pageshadow="0"
     inkscape:pageopacity="0"
     inkscape:pagecheckerboard="false"
     inkscape:document-units="px"
     showgrid="false"
     units="px"
     inkscape:showpageshadow="false"
     fit-margin-top="0"
     fit-margin-left="0"
     fit-margin-right="0"
     fit-margin-bottom="0"
     borderlayer="true"
     inkscape:zoom="0.83025144"
     inkscape:cx="287.26237"
     inkscape:cy="52.393766"
     inkscape:window-width="1920"
     inkscape:window-height="1017"
     inkscape:window-x="-8"
     inkscape:window-y="-8"
     inkscape:window-maximized="1"
     inkscape:current-layer="text17777" />
  <defs
     id="defs2">
    <rect
       x="317.97595"
       y="149.95457"
       width="315.56705"
       height="151.76125"
       id="rect44653" />
  </defs>
  <g
     inkscape:label="Layer 1"
     inkscape:groupmode="layer"
     id="layer1"
     transform="translate(-110.96348,-111.10145)">
    <g
       aria-label="V"
       id="text32217"
       style="font-weight:bold;font-size:26.4583px;line-height:1.25;font-family:'Aero Matics';-inkscape-font-specification:'Aero Matics Bold';stroke-width:0.264583"
       transform="translate(15.420244,2.28216)" />
    <text
       xml:space="preserve"
       style="font-weight:bold;font-size:26.4583px;line-height:1.25;font-family:'Aero Matics';-inkscape-font-specification:'Aero Matics Bold';stroke-width:0.264583"
       x="33.07489"
       y="112.07207"
       id="text9827"><tspan
         sodipodi:role="line"
         id="tspan9825"
         style="stroke-width:0.264583"
         x="33.07489"
         y="112.07207" /></text>
    <g
       aria-label="P"
       id="text17777"
       style="font-weight:bold;font-size:26.4583px;line-height:1.25;font-family:'Aero Matics';-inkscape-font-specification:'Aero Matics Bold';stroke-width:0.264583">
      <g
         aria-label="HØYRE"
         id="text36115"
         style="font-style:italic;font-size:26.5361px;font-family:'Gill Sans MT';-inkscape-font-specification:'Gill Sans MT Bold Italic';fill:#3a5fcd;stroke-width:0.07021"
         transform="matrix(1.3081347,0,0,1.3081347,-47.793505,-48.906824)">
        <path
           d="m 178.33987,129.09833 -2.53958,18.10104 h -3.84826 l 1.06248,-7.37258 h -9.23839 l -1.03657,7.37258 h -3.84825 l 2.55254,-18.10104 h 3.84825 l -1.01065,7.16527 h 9.21249 l 0.99769,-7.16527 z"
           id="path73442" />
        <path
           d="m 184.02803,145.92958 -2.42297,2.68211 -1.24388,-1.17909 2.30636,-2.5655 q -2.33228,-2.38411 -2.33228,-5.84365 0,-4.36653 3.019,-7.25596 3.03196,-2.90239 7.61877,-2.90239 2.75985,0 4.91073,1.21797 l 1.51598,-1.69738 1.80103,0.71264 -1.82695,2.0213 q 2.51368,2.38411 2.51368,5.99913 0,4.57385 -2.9283,7.45032 -2.9283,2.86352 -7.50215,2.86352 -3.04492,0 -5.42902,-1.50302 z m 1.19205,-3.926 8.16296,-9.13474 q -1.28275,-0.66081 -2.66916,-0.66081 -2.61733,0 -4.50906,1.95652 -1.89173,1.95652 -1.89173,4.6775 0,1.86582 0.90699,3.16153 z m 9.54937,-7.99452 -8.30549,9.21249 q 1.37345,0.86812 3.019,0.86812 2.68212,0 4.54794,-1.95652 1.87877,-1.95652 1.87877,-4.75525 0,-1.89173 -1.14022,-3.36884 z"
           id="path73444" />
        <path
           d="m 217.24998,129.09833 -6.82838,10.50819 -1.06248,7.59285 h -3.84825 l 1.06248,-7.59285 -3.82234,-10.50819 h 3.84825 l 2.34524,6.98387 4.18513,-6.98387 z"
           id="path73446" />
        <path
           d="m 219.45269,129.09833 h 6.20644 q 2.90239,0 4.49611,1.61964 1.60668,1.60667 1.60668,3.82233 0,1.78808 -1.04953,3.07083 -1.03656,1.28275 -2.98013,1.65851 v 0.0518 q 1.0884,0.42758 1.90469,2.12496 l 2.78578,5.75294 h -4.24993 l -1.72329,-3.66685 q -1.15318,-2.43593 -1.78807,-3.04492 -0.6349,-0.60898 -2.06018,-0.60898 h -0.8163 l -1.01065,7.32075 h -3.84825 z m 3.42067,3.03196 -0.68673,4.93664 h 1.90469 q 1.74921,0 2.72099,-0.73855 0.97178,-0.75151 0.97178,-1.89173 0,-1.07544 -0.80334,-1.68442 -0.80334,-0.62194 -2.22862,-0.62194 z"
           id="path73448" />
        <path
           d="m 247.89348,129.09833 -0.42758,3.03196 h -7.45032 l -0.60899,4.26288 h 6.55629 l -0.42759,3.03195 h -6.55628 l -0.66081,4.75525 h 9.39388 l -0.42758,3.019 h -13.24214 l 2.55255,-18.10104 z"
           id="path73450" />
      </g>
      <text
         xml:space="preserve"
         transform="matrix(0.26458333,0,0,0.26458333,92.100541,112.42436)"
         id="text44651"
         style="font-weight:bold;font-size:100px;line-height:1.25;font-family:'Aero Matics';-inkscape-font-specification:'Aero Matics Bold';white-space:pre;shape-inside:url(#rect44653)" />
      <g
         transform="matrix(0.06017816,0,0,-0.06017816,107.02783,158.12968)"
         fill="#000000"
         stroke="none"
         id="g72394"
         style="fill:#3a5fcd;fill-opacity:1">
        <path
           d="m 352,752 c -10,-7 -10,-20 -1,-63 21,-98 -2,-320 -39,-377 -7,-11 -28,-11 -116,-1 -58,6 -108,10 -111,8 -2,-3 10,-35 28,-72 l 31,-67 36,6 c 51,8 146,-20 191,-55 21,-17 45,-31 54,-31 8,0 38,15 65,34 52,36 132,59 190,54 27,-2 36,2 47,22 28,55 45,101 40,106 -3,4 -43,1 -88,-5 -143,-19 -133,-23 -160,72 -26,93 -31,253 -11,322 9,30 9,41 -1,47 -16,10 -138,10 -155,0 z"
           id="path72392"
           style="fill:#3a5fcd;fill-opacity:1" />
      </g>
    </g>
  </g>
</svg>
