<?xml version="1.0" encoding="UTF-8" standalone="no"?>
<!-- Created with Inkscape (http://www.inkscape.org/) -->

<svg
   width="1080"
   height="50"
   viewBox="0 0 285.74999 13.229167"
   version="1.1"
   id="svg962"
   inkscape:version="1.1.1 (3bf5ae0d25, 2021-09-20)"
   sodipodi:docname="Jay PM 06 22 campaign spsf title (text path).svg"
   xmlns:inkscape="http://www.inkscape.org/namespaces/inkscape"
   xmlns:sodipodi="http://sodipodi.sourceforge.net/DTD/sodipodi-0.dtd"
   xmlns="http://www.w3.org/2000/svg"
   xmlns:svg="http://www.w3.org/2000/svg">
  <sodipodi:namedview
     id="namedview964"
     pagecolor="#505050"
     bordercolor="#ffffff"
     borderopacity="1"
     inkscape:pageshadow="0"
     inkscape:pageopacity="0"
     inkscape:pagecheckerboard="1"
     inkscape:document-units="px"
     showgrid="false"
     units="px"
     showborder="false"
     inkscape:showpageshadow="false"
     borderlayer="true"
     inkscape:zoom="1.0435185"
     inkscape:cx="540.00001"
     inkscape:cy="159.55635"
     inkscape:window-width="1920"
     inkscape:window-height="1017"
     inkscape:window-x="-8"
     inkscape:window-y="-8"
     inkscape:window-maximized="1"
     inkscape:current-layer="layer1" />
  <defs
     id="defs959">
    <style
       type="text/css"
       id="current-color-scheme">
      .ColorScheme-Text {
        color:#4d4d4d;
      }
      </style>
  </defs>
  <g
     inkscape:label="Layer 1"
     inkscape:groupmode="layer"
     id="layer1">
    <rect
       style="fill:#0b60ad;fill-opacity:1;stroke-width:1.38665;stop-color:#000000"
       id="rect1045"
       width="285.75"
       height="13.229167"
       x="-7.0000016e-07"
       y="-1.9135314e-07" />
    <g
       aria-label="THE SPECIAL FORCES"
       id="text15664-7-8"
       style="font-style:italic;font-weight:900;font-size:13.2292px;line-height:1.25;font-family:'Uni Sans';-inkscape-font-specification:'Uni Sans Heavy Italic';text-align:center;text-anchor:middle;fill:none;stroke:#ffffff;stroke-width:0.396875">
      <path
         d="m 86.796531,4.0878058 0.317501,-2.1695889 h -7.44804 l -0.317501,2.1695889 h 2.526777 l -0.99219,7.2099142 h 2.394486 l 0.99219,-7.2099142 z"
         id="path27760" />
      <path
         d="m 89.574654,7.7655235 h 2.698757 l -0.48948,3.5321965 h 2.381256 l 1.309691,-9.3662739 h -2.381257 l -0.502709,3.5454257 h -2.698757 l 0.50271,-3.5454257 H 88.013609 L 86.703918,11.29772 h 2.381256 z"
         id="path27762" />
      <path
         d="m 99.033516,4.167181 h 4.127514 l 0.3175,-2.2357349 H 96.956531 L 95.64684,11.29772 h 6.522 l 0.30427,-2.2357349 h -4.127513 l 0.198438,-1.4022952 h 3.796785 l 0.29104,-2.1034429 h -3.796782 z"
         id="path27764" />
      <path
         d="m 105.55548,9.7366743 c 0.70114,1.1377117 2.10344,1.6933377 3.22792,1.6933377 2.02407,0 3.61157,-0.912815 3.95553,-2.7384445 0.42334,-2.3415685 -1.13771,-2.9368825 -2.77813,-3.2543833 -0.72761,-0.1587504 -1.19063,-0.396876 -1.12448,-0.9392732 0.0529,-0.4762512 0.55562,-0.7011477 1.15094,-0.6879185 0.5424,0.013229 1.15094,0.2116673 1.56104,0.6746893 l 1.7198,-1.1906281 c -0.82021,-1.1773988 -1.85209,-1.4948996 -3.00303,-1.4948996 -1.71979,0 -3.41313,0.6746892 -3.77032,2.5929233 -0.3175,1.7727128 0.97896,2.9368824 2.46063,3.1882373 0.75407,0.1058336 1.57428,0.3571884 1.46844,0.9392732 -0.0926,0.4894804 -0.64823,0.7143768 -1.28323,0.7143768 -0.70115,0 -1.48167,-0.3042716 -1.89178,-0.8995856 z"
         id="path27766" />
      <path
         d="m 113.38714,11.29772 h 2.36803 l 0.38364,-2.7384445 h 1.4949 c 2.27543,0 3.55866,-1.4816705 3.77032,-3.2543833 0.17198,-1.6933377 -0.67468,-3.3734461 -2.96334,-3.3734461 h -3.74386 z m 3.04272,-4.8418874 0.33073,-2.31511 h 1.37583 c 0.68792,0 1.00542,0.4762512 0.91282,1.0980236 -0.0661,0.6482308 -0.50271,1.2170864 -1.24355,1.2170864 z"
         id="path27768" />
      <path
         d="m 124.96268,4.167181 h 4.12751 l 0.31751,-2.2357349 h -6.522 l -1.30969,9.3662739 h 6.52199 l 0.30428,-2.2357349 h -4.12751 l 0.19843,-1.4022952 h 3.79678 l 0.29105,-2.1034429 h -3.79678 z"
         id="path27770" />
      <path
         d="m 134.54062,8.3740667 c -0.3175,0.595314 -0.92605,0.8466688 -1.46844,0.8466688 -0.67469,0 -1.24355,-0.3704176 -1.15094,-0.99219 l 0.44979,-3.2279249 c 0.10583,-0.6217724 0.76729,-1.0186484 1.44198,-1.0186484 0.56886,0 1.11126,0.2248964 1.32292,0.7540644 l 2.0373,-0.7805228 c -0.52917,-1.6536501 -1.82563,-2.1563597 -2.9898,-2.1563597 -1.86532,0 -3.90261,1.0847944 -4.18043,3.2014665 l -0.44979,3.2279249 c -0.27781,2.1299015 1.38907,3.2014665 3.24115,3.2014665 1.1774,0 2.52678,-0.463022 3.67772,-2.1034429 z"
         id="path27772" />
      <path
         d="m 140.71865,1.9314461 h -2.36803 l -1.30969,9.3662739 h 2.36803 z"
         id="path27774" />
      <path
         d="m 146.79083,1.9314461 h -2.15636 l -4.57731,9.3662739 h 2.54001 l 0.83344,-1.8785465 h 2.50032 l 0.35719,1.8785465 h 2.54 z m -2.52678,5.3842845 1.03188,-2.7384444 h 0.0926 l 0.27781,2.7384444 z"
         id="path27776" />
      <path
         d="m 149.43667,11.29772 h 6.19127 l 0.3175,-2.3415685 h -3.81001 l 0.99219,-7.0247054 h -2.38126 z"
         id="path27778" />
      <path
         d="m 162.05727,4.1804102 h 4.12751 l 0.3175,-2.2489641 h -6.52199 l -1.3097,9.3662739 h 2.39449 l 0.44979,-3.2279249 h 3.61157 l 0.30428,-2.2092765 h -3.61158 z"
         id="path27780" />
      <path
         d="m 166.50228,8.2153163 c -0.3175,2.1563597 1.4949,3.2146957 3.42636,3.2146957 2.05053,0 4.02168,-1.058336 4.33918,-3.2146957 l 0.46302,-3.2014665 c 0.3175,-2.1563597 -1.4949,-3.2146957 -3.43959,-3.2146957 -1.94469,0 -4.00845,1.058336 -4.32595,3.2146957 z m 2.83105,-3.2014665 c 0.10583,-0.7011476 0.93927,-1.058336 1.70657,-1.058336 0.78052,0 1.42875,0.3571884 1.32292,1.058336 l -0.46303,3.1353205 c -0.10583,0.7408352 -0.93927,1.0847944 -1.70656,1.0847944 -0.71438,0 -1.42876,-0.3439592 -1.32292,-1.0186484 z"
         id="path27782" />
      <path
         d="m 180.22095,11.29772 h 2.95011 L 180.9221,8.0830243 c 1.28323,-0.6085432 2.01084,-1.1906281 2.26219,-2.9236533 0.25136,-2.1828181 -1.09802,-3.2279249 -3.04271,-3.2279249 h -3.74387 l -1.30969,9.3662739 h 2.39449 l 0.4101,-2.9765701 h 0.42334 z m -2.0373,-5.013867 0.30428,-2.1431304 h 1.38906 c 0.70115,0 0.97896,0.4894804 0.91282,1.058336 -0.0661,0.5423972 -0.47625,1.0847944 -1.21709,1.0847944 z"
         id="path27784" />
      <path
         d="m 188.71408,8.3740667 c -0.3175,0.595314 -0.92604,0.8466688 -1.46844,0.8466688 -0.67469,0 -1.24354,-0.3704176 -1.15094,-0.99219 l 0.4498,-3.2279249 c 0.10583,-0.6217724 0.76729,-1.0186484 1.44198,-1.0186484 0.56885,0 1.11125,0.2248964 1.32292,0.7540644 l 2.03729,-0.7805228 c -0.52916,-1.6536501 -1.82562,-2.1563597 -2.98979,-2.1563597 -1.86532,0 -3.90262,1.0847944 -4.18043,3.2014665 l -0.44979,3.2279249 c -0.27782,2.1299015 1.38906,3.2014665 3.24115,3.2014665 1.1774,0 2.52678,-0.463022 3.67772,-2.1034429 z"
         id="path27786" />
      <path
         d="m 194.60107,4.167181 h 4.12751 l 0.3175,-2.2357349 h -6.52199 l -1.3097,9.3662739 h 6.522 l 0.30427,-2.2357349 h -4.12751 l 0.19844,-1.4022952 h 3.79678 l 0.29104,-2.1034429 h -3.79678 z"
         id="path27788" />
      <path
         d="m 198.68889,9.7366743 c 0.70114,1.1377117 2.10344,1.6933377 3.22792,1.6933377 2.02407,0 3.61157,-0.912815 3.95553,-2.7384445 0.42334,-2.3415685 -1.13771,-2.9368825 -2.77813,-3.2543833 -0.72761,-0.1587504 -1.19063,-0.396876 -1.12448,-0.9392732 0.0529,-0.4762512 0.55562,-0.7011477 1.15094,-0.6879185 0.5424,0.013229 1.15094,0.2116673 1.56104,0.6746893 l 1.7198,-1.1906281 c -0.82021,-1.1773988 -1.85209,-1.4948996 -3.00303,-1.4948996 -1.71979,0 -3.41313,0.6746892 -3.77032,2.5929233 -0.3175,1.7727128 0.97896,2.9368824 2.46063,3.1882373 0.75406,0.1058336 1.57428,0.3571884 1.46844,0.9392732 -0.0926,0.4894804 -0.64823,0.7143768 -1.28323,0.7143768 -0.70115,0 -1.48167,-0.3042716 -1.89178,-0.8995856 z"
         id="path27790" />
    </g>
  </g>
</svg>
