<?xml version="1.0" encoding="UTF-8" standalone="no"?>
<!-- Created with Inkscape (http://www.inkscape.org/) -->

<svg
   width="1080"
   height="50"
   viewBox="0 0 285.74999 13.229167"
   version="1.1"
   id="svg962"
   inkscape:version="1.1.1 (3bf5ae0d25, 2021-09-20)"
   sodipodi:docname="Jay PM 06 22 campaign fa title (text path).svg"
   xmlns:inkscape="http://www.inkscape.org/namespaces/inkscape"
   xmlns:sodipodi="http://sodipodi.sourceforge.net/DTD/sodipodi-0.dtd"
   xmlns="http://www.w3.org/2000/svg"
   xmlns:svg="http://www.w3.org/2000/svg">
  <sodipodi:namedview
     id="namedview964"
     pagecolor="#505050"
     bordercolor="#ffffff"
     borderopacity="1"
     inkscape:pageshadow="0"
     inkscape:pageopacity="0"
     inkscape:pagecheckerboard="1"
     inkscape:document-units="px"
     showgrid="false"
     units="px"
     showborder="false"
     inkscape:showpageshadow="false"
     borderlayer="true"
     inkscape:zoom="1.0435185"
     inkscape:cx="540.00001"
     inkscape:cy="159.55635"
     inkscape:window-width="1920"
     inkscape:window-height="1017"
     inkscape:window-x="-8"
     inkscape:window-y="-8"
     inkscape:window-maximized="1"
     inkscape:current-layer="layer1" />
  <defs
     id="defs959">
    <style
       type="text/css"
       id="current-color-scheme">
      .ColorScheme-Text {
        color:#4d4d4d;
      }
      </style>
  </defs>
  <g
     inkscape:label="Layer 1"
     inkscape:groupmode="layer"
     id="layer1">
    <rect
       style="fill:#0b60ad;fill-opacity:1;stroke-width:1.38665;stop-color:#000000"
       id="rect1045"
       width="285.75"
       height="13.229167"
       x="-7.0000016e-07"
       y="-1.9135314e-07" />
    <g
       aria-label="OUR FOREIGN AFFAIRS"
       id="text15664-7-8"
       style="font-style:italic;font-weight:900;font-size:13.2292px;line-height:1.25;font-family:'Uni Sans';-inkscape-font-specification:'Uni Sans Heavy Italic';text-align:center;text-anchor:middle;fill:none;stroke:#ffffff;stroke-width:0.396875">
      <path
         d="m 75.179637,8.2153163 c -0.317501,2.1563597 1.494899,3.2146957 3.426363,3.2146957 2.050526,0 4.021677,-1.058336 4.339177,-3.2146957 L 83.408199,5.0138498 C 83.7257,2.8574901 81.9133,1.7991541 79.968607,1.7991541 c -1.944692,0 -4.008447,1.058336 -4.325948,3.2146957 z m 2.831049,-3.2014665 c 0.105833,-0.7011476 0.939273,-1.058336 1.706566,-1.058336 0.780523,0 1.428754,0.3571884 1.32292,1.058336 L 80.57715,8.1491703 c -0.105833,0.7408352 -0.939273,1.0847944 -1.706566,1.0847944 -0.714377,0 -1.428754,-0.3439592 -1.32292,-1.0186484 z"
         id="path26085" />
      <path
         d="M 87.403412,1.9314461 H 85.008927 L 84.1358,8.1359411 c -0.317501,2.1960469 1.402295,3.2940709 3.267612,3.2940709 1.878547,0 3.889385,-1.098024 4.206886,-3.2940709 l 0.873127,-6.204495 H 90.08894 l -0.873127,6.204495 c -0.105834,0.7408352 -0.793752,1.124482 -1.4949,1.124482 -0.674689,0 -1.296462,-0.3836468 -1.190628,-1.124482 z"
         id="path26087" />
      <path
         d="m 97.708939,11.29772 h 2.950111 L 98.410087,8.0830243 C 99.693319,7.4744811 100.42093,6.8923962 100.67228,5.159371 100.92363,2.9765529 99.574256,1.9314461 97.629564,1.9314461 H 93.8857 L 92.576009,11.29772 h 2.394485 L 95.3806,8.3211499 h 0.423334 z M 95.671642,6.283853 95.975914,4.1407226 h 1.389066 c 0.701147,0 0.978961,0.4894804 0.912815,1.058336 -0.06615,0.5423972 -0.476252,1.0847944 -1.217087,1.0847944 z"
         id="path26089" />
      <path
         d="m 106.75766,4.1804102 h 4.12751 l 0.3175,-2.2489641 h -6.52199 l -1.30969,9.3662739 h 2.39448 l 0.44979,-3.2279249 h 3.61158 l 0.30427,-2.2092765 h -3.61157 z"
         id="path26091" />
      <path
         d="m 111.20267,8.2153163 c -0.3175,2.1563597 1.4949,3.2146957 3.42636,3.2146957 2.05053,0 4.02168,-1.058336 4.33918,-3.2146957 l 0.46302,-3.2014665 c 0.3175,-2.1563597 -1.4949,-3.2146957 -3.43959,-3.2146957 -1.94469,0 -4.00845,1.058336 -4.32595,3.2146957 z m 2.83105,-3.2014665 c 0.10583,-0.7011476 0.93927,-1.058336 1.70657,-1.058336 0.78052,0 1.42875,0.3571884 1.32292,1.058336 l -0.46303,3.1353205 c -0.10583,0.7408352 -0.93927,1.0847944 -1.70656,1.0847944 -0.71438,0 -1.42876,-0.3439592 -1.32292,-1.0186484 z"
         id="path26093" />
      <path
         d="m 124.92135,11.29772 h 2.95011 l -2.24897,-3.2146957 c 1.28324,-0.6085432 2.01084,-1.1906281 2.2622,-2.9236533 0.25135,-2.1828181 -1.09803,-3.2279249 -3.04272,-3.2279249 h -3.74386 l -1.30969,9.3662739 h 2.39448 l 0.41011,-2.9765701 h 0.42333 z m -2.0373,-5.013867 0.30427,-2.1431304 h 1.38907 c 0.70114,0 0.97896,0.4894804 0.91281,1.058336 -0.0662,0.5423972 -0.47625,1.0847944 -1.21709,1.0847944 z"
         id="path26095" />
      <path
         d="m 131.68146,4.167181 h 4.12751 l 0.3175,-2.2357349 h -6.52199 l -1.30969,9.3662739 h 6.52199 l 0.30427,-2.2357349 h -4.12751 l 0.19844,-1.4022952 h 3.79678 L 135.2798,5.556247 h -3.79678 z"
         id="path26097" />
      <path
         d="m 139.75126,1.9314461 h -2.36802 l -1.3097,9.3662739 h 2.36803 z"
         id="path26099" />
      <path
         d="m 147.70199,3.7967633 c -0.42333,-1.4948996 -1.77271,-1.9976092 -2.97657,-1.9976092 -1.86531,0 -3.82324,1.0054192 -4.14074,3.1750081 l -0.44979,3.2146957 c -0.3175,2.1563601 1.38907,3.2411541 3.22793,3.2411541 1.87854,0 3.83646,-1.084794 4.15396,-3.2411541 l 0.3175,-2.3283393 h -3.77032 l -0.26458,1.9314633 h 1.4949 l -0.0529,0.396876 c -0.10583,0.7143768 -0.83344,1.0715652 -1.52136,1.0715652 -0.70114,0 -1.30969,-0.3439592 -1.21708,-1.0715652 l 0.44979,-3.2146957 c 0.10583,-0.6746892 0.78052,-1.0715652 1.45521,-1.0715652 0.52917,0 1.03188,0.2381256 1.1774,0.8069812 z"
         id="path26101" />
      <path
         d="m 148.16501,11.29772 h 2.36802 l 0.51594,-3.7438637 -0.0265,-1.8124005 0.0529,-0.013229 0.55563,1.8785465 1.60073,3.6909469 h 2.39449 l 1.30969,-9.3662739 h -2.3548 l -0.59532,4.2465733 0.0265,1.6139625 -0.0529,0.013229 -0.52917,-1.8785465 -1.70657,-3.9952185 h -2.24896 z"
         id="path26103" />
      <path
         d="m 165.11155,1.9314461 h -2.15636 l -4.57731,9.3662739 h 2.54001 l 0.83344,-1.8785465 h 2.50032 l 0.35719,1.8785465 h 2.54 z m -2.52678,5.3842845 1.03188,-2.7384444 h 0.0926 l 0.27782,2.7384444 z"
         id="path26105" />
      <path
         d="m 171.14406,4.1804102 h 4.12751 l 0.3175,-2.2489641 h -6.522 l -1.30969,9.3662739 h 2.39449 l 0.44979,-3.2279249 h 3.61157 l 0.30427,-2.2092765 h -3.61157 z"
         id="path26107" />
      <path
         d="m 178.77731,4.1804102 h 4.12751 l 0.3175,-2.2489641 h -6.522 l -1.30969,9.3662739 h 2.39449 l 0.44979,-3.2279249 h 3.61157 l 0.30427,-2.2092765 h -3.61157 z"
         id="path26109" />
      <path
         d="m 188.19649,1.9314461 h -2.15636 l -4.57731,9.3662739 h 2.54001 l 0.83344,-1.8785465 h 2.50032 l 0.35719,1.8785465 h 2.54 z m -2.52678,5.3842845 1.03188,-2.7384444 h 0.0926 l 0.27781,2.7384444 z"
         id="path26111" />
      <path
         d="m 194.52005,1.9314461 h -2.36803 l -1.30969,9.3662739 h 2.36803 z"
         id="path26113" />
      <path
         d="m 199.82494,11.29772 h 2.95011 l -2.24897,-3.2146957 c 1.28324,-0.6085432 2.01084,-1.1906281 2.2622,-2.9236533 0.25135,-2.1828181 -1.09803,-3.2279249 -3.04272,-3.2279249 h -3.74386 l -1.30969,9.3662739 h 2.39448 l 0.41011,-2.9765701 h 0.42333 z m -2.0373,-5.013867 0.30427,-2.1431304 h 1.38907 c 0.70114,0 0.97896,0.4894804 0.91281,1.058336 -0.0661,0.5423972 -0.47625,1.0847944 -1.21708,1.0847944 z"
         id="path26115" />
      <path
         d="m 202.89411,9.7366743 c 0.70114,1.1377117 2.10344,1.6933377 3.22792,1.6933377 2.02407,0 3.61157,-0.912815 3.95553,-2.7384445 0.42334,-2.3415685 -1.13771,-2.9368825 -2.77813,-3.2543833 -0.72761,-0.1587504 -1.19063,-0.396876 -1.12448,-0.9392732 0.0529,-0.4762512 0.55562,-0.7011477 1.15094,-0.6879185 0.54239,0.013229 1.15094,0.2116673 1.56104,0.6746893 l 1.7198,-1.1906281 c -0.82021,-1.1773988 -1.85209,-1.4948996 -3.00303,-1.4948996 -1.7198,0 -3.41313,0.6746892 -3.77032,2.5929233 -0.3175,1.7727128 0.97896,2.9368824 2.46063,3.1882373 0.75406,0.1058336 1.57427,0.3571884 1.46844,0.9392732 -0.0926,0.4894804 -0.64823,0.7143768 -1.28323,0.7143768 -0.70115,0 -1.48167,-0.3042716 -1.89178,-0.8995856 z"
         id="path26117" />
    </g>
  </g>
</svg>
