<?xml version="1.0" encoding="UTF-8" standalone="no"?>
<!-- Created with Inkscape (http://www.inkscape.org/) -->

<svg
   width="1080"
   height="50"
   viewBox="0 0 285.74999 13.229167"
   version="1.1"
   id="svg962"
   inkscape:version="1.1.1 (3bf5ae0d25, 2021-09-20)"
   sodipodi:docname="Jay PM 06 22 campaign slogan (text path).svg"
   xmlns:inkscape="http://www.inkscape.org/namespaces/inkscape"
   xmlns:sodipodi="http://sodipodi.sourceforge.net/DTD/sodipodi-0.dtd"
   xmlns="http://www.w3.org/2000/svg"
   xmlns:svg="http://www.w3.org/2000/svg">
  <sodipodi:namedview
     id="namedview964"
     pagecolor="#505050"
     bordercolor="#ffffff"
     borderopacity="1"
     inkscape:pageshadow="0"
     inkscape:pageopacity="0"
     inkscape:pagecheckerboard="1"
     inkscape:document-units="px"
     showgrid="false"
     units="px"
     showborder="false"
     inkscape:showpageshadow="false"
     borderlayer="true"
     inkscape:zoom="1.0435185"
     inkscape:cx="540.00001"
     inkscape:cy="159.55635"
     inkscape:window-width="1920"
     inkscape:window-height="1017"
     inkscape:window-x="-8"
     inkscape:window-y="-8"
     inkscape:window-maximized="1"
     inkscape:current-layer="layer1" />
  <defs
     id="defs959">
    <style
       type="text/css"
       id="current-color-scheme">
      .ColorScheme-Text {
        color:#4d4d4d;
      }
      </style>
  </defs>
  <g
     inkscape:label="Layer 1"
     inkscape:groupmode="layer"
     id="layer1">
    <rect
       style="fill:#0b60ad;fill-opacity:1;stroke-width:1.38665;stop-color:#000000"
       id="rect1045"
       width="285.75"
       height="13.229167"
       x="-7.0000016e-07"
       y="-1.9135314e-07" />
    <g
       aria-label="THE FUTURE IS OURS!"
       id="text15664-7-8"
       style="font-style:italic;font-weight:900;font-size:13.2292px;line-height:1.25;font-family:'Uni Sans';-inkscape-font-specification:'Uni Sans Heavy Italic';text-align:center;text-anchor:middle;fill:none;stroke:#ffffff;stroke-width:0.396875">
      <path
         d="M 85.539779,4.0878058 85.85728,1.9182169 h -7.44804 l -0.3175,2.1695889 h 2.526777 l -0.99219,7.2099142 h 2.394485 l 0.99219,-7.2099142 z"
         id="path74486" />
      <path
         d="m 88.317903,7.7655235 h 2.698756 l -0.48948,3.5321965 h 2.381256 L 94.218126,1.9314461 H 91.83687 l -0.50271,3.5454257 h -2.698757 l 0.50271,-3.5454257 H 86.756857 L 85.447166,11.29772 h 2.381256 z"
         id="path74488" />
      <path
         d="m 97.776764,4.167181 h 4.127506 l 0.31751,-2.2357349 h -6.522001 l -1.30969,9.3662739 h 6.521991 l 0.30428,-2.2357349 h -4.127515 l 0.198439,-1.4022952 h 3.796776 l 0.29105,-2.1034429 h -3.796784 z"
         id="path74490" />
      <path
         d="m 107.98967,4.1804102 h 4.12751 l 0.3175,-2.2489641 h -6.52199 L 104.603,11.29772 h 2.39448 l 0.44979,-3.2279249 h 3.61158 l 0.30427,-2.2092765 h -3.61157 z"
         id="path74492" />
      <path
         d="m 115.87427,1.9314461 h -2.39448 l -0.87313,6.204495 c -0.3175,2.1960469 1.40229,3.2940709 3.26761,3.2940709 1.87855,0 3.88939,-1.098024 4.20689,-3.2940709 l 0.87312,-6.204495 h -2.39448 l -0.87313,6.204495 c -0.10583,0.7408352 -0.79375,1.124482 -1.4949,1.124482 -0.67469,0 -1.29646,-0.3836468 -1.19063,-1.124482 z"
         id="path74494" />
      <path
         d="m 128.91824,4.0878058 0.3175,-2.1695889 h -7.44804 l -0.3175,2.1695889 h 2.52678 l -0.99219,7.2099142 h 2.39449 l 0.99219,-7.2099142 z"
         id="path74496" />
      <path
         d="m 132.46366,1.9314461 h -2.39449 l -0.87312,6.204495 c -0.31751,2.1960469 1.40229,3.2940709 3.26761,3.2940709 1.87854,0 3.88938,-1.098024 4.20688,-3.2940709 l 0.87313,-6.204495 h -2.39448 l -0.87313,6.204495 c -0.10584,0.7408352 -0.79375,1.124482 -1.4949,1.124482 -0.67469,0 -1.29646,-0.3836468 -1.19063,-1.124482 z"
         id="path74498" />
      <path
         d="m 142.76918,11.29772 h 2.95012 l -2.24897,-3.2146957 c 1.28323,-0.6085432 2.01084,-1.1906281 2.2622,-2.9236533 0.25135,-2.1828181 -1.09803,-3.2279249 -3.04272,-3.2279249 h -3.74386 l -1.3097,9.3662739 h 2.39449 l 0.41011,-2.9765701 h 0.42333 z m -2.03729,-5.013867 0.30427,-2.1431304 h 1.38907 c 0.70114,0 0.97896,0.4894804 0.91281,1.058336 -0.0661,0.5423972 -0.47625,1.0847944 -1.21709,1.0847944 z"
         id="path74500" />
      <path
         d="m 149.5293,4.167181 h 4.12751 l 0.3175,-2.2357349 h -6.52199 l -1.30969,9.3662739 h 6.52199 l 0.30427,-2.2357349 h -4.12751 l 0.19844,-1.4022952 h 3.79678 l 0.29104,-2.1034429 h -3.79678 z"
         id="path74502" />
      <path
         d="m 160.03326,1.9314461 h -2.36803 l -1.30969,9.3662739 h 2.36803 z"
         id="path74504" />
      <path
         d="m 159.90094,9.7366743 c 0.70115,1.1377117 2.10344,1.6933377 3.22792,1.6933377 2.02407,0 3.61157,-0.912815 3.95553,-2.7384445 0.42334,-2.3415685 -1.13771,-2.9368825 -2.77813,-3.2543833 -0.7276,-0.1587504 -1.19063,-0.396876 -1.12448,-0.9392732 0.0529,-0.4762512 0.55563,-0.7011477 1.15094,-0.6879185 0.5424,0.013229 1.15094,0.2116673 1.56105,0.6746893 l 1.71979,-1.1906281 c -0.82021,-1.1773988 -1.85209,-1.4948996 -3.00303,-1.4948996 -1.71979,0 -3.41313,0.6746892 -3.77032,2.5929233 -0.3175,1.7727128 0.97896,2.9368824 2.46063,3.1882373 0.75407,0.1058336 1.57428,0.3571884 1.46844,0.9392732 -0.0926,0.4894804 -0.64823,0.7143768 -1.28323,0.7143768 -0.70115,0 -1.48167,-0.3042716 -1.89177,-0.8995856 z"
         id="path74506" />
      <path
         d="m 170.36519,8.2153163 c -0.3175,2.1563597 1.4949,3.2146957 3.42636,3.2146957 2.05053,0 4.02168,-1.058336 4.33918,-3.2146957 l 0.46302,-3.2014665 c 0.3175,-2.1563597 -1.4949,-3.2146957 -3.43959,-3.2146957 -1.94469,0 -4.00845,1.058336 -4.32595,3.2146957 z m 2.83105,-3.2014665 c 0.10583,-0.7011476 0.93927,-1.058336 1.70656,-1.058336 0.78053,0 1.42876,0.3571884 1.32292,1.058336 l -0.46302,3.1353205 c -0.10583,0.7408352 -0.93927,1.0847944 -1.70657,1.0847944 -0.71437,0 -1.42875,-0.3439592 -1.32292,-1.0186484 z"
         id="path74508" />
      <path
         d="m 182.58897,1.9314461 h -2.39449 l -0.87313,6.204495 c -0.3175,2.1960469 1.4023,3.2940709 3.26762,3.2940709 1.87854,0 3.88938,-1.098024 4.20688,-3.2940709 l 0.87313,-6.204495 h -2.39449 l -0.87312,6.204495 c -0.10584,0.7408352 -0.79375,1.124482 -1.4949,1.124482 -0.67469,0 -1.29646,-0.3836468 -1.19063,-1.124482 z"
         id="path74510" />
      <path
         d="m 192.89449,11.29772 h 2.95011 l -2.24896,-3.2146957 c 1.28323,-0.6085432 2.01084,-1.1906281 2.26219,-2.9236533 0.25136,-2.1828181 -1.09802,-3.2279249 -3.04272,-3.2279249 h -3.74386 l -1.30969,9.3662739 h 2.39449 l 0.4101,-2.9765701 h 0.42333 z m -2.0373,-5.013867 0.30427,-2.1431304 h 1.38907 c 0.70115,0 0.97896,0.4894804 0.91282,1.058336 -0.0661,0.5423972 -0.47626,1.0847944 -1.21709,1.0847944 z"
         id="path74512" />
      <path
         d="m 195.96367,9.7366743 c 0.70114,1.1377117 2.10344,1.6933377 3.22792,1.6933377 2.02407,0 3.61157,-0.912815 3.95553,-2.7384445 0.42334,-2.3415685 -1.13771,-2.9368825 -2.77813,-3.2543833 -0.72761,-0.1587504 -1.19063,-0.396876 -1.12448,-0.9392732 0.0529,-0.4762512 0.55562,-0.7011477 1.15094,-0.6879185 0.5424,0.013229 1.15094,0.2116673 1.56104,0.6746893 l 1.7198,-1.1906281 c -0.82021,-1.1773988 -1.85209,-1.4948996 -3.00303,-1.4948996 -1.71979,0 -3.41313,0.6746892 -3.77032,2.5929233 -0.3175,1.7727128 0.97896,2.9368824 2.46063,3.1882373 0.75407,0.1058336 1.57428,0.3571884 1.46844,0.9392732 -0.0926,0.4894804 -0.64823,0.7143768 -1.28323,0.7143768 -0.70115,0 -1.48167,-0.3042716 -1.89178,-0.8995856 z"
         id="path74514" />
      <path
         d="m 204.16575,8.3872959 h 2.43417 l 1.05833,-6.5087666 h -2.69875 z m -0.31751,1.7330251 c -0.10583,0.740835 0.38365,1.309691 1.12449,1.309691 0.74083,0 1.41552,-0.568856 1.52135,-1.309691 0.10584,-0.7408351 -0.4101,-1.3361491 -1.15094,-1.3361491 -0.7276,0 -1.38906,0.595314 -1.4949,1.3361491 z"
         id="path74516" />
    </g>
  </g>
</svg>
