<?xml version="1.0" encoding="UTF-8" standalone="no"?>
<!-- Created with Inkscape (http://www.inkscape.org/) -->

<svg
   width="1080"
   height="50"
   viewBox="0 0 285.74999 13.229167"
   version="1.1"
   id="svg962"
   inkscape:version="1.1.1 (3bf5ae0d25, 2021-09-20)"
   sodipodi:docname="Jay PM 06 22 campaign onboarding title (text path).svg"
   xmlns:inkscape="http://www.inkscape.org/namespaces/inkscape"
   xmlns:sodipodi="http://sodipodi.sourceforge.net/DTD/sodipodi-0.dtd"
   xmlns="http://www.w3.org/2000/svg"
   xmlns:svg="http://www.w3.org/2000/svg">
  <sodipodi:namedview
     id="namedview964"
     pagecolor="#505050"
     bordercolor="#ffffff"
     borderopacity="1"
     inkscape:pageshadow="0"
     inkscape:pageopacity="0"
     inkscape:pagecheckerboard="1"
     inkscape:document-units="px"
     showgrid="false"
     units="px"
     showborder="false"
     inkscape:showpageshadow="false"
     borderlayer="true"
     inkscape:zoom="1.0435185"
     inkscape:cx="540.00001"
     inkscape:cy="159.55635"
     inkscape:window-width="1920"
     inkscape:window-height="1017"
     inkscape:window-x="-8"
     inkscape:window-y="-8"
     inkscape:window-maximized="1"
     inkscape:current-layer="layer1" />
  <defs
     id="defs959">
    <style
       type="text/css"
       id="current-color-scheme">
      .ColorScheme-Text {
        color:#4d4d4d;
      }
      </style>
  </defs>
  <g
     inkscape:label="Layer 1"
     inkscape:groupmode="layer"
     id="layer1">
    <rect
       style="fill:#0b60ad;fill-opacity:1;stroke-width:1.38665;stop-color:#000000"
       id="rect1045"
       width="285.75"
       height="13.229167"
       x="-7.0000016e-07"
       y="-1.9135314e-07" />
    <g
       aria-label="ONBOARDING"
       id="text15664-7-8"
       style="font-style:italic;font-weight:900;font-size:13.2292px;line-height:1.25;font-family:'Uni Sans';-inkscape-font-specification:'Uni Sans Heavy Italic';text-align:center;text-anchor:middle;fill:none;stroke:#ffffff;stroke-width:0.396875">
      <path
         d="m 102.65002,8.2153163 c -0.3175,2.1563597 1.4949,3.2146957 3.42636,3.2146957 2.05053,0 4.02168,-1.058336 4.33918,-3.2146957 l 0.46302,-3.2014665 c 0.3175,-2.1563597 -1.4949,-3.2146957 -3.43959,-3.2146957 -1.94469,0 -4.00845,1.058336 -4.32595,3.2146957 z m 2.83105,-3.2014665 c 0.10583,-0.7011476 0.93927,-1.058336 1.70656,-1.058336 0.78053,0 1.42876,0.3571884 1.32292,1.058336 l -0.46302,3.1353205 c -0.10583,0.7408352 -0.93927,1.0847944 -1.70656,1.0847944 -0.71438,0 -1.42876,-0.3439592 -1.32292,-1.0186484 z"
         id="path20703" />
      <path
         d="m 111.23576,11.29772 h 2.36803 l 0.51594,-3.7438637 -0.0265,-1.8124005 0.0529,-0.013229 0.55563,1.8785465 1.60073,3.6909469 h 2.39448 l 1.30969,-9.3662739 h -2.35479 l -0.59532,4.2465733 0.0265,1.6139625 -0.0529,0.013229 -0.52916,-1.8785465 -1.70657,-3.9952185 h -2.24896 z"
         id="path20705" />
      <path
         d="m 127.89131,4.7889534 c 0.3175,-1.7859421 -0.87313,-2.8575073 -2.64584,-2.8575073 h -3.75709 l -1.30969,9.3662739 h 3.82323 c 2.07699,0 3.20147,-0.899586 3.66449,-2.4209437 0.21167,-0.7143768 0.23813,-1.9314633 -0.96573,-2.5664649 0.72761,-0.3439592 1.12448,-1.0847944 1.19063,-1.521358 z m -4.53762,0.8069812 0.23813,-1.6668792 h 1.37584 c 1.19062,0 0.92604,1.6668792 -0.23813,1.6668792 z m -0.50271,3.6248009 0.26459,-1.9182341 h 1.37583 c 1.41553,0 1.16417,1.9182341 -0.26458,1.9182341 z"
         id="path20707" />
      <path
         d="m 128.61891,8.2153163 c -0.3175,2.1563597 1.4949,3.2146957 3.42636,3.2146957 2.05053,0 4.02168,-1.058336 4.33918,-3.2146957 l 0.46302,-3.2014665 c 0.3175,-2.1563597 -1.4949,-3.2146957 -3.43959,-3.2146957 -1.9447,0 -4.00845,1.058336 -4.32595,3.2146957 z m 2.83105,-3.2014665 c 0.10583,-0.7011476 0.93927,-1.058336 1.70656,-1.058336 0.78052,0 1.42876,0.3571884 1.32292,1.058336 l -0.46302,3.1353205 c -0.10583,0.7408352 -0.93927,1.0847944 -1.70657,1.0847944 -0.71437,0 -1.42875,-0.3439592 -1.32292,-1.0186484 z"
         id="path20709" />
      <path
         d="m 142.87998,1.9314461 h -2.15636 l -4.57731,9.3662739 h 2.54001 l 0.83344,-1.8785465 h 2.50032 l 0.35719,1.8785465 h 2.54 z m -2.52678,5.3842845 1.03188,-2.7384444 h 0.0926 l 0.27781,2.7384444 z"
         id="path20711" />
      <path
         d="m 150.65874,11.29772 h 2.95012 l -2.24897,-3.2146957 c 1.28323,-0.6085432 2.01084,-1.1906281 2.2622,-2.9236533 0.25135,-2.1828181 -1.09803,-3.2279249 -3.04272,-3.2279249 h -3.74386 l -1.30969,9.3662739 h 2.39448 l 0.41011,-2.9765701 h 0.42333 z m -2.03729,-5.013867 0.30427,-2.1431304 h 1.38907 c 0.70114,0 0.97896,0.4894804 0.91281,1.058336 -0.0661,0.5423972 -0.47625,1.0847944 -1.21709,1.0847944 z"
         id="path20713" />
      <path
         d="m 155.34188,1.9314461 -1.30969,9.3662739 h 3.50573 c 1.87855,0 3.74387,-0.926044 4.06137,-3.0824037 l 0.44979,-3.1485497 c 0.3175,-2.1695889 -1.32292,-3.1353205 -3.20147,-3.1353205 z m 1.37583,7.1437682 0.70115,-4.9344917 h 1.20386 c 0.64823,0 1.11125,0.4101052 1.0451,0.926044 l -0.44979,3.1485497 c -0.0661,0.5159388 -0.64823,0.859898 -1.29646,0.859898 z"
         id="path20715" />
      <path
         d="m 166.11042,1.9314461 h -2.36802 l -1.30969,9.3662739 h 2.36802 z"
         id="path20717" />
      <path
         d="m 166.28238,11.29772 h 2.36803 l 0.51594,-3.7438637 -0.0265,-1.8124005 0.0529,-0.013229 0.55562,1.8785465 1.60074,3.6909469 h 2.39448 l 1.30969,-9.3662739 h -2.35479 l -0.59532,4.2465733 0.0265,1.6139625 -0.0529,0.013229 -0.52916,-1.8785465 -1.70657,-3.9952185 h -2.24897 z"
         id="path20719" />
      <path
         d="m 183.00407,3.7967633 c -0.42333,-1.4948996 -1.77271,-1.9976092 -2.97657,-1.9976092 -1.86532,0 -3.82324,1.0054192 -4.14074,3.1750081 l -0.44979,3.2146957 c -0.3175,2.1563601 1.38906,3.2411541 3.22792,3.2411541 1.87855,0 3.83647,-1.084794 4.15397,-3.2411541 l 0.3175,-2.3283393 h -3.77032 l -0.26458,1.9314633 h 1.4949 l -0.0529,0.396876 c -0.10583,0.7143768 -0.83344,1.0715652 -1.52136,1.0715652 -0.70115,0 -1.30969,-0.3439592 -1.21709,-1.0715652 l 0.4498,-3.2146957 C 178.36062,4.299473 179.03531,3.902597 179.71,3.902597 c 0.52917,0 1.03188,0.2381256 1.1774,0.8069812 z"
         id="path20721" />
    </g>
  </g>
</svg>
