<?xml version="1.0" encoding="UTF-8" standalone="no"?>
<!-- Created with Inkscape (http://www.inkscape.org/) -->

<svg
   width="1080"
   height="250"
   viewBox="0 0 285.74999 66.145836"
   version="1.1"
   id="svg962"
   inkscape:version="1.1.1 (3bf5ae0d25, 2021-09-20)"
   sodipodi:docname="Jay PM 06 22 campaign footer.svg"
   xmlns:inkscape="http://www.inkscape.org/namespaces/inkscape"
   xmlns:sodipodi="http://sodipodi.sourceforge.net/DTD/sodipodi-0.dtd"
   xmlns="http://www.w3.org/2000/svg"
   xmlns:svg="http://www.w3.org/2000/svg">
  <sodipodi:namedview
     id="namedview964"
     pagecolor="#505050"
     bordercolor="#ffffff"
     borderopacity="1"
     inkscape:pageshadow="0"
     inkscape:pageopacity="0"
     inkscape:pagecheckerboard="1"
     inkscape:document-units="px"
     showgrid="false"
     units="px"
     showborder="false"
     inkscape:showpageshadow="false"
     borderlayer="true"
     inkscape:zoom="1.0435185"
     inkscape:cx="540.00001"
     inkscape:cy="159.55635"
     inkscape:window-width="1920"
     inkscape:window-height="1017"
     inkscape:window-x="-8"
     inkscape:window-y="-8"
     inkscape:window-maximized="1"
     inkscape:current-layer="layer1" />
  <defs
     id="defs959">
    <style
       type="text/css"
       id="current-color-scheme">
      .ColorScheme-Text {
        color:#4d4d4d;
      }
      </style>
  </defs>
  <g
     inkscape:label="Layer 1"
     inkscape:groupmode="layer"
     id="layer1">
    <rect
       style="fill:#0b60ad;fill-opacity:1;stroke-width:3.10065;stop-color:#000000"
       id="rect1045"
       width="285.75"
       height="66.145836"
       x="3.7999979e-07"
       y="-1.1836029e-06" />
    <g
       id="g48239"
       transform="translate(2.458866e-6,-9.2604167)">
      <g
         id="g1201"
         transform="matrix(0.52916667,0,0,0.52916667,125.62939,15.875)"
         style="fill:#ffffff;fill-opacity:1">
        <path
           d="m 35.479,39.365 c -0.168,0.449 -0.277,0.91 -0.324,1.379 -0.053,0.518 -0.039,1.039 0.057,1.555 0.058,0.309 0.131,0.617 0.241,0.918 0.515,1.392 1.539,2.499 2.888,3.119 0.734,0.338 1.514,0.508 2.315,0.508 0.996,0 1.949,-0.279 2.781,-0.764 0.45,-0.262 0.863,-0.584 1.227,-0.964 0.325,-0.339 0.606,-0.725 0.839,-1.145 0.067,-0.121 0.143,-0.237 0.201,-0.365 0,0 11.078,-24.098 11.102,-24.147 0.023,-0.052 0.334,-0.974 0.4,-1.345 0.435,-2.428 -0.783,-4.941 -3.127,-6.02 -0.732,-0.338 -1.512,-0.508 -2.313,-0.508 -1.688,0 -3.258,0.78 -4.3,2.052 -0.293,0.359 -0.551,0.75 -0.748,1.183 10e-4,-0.004 0.002,-0.008 0.004,-0.011 l -0.006,0.012 c -10e-4,0.001 -0.002,0.004 -0.004,0.006 L 35.616,38.97 c -0.058,0.129 -0.089,0.263 -0.137,0.395 z"
           id="path1171"
           style="fill:#ffffff;fill-opacity:1" />
        <path
           d="m 40.476,12.83 c 0.235,0.236 0.388,0.544 0.5,0.881 0.263,0.799 0.219,1.822 10e-4,2.859 -0.112,0.529 -0.262,1.054 -0.442,1.551 -0.068,0.191 -0.137,0.384 -0.214,0.564 -0.113,0.275 -0.262,0.595 -0.434,0.933 -1.504,2.975 -5.374,7.975 -14.463,8.285 -0.005,0 -0.012,0.001 -0.017,0.001 L 21.62,35.79 c 2.366,0.559 6.577,1.881 10.227,4.73 L 44.192,13.661 c 0.202,-0.438 0.32,-0.889 0.401,-1.344 C 45.025,9.886 43.81,7.372 41.466,6.295 40.732,5.959 39.952,5.787 39.153,5.787 c -1.688,0 -3.257,0.779 -4.298,2.052 -0.296,0.359 -0.554,0.751 -0.754,1.184 0.002,-0.004 0.002,-0.006 0.006,-0.01 l -0.006,0.01 -0.003,0.007 -1.56,3.395 h 7.532 z"
           id="path1173"
           style="fill:#ffffff;fill-opacity:1" />
        <path
           d="m 25.861,12.424 h 1.352 2.268 l 2.087,-4.549 c 0.2,-0.438 0.319,-0.89 0.399,-1.344 C 32.4,4.102 31.185,1.588 28.841,0.51 28.105,0.174 27.327,0 26.527,0 c -1.688,0 -3.258,0.781 -4.299,2.053 -0.293,0.359 -0.552,0.751 -0.751,1.185 0,0.002 -0.004,0.004 -0.004,0.006 l -4.213,9.18 h 4.614 z"
           id="path1175"
           style="fill:#ffffff;fill-opacity:1" />
        <polygon
           points="31.578,7.861 31.581,7.854 31.578,7.861 31.573,7.874 "
           id="polygon1177"
           style="fill:#ffffff;fill-opacity:1" />
        <polygon
           points="55.55,28.841 55.551,28.84 55.55,28.84 "
           id="polygon1179"
           style="fill:#ffffff;fill-opacity:1" />
        <polygon
           points="44.95,45.249 44.949,45.252 44.952,45.248 "
           id="polygon1181"
           style="fill:#ffffff;fill-opacity:1" />
        <polygon
           points="44.952,45.246 44.954,45.241 44.952,45.245 "
           id="polygon1183"
           style="fill:#ffffff;fill-opacity:1" />
        <path
           d="m 65.18,33.276 c 0,-0.624 -0.348,-1.915 -0.362,-1.927 -0.785,-2.115 -2.805,-3.628 -5.191,-3.628 -0.501,0 -0.979,0.088 -1.441,0.213 -0.803,0.216 -1.528,0.607 -2.145,1.131 -0.724,0.617 -1.282,1.405 -1.615,2.315 -0.004,0.012 -0.006,0.026 -0.012,0.038 l -6.939,14.99 h 0.002 c -0.205,0.447 -0.308,0.913 -0.332,1.377 -0.008,0.166 0,0.33 0.013,0.492 0.106,1.305 0.888,2.518 2.16,3.103 0.604,0.279 1.255,0.362 1.89,0.297 0.828,-0.086 1.627,-0.432 2.242,-0.996 0.295,-0.271 0.539,-0.6 0.731,-0.962 l 3.605,-7.787 2.521,1.163 0.25,-0.543 -3.742,8.143 -0.006,0.012 c -0.062,0.135 -0.137,0.259 -0.211,0.386 -0.155,0.278 -0.327,0.548 -0.518,0.799 -0.391,0.519 -0.86,0.967 -1.379,1.343 -1.006,0.733 -2.213,1.183 -3.494,1.247 -0.111,0.007 -0.218,0.021 -0.327,0.021 h -0.001 c -0.943,0 -1.859,-0.202 -2.723,-0.598 -1.292,-0.596 -2.284,-1.566 -2.936,-2.72 -0.314,-0.557 -0.537,-1.157 -0.678,-1.781 -0.053,-0.233 -0.096,-0.466 -0.123,-0.705 -0.43,0.22 -0.872,0.412 -1.337,0.555 -0.776,0.238 -1.593,0.368 -2.425,0.368 0,0 0,0 -10e-4,0 -0.965,0 -1.61,-0.172 -2.511,-0.497 0.512,1.676 0.831,3.528 0.831,5.63 V 65.281 H 36.199 V 54.755 c 0,-2.521 -0.788,-4.656 -1.598,-6.478 C 30.807,39.732 19.972,38.254 19.419,38.185 l -1.914,-0.24 6.146,-12.802 h 0.875 c 0.232,0 0.43,-0.029 0.652,-0.035 0.538,-0.016 1.074,-0.033 1.568,-0.084 5.297,-0.549 8.203,-3.018 9.739,-5.135 0.133,-0.183 0.249,-0.367 0.366,-0.548 0.272,-0.426 0.499,-0.842 0.69,-1.248 0.219,-0.463 0.389,-0.906 0.517,-1.313 0.195,-0.628 0.298,-1.174 0.328,-1.578 H 15.408 c -2.75,0 -5.154,1.458 -6.5,3.64 -0.314,0.51 -0.572,1.056 -0.762,1.635 L 0.928,35.957 0.557,36.753 C 0.201,37.635 0,38.597 0,39.608 c 0,1.382 0.373,2.675 1.014,3.794 l 0.781,1.12 17.738,23.491 V 99.997 H 52.864 V 100 h 2.777 l 0.002,-23.609 8.821,-17.957 c 0.124,-0.223 0.243,-0.446 0.337,-0.687 0.232,-0.594 0.367,-1.235 0.378,-1.908 0.002,-0.034 0.001,-22.563 0.001,-22.563 z"
           id="path1185"
           style="fill:#ffffff;fill-opacity:1" />
      </g>
      <g
         transform="matrix(0.82682292,0,0,0.82682292,136.42578,-801.49088)"
         id="g1344"
         style="fill:#0b60ad;fill-opacity:1">
        <path
           style="opacity:1;fill:#0b60ad;fill-opacity:1;stroke:none"
           d="M 11,3 C 11,3 9,5.6575188 3,6.3242188 3,6.3242188 3,15.6581 11,19 19,15.6581 19,6.3242188 19,6.3242188 13,5.6575188 11,3 11,3 Z m 0,1.3769531 c 1.586995,1.3447 3.87716,2.2417594 6.845703,2.6933594 -0.161259,1.4452 -0.315875,2.5327844 -0.689453,3.5839845 -0.78509,2.2091 -1.700475,3.553031 -2.521484,4.519531 C 13.362538,16.671528 12.207192,17.277659 11,17.880859 9.792808,17.277659 8.6374614,16.671528 7.3652344,15.173828 6.5442254,14.207328 5.62884,12.863397 4.84375,10.654297 4.470172,9.6030969 4.3155559,8.5155125 4.1542969,7.0703125 7.1228399,6.6187125 9.413005,5.7216531 11,4.3769531 Z m 0,1.1992188 C 9.256509,6.7864719 7.2978492,7.3994063 5.3320312,7.8164062 6.2628772,13.098406 8.268115,15.357084 11,16.771484 13.731885,15.357084 15.737124,13.098406 16.667969,7.8164062 14.702151,7.3994063 12.743491,6.7864719 11,5.5761719 Z"
           transform="translate(0,1030.3622)"
           class="ColorScheme-Text"
           id="path4943-9-4-1-2" />
      </g>
    </g>
    <text
       xml:space="preserve"
       style="font-style:italic;font-variant:normal;font-weight:900;font-stretch:normal;font-size:26.4583px;line-height:1.25;font-family:'Uni Sans';-inkscape-font-specification:'Uni Sans Heavy Italic';text-align:center;text-anchor:middle;fill:none;stroke:#ffffff;stroke-width:0.661458;stroke-miterlimit:4;stroke-dasharray:none;stroke-opacity:1"
       x="58.234699"
       y="42.439156"
       id="text15664-7"><tspan
         sodipodi:role="line"
         style="font-style:italic;font-variant:normal;font-weight:900;font-stretch:normal;font-size:26.4583px;font-family:'Uni Sans';-inkscape-font-specification:'Uni Sans Heavy Italic';text-align:center;text-anchor:middle;fill:none;stroke:#ffffff;stroke-width:0.661458;stroke-miterlimit:4;stroke-dasharray:none;stroke-opacity:1"
         x="58.234699"
         y="42.439156"
         id="tspan47452">VOTE</tspan></text>
    <text
       xml:space="preserve"
       style="font-style:italic;font-variant:normal;font-weight:900;font-stretch:normal;font-size:26.4583px;line-height:1.25;font-family:'Uni Sans';-inkscape-font-specification:'Uni Sans Heavy Italic';text-align:center;text-anchor:middle;fill:none;stroke:#ffffff;stroke-width:0.661458;stroke-miterlimit:4;stroke-dasharray:none;stroke-opacity:1"
       x="222.44987"
       y="42.306854"
       id="text15664-7-8"><tspan
         sodipodi:role="line"
         style="font-style:italic;font-variant:normal;font-weight:900;font-stretch:normal;font-size:26.4583px;font-family:'Uni Sans';-inkscape-font-specification:'Uni Sans Heavy Italic';text-align:center;text-anchor:middle;fill:none;stroke:#ffffff;stroke-width:0.661458;stroke-miterlimit:4;stroke-dasharray:none;stroke-opacity:1"
         x="222.44987"
         y="42.306854"
         id="tspan47452-2">JAY</tspan></text>
  </g>
</svg>
