<?xml version="1.0" encoding="UTF-8" standalone="no"?>
<!-- Created with Inkscape (http://www.inkscape.org/) -->

<svg
   width="1080"
   height="50"
   viewBox="0 0 285.74999 13.229167"
   version="1.1"
   id="svg962"
   inkscape:version="1.1.1 (3bf5ae0d25, 2021-09-20)"
   sodipodi:docname="Jay PM 06 22 campaign availability title (text path).svg"
   xmlns:inkscape="http://www.inkscape.org/namespaces/inkscape"
   xmlns:sodipodi="http://sodipodi.sourceforge.net/DTD/sodipodi-0.dtd"
   xmlns="http://www.w3.org/2000/svg"
   xmlns:svg="http://www.w3.org/2000/svg">
  <sodipodi:namedview
     id="namedview964"
     pagecolor="#505050"
     bordercolor="#ffffff"
     borderopacity="1"
     inkscape:pageshadow="0"
     inkscape:pageopacity="0"
     inkscape:pagecheckerboard="1"
     inkscape:document-units="px"
     showgrid="false"
     units="px"
     showborder="false"
     inkscape:showpageshadow="false"
     borderlayer="true"
     inkscape:zoom="1.0435185"
     inkscape:cx="540.00001"
     inkscape:cy="159.55635"
     inkscape:window-width="1920"
     inkscape:window-height="1017"
     inkscape:window-x="-8"
     inkscape:window-y="-8"
     inkscape:window-maximized="1"
     inkscape:current-layer="layer1" />
  <defs
     id="defs959">
    <style
       type="text/css"
       id="current-color-scheme">
      .ColorScheme-Text {
        color:#4d4d4d;
      }
      </style>
  </defs>
  <g
     inkscape:label="Layer 1"
     inkscape:groupmode="layer"
     id="layer1">
    <rect
       style="fill:#0b60ad;fill-opacity:1;stroke-width:1.38665;stop-color:#000000"
       id="rect1045"
       width="285.75"
       height="13.229167"
       x="-7.0000016e-07"
       y="-1.9135314e-07" />
    <g
       aria-label="AVAILABILITY"
       id="text15664-7-8"
       style="font-style:italic;font-weight:900;font-size:13.2292px;line-height:1.25;font-family:'Uni Sans';-inkscape-font-specification:'Uni Sans Heavy Italic';text-align:center;text-anchor:middle;fill:none;stroke:#ffffff;stroke-width:0.396875">
      <path
         d="m 107.48696,1.9380608 h -2.15636 l -4.5773,9.3662742 h 2.54001 l 0.83344,-1.8785468 h 2.50031 l 0.35719,1.8785468 h 2.54001 z m -2.52678,5.3842845 1.03188,-2.7384444 h 0.0926 l 0.27781,2.7384444 z"
         id="path11964" />
      <path
         d="m 113.82374,6.5153641 -0.71438,2.2225057 h -0.0265 l -0.13229,-2.2357349 -0.83344,-4.5773033 h -2.54001 l 2.06376,9.3795034 h 2.16959 l 4.68314,-9.3795034 h -2.54001 z"
         id="path11966" />
      <path
         d="m 122.70051,1.9380608 h -2.15636 l -4.5773,9.3662742 h 2.54001 l 0.83344,-1.8785468 h 2.50031 l 0.35719,1.8785468 h 2.54001 z m -2.52677,5.3842845 1.03187,-2.7384444 h 0.0926 l 0.27781,2.7384444 z"
         id="path11968" />
      <path
         d="m 129.02407,1.9380608 h -2.36803 l -1.30969,9.3662742 h 2.36803 z"
         id="path11970" />
      <path
         d="m 129.19603,11.304335 h 6.19126 l 0.3175,-2.3415688 h -3.81001 l 0.99219,-7.0247054 h -2.38125 z"
         id="path11972" />
      <path
         d="m 142.18709,1.9380608 h -2.15636 l -4.5773,9.3662742 h 2.54001 l 0.83344,-1.8785468 h 2.50031 l 0.35719,1.8785468 h 2.54001 z m -2.52677,5.3842845 1.03187,-2.7384444 h 0.0926 l 0.27781,2.7384444 z"
         id="path11974" />
      <path
         d="m 152.54556,4.7955681 c 0.3175,-1.7859421 -0.87313,-2.8575073 -2.64584,-2.8575073 h -3.7571 l -1.30969,9.3662742 h 3.82324 c 2.07698,0 3.20147,-0.899586 3.66449,-2.420944 0.21167,-0.7143768 0.23812,-1.9314633 -0.96573,-2.5664649 0.7276,-0.3439592 1.12448,-1.0847944 1.19063,-1.521358 z m -4.53762,0.8069812 0.23813,-1.6668793 h 1.37583 c 1.19063,0 0.92605,1.6668793 -0.23812,1.6668793 z m -0.50271,3.6248009 0.26458,-1.9182341 h 1.37584 c 1.41553,0 1.16417,1.9182341 -0.26458,1.9182341 z"
         id="path11976" />
      <path
         d="m 156.75243,1.9380608 h -2.36802 l -1.3097,9.3662742 h 2.36803 z"
         id="path11978" />
      <path
         d="m 156.92439,11.304335 h 6.19127 l 0.3175,-2.3415688 h -3.81001 l 0.99219,-7.0247054 h -2.38126 z"
         id="path11980" />
      <path
         d="m 167.69295,1.9380608 h -2.36803 l -1.30969,9.3662742 h 2.36803 z"
         id="path11982" />
      <path
         d="m 175.73628,4.0944204 0.3175,-2.1695888 h -7.44804 l -0.3175,2.1695888 h 2.52678 l -0.99219,7.2099146 h 2.39448 l 0.99219,-7.2099146 z"
         id="path11984" />
      <path
         d="m 180.40618,11.304335 0.51594,-3.6909473 4.07459,-5.6753269 h -2.77813 l -2.16959,3.2940709 -1.21708,-3.2940709 h -2.75168 l 2.47386,5.6753269 -0.51594,3.6909473 z"
         id="path11986" />
    </g>
  </g>
</svg>
