<?xml version="1.0" encoding="UTF-8" standalone="no"?>
<!-- Created with Inkscape (http://www.inkscape.org/) -->

<svg
   width="1080"
   height="50"
   viewBox="0 0 285.74999 13.229167"
   version="1.1"
   id="svg962"
   inkscape:version="1.1.1 (3bf5ae0d25, 2021-09-20)"
   sodipodi:docname="Jay PM 06 22 campaign coa title (text path).svg"
   xmlns:inkscape="http://www.inkscape.org/namespaces/inkscape"
   xmlns:sodipodi="http://sodipodi.sourceforge.net/DTD/sodipodi-0.dtd"
   xmlns="http://www.w3.org/2000/svg"
   xmlns:svg="http://www.w3.org/2000/svg">
  <sodipodi:namedview
     id="namedview964"
     pagecolor="#505050"
     bordercolor="#ffffff"
     borderopacity="1"
     inkscape:pageshadow="0"
     inkscape:pageopacity="0"
     inkscape:pagecheckerboard="1"
     inkscape:document-units="px"
     showgrid="false"
     units="px"
     showborder="false"
     inkscape:showpageshadow="false"
     borderlayer="true"
     inkscape:zoom="1.0435185"
     inkscape:cx="540.00001"
     inkscape:cy="159.55635"
     inkscape:window-width="1920"
     inkscape:window-height="1017"
     inkscape:window-x="-8"
     inkscape:window-y="-8"
     inkscape:window-maximized="1"
     inkscape:current-layer="layer1" />
  <defs
     id="defs959">
    <style
       type="text/css"
       id="current-color-scheme">
      .ColorScheme-Text {
        color:#4d4d4d;
      }
      </style>
  </defs>
  <g
     inkscape:label="Layer 1"
     inkscape:groupmode="layer"
     id="layer1">
    <rect
       style="fill:#0b60ad;fill-opacity:1;stroke-width:1.38665;stop-color:#000000"
       id="rect1045"
       width="285.75"
       height="13.229167"
       x="-7.0000016e-07"
       y="-1.9135314e-07" />
    <g
       aria-label="CONFLICT OF INTEREST DISCLOSURE"
       id="text15664-7-8"
       style="font-style:italic;font-weight:900;font-size:13.2292px;line-height:1.25;font-family:'Uni Sans';-inkscape-font-specification:'Uni Sans Heavy Italic';text-align:center;text-anchor:middle;fill:none;stroke:#ffffff;stroke-width:0.396875">
      <path
         d="m 38.836179,8.3740667 c -0.317501,0.595314 -0.926044,0.8466688 -1.468441,0.8466688 -0.674689,0 -1.243545,-0.3704176 -1.150941,-0.99219 L 36.66659,5.0006206 c 0.105834,-0.6217724 0.767294,-1.0186484 1.441983,-1.0186484 0.568856,0 1.111253,0.2248964 1.32292,0.7540644 L 41.46879,3.9555138 C 40.939622,2.3018637 39.64316,1.7991541 38.478991,1.7991541 c -1.865318,0 -3.902614,1.0847944 -4.180428,3.2014665 l -0.449792,3.2279249 c -0.277814,2.1299015 1.389066,3.2014665 3.241154,3.2014665 1.177399,0 2.526777,-0.463022 3.677717,-2.1034429 z"
         id="path10214" />
      <path
         d="m 41.534928,8.2153163 c -0.317501,2.1563597 1.494899,3.2146957 3.426363,3.2146957 2.050526,0 4.021677,-1.058336 4.339177,-3.2146957 L 49.76349,5.0138498 c 0.317501,-2.1563597 -1.494899,-3.2146957 -3.439592,-3.2146957 -1.944692,0 -4.008447,1.058336 -4.325948,3.2146957 z m 2.831049,-3.2014665 c 0.105833,-0.7011476 0.939273,-1.058336 1.706567,-1.058336 0.780522,0 1.428753,0.3571884 1.32292,1.058336 l -0.463022,3.1353205 c -0.105834,0.7408352 -0.939274,1.0847944 -1.706567,1.0847944 -0.714377,0 -1.428754,-0.3439592 -1.32292,-1.0186484 z"
         id="path10216" />
      <path
         d="M 50.120673,11.29772 H 52.4887 l 0.515939,-3.7438637 -0.02646,-1.8124005 0.05292,-0.013229 0.555627,1.8785465 1.600733,3.6909469 h 2.394485 l 1.309691,-9.3662739 h -2.354797 l -0.595314,4.2465733 0.02646,1.6139625 -0.05292,0.013229 -0.529168,-1.8785465 -1.706567,-3.9952185 h -2.248964 z"
         id="path10218" />
      <path
         d="M 62.450269,4.1804102 H 66.57778 L 66.895281,1.9314461 H 60.373285 L 59.063594,11.29772 h 2.394485 l 0.449793,-3.2279249 h 3.611572 l 0.304271,-2.2092765 h -3.611571 z"
         id="path10220" />
      <path
         d="m 66.696838,11.29772 h 6.191265 l 0.317501,-2.3415685 h -3.81001 l 0.99219,-7.0247054 h -2.381256 z"
         id="path10222" />
      <path
         d="M 77.465398,1.9314461 H 75.097372 L 73.787681,11.29772 h 2.368027 z"
         id="path10224" />
      <path
         d="m 82.823205,8.3740667 c -0.3175,0.595314 -0.926044,0.8466688 -1.468441,0.8466688 -0.674689,0 -1.243545,-0.3704176 -1.15094,-0.99219 l 0.449793,-3.2279249 c 0.105833,-0.6217724 0.767293,-1.0186484 1.441982,-1.0186484 0.568856,0 1.111253,0.2248964 1.32292,0.7540644 L 85.455816,3.9555138 C 84.926648,2.3018637 83.630187,1.7991541 82.466017,1.7991541 c -1.865317,0 -3.902614,1.0847944 -4.180427,3.2014665 l -0.449793,3.2279249 c -0.277813,2.1299015 1.389066,3.2014665 3.241154,3.2014665 1.177399,0 2.526777,-0.463022 3.677718,-2.1034429 z"
         id="path10226" />
      <path
         d="m 93.19489,4.0878058 0.317501,-2.1695889 h -7.44804 L 85.74685,4.0878058 h 2.526778 l -0.99219,7.2099142 h 2.394485 l 0.99219,-7.2099142 z"
         id="path10228" />
      <path
         d="m 95.457024,8.2153163 c -0.317501,2.1563597 1.4949,3.2146957 3.426363,3.2146957 2.050523,0 4.021673,-1.058336 4.339173,-3.2146957 l 0.46303,-3.2014665 c 0.3175,-2.1563597 -1.4949,-3.2146957 -3.4396,-3.2146957 -1.944688,0 -4.008443,1.058336 -4.325944,3.2146957 z m 2.831049,-3.2014665 c 0.105834,-0.7011476 0.939273,-1.058336 1.706567,-1.058336 0.78052,0 1.42875,0.3571884 1.32292,1.058336 l -0.46302,3.1353205 c -0.10584,0.7408352 -0.939275,1.0847944 -1.706569,1.0847944 -0.714377,0 -1.428754,-0.3439592 -1.32292,-1.0186484 z"
         id="path10230" />
      <path
         d="m 107.42945,4.1804102 h 4.12751 l 0.3175,-2.2489641 h -6.522 l -1.30969,9.3662739 h 2.39449 l 0.44979,-3.2279249 h 3.61157 l 0.30427,-2.2092765 h -3.61157 z"
         id="path10232" />
      <path
         d="m 117.5762,1.9314461 h -2.36802 l -1.30969,9.3662739 h 2.36802 z"
         id="path10234" />
      <path
         d="m 117.74816,11.29772 h 2.36803 l 0.51594,-3.7438637 -0.0265,-1.8124005 0.0529,-0.013229 0.55562,1.8785465 1.60074,3.6909469 h 2.39448 l 1.30969,-9.3662739 h -2.35479 l -0.59532,4.2465733 0.0265,1.6139625 -0.0529,0.013229 -0.52916,-1.8785465 -1.70657,-3.9952185 h -2.24896 z"
         id="path10236" />
      <path
         d="m 134.56246,4.0878058 0.3175,-2.1695889 h -7.44804 l -0.3175,2.1695889 h 2.52677 L 128.649,11.29772 h 2.39449 l 0.99219,-7.2099142 z"
         id="path10238" />
      <path
         d="m 137.85652,4.167181 h 4.12751 l 0.3175,-2.2357349 h -6.522 l -1.30969,9.3662739 h 6.522 l 0.30427,-2.2357349 h -4.12751 l 0.19844,-1.4022952 h 3.79678 l 0.29104,-2.1034429 h -3.79678 z"
         id="path10240" />
      <path
         d="m 147.38154,11.29772 h 2.95011 l -2.24897,-3.2146957 c 1.28324,-0.6085432 2.01084,-1.1906281 2.2622,-2.9236533 0.25135,-2.1828181 -1.09803,-3.2279249 -3.04272,-3.2279249 h -3.74386 l -1.30969,9.3662739 h 2.39448 l 0.41011,-2.9765701 h 0.42333 z m -2.0373,-5.013867 0.30427,-2.1431304 h 1.38907 c 0.70114,0 0.97896,0.4894804 0.91281,1.058336 -0.0661,0.5423972 -0.47625,1.0847944 -1.21708,1.0847944 z"
         id="path10242" />
      <path
         d="m 154.14165,4.167181 h 4.12751 l 0.3175,-2.2357349 h -6.52199 l -1.30969,9.3662739 h 6.52199 l 0.30427,-2.2357349 h -4.12751 l 0.19844,-1.4022952 h 3.79678 L 157.74,5.556247 h -3.79679 z"
         id="path10244" />
      <path
         d="m 158.22947,9.7366743 c 0.70115,1.1377117 2.10344,1.6933377 3.22792,1.6933377 2.02407,0 3.61158,-0.912815 3.95553,-2.7384445 0.42334,-2.3415685 -1.13771,-2.9368825 -2.77813,-3.2543833 -0.7276,-0.1587504 -1.19063,-0.396876 -1.12448,-0.9392732 0.0529,-0.4762512 0.55563,-0.7011477 1.15094,-0.6879185 0.5424,0.013229 1.15094,0.2116673 1.56105,0.6746893 l 1.71979,-1.1906281 C 165.12188,2.1166549 164.09,1.7991541 162.93906,1.7991541 c -1.71979,0 -3.41313,0.6746892 -3.77032,2.5929233 -0.3175,1.7727128 0.97896,2.9368824 2.46063,3.1882373 0.75407,0.1058336 1.57428,0.3571884 1.46844,0.9392732 -0.0926,0.4894804 -0.64823,0.7143768 -1.28323,0.7143768 -0.70115,0 -1.48167,-0.3042716 -1.89177,-0.8995856 z"
         id="path10246" />
      <path
         d="M 173.9325,4.0878058 174.25,1.9182169 h -7.44804 l -0.3175,2.1695889 h 2.52678 l -0.99219,7.2099142 h 2.39449 l 0.99219,-7.2099142 z"
         id="path10248" />
      <path
         d="M 177.30589,1.9314461 175.9962,11.29772 h 3.50574 c 1.87855,0 3.74387,-0.926044 4.06137,-3.0824037 l 0.44979,-3.1485497 c 0.3175,-2.1695889 -1.32292,-3.1353205 -3.20147,-3.1353205 z m 1.37584,7.1437682 0.70115,-4.9344917 h 1.20386 c 0.64823,0 1.11125,0.4101052 1.0451,0.926044 l -0.44979,3.1485497 c -0.0661,0.5159388 -0.64823,0.859898 -1.29646,0.859898 z"
         id="path10250" />
      <path
         d="m 188.07443,1.9314461 h -2.36802 l -1.30969,9.3662739 h 2.36802 z"
         id="path10252" />
      <path
         d="m 187.94213,9.7366743 c 0.70115,1.1377117 2.10344,1.6933377 3.22793,1.6933377 2.02406,0 3.61157,-0.912815 3.95553,-2.7384445 0.42333,-2.3415685 -1.13772,-2.9368825 -2.77814,-3.2543833 -0.7276,-0.1587504 -1.19062,-0.396876 -1.12448,-0.9392732 0.0529,-0.4762512 0.55563,-0.7011477 1.15094,-0.6879185 0.5424,0.013229 1.15094,0.2116673 1.56105,0.6746893 l 1.71979,-1.1906281 c -0.82021,-1.1773988 -1.85208,-1.4948996 -3.00302,-1.4948996 -1.7198,0 -3.41314,0.6746892 -3.77033,2.5929233 -0.3175,1.7727128 0.97896,2.9368824 2.46063,3.1882373 0.75407,0.1058336 1.57428,0.3571884 1.46845,0.9392732 -0.0926,0.4894804 -0.64823,0.7143768 -1.28324,0.7143768 -0.70114,0 -1.48167,-0.3042716 -1.89177,-0.8995856 z"
         id="path10254" />
      <path
         d="m 200.95964,8.3740667 c -0.3175,0.595314 -0.92605,0.8466688 -1.46844,0.8466688 -0.67469,0 -1.24355,-0.3704176 -1.15094,-0.99219 l 0.44979,-3.2279249 c 0.10583,-0.6217724 0.76729,-1.0186484 1.44198,-1.0186484 0.56886,0 1.11125,0.2248964 1.32292,0.7540644 l 2.0373,-0.7805228 c -0.52917,-1.6536501 -1.82563,-2.1563597 -2.9898,-2.1563597 -1.86532,0 -3.90261,1.0847944 -4.18043,3.2014665 l -0.44979,3.2279249 c -0.27781,2.1299015 1.38907,3.2014665 3.24115,3.2014665 1.1774,0 2.52678,-0.463022 3.67772,-2.1034429 z"
         id="path10256" />
      <path
         d="m 203.45995,11.29772 h 6.19126 l 0.31751,-2.3415685 h -3.81001 l 0.99219,-7.0247054 h -2.38126 z"
         id="path10258" />
      <path
         d="m 210.66985,8.2153163 c -0.3175,2.1563597 1.4949,3.2146957 3.42636,3.2146957 2.05053,0 4.02168,-1.058336 4.33918,-3.2146957 l 0.46302,-3.2014665 c 0.3175,-2.1563597 -1.4949,-3.2146957 -3.43959,-3.2146957 -1.9447,0 -4.00845,1.058336 -4.32595,3.2146957 z m 2.83104,-3.2014665 c 0.10584,-0.7011476 0.93928,-1.058336 1.70657,-1.058336 0.78052,0 1.42876,0.3571884 1.32292,1.058336 l -0.46302,3.1353205 c -0.10583,0.7408352 -0.93927,1.0847944 -1.70657,1.0847944 -0.71437,0 -1.42875,-0.3439592 -1.32292,-1.0186484 z"
         id="path10260" />
      <path
         d="m 218.95132,9.7366743 c 0.70114,1.1377117 2.10344,1.6933377 3.22792,1.6933377 2.02407,0 3.61157,-0.912815 3.95553,-2.7384445 0.42334,-2.3415685 -1.13771,-2.9368825 -2.77813,-3.2543833 -0.72761,-0.1587504 -1.19063,-0.396876 -1.12448,-0.9392732 0.0529,-0.4762512 0.55562,-0.7011477 1.15094,-0.6879185 0.5424,0.013229 1.15094,0.2116673 1.56104,0.6746893 l 1.7198,-1.1906281 c -0.82021,-1.1773988 -1.85209,-1.4948996 -3.00303,-1.4948996 -1.71979,0 -3.41313,0.6746892 -3.77032,2.5929233 -0.3175,1.7727128 0.97896,2.9368824 2.46063,3.1882373 0.75407,0.1058336 1.57428,0.3571884 1.46844,0.9392732 -0.0926,0.4894804 -0.64823,0.7143768 -1.28323,0.7143768 -0.70115,0 -1.48167,-0.3042716 -1.89178,-0.8995856 z"
         id="path10262" />
      <path
         d="m 230.42102,1.9314461 h -2.39448 l -0.87313,6.204495 c -0.3175,2.1960469 1.4023,3.2940709 3.26761,3.2940709 1.87855,0 3.88939,-1.098024 4.20689,-3.2940709 l 0.87313,-6.204495 h -2.39449 l -0.87313,6.204495 c -0.10583,0.7408352 -0.79375,1.124482 -1.4949,1.124482 -0.67469,0 -1.29646,-0.3836468 -1.19062,-1.124482 z"
         id="path10264" />
      <path
         d="m 240.72655,11.29772 h 2.95011 l -2.24897,-3.2146957 c 1.28324,-0.6085432 2.01084,-1.1906281 2.2622,-2.9236533 0.25135,-2.1828181 -1.09803,-3.2279249 -3.04272,-3.2279249 h -3.74386 l -1.30969,9.3662739 h 2.39448 l 0.41011,-2.9765701 h 0.42333 z m -2.0373,-5.013867 0.30427,-2.1431304 h 1.38907 c 0.70114,0 0.97896,0.4894804 0.91281,1.058336 -0.0661,0.5423972 -0.47625,1.0847944 -1.21709,1.0847944 z"
         id="path10266" />
      <path
         d="m 247.48665,4.167181 h 4.12751 l 0.31751,-2.2357349 h -6.522 l -1.30969,9.3662739 h 6.52199 l 0.30428,-2.2357349 h -4.12751 l 0.19843,-1.4022952 h 3.79678 L 251.085,5.556247 h -3.79678 z"
         id="path10268" />
    </g>
  </g>
</svg>
