<?xml version="1.0" encoding="UTF-8" standalone="no"?>
<!-- Created with Inkscape (http://www.inkscape.org/) -->

<svg
   width="1080"
   height="50"
   viewBox="0 0 285.74999 13.229167"
   version="1.1"
   id="svg962"
   inkscape:version="1.1.1 (3bf5ae0d25, 2021-09-20)"
   sodipodi:docname="Jay PM 06 22 campaign culture title (text path).svg"
   xmlns:inkscape="http://www.inkscape.org/namespaces/inkscape"
   xmlns:sodipodi="http://sodipodi.sourceforge.net/DTD/sodipodi-0.dtd"
   xmlns="http://www.w3.org/2000/svg"
   xmlns:svg="http://www.w3.org/2000/svg">
  <sodipodi:namedview
     id="namedview964"
     pagecolor="#505050"
     bordercolor="#ffffff"
     borderopacity="1"
     inkscape:pageshadow="0"
     inkscape:pageopacity="0"
     inkscape:pagecheckerboard="1"
     inkscape:document-units="px"
     showgrid="false"
     units="px"
     showborder="false"
     inkscape:showpageshadow="false"
     borderlayer="true"
     inkscape:zoom="1.0435185"
     inkscape:cx="540.00001"
     inkscape:cy="159.55635"
     inkscape:window-width="1920"
     inkscape:window-height="1017"
     inkscape:window-x="-8"
     inkscape:window-y="-8"
     inkscape:window-maximized="1"
     inkscape:current-layer="layer1" />
  <defs
     id="defs959">
    <style
       type="text/css"
       id="current-color-scheme">
      .ColorScheme-Text {
        color:#4d4d4d;
      }
      </style>
  </defs>
  <g
     inkscape:label="Layer 1"
     inkscape:groupmode="layer"
     id="layer1">
    <rect
       style="fill:#0b60ad;fill-opacity:1;stroke-width:1.38665;stop-color:#000000"
       id="rect1045"
       width="285.75"
       height="13.229167"
       x="-7.0000016e-07"
       y="-1.9135314e-07" />
    <g
       aria-label="CULTURE"
       id="text15664-7-8"
       style="font-style:italic;font-weight:900;font-size:13.2292px;line-height:1.25;font-family:'Uni Sans';-inkscape-font-specification:'Uni Sans Heavy Italic';text-align:center;text-anchor:middle;fill:none;stroke:#ffffff;stroke-width:0.396875">
      <path
         d="m 120.3874,8.3740667 c -0.3175,0.595314 -0.92605,0.8466688 -1.46844,0.8466688 -0.67469,0 -1.24355,-0.3704176 -1.15094,-0.99219 l 0.44979,-3.2279249 c 0.10583,-0.6217724 0.76729,-1.0186484 1.44198,-1.0186484 0.56886,0 1.11126,0.2248964 1.32292,0.7540644 l 2.0373,-0.7805228 c -0.52917,-1.6536501 -1.82563,-2.1563597 -2.9898,-2.1563597 -1.86532,0 -3.90261,1.0847944 -4.18043,3.2014665 l -0.44979,3.2279249 c -0.27781,2.1299015 1.38907,3.2014665 3.24115,3.2014665 1.1774,0 2.52678,-0.463022 3.67772,-2.1034429 z"
         id="path19238" />
      <path
         d="m 126.52574,1.9314461 h -2.39449 l -0.87312,6.204495 c -0.3175,2.1960469 1.40229,3.2940709 3.26761,3.2940709 1.87855,0 3.88938,-1.098024 4.20689,-3.2940709 l 0.87312,-6.204495 h -2.39448 l -0.87313,6.204495 c -0.10583,0.7408352 -0.79375,1.124482 -1.4949,1.124482 -0.67469,0 -1.29646,-0.3836468 -1.19063,-1.124482 z"
         id="path19240" />
      <path
         d="m 131.69834,11.29772 h 6.19126 l 0.3175,-2.3415685 h -3.81001 l 0.99219,-7.0247054 h -2.38125 z"
         id="path19242" />
      <path
         d="m 145.32438,4.0878058 0.3175,-2.1695889 h -7.44804 l -0.3175,2.1695889 h 2.52678 l -0.99219,7.2099142 h 2.39448 l 0.99219,-7.2099142 z"
         id="path19244" />
      <path
         d="m 148.8698,1.9314461 h -2.39449 l -0.87313,6.204495 c -0.3175,2.1960469 1.4023,3.2940709 3.26762,3.2940709 1.87854,0 3.88938,-1.098024 4.20688,-3.2940709 l 0.87313,-6.204495 h -2.39449 l -0.87312,6.204495 c -0.10584,0.7408352 -0.79376,1.124482 -1.4949,1.124482 -0.67469,0 -1.29646,-0.3836468 -1.19063,-1.124482 z"
         id="path19246" />
      <path
         d="m 159.17533,11.29772 h 2.95011 l -2.24897,-3.2146957 c 1.28324,-0.6085432 2.01084,-1.1906281 2.2622,-2.9236533 0.25135,-2.1828181 -1.09803,-3.2279249 -3.04272,-3.2279249 h -3.74386 L 154.0424,11.29772 h 2.39448 l 0.41011,-2.9765701 h 0.42333 z m -2.0373,-5.013867 0.30427,-2.1431304 h 1.38907 c 0.70114,0 0.97896,0.4894804 0.91281,1.058336 -0.0661,0.5423972 -0.47625,1.0847944 -1.21709,1.0847944 z"
         id="path19248" />
      <path
         d="m 165.93544,4.167181 h 4.12751 l 0.3175,-2.2357349 h -6.52199 l -1.30969,9.3662739 h 6.52199 l 0.30427,-2.2357349 h -4.12751 l 0.19844,-1.4022952 h 3.79678 L 169.53378,5.556247 H 165.737 Z"
         id="path19250" />
    </g>
  </g>
</svg>
