<?xml version="1.0" encoding="UTF-8" standalone="no"?>
<!-- Created with Inkscape (http://www.inkscape.org/) -->

<svg
   width="1080"
   height="50"
   viewBox="0 0 285.74999 13.229167"
   version="1.1"
   id="svg962"
   inkscape:version="1.1.1 (3bf5ae0d25, 2021-09-20)"
   sodipodi:docname="Jay PM 06 22 campaign wa title (text path).svg"
   xmlns:inkscape="http://www.inkscape.org/namespaces/inkscape"
   xmlns:sodipodi="http://sodipodi.sourceforge.net/DTD/sodipodi-0.dtd"
   xmlns="http://www.w3.org/2000/svg"
   xmlns:svg="http://www.w3.org/2000/svg">
  <sodipodi:namedview
     id="namedview964"
     pagecolor="#505050"
     bordercolor="#ffffff"
     borderopacity="1"
     inkscape:pageshadow="0"
     inkscape:pageopacity="0"
     inkscape:pagecheckerboard="1"
     inkscape:document-units="px"
     showgrid="false"
     units="px"
     showborder="false"
     inkscape:showpageshadow="false"
     borderlayer="true"
     inkscape:zoom="1.0435185"
     inkscape:cx="540.00001"
     inkscape:cy="159.55635"
     inkscape:window-width="1920"
     inkscape:window-height="1017"
     inkscape:window-x="-8"
     inkscape:window-y="-8"
     inkscape:window-maximized="1"
     inkscape:current-layer="layer1" />
  <defs
     id="defs959">
    <style
       type="text/css"
       id="current-color-scheme">
      .ColorScheme-Text {
        color:#4d4d4d;
      }
      </style>
  </defs>
  <g
     inkscape:label="Layer 1"
     inkscape:groupmode="layer"
     id="layer1">
    <rect
       style="fill:#0b60ad;fill-opacity:1;stroke-width:1.38665;stop-color:#000000"
       id="rect1045"
       width="285.75"
       height="13.229167"
       x="-7.0000016e-07"
       y="-1.9135314e-07" />
    <g
       aria-label="THE WORLD ASSEMBLY"
       id="text15664-7-8"
       style="font-style:italic;font-weight:900;font-size:13.2292px;line-height:1.25;font-family:'Uni Sans';-inkscape-font-specification:'Uni Sans Heavy Italic';text-align:center;text-anchor:middle;fill:none;stroke:#ffffff;stroke-width:0.396875">
      <path
         d="m 81.564431,4.0878058 0.317501,-2.1695889 h -7.44804 l -0.317501,2.1695889 h 2.526777 l -0.99219,7.2099142 h 2.394485 l 0.992191,-7.2099142 z"
         id="path25133" />
      <path
         d="m 84.342554,7.7655235 h 2.698757 L 86.55183,11.29772 h 2.381256 L 90.242777,1.9314461 H 87.861521 L 87.358812,5.4768718 H 84.660055 L 85.162764,1.9314461 H 82.781508 L 81.471817,11.29772 h 2.381257 z"
         id="path25135" />
      <path
         d="m 93.801415,4.167181 h 4.127511 L 98.246427,1.9314461 H 91.724431 L 90.41474,11.29772 h 6.521996 l 0.304271,-2.2357349 h -4.12751 l 0.198438,-1.4022952 h 3.79678 L 97.399758,5.556247 h -3.796781 z"
         id="path25137" />
      <path
         d="m 108.69744,6.4426034 -0.5424,1.9579217 h -0.0397 l -0.0265,-1.9579217 -0.50271,-3.2940709 h -1.79917 l -1.50813,3.2808417 -0.50271,1.9711509 h -0.0529 l 0.0265,-1.9843801 -0.47626,-4.4846989 h -2.46063 l 1.4023,9.3662739 h 2.19605 l 1.09802,-2.6061525 0.66146,-2.1299013 h 0.0397 l 0.0264,2.1431305 0.47626,2.5929233 h 2.19604 l 4.00845,-9.3662739 h -2.4474 z"
         id="path25139" />
      <path
         d="m 112.34865,8.2153163 c -0.3175,2.1563597 1.4949,3.2146957 3.42636,3.2146957 2.05053,0 4.02168,-1.058336 4.33918,-3.2146957 l 0.46302,-3.2014665 c 0.3175,-2.1563597 -1.4949,-3.2146957 -3.43959,-3.2146957 -1.94469,0 -4.00845,1.058336 -4.32595,3.2146957 z m 2.83105,-3.2014665 c 0.10583,-0.7011476 0.93927,-1.058336 1.70656,-1.058336 0.78053,0 1.42876,0.3571884 1.32292,1.058336 l -0.46302,3.1353205 c -0.10583,0.7408352 -0.93927,1.0847944 -1.70657,1.0847944 -0.71437,0 -1.42875,-0.3439592 -1.32292,-1.0186484 z"
         id="path25141" />
      <path
         d="m 126.06732,11.29772 h 2.95011 l -2.24896,-3.2146957 c 1.28323,-0.6085432 2.01084,-1.1906281 2.26219,-2.9236533 0.25136,-2.1828181 -1.09802,-3.2279249 -3.04271,-3.2279249 h -3.74387 l -1.30969,9.3662739 h 2.39449 l 0.4101,-2.9765701 h 0.42334 z m -2.03729,-5.013867 0.30427,-2.1431304 h 1.38906 c 0.70115,0 0.97896,0.4894804 0.91282,1.058336 -0.0661,0.5423972 -0.47625,1.0847944 -1.21709,1.0847944 z"
         id="path25143" />
      <path
         d="m 129.44076,11.29772 h 6.19127 l 0.3175,-2.3415685 h -3.81001 l 0.99219,-7.0247054 h -2.38126 z"
         id="path25145" />
      <path
         d="m 137.8413,1.9314461 -1.30969,9.3662739 h 3.50574 c 1.87854,0 3.74386,-0.926044 4.06136,-3.0824037 l 0.44979,-3.1485497 c 0.3175,-2.1695889 -1.32292,-3.1353205 -3.20146,-3.1353205 z m 1.37583,7.1437682 0.70115,-4.9344917 h 1.20386 c 0.64823,0 1.11125,0.4101052 1.04511,0.926044 l -0.4498,3.1485497 c -0.0661,0.5159388 -0.64823,0.859898 -1.29646,0.859898 z"
         id="path25147" />
      <path
         d="m 152.93575,1.9314461 h -2.15636 l -4.5773,9.3662739 h 2.54 l 0.83344,-1.8785465 h 2.50032 l 0.35719,1.8785465 h 2.54001 z m -2.52678,5.3842845 1.03188,-2.7384444 h 0.0926 l 0.27782,2.7384444 z"
         id="path25149" />
      <path
         d="m 155.11855,9.7366743 c 0.70115,1.1377117 2.10344,1.6933377 3.22793,1.6933377 2.02406,0 3.61157,-0.912815 3.95553,-2.7384445 0.42333,-2.3415685 -1.13771,-2.9368825 -2.77813,-3.2543833 -0.72761,-0.1587504 -1.19063,-0.396876 -1.12449,-0.9392732 0.0529,-0.4762512 0.55563,-0.7011477 1.15094,-0.6879185 0.5424,0.013229 1.15094,0.2116673 1.56105,0.6746893 l 1.7198,-1.1906281 c -0.82021,-1.1773988 -1.85209,-1.4948996 -3.00303,-1.4948996 -1.7198,0 -3.41314,0.6746892 -3.77032,2.5929233 -0.31751,1.7727128 0.97896,2.9368824 2.46063,3.1882373 0.75406,0.1058336 1.57427,0.3571884 1.46844,0.9392732 -0.0926,0.4894804 -0.64823,0.7143768 -1.28323,0.7143768 -0.70115,0 -1.48168,-0.3042716 -1.89178,-0.8995856 z"
         id="path25151" />
      <path
         d="m 162.64594,9.7366743 c 0.70115,1.1377117 2.10344,1.6933377 3.22793,1.6933377 2.02406,0 3.61157,-0.912815 3.95553,-2.7384445 0.42333,-2.3415685 -1.13771,-2.9368825 -2.77813,-3.2543833 -0.72761,-0.1587504 -1.19063,-0.396876 -1.12449,-0.9392732 0.0529,-0.4762512 0.55563,-0.7011477 1.15094,-0.6879185 0.5424,0.013229 1.15094,0.2116673 1.56105,0.6746893 l 1.7198,-1.1906281 c -0.82022,-1.1773988 -1.85209,-1.4948996 -3.00303,-1.4948996 -1.7198,0 -3.41314,0.6746892 -3.77033,2.5929233 -0.3175,1.7727128 0.97897,2.9368824 2.46064,3.1882373 0.75406,0.1058336 1.57427,0.3571884 1.46844,0.9392732 -0.0926,0.4894804 -0.64823,0.7143768 -1.28324,0.7143768 -0.70114,0 -1.48167,-0.3042716 -1.89177,-0.8995856 z"
         id="path25153" />
      <path
         d="m 173.86429,4.167181 h 4.12751 l 0.3175,-2.2357349 h -6.522 l -1.30969,9.3662739 h 6.522 l 0.30427,-2.2357349 h -4.12751 l 0.19843,-1.4022952 h 3.79679 l 0.29104,-2.1034429 h -3.79678 z"
         id="path25155" />
      <path
         d="m 178.25637,11.29772 h 2.36802 l 0.37042,-2.6987569 0.11906,-1.8917757 0.0529,-0.013229 0.80698,3.2146957 h 1.62719 l 1.68011,-3.2146957 0.0661,0.013229 -0.39688,1.8917757 -0.38365,2.6987569 h 2.38126 l 1.30969,-9.3662739 h -2.36803 L 183.257,6.5087494 181.93408,1.9314461 h -2.36802 z"
         id="path25157" />
      <path
         d="m 196.14224,4.7889534 c 0.3175,-1.7859421 -0.87313,-2.8575073 -2.64584,-2.8575073 h -3.7571 l -1.30969,9.3662739 h 3.82324 c 2.07699,0 3.20147,-0.899586 3.66449,-2.4209437 0.21167,-0.7143768 0.23813,-1.9314633 -0.96573,-2.5664649 0.72761,-0.3439592 1.12448,-1.0847944 1.19063,-1.521358 z m -4.53762,0.8069812 0.23813,-1.6668792 h 1.37583 c 1.19063,0 0.92605,1.6668792 -0.23812,1.6668792 z m -0.50271,3.6248009 0.26459,-1.9182341 h 1.37583 c 1.41553,0 1.16417,1.9182341 -0.26458,1.9182341 z"
         id="path25159" />
      <path
         d="m 196.6714,11.29772 h 6.19126 l 0.3175,-2.3415685 h -3.81001 l 0.99219,-7.0247054 h -2.38125 z"
         id="path25161" />
      <path
         d="m 207.04306,11.29772 0.51594,-3.6909469 4.0746,-5.675327 h -2.77814 l -2.16959,3.2940709 -1.21708,-3.2940709 h -2.75168 l 2.47386,5.675327 -0.51593,3.6909469 z"
         id="path25163" />
    </g>
  </g>
</svg>
