<?xml version="1.0" encoding="UTF-8" standalone="no"?>
<!-- Created with Inkscape (http://www.inkscape.org/) -->

<svg
   width="1080"
   height="50"
   viewBox="0 0 285.74999 13.229167"
   version="1.1"
   id="svg962"
   inkscape:version="1.1.1 (3bf5ae0d25, 2021-09-20)"
   sodipodi:docname="Jay PM 06 22 campaign vox title (text path).svg"
   xmlns:inkscape="http://www.inkscape.org/namespaces/inkscape"
   xmlns:sodipodi="http://sodipodi.sourceforge.net/DTD/sodipodi-0.dtd"
   xmlns="http://www.w3.org/2000/svg"
   xmlns:svg="http://www.w3.org/2000/svg">
  <sodipodi:namedview
     id="namedview964"
     pagecolor="#505050"
     bordercolor="#ffffff"
     borderopacity="1"
     inkscape:pageshadow="0"
     inkscape:pageopacity="0"
     inkscape:pagecheckerboard="1"
     inkscape:document-units="px"
     showgrid="false"
     units="px"
     showborder="false"
     inkscape:showpageshadow="false"
     borderlayer="true"
     inkscape:zoom="1.0435185"
     inkscape:cx="540.00001"
     inkscape:cy="159.55635"
     inkscape:window-width="1920"
     inkscape:window-height="1017"
     inkscape:window-x="-8"
     inkscape:window-y="-8"
     inkscape:window-maximized="1"
     inkscape:current-layer="layer1" />
  <defs
     id="defs959">
    <style
       type="text/css"
       id="current-color-scheme">
      .ColorScheme-Text {
        color:#4d4d4d;
      }
      </style>
  </defs>
  <g
     inkscape:label="Layer 1"
     inkscape:groupmode="layer"
     id="layer1">
    <rect
       style="fill:#0b60ad;fill-opacity:1;stroke-width:1.38665;stop-color:#000000"
       id="rect1045"
       width="285.75"
       height="13.229167"
       x="-7.0000016e-07"
       y="-1.9135314e-07" />
    <g
       aria-label="VOX AUSTRALIS"
       id="text15664-7-8"
       style="font-style:italic;font-weight:900;font-size:13.2292px;line-height:1.25;font-family:'Uni Sans';-inkscape-font-specification:'Uni Sans Heavy Italic';text-align:center;text-anchor:middle;fill:none;stroke:#ffffff;stroke-width:0.396875">
      <path
         d="m 99.721441,6.5087494 -0.714377,2.2225057 h -0.02646 L 98.848314,6.4955202 98.014874,1.9182169 h -2.540006 l 2.063755,9.3795031 h 2.169589 l 4.683138,-9.3795031 h -2.54001 z"
         id="path23191" />
      <path
         d="m 103.65051,8.2153163 c -0.3175,2.1563597 1.4949,3.2146957 3.42636,3.2146957 2.05053,0 4.02168,-1.058336 4.33918,-3.2146957 l 0.46302,-3.2014665 c 0.3175,-2.1563597 -1.4949,-3.2146957 -3.43959,-3.2146957 -1.94469,0 -4.00845,1.058336 -4.32595,3.2146957 z m 2.83105,-3.2014665 c 0.10583,-0.7011476 0.93927,-1.058336 1.70656,-1.058336 0.78053,0 1.42876,0.3571884 1.32292,1.058336 l -0.46302,3.1353205 c -0.10583,0.7408352 -0.93927,1.0847944 -1.70656,1.0847944 -0.71438,0 -1.42876,-0.3439592 -1.32292,-1.0186484 z"
         id="path23193" />
      <path
         d="m 116.31082,5.1329126 -1.15094,-3.2014665 h -2.7649 l 1.97115,4.6963661 -3.28084,4.6699078 h 2.7649 l 2.0373,-3.1882373 1.20386,3.1882373 h 2.75167 l -1.97115,-4.6699078 3.28084,-4.6963661 h -2.75167 z"
         id="path23195" />
      <path
         d="m 128.41547,1.9314461 h -2.15636 l -4.5773,9.3662739 h 2.54001 l 0.83343,-1.8785465 h 2.50032 l 0.35719,1.8785465 h 2.54001 z m -2.52678,5.3842845 1.03188,-2.7384444 h 0.0926 l 0.27781,2.7384444 z"
         id="path23197" />
      <path
         d="m 134.39506,1.9314461 h -2.39449 l -0.87312,6.204495 c -0.31751,2.1960469 1.40229,3.2940709 3.26761,3.2940709 1.87854,0 3.88938,-1.098024 4.20688,-3.2940709 l 0.87313,-6.204495 h -2.39448 l -0.87313,6.204495 c -0.10584,0.7408352 -0.79375,1.124482 -1.4949,1.124482 -0.67469,0 -1.29646,-0.3836468 -1.19063,-1.124482 z"
         id="path23199" />
      <path
         d="m 139.26338,9.7366743 c 0.70115,1.1377117 2.10345,1.6933377 3.22793,1.6933377 2.02407,0 3.61157,-0.912815 3.95553,-2.7384445 0.42333,-2.3415685 -1.13771,-2.9368825 -2.77813,-3.2543833 -0.72761,-0.1587504 -1.19063,-0.396876 -1.12449,-0.9392732 0.0529,-0.4762512 0.55563,-0.7011477 1.15095,-0.6879185 0.54239,0.013229 1.15094,0.2116673 1.56104,0.6746893 l 1.7198,-1.1906281 c -0.82021,-1.1773988 -1.85209,-1.4948996 -3.00303,-1.4948996 -1.7198,0 -3.41314,0.6746892 -3.77032,2.5929233 -0.3175,1.7727128 0.97896,2.9368824 2.46063,3.1882373 0.75406,0.1058336 1.57427,0.3571884 1.46844,0.9392732 -0.0926,0.4894804 -0.64823,0.7143768 -1.28323,0.7143768 -0.70115,0 -1.48167,-0.3042716 -1.89178,-0.8995856 z"
         id="path23201" />
      <path
         d="m 154.96642,4.0878058 0.3175,-2.1695889 h -7.44804 l -0.3175,2.1695889 h 2.52678 l -0.99219,7.2099142 h 2.39448 l 0.99219,-7.2099142 z"
         id="path23203" />
      <path
         d="m 160.00674,11.29772 h 2.95011 l -2.24896,-3.2146957 c 1.28323,-0.6085432 2.01084,-1.1906281 2.26219,-2.9236533 0.25136,-2.1828181 -1.09802,-3.2279249 -3.04271,-3.2279249 h -3.74387 l -1.30969,9.3662739 h 2.39449 l 0.4101,-2.9765701 h 0.42334 z m -2.0373,-5.013867 0.30428,-2.1431304 h 1.38906 c 0.70115,0 0.97896,0.4894804 0.91282,1.058336 -0.0662,0.5423972 -0.47626,1.0847944 -1.21709,1.0847944 z"
         id="path23205" />
      <path
         d="m 169.2804,1.9314461 h -2.15636 l -4.5773,9.3662739 h 2.54 l 0.83344,-1.8785465 h 2.50032 l 0.35719,1.8785465 h 2.54001 z m -2.52678,5.3842845 1.03188,-2.7384444 h 0.0926 l 0.27781,2.7384444 z"
         id="path23207" />
      <path
         d="m 171.92624,11.29772 h 6.19127 l 0.3175,-2.3415685 H 174.625 l 0.99219,-7.0247054 h -2.38126 z"
         id="path23209" />
      <path
         d="m 182.6948,1.9314461 h -2.36802 l -1.30969,9.3662739 h 2.36802 z"
         id="path23211" />
      <path
         d="m 182.56249,9.7366743 c 0.70115,1.1377117 2.10345,1.6933377 3.22793,1.6933377 2.02407,0 3.61157,-0.912815 3.95553,-2.7384445 0.42333,-2.3415685 -1.13771,-2.9368825 -2.77813,-3.2543833 -0.72761,-0.1587504 -1.19063,-0.396876 -1.12448,-0.9392732 0.0529,-0.4762512 0.55562,-0.7011477 1.15094,-0.6879185 0.54239,0.013229 1.15094,0.2116673 1.56104,0.6746893 l 1.7198,-1.1906281 c -0.82021,-1.1773988 -1.85209,-1.4948996 -3.00303,-1.4948996 -1.7198,0 -3.41313,0.6746892 -3.77032,2.5929233 -0.3175,1.7727128 0.97896,2.9368824 2.46063,3.1882373 0.75406,0.1058336 1.57427,0.3571884 1.46844,0.9392732 -0.0926,0.4894804 -0.64823,0.7143768 -1.28323,0.7143768 -0.70115,0 -1.48167,-0.3042716 -1.89178,-0.8995856 z"
         id="path23213" />
    </g>
  </g>
</svg>
