<?xml version="1.0" encoding="UTF-8" standalone="no"?>
<!-- Created with Inkscape (http://www.inkscape.org/) -->

<svg
   width="1080"
   height="50"
   viewBox="0 0 285.74999 13.229167"
   version="1.1"
   id="svg962"
   inkscape:version="1.1.1 (3bf5ae0d25, 2021-09-20)"
   sodipodi:docname="Jay PM 06 22 campaign faq title (text path).svg"
   xmlns:inkscape="http://www.inkscape.org/namespaces/inkscape"
   xmlns:sodipodi="http://sodipodi.sourceforge.net/DTD/sodipodi-0.dtd"
   xmlns="http://www.w3.org/2000/svg"
   xmlns:svg="http://www.w3.org/2000/svg">
  <sodipodi:namedview
     id="namedview964"
     pagecolor="#505050"
     bordercolor="#ffffff"
     borderopacity="1"
     inkscape:pageshadow="0"
     inkscape:pageopacity="0"
     inkscape:pagecheckerboard="1"
     inkscape:document-units="px"
     showgrid="false"
     units="px"
     showborder="false"
     inkscape:showpageshadow="false"
     borderlayer="true"
     inkscape:zoom="1.0435185"
     inkscape:cx="540.00001"
     inkscape:cy="159.55635"
     inkscape:window-width="1920"
     inkscape:window-height="1017"
     inkscape:window-x="-8"
     inkscape:window-y="-8"
     inkscape:window-maximized="1"
     inkscape:current-layer="layer1" />
  <defs
     id="defs959">
    <style
       type="text/css"
       id="current-color-scheme">
      .ColorScheme-Text {
        color:#4d4d4d;
      }
      </style>
  </defs>
  <g
     inkscape:label="Layer 1"
     inkscape:groupmode="layer"
     id="layer1">
    <rect
       style="fill:#0b60ad;fill-opacity:1;stroke-width:1.38665;stop-color:#000000"
       id="rect1045"
       width="285.75"
       height="13.229167"
       x="-7.0000016e-07"
       y="-1.9135314e-07" />
    <g
       aria-label="FREQUENTLY ASKED QUESTIONS"
       id="text15664-7-8"
       style="font-style:italic;font-weight:900;font-size:13.2292px;line-height:1.25;font-family:'Uni Sans';-inkscape-font-specification:'Uni Sans Heavy Italic';text-align:center;text-anchor:middle;fill:none;stroke:#ffffff;stroke-width:0.396875">
      <path
         d="m 48.980946,3.9687431 h 4.12751 L 53.425957,1.719779 h -6.521996 l -1.30969,9.366274 h 2.394485 L 48.438549,7.858128 H 52.05012 L 52.354392,5.6488515 H 48.74282 Z"
         id="path13156" />
      <path
         d="m 58.360444,11.086053 h 2.950112 L 59.061592,7.8713572 C 60.344824,7.262814 61.07243,6.6807292 61.323785,4.9477039 61.57514,2.7648859 60.225762,1.719779 58.281069,1.719779 h -3.743864 l -1.30969,9.366274 H 55.622 l 0.410105,-2.9765702 h 0.423334 z M 56.323147,6.072186 56.627419,3.9290555 h 1.389066 c 0.701148,0 0.978961,0.4894804 0.912815,1.058336 -0.06615,0.5423972 -0.476251,1.0847945 -1.217086,1.0847945 z"
         id="path13158" />
      <path
         d="m 65.120562,3.9555139 h 4.12751 L 69.565573,1.719779 h -6.521996 l -1.30969,9.366274 h 6.521995 l 0.304272,-2.235735 h -4.127511 l 0.198438,-1.4022952 h 3.796781 l 0.291042,-2.1034429 h -3.79678 z"
         id="path13160" />
      <path
         d="m 69.711085,8.0036492 c -0.3175,2.1563598 1.4949,3.2146958 3.426363,3.2146958 0.727606,0 1.441983,-0.132292 2.116672,-0.436564 l 0.66146,0.859898 1.468442,-1.243545 -0.621773,-0.7408347 C 77.119438,9.1942772 77.384022,8.65188 77.476626,8.0036492 l 0.463022,-3.2014665 c 0.317501,-2.1563596 -1.4949,-3.2146957 -3.439592,-3.2146957 -1.944692,0 -4.008448,1.0583361 -4.325949,3.2146957 z m 2.831049,-3.2014665 c 0.105834,-0.7143768 0.912815,-1.0715652 1.693338,-1.0715652 0.740835,0 1.441983,0.3571884 1.336149,1.0715652 l -0.436563,2.9368825 -0.555627,-0.66146 -1.468441,1.1377112 0.66146,0.793752 C 72.93901,9.3397984 71.973279,8.850318 72.079112,8.0036492 Z"
         id="path13162" />
      <path
         d="m 81.934861,1.719779 h -2.394485 l -0.873127,6.204495 c -0.317501,2.196047 1.402295,3.294071 3.267612,3.294071 1.878547,0 3.889385,-1.098024 4.206886,-3.294071 l 0.873127,-6.204495 h -2.394485 l -0.873127,6.204495 c -0.105834,0.7408352 -0.793753,1.124482 -1.4949,1.124482 -0.674689,0 -1.296462,-0.3836468 -1.190628,-1.124482 z"
         id="path13164" />
      <path
         d="m 90.494133,3.9555139 h 4.127511 L 94.939145,1.719779 h -6.521996 l -1.309691,9.366274 h 6.521996 l 0.304271,-2.235735 h -4.12751 l 0.198438,-1.4022952 h 3.79678 l 0.291043,-2.1034429 h -3.796781 z"
         id="path13166" />
      <path
         d="m 94.886217,11.086053 h 2.368027 l 0.515939,-3.7438638 -0.02646,-1.8124005 0.05292,-0.013229 0.555626,1.8785465 1.600734,3.690947 h 2.394489 l 1.30969,-9.366274 h -2.3548 l -0.59531,4.2465734 0.0264,1.6139624 -0.0529,0.013229 -0.52917,-1.8785465 -1.706568,-3.9952185 h -2.248964 z"
         id="path13168" />
      <path
         d="m 111.70052,3.8761387 0.3175,-2.1695889 h -7.44804 l -0.3175,2.1695889 h 2.52677 l -0.99219,7.2099143 h 2.39449 l 0.99219,-7.2099143 z"
         id="path13170" />
      <path
         d="m 111.6079,11.086053 h 6.19127 l 0.3175,-2.3415686 h -3.81001 l 0.99219,-7.0247054 h -2.38125 z"
         id="path13172" />
      <path
         d="m 121.97956,11.086053 0.51594,-3.690947 4.0746,-5.675327 h -2.77814 l -2.16959,3.2940709 -1.21708,-3.2940709 h -2.75168 l 2.47386,5.675327 -0.51593,3.690947 z"
         id="path13174" />
      <path
         d="m 133.42276,1.719779 h -2.15636 l -4.5773,9.366274 h 2.54001 l 0.83344,-1.8785466 h 2.50031 l 0.35719,1.8785466 h 2.54001 z m -2.52677,5.3842846 1.03187,-2.7384445 h 0.0926 l 0.27781,2.7384445 z"
         id="path13176" />
      <path
         d="m 135.60557,9.5250073 c 0.70114,1.1377107 2.10344,1.6933377 3.22792,1.6933377 2.02407,0 3.61157,-0.912815 3.95553,-2.7384446 0.42334,-2.3415684 -1.13771,-2.9368825 -2.77813,-3.2543833 -0.72761,-0.1587504 -1.19063,-0.396876 -1.12448,-0.9392732 0.0529,-0.4762512 0.55562,-0.7011476 1.15094,-0.6879184 0.5424,0.013229 1.15094,0.2116672 1.56104,0.6746892 l 1.7198,-1.190628 C 142.49798,1.9049878 141.4661,1.587487 140.31516,1.587487 c -1.71979,0 -3.41313,0.6746893 -3.77032,2.5929233 -0.3175,1.7727129 0.97896,2.9368825 2.46063,3.1882373 0.75406,0.1058336 1.57428,0.3571884 1.46844,0.9392732 -0.0926,0.4894804 -0.64823,0.7143768 -1.28323,0.7143768 -0.70115,0 -1.48167,-0.3042716 -1.89178,-0.8995856 z"
         id="path13178" />
      <path
         d="m 146.6387,5.1858295 0.48948,-3.4660505 h -2.38125 l -1.3097,9.366274 h 2.38126 l 0.44979,-3.2411542 0.0926,-0.1058336 1.95792,3.3469878 h 2.97657 L 148.26589,6.3235408 152.6183,1.719779 h -2.95011 z"
         id="path13180" />
      <path
         d="m 155.26412,3.9555139 h 4.12751 l 0.3175,-2.2357349 h -6.522 l -1.30969,9.366274 h 6.522 l 0.30427,-2.235735 h -4.12751 l 0.19844,-1.4022952 h 3.79678 l 0.29104,-2.1034429 h -3.79678 z"
         id="path13182" />
      <path
         d="m 160.9659,1.719779 -1.30969,9.366274 h 3.50573 c 1.87855,0 3.74387,-0.926044 4.06137,-3.0824038 L 167.6731,4.8550995 C 167.9906,2.6855107 166.35018,1.719779 164.47163,1.719779 Z m 1.37583,7.1437682 0.70115,-4.9344917 h 1.20386 c 0.64823,0 1.11125,0.4101052 1.04511,0.926044 l -0.4498,3.1485497 c -0.0661,0.5159388 -0.64823,0.859898 -1.29646,0.859898 z"
         id="path13184" />
      <path
         d="m 170.68931,8.0036492 c -0.3175,2.1563598 1.4949,3.2146958 3.42636,3.2146958 0.72761,0 1.44198,-0.132292 2.11667,-0.436564 l 0.66146,0.859898 1.46844,-1.243545 -0.62177,-0.7408347 c 0.35719,-0.4630221 0.62177,-1.0054193 0.71438,-1.6536501 l 0.46302,-3.2014665 c 0.3175,-2.1563596 -1.4949,-3.2146957 -3.43959,-3.2146957 -1.94469,0 -4.00845,1.0583361 -4.32595,3.2146957 z m 2.83105,-3.2014665 c 0.10583,-0.7143768 0.91281,-1.0715652 1.69333,-1.0715652 0.74084,0 1.44199,0.3571884 1.33615,1.0715652 l -0.43656,2.9368825 -0.55563,-0.66146 -1.46844,1.1377112 0.66146,0.793752 c -0.83344,0.33073 -1.79917,-0.1587504 -1.69334,-1.0054192 z"
         id="path13186" />
      <path
         d="m 182.91309,1.719779 h -2.39449 l -0.87313,6.204495 c -0.3175,2.196047 1.4023,3.294071 3.26762,3.294071 1.87854,0 3.88938,-1.098024 4.20688,-3.294071 l 0.87313,-6.204495 h -2.39449 l -0.87312,6.204495 c -0.10584,0.7408352 -0.79375,1.124482 -1.4949,1.124482 -0.67469,0 -1.29646,-0.3836468 -1.19063,-1.124482 z"
         id="path13188" />
      <path
         d="m 191.47236,3.9555139 h 4.12751 l 0.3175,-2.2357349 h -6.522 l -1.30969,9.366274 h 6.522 l 0.30427,-2.235735 h -4.12751 l 0.19843,-1.4022952 h 3.79679 l 0.29104,-2.1034429 h -3.79678 z"
         id="path13190" />
      <path
         d="m 195.56017,9.5250073 c 0.70115,1.1377107 2.10344,1.6933377 3.22793,1.6933377 2.02406,0 3.61157,-0.912815 3.95553,-2.7384446 0.42333,-2.3415684 -1.13771,-2.9368825 -2.77814,-3.2543833 -0.7276,-0.1587504 -1.19062,-0.396876 -1.12448,-0.9392732 0.0529,-0.4762512 0.55563,-0.7011476 1.15094,-0.6879184 0.5424,0.013229 1.15094,0.2116672 1.56105,0.6746892 l 1.71979,-1.190628 c -0.82021,-1.1773989 -1.85208,-1.4948997 -3.00302,-1.4948997 -1.7198,0 -3.41314,0.6746893 -3.77033,2.5929233 -0.3175,1.7727129 0.97897,2.9368825 2.46064,3.1882373 0.75406,0.1058336 1.57427,0.3571884 1.46844,0.9392732 -0.0926,0.4894804 -0.64823,0.7143768 -1.28324,0.7143768 -0.70114,0 -1.48167,-0.3042716 -1.89177,-0.8995856 z"
         id="path13192" />
      <path
         d="m 211.26321,3.8761387 0.3175,-2.1695889 h -7.44804 l -0.3175,2.1695889 h 2.52677 l -0.99219,7.2099143 h 2.39449 l 0.99219,-7.2099143 z"
         id="path13194" />
      <path
         d="m 214.84831,1.719779 h -2.36802 l -1.30969,9.366274 h 2.36802 z"
         id="path13196" />
      <path
         d="m 215.21872,8.0036492 c -0.3175,2.1563598 1.4949,3.2146958 3.42636,3.2146958 2.05053,0 4.02168,-1.058336 4.33918,-3.2146958 l 0.46302,-3.2014665 c 0.3175,-2.1563596 -1.4949,-3.2146957 -3.43959,-3.2146957 -1.94469,0 -4.00845,1.0583361 -4.32595,3.2146957 z m 2.83105,-3.2014665 c 0.10583,-0.7011476 0.93927,-1.058336 1.70656,-1.058336 0.78053,0 1.42876,0.3571884 1.32292,1.058336 l -0.46302,3.1353205 c -0.10583,0.7408352 -0.93927,1.0847944 -1.70656,1.0847944 -0.71438,0 -1.42876,-0.3439592 -1.32292,-1.0186484 z"
         id="path13198" />
      <path
         d="m 223.80446,11.086053 h 2.36803 l 0.51594,-3.7438638 -0.0265,-1.8124005 0.0529,-0.013229 0.55563,1.8785465 1.60073,3.690947 h 2.39449 l 1.30969,-9.366274 h -2.3548 l -0.59531,4.2465734 0.0265,1.6139624 -0.0529,0.013229 -0.52917,-1.8785465 -1.70656,-3.9952185 h -2.24897 z"
         id="path13200" />
      <path
         d="m 232.44311,9.5250073 c 0.70114,1.1377107 2.10344,1.6933377 3.22792,1.6933377 2.02407,0 3.61157,-0.912815 3.95553,-2.7384446 0.42334,-2.3415684 -1.13771,-2.9368825 -2.77813,-3.2543833 -0.72761,-0.1587504 -1.19063,-0.396876 -1.12448,-0.9392732 0.0529,-0.4762512 0.55562,-0.7011476 1.15094,-0.6879184 0.54239,0.013229 1.15094,0.2116672 1.56104,0.6746892 l 1.7198,-1.190628 C 239.33552,1.9049878 238.30364,1.587487 237.1527,1.587487 c -1.7198,0 -3.41313,0.6746893 -3.77032,2.5929233 -0.3175,1.7727129 0.97896,2.9368825 2.46063,3.1882373 0.75406,0.1058336 1.57427,0.3571884 1.46844,0.9392732 -0.0926,0.4894804 -0.64823,0.7143768 -1.28323,0.7143768 -0.70115,0 -1.48167,-0.3042716 -1.89178,-0.8995856 z"
         id="path13202" />
    </g>
  </g>
</svg>
