<?xml version="1.0" encoding="UTF-8" standalone="no"?>
<!-- Created with Inkscape (http://www.inkscape.org/) -->

<svg
   width="1080"
   height="50"
   viewBox="0 0 285.74999 13.229167"
   version="1.1"
   id="svg962"
   inkscape:version="1.1.1 (3bf5ae0d25, 2021-09-20)"
   sodipodi:docname="Jay PM 06 22 campaign leadership title (text path).svg"
   xmlns:inkscape="http://www.inkscape.org/namespaces/inkscape"
   xmlns:sodipodi="http://sodipodi.sourceforge.net/DTD/sodipodi-0.dtd"
   xmlns="http://www.w3.org/2000/svg"
   xmlns:svg="http://www.w3.org/2000/svg">
  <sodipodi:namedview
     id="namedview964"
     pagecolor="#505050"
     bordercolor="#ffffff"
     borderopacity="1"
     inkscape:pageshadow="0"
     inkscape:pageopacity="0"
     inkscape:pagecheckerboard="1"
     inkscape:document-units="px"
     showgrid="false"
     units="px"
     showborder="false"
     inkscape:showpageshadow="false"
     borderlayer="true"
     inkscape:zoom="1.0435185"
     inkscape:cx="540.00001"
     inkscape:cy="159.55635"
     inkscape:window-width="1920"
     inkscape:window-height="1017"
     inkscape:window-x="-8"
     inkscape:window-y="-8"
     inkscape:window-maximized="1"
     inkscape:current-layer="layer1" />
  <defs
     id="defs959">
    <style
       type="text/css"
       id="current-color-scheme">
      .ColorScheme-Text {
        color:#4d4d4d;
      }
      </style>
  </defs>
  <g
     inkscape:label="Layer 1"
     inkscape:groupmode="layer"
     id="layer1">
    <rect
       style="fill:#0b60ad;fill-opacity:1;stroke-width:1.38665;stop-color:#000000"
       id="rect1045"
       width="285.75"
       height="13.229167"
       x="-7.0000016e-07"
       y="-1.9135314e-07" />
    <g
       aria-label="LEADERSHIP DURING A GREAT COUNCIL"
       id="text15664-7-8"
       style="font-style:italic;font-weight:900;font-size:13.2292px;line-height:1.25;font-family:'Uni Sans';-inkscape-font-specification:'Uni Sans Heavy Italic';text-align:center;text-anchor:middle;fill:none;stroke:#ffffff;stroke-width:0.396875">
      <path
         d="m 26.656739,11.29772 h 6.191266 l 0.317501,-2.3415685 h -3.81001 l 0.99219,-7.0247054 H 27.96643 Z"
         id="path16087" />
      <path
         d="m 37.134257,4.167181 h 4.12751 L 41.579268,1.9314461 H 35.057272 L 33.747581,11.29772 h 6.521996 l 0.304272,-2.2357349 h -4.127511 l 0.198438,-1.4022952 h 3.796781 L 40.732599,5.556247 h -3.79678 z"
         id="path16089" />
      <path
         d="m 47.426566,1.9314461 h -2.15636 L 40.692903,11.29772 h 2.540006 l 0.83344,-1.8785465 h 2.500319 l 0.357188,1.8785465 h 2.540007 z m -2.526778,5.3842845 1.031878,-2.7384444 h 0.0926 l 0.277814,2.7384444 z"
         id="path16091" />
      <path
         d="M 51.382095,1.9314461 50.072404,11.29772 h 3.505738 c 1.878546,0 3.743864,-0.926044 4.061364,-3.0824037 L 58.089299,5.0667666 C 58.4068,2.8971777 56.766379,1.9314461 54.887833,1.9314461 Z m 1.375837,7.1437682 0.701147,-4.9344917 h 1.203857 c 0.648231,0 1.111253,0.4101052 1.045107,0.926044 L 55.25825,8.2153163 c -0.06615,0.5159388 -0.64823,0.859898 -1.296461,0.859898 z"
         id="path16093" />
      <path
         d="M 61.859599,4.167181 H 65.98711 L 66.304611,1.9314461 H 59.782615 L 58.472924,11.29772 H 64.99492 L 65.299192,9.0619851 H 61.171681 L 61.370119,7.6596899 H 65.1669 L 65.457942,5.556247 h -3.796781 z"
         id="path16095" />
      <path
         d="m 71.384617,11.29772 h 2.950111 L 72.085764,8.0830243 C 73.368997,7.4744811 74.096603,6.8923962 74.347958,5.159371 74.599312,2.9765529 73.249934,1.9314461 71.305242,1.9314461 H 67.561378 L 66.251687,11.29772 h 2.394485 l 0.410105,-2.9765701 h 0.423335 z M 69.34732,6.283853 69.651591,4.1407226 h 1.389067 c 0.701147,0 0.97896,0.4894804 0.912814,1.058336 -0.06615,0.5423972 -0.476251,1.0847944 -1.217086,1.0847944 z"
         id="path16097" />
      <path
         d="m 74.453786,9.7366743 c 0.701148,1.1377117 2.103443,1.6933377 3.227925,1.6933377 2.024067,0 3.611571,-0.912815 3.955531,-2.7384445 C 82.060576,6.349999 80.49953,5.754685 78.85911,5.4371842 78.131504,5.2784338 77.668482,5.0403082 77.734628,4.497911 c 0.05292,-0.4762512 0.555626,-0.7011477 1.15094,-0.6879185 0.542397,0.013229 1.15094,0.2116673 1.561046,0.6746893 L 82.16641,3.2940537 C 81.346199,2.1166549 80.314322,1.7991541 79.163381,1.7991541 c -1.719796,0 -3.413133,0.6746892 -3.770322,2.5929233 -0.317501,1.7727128 0.978961,2.9368824 2.460631,3.1882373 0.754065,0.1058336 1.574275,0.3571884 1.468442,0.9392732 -0.0926,0.4894804 -0.648231,0.7143768 -1.283233,0.7143768 -0.701147,0 -1.48167,-0.3042716 -1.891775,-0.8995856 z"
         id="path16099" />
      <path
         d="m 85.156187,7.7655235 h 2.698757 l -0.48948,3.5321965 h 2.381256 l 1.309691,-9.3662739 h -2.381256 l -0.50271,3.5454257 h -2.698757 l 0.50271,-3.5454257 H 83.595142 L 82.285451,11.29772 h 2.381256 z"
         id="path16101" />
      <path
         d="m 94.906089,1.9314461 h -2.368027 l -1.30969,9.3662739 h 2.368026 z"
         id="path16103" />
      <path
         d="m 95.07805,11.29772 h 2.368026 l 0.383647,-2.7384445 h 1.4949 c 2.275427,0 3.558657,-1.4816705 3.770327,-3.2543833 0.17197,-1.6933377 -0.67469,-3.3734461 -2.96335,-3.3734461 h -3.74386 z m 3.042716,-4.8418874 0.33073,-2.31511 h 1.375837 c 0.687917,0 1.005417,0.4762512 0.912817,1.0980236 -0.0661,0.6482308 -0.50271,1.2170864 -1.243547,1.2170864 z"
         id="path16105" />
      <path
         d="M 106.7197,1.9314461 105.41,11.29772 h 3.50574 c 1.87855,0 3.74387,-0.926044 4.06137,-3.0824037 l 0.44979,-3.1485497 c 0.3175,-2.1695889 -1.32292,-3.1353205 -3.20147,-3.1353205 z m 1.37583,7.1437682 0.70115,-4.9344917 h 1.20386 c 0.64823,0 1.11125,0.4101052 1.0451,0.926044 l -0.44979,3.1485497 c -0.0661,0.5159388 -0.64823,0.859898 -1.29646,0.859898 z"
         id="path16107" />
      <path
         d="m 117.44855,1.9314461 h -2.39448 l -0.87313,6.204495 c -0.3175,2.1960469 1.4023,3.2940709 3.26761,3.2940709 1.87855,0 3.88939,-1.098024 4.20689,-3.2940709 l 0.87313,-6.204495 h -2.39449 l -0.87312,6.204495 c -0.10584,0.7408352 -0.79376,1.124482 -1.4949,1.124482 -0.67469,0 -1.29647,-0.3836468 -1.19063,-1.124482 z"
         id="path16109" />
      <path
         d="m 127.75409,11.29772 h 2.95011 l -2.24897,-3.2146957 c 1.28324,-0.6085432 2.01084,-1.1906281 2.2622,-2.9236533 0.25135,-2.1828181 -1.09803,-3.2279249 -3.04272,-3.2279249 h -3.74386 l -1.30969,9.3662739 h 2.39448 l 0.41011,-2.9765701 h 0.42333 z m -2.0373,-5.013867 0.30427,-2.1431304 h 1.38907 c 0.70114,0 0.97896,0.4894804 0.91281,1.058336 -0.0661,0.5423972 -0.47625,1.0847944 -1.21709,1.0847944 z"
         id="path16111" />
      <path
         d="m 134.80524,1.9314461 h -2.36802 l -1.30969,9.3662739 h 2.36802 z"
         id="path16113" />
      <path
         d="m 134.9772,11.29772 h 2.36803 l 0.51594,-3.7438637 -0.0265,-1.8124005 0.0529,-0.013229 0.55562,1.8785465 1.60074,3.6909469 h 2.39448 l 1.30969,-9.3662739 h -2.35479 l -0.59532,4.2465733 0.0265,1.6139625 -0.0529,0.013229 -0.52916,-1.8785465 -1.70657,-3.9952185 h -2.24896 z"
         id="path16115" />
      <path
         d="m 151.69889,3.7967633 c -0.42333,-1.4948996 -1.77271,-1.9976092 -2.97657,-1.9976092 -1.86532,0 -3.82324,1.0054192 -4.14074,3.1750081 l -0.44979,3.2146957 c -0.3175,2.1563601 1.38906,3.2411541 3.22792,3.2411541 1.87855,0 3.83647,-1.084794 4.15397,-3.2411541 l 0.3175,-2.3283393 h -3.77032 l -0.26458,1.9314633 h 1.4949 l -0.0529,0.396876 c -0.10583,0.7143768 -0.83344,1.0715652 -1.52136,1.0715652 -0.70115,0 -1.30969,-0.3439592 -1.21708,-1.0715652 l 0.44979,-3.2146957 c 0.10583,-0.6746892 0.78052,-1.0715652 1.45521,-1.0715652 0.52917,0 1.03188,0.2381256 1.1774,0.8069812 z"
         id="path16117" />
      <path
         d="m 160.16553,1.9314461 h -2.15636 l -4.5773,9.3662739 h 2.54 l 0.83344,-1.8785465 h 2.50032 l 0.35719,1.8785465 h 2.54001 z m -2.52678,5.3842845 1.03188,-2.7384444 h 0.0926 l 0.27782,2.7384444 z"
         id="path16119" />
      <path
         d="m 172.64062,3.7967633 c -0.42334,-1.4948996 -1.77272,-1.9976092 -2.97657,-1.9976092 -1.86532,0 -3.82324,1.0054192 -4.14074,3.1750081 l -0.44979,3.2146957 c -0.31751,2.1563601 1.38906,3.2411541 3.22792,3.2411541 1.87855,0 3.83647,-1.084794 4.15397,-3.2411541 l 0.3175,-2.3283393 h -3.77032 L 168.738,7.7919819 h 1.4949 l -0.0529,0.396876 c -0.10584,0.7143768 -0.83344,1.0715652 -1.52136,1.0715652 -0.70115,0 -1.30969,-0.3439592 -1.21709,-1.0715652 l 0.44979,-3.2146957 c 0.10584,-0.6746892 0.78053,-1.0715652 1.45522,-1.0715652 0.52916,0 1.03187,0.2381256 1.1774,0.8069812 z"
         id="path16121" />
      <path
         d="m 178.23655,11.29772 h 2.95011 L 178.9377,8.0830243 c 1.28323,-0.6085432 2.01084,-1.1906281 2.26219,-2.9236533 0.25136,-2.1828181 -1.09802,-3.2279249 -3.04271,-3.2279249 h -3.74387 l -1.30969,9.3662739 h 2.39449 l 0.4101,-2.9765701 h 0.42334 z m -2.03729,-5.013867 0.30427,-2.1431304 h 1.38906 c 0.70115,0 0.97896,0.4894804 0.91282,1.058336 -0.0661,0.5423972 -0.47625,1.0847944 -1.21709,1.0847944 z"
         id="path16123" />
      <path
         d="m 184.99668,4.167181 h 4.12751 l 0.3175,-2.2357349 h -6.522 L 181.61,11.29772 h 6.522 l 0.30427,-2.2357349 h -4.12751 l 0.19844,-1.4022952 h 3.79678 l 0.29104,-2.1034429 h -3.79678 z"
         id="path16125" />
      <path
         d="m 195.28899,1.9314461 h -2.15636 l -4.57731,9.3662739 h 2.54001 l 0.83344,-1.8785465 h 2.50032 l 0.35719,1.8785465 h 2.54 z m -2.52678,5.3842845 1.03188,-2.7384444 h 0.0926 l 0.27782,2.7384444 z"
         id="path16127" />
      <path
         d="m 204.76108,4.0878058 0.31751,-2.1695889 h -7.44804 l -0.31751,2.1695889 h 2.52678 l -0.99219,7.2099142 h 2.39449 l 0.99219,-7.2099142 z"
         id="path16129" />
      <path
         d="m 212.01063,8.3740667 c -0.3175,0.595314 -0.92604,0.8466688 -1.46844,0.8466688 -0.67469,0 -1.24355,-0.3704176 -1.15094,-0.99219 l 0.44979,-3.2279249 c 0.10584,-0.6217724 0.7673,-1.0186484 1.44198,-1.0186484 0.56886,0 1.11126,0.2248964 1.32292,0.7540644 l 2.0373,-0.7805228 c -0.52917,-1.6536501 -1.82563,-2.1563597 -2.9898,-2.1563597 -1.86531,0 -3.90261,1.0847944 -4.18042,3.2014665 l -0.4498,3.2279249 c -0.27781,2.1299015 1.38907,3.2014665 3.24116,3.2014665 1.1774,0 2.52677,-0.463022 3.67771,-2.1034429 z"
         id="path16131" />
      <path
         d="m 214.70938,8.2153163 c -0.3175,2.1563597 1.4949,3.2146957 3.42636,3.2146957 2.05053,0 4.02168,-1.058336 4.33918,-3.2146957 l 0.46302,-3.2014665 c 0.3175,-2.1563597 -1.4949,-3.2146957 -3.43959,-3.2146957 -1.94469,0 -4.00845,1.058336 -4.32595,3.2146957 z m 2.83105,-3.2014665 c 0.10583,-0.7011476 0.93927,-1.058336 1.70657,-1.058336 0.78052,0 1.42875,0.3571884 1.32292,1.058336 l -0.46303,3.1353205 c -0.10583,0.7408352 -0.93927,1.0847944 -1.70656,1.0847944 -0.71438,0 -1.42876,-0.3439592 -1.32292,-1.0186484 z"
         id="path16133" />
      <path
         d="m 226.93315,1.9314461 h -2.39448 l -0.87313,6.204495 c -0.3175,2.1960469 1.40229,3.2940709 3.26761,3.2940709 1.87855,0 3.88939,-1.098024 4.20689,-3.2940709 l 0.87312,-6.204495 h -2.39448 l -0.87313,6.204495 c -0.10583,0.7408352 -0.79375,1.124482 -1.4949,1.124482 -0.67469,0 -1.29646,-0.3836468 -1.19063,-1.124482 z"
         id="path16135" />
      <path
         d="m 232.10574,11.29772 h 2.36803 l 0.51594,-3.7438637 -0.0265,-1.8124005 0.0529,-0.013229 0.55562,1.8785465 1.60074,3.6909469 h 2.39448 l 1.30969,-9.3662739 h -2.35479 l -0.59532,4.2465733 0.0265,1.6139625 -0.0529,0.013229 -0.52916,-1.8785465 -1.70657,-3.9952185 h -2.24896 z"
         id="path16137" />
      <path
         d="m 246.23452,8.3740667 c -0.3175,0.595314 -0.92604,0.8466688 -1.46844,0.8466688 -0.67469,0 -1.24354,-0.3704176 -1.15094,-0.99219 l 0.44979,-3.2279249 c 0.10584,-0.6217724 0.7673,-1.0186484 1.44199,-1.0186484 0.56885,0 1.11125,0.2248964 1.32292,0.7540644 l 2.03729,-0.7805228 c -0.52916,-1.6536501 -1.82563,-2.1563597 -2.9898,-2.1563597 -1.86531,0 -3.90261,1.0847944 -4.18042,3.2014665 l -0.4498,3.2279249 c -0.27781,2.1299015 1.38907,3.2014665 3.24116,3.2014665 1.1774,0 2.52678,-0.463022 3.67772,-2.1034429 z"
         id="path16139" />
      <path
         d="m 252.41255,1.9314461 h -2.36803 l -1.30969,9.3662739 h 2.36803 z"
         id="path16141" />
      <path
         d="m 252.5845,11.29772 h 6.19127 l 0.3175,-2.3415685 h -3.81001 l 0.99219,-7.0247054 h -2.38126 z"
         id="path16143" />
    </g>
  </g>
</svg>
