<?xml version="1.0" encoding="UTF-8" standalone="no"?>
<!-- Created with Inkscape (http://www.inkscape.org/) -->

<svg
   width="550"
   height="254"
   viewBox="0 0 145.52083 67.204168"
   version="1.1"
   id="svg5"
   inkscape:version="1.1.1 (3bf5ae0d25, 2021-09-20)"
   sodipodi:docname="NKK logo.svg"
   xmlns:inkscape="http://www.inkscape.org/namespaces/inkscape"
   xmlns:sodipodi="http://sodipodi.sourceforge.net/DTD/sodipodi-0.dtd"
   xmlns="http://www.w3.org/2000/svg"
   xmlns:svg="http://www.w3.org/2000/svg">
  <sodipodi:namedview
     id="namedview7"
     pagecolor="#505050"
     bordercolor="#ffffff"
     borderopacity="1"
     inkscape:pageshadow="0"
     inkscape:pageopacity="0"
     inkscape:pagecheckerboard="1"
     inkscape:document-units="px"
     showgrid="false"
     units="px"
     inkscape:zoom="2.0490909"
     inkscape:cx="275"
     inkscape:cy="127.12955"
     inkscape:window-width="1920"
     inkscape:window-height="1017"
     inkscape:window-x="-8"
     inkscape:window-y="-8"
     inkscape:window-maximized="1"
     inkscape:current-layer="layer1"
     fit-margin-top="0"
     fit-margin-left="0"
     fit-margin-right="0"
     fit-margin-bottom="0" />
  <defs
     id="defs2" />
  <g
     inkscape:label="Layer 1"
     inkscape:groupmode="layer"
     id="layer1"
     transform="translate(-8.0256954,-16.346381)">
    <g
       aria-label="NKK"
       id="text65651"
       style="font-weight:bold;font-size:82.4879px;line-height:1.25;font-family:'Uni Sans';-inkscape-font-specification:'Uni Sans Bold';fill:#0265f0;stroke:#ffffff;stroke-width:1.32292"
       transform="translate(0.45830926,1.7601973)">
      <path
         d="m 46.796567,76.72908 q 0,0.989855 -3.217028,0.989855 -0.577415,0 -7.753863,-8.826205 Q 28.731717,59.984037 24.112395,53.714956 23.452491,52.807589 19.905512,47.69334 14.708774,40.104453 13.471456,38.537183 l -0.164976,6.351568 -0.08249,6.186593 q 0,5.85664 -0.164976,12.703136 -0.08249,6.846496 -0.247464,10.888403 -0.08249,0.989855 -0.907367,1.814734 -0.742391,0.824879 -1.56727,0.824879 -0.9073665,0 -1.319806,-0.494928 -0.3299516,-0.577415 -0.3299516,-2.144685 0,-0.989855 0.3299516,-6.104105 0.7423911,-9.486108 0.7423911,-15.920164 0,-5.11425 0.1649758,-9.651085 0.1649761,-4.619322 0.1649761,-5.691665 l 0.08249,-2.392149 v -0.247464 q 0,-0.907366 0.247463,-1.402294 0.329952,-0.577415 1.237319,-0.577415 h 0.412439 q 0.907367,0 3.54698,3.299516 2.722101,3.217028 6.846496,8.826205 0.907367,1.154831 1.732246,2.309661 0.824879,1.072343 1.56727,2.062198 4.70181,6.021617 4.949274,6.351568 11.713281,14.93031 12.785624,16.992507 -0.164976,-0.659903 -0.577415,-3.052052 -0.41244,-2.392149 -0.824879,-6.26908 -0.329952,-3.876931 -0.329952,-8.001326 0,-7.341424 -1.402294,-19.384657 -0.41244,-3.959419 -0.41244,-4.866786 0,-3.13454 3.54698,-3.13454 0.824879,0 1.237319,1.732246 0.412439,1.649758 0.577415,7.093959 0.164976,5.444201 0.164976,17.404947 0,3.794443 0.247463,7.423911 0.329952,3.629467 0.577416,6.434056 0.412439,3.876931 0.412439,5.856641 z"
         style="font-family:'Ink Free';-inkscape-font-specification:'Ink Free Bold';fill:#3a5fcd;fill-opacity:1"
         id="path126024" />
      <path
         d="m 104.53798,70.130048 q 0,1.072343 -0.49492,1.897222 -0.49493,0.824879 -1.07235,0.824879 -4.041903,0 -17.239967,-5.526689 L 83.50357,66.335605 q -4.70181,-1.97971 -7.341423,-2.969564 -2.557125,-0.989855 -4.949274,-1.649758 0,10.228499 -0.494928,14.352894 -0.907366,3.299516 -2.392149,3.299516 -0.742391,0 -1.402294,-0.412439 -0.577415,-0.41244 -0.577415,-1.072343 0,-1.484782 0.247463,-4.041907 0.494928,-5.279226 0.494928,-9.073669 v -3.464492 q -0.824879,-0.577415 -1.237319,-0.989855 -0.329951,-0.494927 -0.329951,-1.072342 0,-0.742391 0.412439,-1.319807 0.494928,-0.659903 1.072343,-1.15483 0.577415,-0.577416 0.824879,-0.907367 0.08249,-1.732246 0.08249,-6.021617 0,-10.723427 -3.052052,-22.684172 l -0.329952,-1.649758 q 0,-1.154831 0.907367,-1.814734 0.989855,-0.659903 2.227173,-0.659903 0.907367,0 1.814734,3.546979 0.989855,3.54698 1.56727,9.073669 0.577415,5.444202 0.577415,10.970891 v 5.526689 q 1.154831,-1.237318 5.196738,-5.691665 4.041907,-4.454346 7.918838,-8.908693 6.516544,-7.671375 10.063524,-13.692991 0.907367,-1.649758 2.227173,-4.289371 1.237319,-2.557125 1.567271,-2.557125 0.907366,0 0.907366,1.97971 0,2.392149 -0.742391,4.619322 -0.742391,2.144685 -2.144685,4.619322 -2.309661,4.041907 -5.361714,8.001327 -2.969564,3.876931 -7.588886,8.826205 -1.732246,1.814734 -3.052053,3.13454 -1.319806,1.319806 -2.309661,2.392149 -4.289371,4.289371 -6.846495,7.176447 1.072342,0.41244 4.949274,1.814734 3.959419,1.402295 10.228499,3.54698 4.454347,1.56727 7.423911,2.557125 2.969564,0.907367 5.11425,1.649758 0.494927,0.164976 1.154827,0.412439 0.6599,0.164976 1.4023,0.41244 2.80458,0.907367 2.80458,1.979709 z"
         style="font-family:'Ink Free';-inkscape-font-specification:'Ink Free Bold';fill:#ff7f00;fill-opacity:1"
         id="path126026" />
      <path
         d="m 151.96843,70.130048 q 0,1.072343 -0.49493,1.897222 -0.49492,0.824879 -1.07234,0.824879 -4.04191,0 -17.23997,-5.526689 l -2.22717,-0.989855 q -4.70181,-1.97971 -7.34143,-2.969564 -2.55712,-0.989855 -4.94927,-1.649758 0,10.228499 -0.49493,14.352894 -0.90736,3.299516 -2.39215,3.299516 -0.74239,0 -1.40229,-0.412439 -0.57742,-0.41244 -0.57742,-1.072343 0,-1.484782 0.24747,-4.041907 0.49492,-5.279226 0.49492,-9.073669 v -3.464492 q -0.82487,-0.577415 -1.23731,-0.989855 -0.32996,-0.494927 -0.32996,-1.072342 0,-0.742391 0.41244,-1.319807 0.49493,-0.659903 1.07235,-1.15483 0.57741,-0.577416 0.82488,-0.907367 0.0825,-1.732246 0.0825,-6.021617 0,-10.723427 -3.05205,-22.684172 l -0.32995,-1.649758 q 0,-1.154831 0.90737,-1.814734 0.98985,-0.659903 2.22717,-0.659903 0.90737,0 1.81473,3.546979 0.98986,3.54698 1.56727,9.073669 0.57742,5.444202 0.57742,10.970891 v 5.526689 q 1.15483,-1.237318 5.19674,-5.691665 4.0419,-4.454346 7.91884,-8.908693 6.51654,-7.671375 10.06352,-13.692991 0.90737,-1.649758 2.22717,-4.289371 1.23732,-2.557125 1.56727,-2.557125 0.90737,0 0.90737,1.97971 0,2.392149 -0.74239,4.619322 -0.74239,2.144685 -2.14469,4.619322 -2.30966,4.041907 -5.36171,8.001327 -2.96957,3.876931 -7.58889,8.826205 -1.73224,1.814734 -3.05205,3.13454 -1.31981,1.319806 -2.30966,2.392149 -4.28937,4.289371 -6.8465,7.176447 1.07235,0.41244 4.94928,1.814734 3.95942,1.402295 10.2285,3.54698 4.45434,1.56727 7.42391,2.557125 2.96956,0.907367 5.11425,1.649758 0.49492,0.164976 1.15483,0.412439 0.6599,0.164976 1.40229,0.41244 2.80459,0.907367 2.80459,1.979709 z"
         style="font-family:'Ink Free';-inkscape-font-specification:'Ink Free Bold';fill:#032747;fill-opacity:1"
         id="path126028" />
    </g>
  </g>
</svg>
