<?xml version="1.0" encoding="UTF-8" standalone="no"?>
<!-- Created with Inkscape (http://www.inkscape.org/) -->

<svg
   width="600"
   height="240"
   viewBox="0 0 158.74999 63.500001"
   version="1.1"
   id="svg5"
   inkscape:version="1.1.1 (3bf5ae0d25, 2021-09-20)"
   sodipodi:docname="NKK logo.svg"
   xmlns:inkscape="http://www.inkscape.org/namespaces/inkscape"
   xmlns:sodipodi="http://sodipodi.sourceforge.net/DTD/sodipodi-0.dtd"
   xmlns="http://www.w3.org/2000/svg"
   xmlns:svg="http://www.w3.org/2000/svg">
  <sodipodi:namedview
     id="namedview7"
     pagecolor="#505050"
     bordercolor="#ffffff"
     borderopacity="1"
     inkscape:pageshadow="0"
     inkscape:pageopacity="0"
     inkscape:pagecheckerboard="1"
     inkscape:document-units="px"
     showgrid="false"
     units="px"
     inkscape:zoom="1.0245455"
     inkscape:cx="258.16327"
     inkscape:cy="107.85271"
     inkscape:window-width="1920"
     inkscape:window-height="1017"
     inkscape:window-x="-8"
     inkscape:window-y="-8"
     inkscape:window-maximized="1"
     inkscape:current-layer="layer1"
     fit-margin-top="0"
     fit-margin-left="0"
     fit-margin-right="0"
     fit-margin-bottom="0" />
  <defs
     id="defs2" />
  <g
     inkscape:label="Layer 1"
     inkscape:groupmode="layer"
     id="layer1"
     transform="translate(-2.2281065,-18.598662)">
    <g
       aria-label="→"
       id="text134901"
       style="font-weight:bold;font-size:72.9155px;line-height:1.25;font-family:'Uni Sans';-inkscape-font-specification:'Uni Sans Bold';fill:#ff7f00;stroke:#ffffff;stroke-width:2.64583"
       transform="translate(6.4652251,46.270282)">
      <path
         d="m 138.70131,3.5070561 q -4.20118,-3.8095499 -8.47357,-7.7615129 -4.2724,-3.9875662 -8.47358,-8.1531492 -0.28483,-0.320429 -0.42724,-0.640858 -0.10681,-0.356033 0.0712,-0.818876 0.21362,-0.498445 0.74767,-1.174908 0.56966,-0.676462 1.56655,-1.673353 0.92568,-0.925685 1.56654,-1.388528 0.64086,-0.498446 1.1037,-0.640859 0.46284,-0.142413 0.74767,0 0.32043,0.10681 0.60526,0.356033 l 23.42695,23.4269517 q 0.53405,0.534049 0.85448,1.1393046 0.35603,0.6052556 0.35603,1.4597341 0,0.7832719 -0.32043,1.3885275 -0.28483,0.6052556 -0.89008,1.2105111 l -23.42695,23.426952 q -0.28483,0.284826 -0.60526,0.391636 -0.28483,0.10681 -0.74767,-0.0356 -0.46284,-0.142413 -1.1037,-0.640858 -0.64086,-0.462843 -1.56654,-1.388528 -0.99689,-0.996892 -1.56655,-1.673354 -0.53405,-0.676462 -0.74767,-1.139304 -0.17801,-0.498446 -0.0712,-0.818875 0.14241,-0.356033 0.42724,-0.640859 4.20118,-4.201186 8.47358,-8.153149 4.27239,-3.987566 8.47357,-7.797116 H 97.72195 q -0.284827,0 -0.534049,-0.178017 -0.249223,-0.178016 -0.42724,-0.605255 -0.178016,-0.462843 -0.284826,-1.2817179 -0.10681,-0.8188753 -0.10681,-2.0649897 0,-1.2461144 0.10681,-2.0649897 0.10681,-0.8188752 0.284826,-1.2461144 0.178017,-0.4628425 0.42724,-0.6408589 0.249222,-0.1780163 0.534049,-0.1780163 z"
         style="font-family:Calibri;-inkscape-font-specification:'Calibri Bold'"
         id="path139222" />
    </g>
    <g
       aria-label="nkk"
       id="text127499"
       style="font-weight:bold;font-size:70.532px;line-height:1.25;font-family:'Uni Sans';-inkscape-font-specification:'Uni Sans Bold';fill:#3a5fcd;stroke:#ffffff;stroke-width:2.64583"
       transform="translate(6.4652251,46.270282)">
      <path
         d="M 31.963407,26.261702 H 21.11498 V 6.6656534 q 0,-8.1965896 -5.854707,-8.1965896 -2.824035,0 -4.649326,2.1696855 Q 8.7856559,2.8084348 8.7856559,6.1490616 V 26.261702 H -2.097211 V -9.0042973 H 8.7856559 v 5.5791913 h 0.1377578 q 3.8916583,-6.4401776 11.3305793,-6.4401776 11.709414,0 11.709414,14.5334488 z"
         style="font-family:'Segoe UI';-inkscape-font-specification:'Segoe UI Bold'"
         id="path139197" />
      <path
         d="M 75.908149,26.261702 H 62.855597 L 51.593896,8.76646 H 51.456138 V 26.261702 H 40.573272 v -52.21021 H 51.456138 V 7.2855635 h 0.137758 L 62.097929,-9.0042973 H 75.012724 L 62.373445,7.5610792 Z"
         style="font-family:'Segoe UI';-inkscape-font-specification:'Segoe UI Bold'"
         id="path139199" />
      <path
         d="M 115.34132,26.261702 H 102.28877 L 91.027067,8.76646 H 90.889309 V 26.261702 H 80.006442 v -52.21021 H 90.889309 V 7.2855635 h 0.137758 L 101.5311,-9.0042973 h 12.91479 L 101.80662,7.5610792 Z"
         style="font-family:'Segoe UI';-inkscape-font-specification:'Segoe UI Bold'"
         id="path139201" />
    </g>
  </g>
</svg>
