<?xml version="1.0" encoding="UTF-8" standalone="no"?>
<svg
   width="200"
   height="55"
   viewBox="0 0 52.916665 14.552084"
   version="1.1"
   id="svg5"
   xmlns="http://www.w3.org/2000/svg"
   xmlns:svg="http://www.w3.org/2000/svg">
  <defs
     id="defs2" />
  <g
     id="layer1">
    <path
       id="rect843"
       style="fill:#ffffff;fill-opacity:1;stroke-width:0.276597"
       d="M 2.2727233e-8,-2.8125001e-7 H 52.916667 V 14.552084 H 2.2727233e-8 Z" />
    <path
       d="m 20.017394,13.229167 h 10.27681 l -1.65881,-2.844786 h -1.50381 l 0.83096,1.511622 h -5.58619 l 0.80768,-1.511622 h -1.55335 z m 0.003,-3.024684 h 3.28966 l 0.75063,-1.3220753 h -1.71976 l 2.80188,-4.850084 0.86884,1.44455 0.77922,-1.343766 -1.64806,-2.810191 z m 2.6201,-1.4981403 h 1.52466 l 0.97765,-1.657115 0.98494,1.657115 h 1.51876 l -2.5037,-4.312541 z m 0.0442,3.0154463 h 4.98791 l -0.74807,-1.337408 h -1.9516 l 0.94941,-1.6780383 -0.77955,-1.316092 z m 2.58902,-1.517306 h 4.97378 l -2.49111,-4.3495823 -0.77916,1.312165 0.95917,1.715342 h -1.91958 z m 0.8476,-4.5189533 0.75318,1.301582 0.88189,-1.472673 2.809,4.8699423 h -1.69436 l 0.77417,1.337408 h 3.25408 l -5.14289,-8.8932923 z"
       id="path3114"
       style="stroke-width:0.0186984;fill:#daa638;fill-opacity:1" />
    <g
       id="g2937"
       style="fill:#000000;fill-opacity:0.3502304">
      <path
         id="rect1083"
         style="fill-opacity:0.3502304;stroke-width:0.198004;fill:#000000"
         d="M -4.4638898e-7,0 H 52.916667 V 0.58208334 H -4.4638898e-7 Z" />
      <path
         id="rect1083-3"
         style="fill-opacity:0.3502304;stroke-width:0.198004;fill:#000000"
         d="M -4.4638898e-7,1.1641666 H 52.916666 V 1.7462499 H -4.4638898e-7 Z" />
      <path
         id="rect1083-2"
         style="fill-opacity:0.3502304;stroke-width:0.198004;fill:#000000"
         d="M -4.4638898e-7,2.3283332 H 52.916667 V 2.9104165 H -4.4638898e-7 Z" />
      <path
         id="rect1083-7"
         style="fill-opacity:0.3502304;stroke-width:0.198004;fill:#000000"
         d="M -4.4638898e-7,3.4924998 H 52.916667 V 4.0745831 H -4.4638898e-7 Z" />
      <path
         id="rect1083-6"
         style="fill-opacity:0.3502304;stroke-width:0.198004;fill:#000000"
         d="M -4.4638898e-7,4.6566664 H 52.916667 V 5.2387497 H -4.4638898e-7 Z" />
      <path
         id="rect1083-45"
         style="fill-opacity:0.3502304;stroke-width:0.198004;fill:#000000"
         d="M -4.4638898e-7,5.820833 H 52.916667 V 6.4029163 H -4.4638898e-7 Z" />
      <path
         id="rect1083-78"
         style="fill-opacity:0.3502304;stroke-width:0.198004;fill:#000000"
         d="M -4.4638898e-7,6.9849996 H 52.916667 V 7.5670829 H -4.4638898e-7 Z" />
      <path
         id="rect1083-25"
         style="fill-opacity:0.3502304;stroke-width:0.198004;fill:#000000"
         d="M -4.4638898e-7,8.1491662 H 52.916667 v 0.582083 H -4.4638898e-7 Z" />
      <path
         id="rect1083-9"
         style="fill-opacity:0.3502304;stroke-width:0.198004;fill:#000000"
         d="M -4.4638898e-7,9.3133322 H 52.916667 v 0.582083 H -4.4638898e-7 Z" />
      <path
         id="rect1083-22"
         style="fill-opacity:0.3502304;stroke-width:0.198004;fill:#000000"
         d="M -4.4638898e-7,10.477498 H 52.916667 v 0.582083 H -4.4638898e-7 Z" />
      <path
         id="rect1083-33"
         style="fill-opacity:0.3502304;stroke-width:0.198004;fill:#000000"
         d="M -4.4638898e-7,11.641664 H 52.916667 v 0.582083 H -4.4638898e-7 Z" />
      <path
         id="rect1083-1"
         style="fill-opacity:0.3502304;stroke-width:0.198004;fill:#000000"
         d="M -4.4638898e-7,12.80583 H 52.916667 v 0.582083 H -4.4638898e-7 Z" />
      <path
         id="rect1083-95"
         style="fill-opacity:0.3502304;stroke-width:0.198004;fill:#000000"
         d="M -4.4638898e-7,13.969996 H 52.916667 v 0.582083 H -4.4638898e-7 Z" />
    </g>
  </g>
</svg>
