<?xml version="1.0" encoding="utf-8"?>
<svg viewBox="0 0 1414.4 446.2" xmlns="http://www.w3.org/2000/svg">
  <g id="pill" transform="matrix(1, 0, 0, 1, 1910.454224, 209.20816)">
    <path style="fill:#FFFFFF;" d="M-719.1442871,236.9771118h-968.2199707 c-122.6967773,0-223.085083-100.3882751-223.085083-223.0850525v-0.0004454 c0-122.6967773,100.3883057-223.0850525,223.085083-223.0850525h968.2199707 c122.6967773,0,223.0850525,100.3882751,223.0850525,223.0850525v0.0004463 C-496.0592346,136.5888367-596.4475098,236.9771118-719.1442871,236.9771118z"/>
    <g>
      <g>
        <path style="fill:#1A1A1A;" d="M-1421.3862305,90.2642212h-24.1142578V-39.4291382h5.7871094l9.5585938,11.3115253 c2.1621094-2.0449219,4.5292969-3.9746113,7.1025391-5.7871113c2.5722656-1.8115234,5.2460938-3.3759766,8.0234375-4.6914063 c2.7763672-1.3154297,5.65625-2.3525391,8.6376953-3.1132813c2.9814453-0.7587891,5.9921875-1.1396484,9.0322266-1.1396484 c6.6054688,0,12.8164063,1.1835938,18.6337891,3.5517578c5.8164063,2.3671875,10.9023438,5.7148438,15.2587891,10.040041 c4.3544922,4.3271484,7.7890625,9.5449219,10.3037109,15.6533194c2.5126953,6.1083989,3.7705078,12.8759766,3.7705078,20.2998047 c0,7.7167964-1.2578125,14.6591797-3.7705078,20.8261719c-2.5146484,6.1689434-5.9492188,11.3994122-10.3037109,15.6962872 c-4.3564453,4.296875-9.4423828,7.5859375-15.2587891,9.8652344c-5.8173828,2.2802734-12.0283203,3.4199219-18.6337891,3.4199219 c-2.1044922,0-4.1953125-0.234375-6.2695313-0.7011719c-2.0761719-0.46875-4.1220703-1.0966797-6.1386719-1.8857422 s-4.0048828-1.6796875-5.9628906-2.6738281c-1.9589844-0.9941406-3.8447266-2.0175781-5.65625-3.0693359V90.2642212z M-1373.4194336,6.6958632c0-3.9746096-0.6289063-7.5419922-1.8857422-10.6982422 c-1.2578125-3.1572266-2.9677734-5.8320317-5.1298828-8.0234375c-2.1630859-2.1923828-4.7060547-3.8720703-7.6289063-5.0419912 c-2.9238281-1.1689453-6.0214844-1.7539063-9.2949219-1.7539063c-3.2744141,0-6.3574219,0.5849609-9.2509766,1.7539063 c-2.8945313,1.1699209-5.4238281,2.8496084-7.5859375,5.0419912c-2.1630859,2.1914063-3.8730469,4.8662114-5.1298828,8.0234375 c-1.2578125,3.1562498-1.8847656,6.7236328-1.8847656,10.6982422c0,3.8007808,0.6269531,7.2783198,1.8847656,10.4345703 c1.2568359,3.1572266,2.9667969,5.8466797,5.1298828,8.0683594c2.1621094,2.2216797,4.6914063,3.9453125,7.5859375,5.1728516 c2.8935547,1.2285156,5.9765625,1.841795,9.2509766,1.841795c3.2734375,0,6.3710938-0.6132793,9.2949219-1.841795 c2.9228516-1.2275391,5.4658203-2.9511719,7.6289063-5.1728516c2.1621094-2.2216797,3.8720703-4.9111328,5.1298828-8.0683594 C-1374.0483398,13.9741831-1373.4194336,10.496644-1373.4194336,6.6958632z"/>
        <path style="fill:#1A1A1A;" d="M-1245.2163086,54.4868774h-5.7880859l-9.2949219-12.890625 c-2.2792969,2.046875-4.6914063,3.9609375-7.234375,5.7441406s-5.2177734,3.3320313-8.0234375,4.6474609 c-2.8066406,1.3154297-5.6865234,2.3535156-8.6376953,3.1132813c-2.9521484,0.7587891-5.9492188,1.1396484-8.9882813,1.1396484 c-6.6064453,0-12.8173828-1.1113281-18.6337891-3.3320313c-5.8183594-2.2216797-10.9042969-5.4511719-15.2587891-9.6904297 c-4.3554688-4.2373047-7.7900391-9.4267578-10.3027344-15.5644512 c-2.5146484-6.1386719-3.7714844-13.1240244-3.7714844-20.9580078c0-7.3076172,1.2568359-14.015625,3.7714844-20.125 c2.5126953-6.1083975,5.9472656-11.3554678,10.3027344-15.7402334 c4.3544922-4.3847675,9.4404297-7.7890644,15.2587891-10.2158222c5.8164063-2.4257813,12.0273438-3.6396484,18.6337891-3.6396484 c3.0390625,0,6.0507813,0.3808594,9.0322266,1.140625s5.875,1.8125,8.6816406,3.15625 c2.8056641,1.3457031,5.4804688,2.9238281,8.0234375,4.7353516c2.5429688,1.8125,4.9238281,3.7705097,7.1464844,5.8750019 l9.2949219-11.1357441h5.7880859V54.4868774z M-1269.331543,6.6958632c0-3.2734377-0.6289063-6.4453125-1.8847656-9.5146484 c-1.2578125-3.0693357-2.9677734-5.7871094-5.1298828-8.1552734c-2.1640625-2.3671875-4.6914063-4.2666016-7.5849609-5.6992178 c-2.8945313-1.4316406-5.9785156-2.1484375-9.2519531-2.1484375c-3.2744141,0-6.3574219,0.5556641-9.2509766,1.6660156 c-2.8935547,1.1113281-5.4082031,2.7480459-7.5419922,4.9101553c-2.1347656,2.1640625-3.8144531,4.8378911-5.0419922,8.0234375 c-1.2275391,3.1875-1.8408203,6.8261719-1.8408203,10.9179688c0,4.092773,0.6132813,7.7314448,1.8408203,10.9169922 c1.2275391,3.1875,2.9072266,5.8613281,5.0419922,8.0234375c2.1337891,2.1640625,4.6484375,3.8017578,7.5419922,4.9111328 c2.8935547,1.1113281,5.9765625,1.6660137,9.2509766,1.6660137c3.2734375,0,6.3574219-0.7148418,9.2519531-2.1484356 c2.8935547-1.4316406,5.4208984-3.3320313,7.5849609-5.7001953c2.1621094-2.3671875,3.8720703-5.0859375,5.1298828-8.1542969 C-1269.9604492,13.1411753-1269.331543,9.9702768-1269.331543,6.6958632z"/>
        <path style="fill:#1A1A1A;" d="M-1144.8979492-20.7514019l-17.5380859,17.6259766 c-0.8769531-2.4550779-2.0761719-4.6611328-3.5957031-6.6210938c-1.5205078-1.9570313-3.2304688-3.6083984-5.1298828-4.9541016 c-1.9003906-1.343749-3.9609375-2.3671865-6.1816406-3.069335c-2.2226563-0.7011719-4.5029297-1.0517578-6.8398438-1.0517578 c-3.2753906,0-6.3583984,0.6728516-9.2519531,2.0166016c-2.8935547,1.3457022-5.4082031,3.2304678-7.5410156,5.656249 c-2.1347656,2.4257813-3.8144531,5.304688-5.0419922,8.6367188c-1.2275391,3.3330078-1.8417969,7.015625-1.8417969,11.0488281 c0,3.2753906,0.6142578,6.3447266,1.8417969,9.2080088c1.2275391,2.8652344,2.9072266,5.3789063,5.0419922,7.5410156 c2.1328125,2.1640625,4.6474609,3.8583984,7.5410156,5.0859375c2.8935547,1.2285156,5.9765625,1.841795,9.2519531,1.841795 c2.3369141,0,4.5878906-0.3203106,6.7519531-0.9648418c2.1621094-0.6425781,4.1933594-1.5634766,6.0947266-2.7617188 c1.8984375-1.1972656,3.5947266-2.6591797,5.0859375-4.3847656c1.4902344-1.7236328,2.703125-3.6386719,3.6386719-5.7431641 l17.5380859,17.6249981c-2.2226563,3.1572266-4.7792969,5.9931641-7.6728516,8.5058594 c-2.8935547,2.5146484-6.0214844,4.6484375-9.3828125,6.4013672c-3.3623047,1.7539063-6.8984375,3.0849609-10.6103516,3.9902344 c-3.7128906,0.9052734-7.5283203,1.359375-11.4433594,1.359375c-6.6074219,0-12.8183594-1.2431641-18.6347656-3.7265625 c-5.8173828-2.484375-10.9033203-5.8896484-15.2578125-10.2158203 c-4.3554688-4.3261719-7.7910156-9.3837891-10.3037109-15.1708965 c-2.5146484-5.7871094-3.7705078-11.9833994-3.7705078-18.5908203c0-7.1904292,1.2558594-13.9121094,3.7705078-20.1679688 c2.5126953-6.2548819,5.9482422-11.7070303,10.3037109-16.3544922 c4.3544922-4.6474628,9.4404297-8.3154316,15.2578125-11.0048847c5.8164063-2.6884766,12.0273438-4.0341797,18.6347656-4.0341797 c3.9150391,0,7.7597656,0.4980469,11.53125,1.4912109c3.7705078,0.9941406,7.3652344,2.4414063,10.7851563,4.3408203 c3.4199219,1.9003906,6.5771484,4.2236328,9.4707031,6.970705 C-1149.5024414-27.4730816-1147.0024414-24.315855-1144.8979492-20.7514019z"/>
        <path style="fill:#1A1A1A;" d="M-1104.9985352-64.9467163c0,2.2216797-0.4248047,4.296875-1.2714844,6.2255859 c-0.8486328,1.9296875-2.0039063,3.6103516-3.4638672,5.0419922c-1.4619141,1.4335938-3.171875,2.5732422-5.1298828,3.4199219 c-1.9599609,0.8486328-4.0488281,1.2714844-6.2705078,1.2714844s-4.3115234-0.4228516-6.2695313-1.2714844 c-1.9589844-0.8466797-3.6542969-1.9863281-5.0859375-3.4199219c-1.4335938-1.4316406-2.5732422-3.1123047-3.4199219-5.0419922 c-0.8486328-1.9287109-1.2714844-4.0039063-1.2714844-6.2255859c0-2.1621094,0.4228516-4.2236328,1.2714844-6.1826172 c0.8466797-1.9580078,1.9863281-3.6523438,3.4199219-5.0859375c1.4316406-1.4316406,3.1269531-2.5722656,5.0859375-3.4199219 c1.9580078-0.8466797,4.0478516-1.2714844,6.2695313-1.2714844s4.3105469,0.4248047,6.2705078,1.2714844 c1.9580078,0.8476563,3.6679688,1.9882813,5.1298828,3.4199219c1.4599609,1.4335938,2.6152344,3.1279297,3.4638672,5.0859375 C-1105.4233398-69.1703491-1104.9985352-67.1088257-1104.9985352-64.9467163z M-1109.1206055,54.4868774h-24.1142578v-93.9160156 h24.1142578V54.4868774z"/>
        <path style="fill:#1A1A1A;" d="M-1060.4536133,54.4868774h-23.9394531v-70.0644531h-11.6621094v-23.8515625h11.6621094 v-4.4726563c0-5.7871094,1.0966797-11.2236328,3.2890625-16.3095703 c2.1923828-5.0869141,5.2021484-9.5146484,9.0322266-13.2851563c3.828125-3.7714844,8.2861328-6.7529297,13.3720703-8.9443359 c5.0859375-2.1923828,10.5234375-3.2890625,16.3105469-3.2890625h17.9765625v23.8515625h-17.9765625 c-2.5732422,0-4.9541016,0.4541016-7.1464844,1.359375c-2.1923828,0.9072266-4.0927734,2.1640625-5.7001953,3.7705078 c-1.6083984,1.609375-2.8798828,3.5078125-3.8144531,5.7001953c-0.9355469,2.1923828-1.4033203,4.5751953-1.4033203,7.1464844 v4.4726563h29.3769531v23.8515625h-29.3769531V54.4868774z"/>
        <path style="fill:#1A1A1A;" d="M-988.1078491-64.9467163c0,2.2216797-0.4248047,4.296875-1.2714844,6.2255859 c-0.8486328,1.9296875-2.0039063,3.6103516-3.4638672,5.0419922c-1.4619141,1.4335938-3.171875,2.5732422-5.1298828,3.4199219 c-1.9599609,0.8486328-4.0488281,1.2714844-6.2705078,1.2714844s-4.3115234-0.4228516-6.2695313-1.2714844 c-1.9589844-0.8466797-3.6542969-1.9863281-5.0859375-3.4199219c-1.4335938-1.4316406-2.5732422-3.1123047-3.4199219-5.0419922 c-0.8486328-1.9287109-1.2714844-4.0039063-1.2714844-6.2255859c0-2.1621094,0.4228516-4.2236328,1.2714844-6.1826172 c0.8466797-1.9580078,1.9863281-3.6523438,3.4199219-5.0859375c1.4316406-1.4316406,3.1269531-2.5722656,5.0859375-3.4199219 c1.9580078-0.8466797,4.0478516-1.2714844,6.2695313-1.2714844s4.3105469,0.4248047,6.2705078,1.2714844 c1.9580078,0.8476563,3.6679688,1.9882813,5.1298828,3.4199219c1.4599609,1.4335938,2.6152344,3.1279297,3.4638672,5.0859375 C-988.5326538-69.1703491-988.1078491-67.1088257-988.1078491-64.9467163z M-992.2299194,54.4868774h-24.1142578v-93.9160156 h24.1142578V54.4868774z"/>
        <path style="fill:#1A1A1A;" d="M-891.9115601-20.7514019L-909.449646-3.1254261 c-0.8769531-2.4550779-2.0761719-4.6611328-3.5957031-6.6210938c-1.5205078-1.9570313-3.2304688-3.6083984-5.1298828-4.9541016 c-1.9003906-1.343749-3.9609375-2.3671865-6.1816406-3.069335c-2.2226563-0.7011719-4.5029297-1.0517578-6.8398438-1.0517578 c-3.2753906,0-6.3583984,0.6728516-9.2519531,2.0166016c-2.8935547,1.3457022-5.4082031,3.2304678-7.5410156,5.656249 c-2.1347656,2.4257813-3.8144531,5.304688-5.0419922,8.6367188c-1.2275391,3.3330078-1.8417969,7.015625-1.8417969,11.0488281 c0,3.2753906,0.6142578,6.3447266,1.8417969,9.2080088c1.2275391,2.8652344,2.9072266,5.3789063,5.0419922,7.5410156 c2.1328125,2.1640625,4.6474609,3.8583984,7.5410156,5.0859375c2.8935547,1.2285156,5.9765625,1.841795,9.2519531,1.841795 c2.3369141,0,4.5878906-0.3203106,6.7519531-0.9648418c2.1621094-0.6425781,4.1933594-1.5634766,6.0947266-2.7617188 c1.8984375-1.1972656,3.5947266-2.6591797,5.0859375-4.3847656c1.4902344-1.7236328,2.703125-3.6386719,3.6386719-5.7431641 l17.5380859,17.6249981c-2.2226563,3.1572266-4.7792969,5.9931641-7.6728516,8.5058594 c-2.8935547,2.5146484-6.0214844,4.6484375-9.3828125,6.4013672c-3.3623047,1.7539063-6.8984375,3.0849609-10.6103516,3.9902344 c-3.7128906,0.9052734-7.5283203,1.359375-11.4433594,1.359375c-6.6074219,0-12.8183594-1.2431641-18.6347656-3.7265625 c-5.8173828-2.484375-10.9033203-5.8896484-15.2578125-10.2158203 c-4.3554688-4.3261719-7.7910156-9.3837891-10.3037109-15.1708965 c-2.5146484-5.7871094-3.7705078-11.9833994-3.7705078-18.5908203c0-7.1904292,1.2558594-13.9121094,3.7705078-20.1679688 c2.5126953-6.2548819,5.9482422-11.7070303,10.3037109-16.3544922 c4.3544922-4.6474628,9.4404297-8.3154316,15.2578125-11.0048847c5.8164063-2.6884766,12.0273438-4.0341797,18.6347656-4.0341797 c3.9150391,0,7.7597656,0.4980469,11.53125,1.4912109c3.7705078,0.9941406,7.3652344,2.4414063,10.7851563,4.3408203 c3.4199219,1.9003906,6.5771484,4.2236328,9.4707031,6.970705 C-896.5160522-27.4730816-894.0160522-24.315855-891.9115601-20.7514019z"/>
        <path style="fill:#1A1A1A;" d="M-850.7846069,8.5425425c0,2.1044922-0.3808594,4.0771484-1.140625,5.9189453 s-1.8125,3.4335947-3.15625,4.7792978c-1.3457031,1.34375-2.9238281,2.4111328-4.7353516,3.2001953 c-1.8125,0.7900391-3.7705078,1.1845703-5.875,1.1845703c-2.0478516,0-3.9902344-0.3945313-5.8320313-1.1845703 c-1.8408203-0.7890625-3.4501953-1.8564453-4.8222656-3.2001953c-1.375-1.3457031-2.4560547-2.9375-3.2451172-4.7792978 s-1.1835938-3.8144531-1.1835938-5.9189453c0-2.045898,0.3945313-3.9746089,1.1835938-5.7880859 c0.7890625-1.8105469,1.8701172-3.3896484,3.2451172-4.734375c1.3720703-1.3447267,2.9814453-2.4121094,4.8222656-3.2011719 c1.8417969-0.7890625,3.7841797-1.1835938,5.8320313-1.1835938c2.1044922,0,4.0625,0.3945313,5.875,1.1835938 c1.8115234,0.7890625,3.3896484,1.8564451,4.7353516,3.2011719c1.34375,1.3447266,2.3964844,2.9238281,3.15625,4.734375 C-851.1654663,4.5679336-850.7846069,6.4966445-850.7846069,8.5425425z"/>
        <path style="fill:#1A1A1A;" d="M-750.9057007-20.7514019l-17.5380859,17.6259766 c-0.8769531-2.4550779-2.0761719-4.6611328-3.5957031-6.6210938c-1.5205078-1.9570313-3.2304688-3.6083984-5.1298828-4.9541016 c-1.9003906-1.343749-3.9609375-2.3671865-6.1816406-3.069335c-2.2226563-0.7011719-4.5029297-1.0517578-6.8398438-1.0517578 c-3.2753906,0-6.3583984,0.6728516-9.2519531,2.0166016c-2.8935547,1.3457022-5.4082031,3.2304678-7.5410156,5.656249 c-2.1347656,2.4257813-3.8144531,5.304688-5.0419922,8.6367188c-1.2275391,3.3330078-1.8417969,7.015625-1.8417969,11.0488281 c0,3.2753906,0.6142578,6.3447266,1.8417969,9.2080088c1.2275391,2.8652344,2.9072266,5.3789063,5.0419922,7.5410156 c2.1328125,2.1640625,4.6474609,3.8583984,7.5410156,5.0859375c2.8935547,1.2285156,5.9765625,1.841795,9.2519531,1.841795 c2.3369141,0,4.5878906-0.3203106,6.7519531-0.9648418c2.1621094-0.6425781,4.1933594-1.5634766,6.0947266-2.7617188 c1.8984375-1.1972656,3.5947266-2.6591797,5.0859375-4.3847656c1.4902344-1.7236328,2.703125-3.6386719,3.6386719-5.7431641 l17.5380859,17.6249981c-2.2226563,3.1572266-4.7792969,5.9931641-7.6728516,8.5058594 c-2.8935547,2.5146484-6.0214844,4.6484375-9.3828125,6.4013672c-3.3623047,1.7539063-6.8984375,3.0849609-10.6103516,3.9902344 c-3.7128906,0.9052734-7.5283203,1.359375-11.4433594,1.359375c-6.6074219,0-12.8183594-1.2431641-18.6347656-3.7265625 c-5.8173828-2.484375-10.9033203-5.8896484-15.2578125-10.2158203 c-4.3554688-4.3261719-7.7910156-9.3837891-10.3037109-15.1708965 c-2.5146484-5.7871094-3.7705078-11.9833994-3.7705078-18.5908203c0-7.1904292,1.2558594-13.9121094,3.7705078-20.1679688 c2.5126953-6.2548819,5.9482422-11.7070303,10.3037109-16.3544922 c4.3544922-4.6474628,9.4404297-8.3154316,15.2578125-11.0048847c5.8164063-2.6884766,12.0273438-4.0341797,18.6347656-4.0341797 c3.9150391,0,7.7597656,0.4980469,11.53125,1.4912109c3.7705078,0.9941406,7.3652344,2.4414063,10.7851563,4.3408203 c3.4199219,1.9003906,6.5771484,4.2236328,9.4707031,6.970705 C-755.5101929-27.4730816-753.0101929-24.315855-750.9057007-20.7514019z"/>
        <path style="fill:#1A1A1A;" d="M-649.887146,6.6958632c0,7.014648-1.2578125,13.5478516-3.7705078,19.5986328 c-2.5136719,6.0507793-5.9335938,11.2832012-10.2597656,15.6962872 c-4.3271484,4.4150391-9.3974609,7.8925781-15.2138672,10.4355469 c-5.8183594,2.5429688-12.0576172,3.8144531-18.7216797,3.8144531c-6.6074219,0-12.8183594-1.2714844-18.6347656-3.8144531 c-5.8173828-2.5429688-10.9033203-6.0205078-15.2578125-10.4355469 c-4.3554688-4.4130859-7.7910156-9.6455078-10.3037109-15.6962872 c-2.5146484-6.0507813-3.7705078-12.5839853-3.7705078-19.5986328c0-7.1318359,1.2558594-13.7373047,3.7705078-19.8183594 c2.5126953-6.0791006,5.9482422-11.3251944,10.3037109-15.7402334c4.3544922-4.4130878,9.4404297-7.876955,15.2578125-10.3906269 c5.8164063-2.5136719,12.0273438-3.7714844,18.6347656-3.7714844c6.6640625,0,12.9033203,1.1845703,18.7216797,3.5517578 c5.8164063,2.3681641,10.8867188,5.7304688,15.2138672,10.0839863 c4.3261719,4.3564453,7.7460938,9.5888672,10.2597656,15.6972647 C-651.1449585-7.5824571-649.887146-0.7865588-649.887146,6.6958632z M-674.0014038,6.6958632 c0-3.8583987-0.6289063-7.3515625-1.8857422-10.4794922c-1.2578125-3.1259763-2.9677734-5.8164063-5.1298828-8.0673828 c-2.1630859-2.2490234-4.6914063-3.9746094-7.5849609-5.1728506s-5.9785156-1.7978516-9.2509766-1.7978516 c-3.2753906,0-6.3583984,0.5996094-9.2519531,1.7978516s-5.4082031,2.9238272-7.5410156,5.1728506 c-2.1347656,2.2509766-3.8144531,4.9414067-5.0419922,8.0673828c-1.2275391,3.1279297-1.8417969,6.6210938-1.8417969,10.4794922 c0,3.6249995,0.6142578,6.9863276,1.8417969,10.0839844c1.2275391,3.0996094,2.9072266,5.7880859,5.0419922,8.0673828 c2.1328125,2.2802734,4.6474609,4.078125,7.5410156,5.3935547s5.9765625,1.9726543,9.2519531,1.9726543 c3.2724609,0,6.3574219-0.6132793,9.2509766-1.841795c2.8935547-1.2275391,5.421875-2.9511719,7.5849609-5.1728516 c2.1621094-2.2216797,3.8720703-4.9111328,5.1298828-8.0683594 C-674.6303101,13.9741831-674.0014038,10.496644-674.0014038,6.6958632z"/>
        <path style="fill:#1A1A1A;" d="M-612.7055054,54.4868774h-23.9394531v-93.9160156h5.7871094l7.8925781,9.1201191 c3.8583984-3.5078144,8.2275391-6.2109394,13.109375-8.11133c4.8808594-1.8994141,9.9814453-2.8505859,15.3017578-2.8505859 c5.7285156,0,11.1367188,1.0966797,16.2226563,3.2890625c5.0859375,2.1914063,9.5283203,5.203125,13.3291016,9.0312519 c3.7998047,3.8300781,6.7958984,8.3017578,8.9882813,13.4169912c2.1923828,5.1162109,3.2880859,10.5664063,3.2880859,16.3544922 v53.6660156h-23.9394531V0.8208631c0-2.4560547-0.4677734-4.7792969-1.4023438-6.9716797 c-0.9365234-2.1923833-2.2226563-4.1064458-3.8583984-5.7431645c-1.6376953-1.6367188-3.5380859-2.9228516-5.7001953-3.8583984 c-2.1630859-0.9345694-4.4726563-1.4033194-6.9277344-1.4033194c-2.5136719,0-4.8818359,0.46875-7.1025391,1.4033194 c-2.2226563,0.9355469-4.1513672,2.2216797-5.7880859,3.8583984s-2.9238281,3.5507813-3.8583984,5.7431645 c-0.9355469,2.1923826-1.4023438,4.515625-1.4023438,6.9716797V54.4868774z"/>
      </g>
      <g>
        <path style="fill:#0D6129;" d="M-1553.4229736-38.918129c-24.1105957-12.139782-48.9104004-15.2615738-73.7174072-9.2795982 c-7.4649658,2.1260986-14.4510498,5.5297813-20.7668457,10.1185532 c-9.7539063,7.0865822-17.2080078,16.5146675-21.6105957,27.1642914 c-0.9732666,2.3541937,0.8671875,4.9356837,3.4108887,4.7980018c14.2008057-0.7686348,28.7371826,2.3395813,42.6087646,9.2875757 c26.784668,13.4157104,47.4968262,39.6348457,54.0717773,68.4375229 c6.7628174,28.3592377,5.3306885,57.645752-3.8398438,85.9461975c-1.0710449,3.3052368,2.8393555,5.9721985,5.5388184,3.7848206 c29.0250244-23.5189972,49.7532959-54.1183853,60.90625-88.0493698 c14.2832031-43.4544296-5.2269287-91.0921936-45.9685059-111.8869171 C-1553.0006104-38.7047157-1553.2116699-38.8117409-1553.4229736-38.918129z"/>
        <path style="fill:#00247C;" d="M-1696.0063477-129.8942871c-18.9962158,19.1790771-29.6287842,41.8004074-31.6053467,67.2418518 c-0.28479,7.7565651,0.793457,15.4524879,3.2059326,22.8772774c3.725708,11.4663334,10.388916,21.4689884,19.1567383,28.9471169 c1.9382324,1.6531067,4.9621582,0.700407,5.6173096-1.7613573c3.6572266-13.743227,11.1052246-26.6076584,21.9997559-37.6533203 c21.0360107-21.3280449,52.3723145-32.9242592,81.7971191-30.2769737 c29.0610352,2.3317184,56.4715576,12.7438202,80.5531006,30.2107506c2.8125,2.0399857,6.557251-0.8548584,5.3111572-4.0981407 c-13.3986816-34.8722076-36.0950928-64.0416336-64.9189453-85.1339951 c-36.9138184-27.0123749-88.2490234-23.1779938-120.6157227,9.1436615 C-1695.6728516-130.230072-1695.8398438-130.0623627-1696.0063477-129.8942871z"/>
        <path style="fill:#2A2B2E;" d="M-1826.5904541-22.4026375c12.3702393,23.993103,30.5987549,41.0956421,54.1842041,50.8373413 c7.2889404,2.6677246,14.9414063,4.0203857,22.748291,4.0203857c12.0563965,0,23.628418-3.2460976,33.4500732-9.2739697 c2.1711426-1.3325253,2.1994629-4.5028362,0.0606689-5.8866177 c-11.9404297-7.7251453-21.8736572-18.7840118-29.012085-32.5585899 c-13.7836914-26.597168-15.1289063-59.9831505-3.5184326-87.1497192 c11.197998-26.9185333,29.5712891-49.7702789,53.6253662-67.2756653c2.80896-2.04422,1.2131348-6.4998322-2.2561035-6.3169403 c-37.3062744,1.966568-72.0621338,14.5383148-101.029541,35.4337311 c-37.09729,26.7598648-49.3139648,76.7674103-28.5761719,117.5380173 C-1826.8067627-22.8235798-1826.6989746-22.6129036-1826.5904541-22.4026375z"/>
        <path style="fill:#CC0000;" d="M-1764.7126465,135.0070038c26.6414795-4.3505249,48.539917-16.4018936,65.0930176-35.8226395 c4.7896729-6.1078186,8.4407959-12.9677505,10.8532715-20.39254c3.7255859-11.4663239,4.2143555-23.4751701,1.5166016-34.67873 c-0.5964355-2.4766655-3.6027832-3.4833183-5.579834-1.8767624 c-11.0367432,8.9688148-24.6239014,14.9984779-39.9302979,17.5309753 c-29.5546875,4.8900948-61.7224121-4.1473694-83.9715576-23.5845146 c-22.140625-18.9683189-38.1962891-43.50383-47.4117432-71.7901306 c-1.0761719-3.3031883-5.8067627-3.1623497-6.7049561,0.1936226c-9.657959,36.088131-8.4416504,73.0277328,2.4796143,107.0344086 c13.9864502,43.5508804,57.7713623,70.6228638,102.954834,63.4988251 C-1765.1798096,135.0826416-1764.9460449,135.0451355-1764.7126465,135.0070038z"/>
        <path style="fill:#019AED;" d="M-1595.8858643,124.7998657c4.0950928-26.6818695-0.5994873-51.2325668-13.9544678-72.976944 c-4.3288574-6.4425659-9.7247314-12.0348969-16.0406494-16.6236687 c-9.7537842-7.0865784-21.0238037-11.2623539-32.5126953-12.1586628 c-2.5397949-0.1981373-4.4261475,2.3500271-3.5091553,4.7267151c5.1192627,13.2681751,6.6551514,28.0535793,4.3337402,43.3933258 c-4.4821777,29.6194077-23.0177002,57.4199371-48.3787842,72.5736847 c-24.8818359,15.1954651-53.1779785,22.8834229-82.9276123,22.9069214 c-3.473999,0.0027466-4.8018799,4.5453949-1.8876953,6.436615 c31.3372803,20.3371124,66.8448486,30.5953064,102.5620117,30.7171631 c45.741333,0.1560669,85.0185547-33.1200714,92.2056885-78.2935791 C-1595.958252,125.2675552-1595.9217529,125.033699-1595.8858643,124.7998657z"/>
      </g>
    </g>
  </g>
</svg>