<?xml version="1.0" encoding="UTF-8" standalone="no"?>
<!-- Created with Inkscape (http://www.inkscape.org/) -->

<svg
   xmlns:bx="https://boxy-svg.com"
   xmlns:dc="http://purl.org/dc/elements/1.1/"
   xmlns:cc="http://creativecommons.org/ns#"
   xmlns:rdf="http://www.w3.org/1999/02/22-rdf-syntax-ns#"
   xmlns:svg="http://www.w3.org/2000/svg"
   xmlns="http://www.w3.org/2000/svg"
   xmlns:sodipodi="http://sodipodi.sourceforge.net/DTD/sodipodi-0.dtd"
   xmlns:inkscape="http://www.inkscape.org/namespaces/inkscape"
   width="550"
   height="550"
   viewBox="0 0 145.52083 145.52084"
   version="1.1"
   id="svg8"
   inkscape:version="0.92.1 r15371"
   sodipodi:docname="SIEGE logo.svg">
  <defs
     id="defs2" />
  <sodipodi:namedview
     id="base"
     pagecolor="#ffffff"
     bordercolor="#666666"
     borderopacity="1.0"
     inkscape:pageopacity="0.0"
     inkscape:pageshadow="2"
     inkscape:zoom="1.3046154"
     inkscape:cx="274.99998"
     inkscape:cy="274.99994"
     inkscape:document-units="px"
     inkscape:current-layer="layer1"
     showgrid="false"
     units="px"
     showborder="true"
     inkscape:showpageshadow="false"
     borderlayer="false"
     inkscape:window-width="1920"
     inkscape:window-height="1017"
     inkscape:window-x="-8"
     inkscape:window-y="-8"
     inkscape:window-maximized="1"
     fit-margin-top="0"
     fit-margin-left="0"
     fit-margin-right="0"
     fit-margin-bottom="0" />
  <metadata
     id="metadata5">
    <rdf:RDF>
      <cc:Work
         rdf:about="">
        <dc:format>image/svg+xml</dc:format>
        <dc:type
           rdf:resource="http://purl.org/dc/dcmitype/StillImage" />
        <dc:title></dc:title>
      </cc:Work>
    </rdf:RDF>
  </metadata>
  <g
     inkscape:label="Layer 1"
     inkscape:groupmode="layer"
     id="layer1"
     transform="translate(-59.718361,-157.90664)">
    <circle
       style="opacity:1;vector-effect:none;fill:#1f1f1f;fill-opacity:1;stroke:none;stroke-width:2.94580984;stroke-linecap:butt;stroke-linejoin:miter;stroke-miterlimit:4;stroke-dasharray:none;stroke-dashoffset:0;stroke-opacity:1"
       id="path6462"
       cx="132.47878"
       cy="230.66705"
       r="72.760414" />
    <circle
       style="opacity:1;vector-effect:none;fill:#1f1f1f;fill-opacity:1;stroke:none;stroke-width:3.51476002;stroke-linecap:butt;stroke-linejoin:miter;stroke-miterlimit:4;stroke-dasharray:none;stroke-dashoffset:0;stroke-opacity:1"
       id="path6327"
       cx="-132.47878"
       cy="-230.74869"
       r="66.145836"
       transform="scale(-1)" />
    <g
       id="g6340"
       transform="translate(-14.36498,-0.18710662)"
       style="fill:#ffffff;fill-opacity:1">
      <rect
         y="211.67188"
         x="85.328125"
         height="6.6145835"
         width="26.458334"
         id="rect4485"
         style="opacity:1;vector-effect:none;fill:#ffffff;fill-opacity:1;stroke:none;stroke-width:1.14898813;stroke-linecap:butt;stroke-linejoin:miter;stroke-miterlimit:4;stroke-dasharray:none;stroke-dashoffset:0;stroke-opacity:1" />
      <rect
         y="219.60938"
         x="85.328125"
         height="6.6145835"
         width="6.6145835"
         id="rect4485-2"
         style="opacity:1;vector-effect:none;fill:#ffffff;fill-opacity:1;stroke:none;stroke-width:0.57449406;stroke-linecap:butt;stroke-linejoin:miter;stroke-miterlimit:4;stroke-dasharray:none;stroke-dashoffset:0;stroke-opacity:1" />
      <rect
         y="227.54688"
         x="85.328125"
         height="6.6145835"
         width="26.458334"
         id="rect4485-3"
         style="opacity:1;vector-effect:none;fill:#ffffff;fill-opacity:1;stroke:none;stroke-width:1.14898813;stroke-linecap:butt;stroke-linejoin:miter;stroke-miterlimit:4;stroke-dasharray:none;stroke-dashoffset:0;stroke-opacity:1" />
      <rect
         y="235.48438"
         x="105.17188"
         height="6.6145835"
         width="6.6145835"
         id="rect4485-2-2"
         style="opacity:1;vector-effect:none;fill:#ffffff;fill-opacity:1;stroke:none;stroke-width:0.57449406;stroke-linecap:butt;stroke-linejoin:miter;stroke-miterlimit:4;stroke-dasharray:none;stroke-dashoffset:0;stroke-opacity:1" />
      <rect
         y="243.42188"
         x="85.328125"
         height="6.6145835"
         width="26.458334"
         id="rect4485-9"
         style="opacity:1;vector-effect:none;fill:#ffffff;fill-opacity:1;stroke:none;stroke-width:1.14898813;stroke-linecap:butt;stroke-linejoin:miter;stroke-miterlimit:4;stroke-dasharray:none;stroke-dashoffset:0;stroke-opacity:1" />
      <rect
         y="211.67188"
         x="114.43229"
         height="38.364582"
         width="6.6145835"
         id="rect4485-2-23-5"
         style="opacity:1;vector-effect:none;fill:#ffffff;fill-opacity:1;stroke:none;stroke-width:1.38356483;stroke-linecap:butt;stroke-linejoin:miter;stroke-miterlimit:4;stroke-dasharray:none;stroke-dashoffset:0;stroke-opacity:1" />
      <rect
         y="211.67188"
         x="123.69271"
         height="6.6145835"
         width="26.458334"
         id="rect4485-8-59"
         style="opacity:1;vector-effect:none;fill:#ffffff;fill-opacity:1;stroke:none;stroke-width:1.14898813;stroke-linecap:butt;stroke-linejoin:miter;stroke-miterlimit:4;stroke-dasharray:none;stroke-dashoffset:0;stroke-opacity:1" />
      <rect
         y="219.60928"
         x="123.69271"
         height="6.6145835"
         width="6.6145835"
         id="rect4485-2-7"
         style="opacity:1;vector-effect:none;fill:#ffffff;fill-opacity:1;stroke:none;stroke-width:0.57449406;stroke-linecap:butt;stroke-linejoin:miter;stroke-miterlimit:4;stroke-dasharray:none;stroke-dashoffset:0;stroke-opacity:1" />
      <rect
         y="227.54678"
         x="123.69271"
         height="6.6145835"
         width="26.458334"
         id="rect4485-3-5"
         style="opacity:1;vector-effect:none;fill:#ffffff;fill-opacity:1;stroke:none;stroke-width:1.14898813;stroke-linecap:butt;stroke-linejoin:miter;stroke-miterlimit:4;stroke-dasharray:none;stroke-dashoffset:0;stroke-opacity:1" />
      <rect
         y="235.48428"
         x="123.69271"
         height="6.6145835"
         width="6.6145835"
         id="rect4485-2-8"
         style="opacity:1;vector-effect:none;fill:#ffffff;fill-opacity:1;stroke:none;stroke-width:0.57449406;stroke-linecap:butt;stroke-linejoin:miter;stroke-miterlimit:4;stroke-dasharray:none;stroke-dashoffset:0;stroke-opacity:1" />
      <rect
         y="243.42188"
         x="123.69271"
         height="6.6145835"
         width="26.458334"
         id="rect4485-3-5-7"
         style="opacity:1;vector-effect:none;fill:#ffffff;fill-opacity:1;stroke:none;stroke-width:1.14898813;stroke-linecap:butt;stroke-linejoin:miter;stroke-miterlimit:4;stroke-dasharray:none;stroke-dashoffset:0;stroke-opacity:1" />
      <rect
         y="211.67186"
         x="152.79688"
         height="6.6145835"
         width="26.458334"
         id="rect4485-8-5-1"
         style="opacity:1;vector-effect:none;fill:#ffffff;fill-opacity:1;stroke:none;stroke-width:1.14898813;stroke-linecap:butt;stroke-linejoin:miter;stroke-miterlimit:4;stroke-dasharray:none;stroke-dashoffset:0;stroke-opacity:1" />
      <rect
         y="219.3447"
         x="152.79688"
         height="22.489584"
         width="6.6145835"
         id="rect4485-2-23-1-5"
         style="opacity:1;vector-effect:none;fill:#ffffff;fill-opacity:1;stroke:none;stroke-width:1.05931473;stroke-linecap:butt;stroke-linejoin:miter;stroke-miterlimit:4;stroke-dasharray:none;stroke-dashoffset:0;stroke-opacity:1" />
      <rect
         y="243.42188"
         x="152.79688"
         height="6.6145835"
         width="26.458334"
         id="rect4485-8-5-2-2"
         style="opacity:1;vector-effect:none;fill:#ffffff;fill-opacity:1;stroke:none;stroke-width:1.14898813;stroke-linecap:butt;stroke-linejoin:miter;stroke-miterlimit:4;stroke-dasharray:none;stroke-dashoffset:0;stroke-opacity:1" />
      <rect
         y="235.21968"
         x="172.64062"
         height="6.6145835"
         width="6.6145835"
         id="rect4485-2-2-5"
         style="opacity:1;vector-effect:none;fill:#ffffff;fill-opacity:1;stroke:none;stroke-width:0.574494;stroke-linecap:butt;stroke-linejoin:miter;stroke-miterlimit:4;stroke-dasharray:none;stroke-dashoffset:0;stroke-opacity:1" />
      <rect
         y="227.28229"
         x="166.02603"
         height="6.6145835"
         width="13.229167"
         id="rect4485-2-2-0"
         style="opacity:1;vector-effect:none;fill:#ffffff;fill-opacity:1;stroke:none;stroke-width:0.81245726;stroke-linecap:butt;stroke-linejoin:miter;stroke-miterlimit:4;stroke-dasharray:none;stroke-dashoffset:0;stroke-opacity:1" />
      <rect
         y="211.67186"
         x="181.90105"
         height="6.6145835"
         width="26.458334"
         id="rect4485-8-59-0"
         style="opacity:1;vector-effect:none;fill:#ffffff;fill-opacity:1;stroke:none;stroke-width:1.14898813;stroke-linecap:butt;stroke-linejoin:miter;stroke-miterlimit:4;stroke-dasharray:none;stroke-dashoffset:0;stroke-opacity:1" />
      <rect
         y="219.60927"
         x="181.90105"
         height="6.6145835"
         width="6.6145835"
         id="rect4485-2-7-6"
         style="opacity:1;vector-effect:none;fill:#ffffff;fill-opacity:1;stroke:none;stroke-width:0.57449406;stroke-linecap:butt;stroke-linejoin:miter;stroke-miterlimit:4;stroke-dasharray:none;stroke-dashoffset:0;stroke-opacity:1" />
      <rect
         y="227.54677"
         x="181.90105"
         height="6.6145835"
         width="26.458334"
         id="rect4485-3-5-8"
         style="opacity:1;vector-effect:none;fill:#ffffff;fill-opacity:1;stroke:none;stroke-width:1.14898813;stroke-linecap:butt;stroke-linejoin:miter;stroke-miterlimit:4;stroke-dasharray:none;stroke-dashoffset:0;stroke-opacity:1" />
      <rect
         y="235.48427"
         x="181.90105"
         height="6.6145835"
         width="6.6145835"
         id="rect4485-2-8-3"
         style="opacity:1;vector-effect:none;fill:#ffffff;fill-opacity:1;stroke:none;stroke-width:0.57449406;stroke-linecap:butt;stroke-linejoin:miter;stroke-miterlimit:4;stroke-dasharray:none;stroke-dashoffset:0;stroke-opacity:1" />
      <rect
         y="243.42186"
         x="181.90105"
         height="6.6145835"
         width="26.458334"
         id="rect4485-3-5-7-7"
         style="opacity:1;vector-effect:none;fill:#ffffff;fill-opacity:1;stroke:none;stroke-width:1.14898813;stroke-linecap:butt;stroke-linejoin:miter;stroke-miterlimit:4;stroke-dasharray:none;stroke-dashoffset:0;stroke-opacity:1" />
    </g>
    <g
       aria-label="THE VALKYRIAN REPUBLIC"
       style="font-style:normal;font-variant:normal;font-weight:normal;font-stretch:normal;font-size:7.05555534px;line-height:1.25;font-family:'Adobe Heiti Std';-inkscape-font-specification:'Adobe Heiti Std';text-align:start;letter-spacing:0px;word-spacing:0px;text-anchor:start;fill:#ffffff;fill-opacity:1;stroke:none;stroke-width:0.26458332"
       id="text6466"
       transform="rotate(-53.7358,140.45499,238.66867)">
      <path
         d="m 77.042291,234.47509 -0.105805,-3.73089 -0.698219,0.0198 0.0412,1.45286 -4.697112,0.13321 0.0232,0.81811 4.697112,-0.13321 0.0414,1.45992 z"
         style="fill:#ffffff;fill-opacity:1;stroke-width:0.26458332"
         id="path6471"
         inkscape:connector-curvature="0" />
      <path
         d="m 77.423316,238.54891 -0.07687,-0.81482 -2.219699,0.20941 -0.206763,-2.1916 2.219699,-0.20941 -0.07687,-0.81483 -5.380662,0.50763 0.07687,0.81483 2.444479,-0.23063 0.206763,2.19161 -2.444479,0.23062 0.07687,0.81482 z"
         style="fill:#ffffff;fill-opacity:1;stroke-width:0.26458332"
         id="path6473"
         inkscape:connector-curvature="0" />
      <path
         d="m 73.348835,242.96419 -0.338421,-2.09658 1.769211,-0.28558 0.301318,1.86673 0.668678,-0.10794 -0.301318,-1.86672 1.539353,-0.24848 0.319307,1.97817 0.675644,-0.10906 -0.44973,-2.78616 -5.328528,0.86011 0.468843,2.90457 z"
         style="fill:#ffffff;fill-opacity:1;stroke-width:0.26458332"
         id="path6475"
         inkscape:connector-curvature="0" />
      <path
         d="m 79.103713,246.94819 -2.649099,-0.12049 c -0.693084,-0.0369 -1.403261,-0.055 -2.056914,-0.0218 l -0.0052,-0.0205 c 0.596922,-0.2881 1.19722,-0.62069 1.812894,-0.97897 l 2.289986,-1.30973 -0.218217,-0.86907 -4.843209,2.90378 0.221653,0.88276 5.661123,0.38264 z"
         style="fill:#ffffff;fill-opacity:1;stroke-width:0.26458332"
         id="path6477"
         inkscape:connector-curvature="0" />
      <path
         d="m 80.091068,250.15496 -0.310173,-0.95267 -5.643455,0.10111 0.259934,0.79837 1.653672,-0.0487 0.51113,1.56989 -1.358789,0.95439 0.266487,0.81849 z m -3.40361,-0.17552 1.481736,-0.0298 c 0.343716,-0.0154 0.745627,-0.0573 1.084974,-0.0861 l 0.0044,0.0134 c -0.291291,0.17646 -0.625177,0.38163 -0.930042,0.58477 l -1.210726,0.8394 z"
         style="fill:#ffffff;fill-opacity:1;stroke-width:0.26458332"
         id="path6479"
         inkscape:connector-curvature="0" />
      <path
         d="m 77.46134,256.52526 -0.767842,-1.93458 4.374117,-1.73611 -0.301931,-0.76071 -5.016791,1.99118 1.069773,2.6953 z"
         style="fill:#ffffff;fill-opacity:1;stroke-width:0.26458332"
         id="path6481"
         inkscape:connector-curvature="0" />
      <path
         d="m 80.691824,257.79378 2.833882,0.62918 -0.421634,-0.90106 -2.340097,-0.43959 c -0.22637,-0.0343 -0.462121,-0.072 -0.707663,-0.0973 l -0.009,-0.0192 2.294201,-1.07352 -0.343886,-0.73491 -4.888756,2.28759 0.343886,0.73491 1.795739,-0.84028 0.702623,0.16977 -1.673035,2.4343 0.403692,0.86272 z"
         style="fill:#ffffff;fill-opacity:1;stroke-width:0.26458332"
         id="path6483"
         inkscape:connector-curvature="0" />
      <path
         d="m 84.960026,261.02357 -1.539823,0.11204 c -0.437441,0.0387 -0.830978,0.0694 -1.210947,0.12483 l -0.0068,-0.0124 c 0.266238,-0.30691 0.488571,-0.60583 0.750221,-0.95046 l 0.932042,-1.23521 -0.444363,-0.81045 -1.98984,2.90147 -1.979727,1.08547 0.393482,0.71765 1.998287,-1.09564 3.538423,-0.0331 z"
         style="fill:#ffffff;fill-opacity:1;stroke-width:0.26458332"
         id="path6485"
         inkscape:connector-curvature="0" />
      <path
         d="m 84.400317,265.49049 c 0.463659,0.34933 1.089564,0.45383 1.673585,0.0837 0.369483,-0.23418 0.606012,-0.55952 0.663507,-0.93009 0.07495,-0.44847 -0.08217,-0.93361 -0.459883,-1.52955 -0.260619,-0.4112 -0.559177,-0.79 -0.797889,-1.04802 l -4.499346,2.85171 0.434366,0.68533 1.930845,-1.22378 0.264396,0.41716 c 0.305945,0.48271 0.213281,0.85052 -0.315259,1.36093 -0.488419,0.46827 -0.819711,0.82861 -0.90927,0.97726 l 0.453251,0.71512 c 0.116167,-0.19892 0.515194,-0.61054 1.024261,-1.12532 0.414724,-0.41321 0.615664,-0.80788 0.525517,-1.22688 z m -0.536348,-1.43933 1.567322,-0.99337 c 0.07672,0.0683 0.200354,0.22385 0.347661,0.45627 0.313498,0.49463 0.375275,1.04021 -0.214705,1.41414 -0.488671,0.30972 -1.043063,0.1599 -1.405664,-0.4122 z"
         style="fill:#ffffff;fill-opacity:1;stroke-width:0.26458332"
         id="path6487"
         inkscape:connector-curvature="0" />
      <path
         d="m 83.274243,268.43965 0.469725,0.67023 4.420058,-3.09776 -0.469726,-0.67023 z"
         style="fill:#ffffff;fill-opacity:1;stroke-width:0.26458332"
         id="path6489"
         inkscape:connector-curvature="0" />
      <path
         d="m 90.036328,268.50892 -0.615071,-0.79086 -5.27422,2.01032 0.515446,0.66277 1.539011,-0.607 1.013567,1.30326 -0.954262,1.35888 0.528441,0.67947 z m -3.261183,0.98998 1.383686,-0.53089 c 0.318075,-0.13118 0.681944,-0.30691 0.991356,-0.44922 l 0.0087,0.0111 c -0.21412,0.26484 -0.458562,0.57115 -0.676396,0.86569 l -0.854007,1.20047 z"
         style="fill:#ffffff;fill-opacity:1;stroke-width:0.26458332"
         id="path6491"
         inkscape:connector-curvature="0" />
      <path
         d="m 93.870608,272.94839 -0.505498,-0.56072 -1.477799,1.33224 c -0.639331,0.57637 -1.138719,1.05507 -1.641204,1.59356 l -0.01941,-0.011 c 0.268573,-0.5556 0.526586,-1.19668 0.740015,-1.84506 l 0.910252,-2.72048 -0.59526,-0.66029 -4.008921,3.61408 0.505499,0.56072 1.49876,-1.35114 c 0.702216,-0.63306 1.211569,-1.11124 1.691544,-1.60094 l 0.02414,0.0162 c -0.285326,0.5897 -0.539646,1.25595 -0.757284,1.88912 l -0.926489,2.74462 0.552741,0.61313 z"
         style="fill:#ffffff;fill-opacity:1;stroke-width:0.26458332"
         id="path6493"
         inkscape:connector-curvature="0" />
      <path
         d="m 95.240957,278.15246 c 0.538257,0.21748 1.169886,0.15647 1.638247,-0.35218 0.29631,-0.32181 0.440609,-0.69726 0.400266,-1.07009 -0.04363,-0.45259 -0.320936,-0.88056 -0.839975,-1.35848 -0.358137,-0.32977 -0.744538,-0.61842 -1.04188,-0.80589 l -3.608292,3.91875 0.596895,0.54961 1.548459,-1.68169 0.363328,0.33454 c 0.420421,0.38712 0.426077,0.76637 0.0476,1.39616 -0.350627,0.5787 -0.577406,1.01248 -0.625454,1.17924 l 0.622847,0.5735 c 0.06074,-0.22221 0.33968,-0.72305 0.69822,-1.35201 0.293688,-0.50645 0.385672,-0.93966 0.190183,-1.32108 z m -0.89049,-1.25153 1.256929,-1.36508 c 0.09178,0.0462 0.25145,0.1644 0.453876,0.35079 0.430802,0.39667 0.631637,0.90769 0.158497,1.42153 -0.391894,0.42562 -0.966174,0.42434 -1.464451,-0.0345 z"
         style="fill:#ffffff;fill-opacity:1;stroke-width:0.26458332"
         id="path6495"
         inkscape:connector-curvature="0" />
      <path
         d="m 97.621042,282.6312 -1.645729,-1.3423 1.132707,-1.38876 1.4653,1.19514 0.428109,-0.52488 -1.465299,-1.19514 0.985544,-1.20833 1.552776,1.2665 0.43257,-0.53036 -2.187011,-1.78379 -3.411499,4.18267 2.279962,1.8596 z"
         style="fill:#ffffff;fill-opacity:1;stroke-width:0.26458332"
         id="path6497"
         inkscape:connector-curvature="0" />
      <path
         d="m 97.852612,283.66679 0.658173,0.47452 1.237854,-1.71698 c 0.09224,0.10129 0.214022,0.19779 0.351381,0.29682 0.78981,0.56941 1.90092,0.8138 2.66839,-0.25072 0.28883,-0.40063 0.37935,-0.83986 0.28592,-1.22904 -0.0941,-0.42446 -0.41793,-0.83189 -0.95591,-1.21975 -0.45214,-0.32596 -0.83014,-0.5376 -1.12642,-0.68162 z m 3.435088,-3.37723 c 0.0982,0.0447 0.26926,0.13324 0.4753,0.28178 0.53226,0.38374 0.70462,0.9168 0.32088,1.44907 -0.40436,0.56087 -0.99759,0.61158 -1.60425,0.1742 -0.15453,-0.1114 -0.27059,-0.20378 -0.34726,-0.30254 z"
         style="fill:#ffffff;fill-opacity:1;stroke-width:0.26458332"
         id="path6499"
         inkscape:connector-curvature="0" />
      <path
         d="m 107.29562,283.4861 -0.69497,-0.43227 -1.72536,2.77392 c -0.56643,0.91065 -1.17185,1.08248 -1.747,0.72474 -0.52722,-0.32793 -0.66245,-0.95212 -0.0923,-1.86877 l 1.72536,-2.77392 -0.69497,-0.43227 -1.69928,2.73198 c -0.84963,1.36598 -0.55741,2.31218 0.38321,2.89724 0.97656,0.60741 2.01131,0.45335 2.85722,-0.90664 z"
         style="fill:#ffffff;fill-opacity:1;stroke-width:0.26458332"
         id="path6501"
         inkscape:connector-curvature="0" />
      <path
         d="m 108.81072,287.11466 c 0.59786,0.0772 1.09605,-0.16988 1.33717,-0.62501 0.25433,-0.48007 0.38149,-1.32294 -1.07119,-2.09254 -0.42395,-0.22461 -0.87103,-0.40557 -1.16885,-0.49149 l -2.48717,4.69469 c 0.19253,0.13394 0.49398,0.33357 0.91794,0.55818 0.78556,0.41618 1.38524,0.55023 1.86506,0.41319 0.26045,-0.0696 0.65261,-0.23713 0.92015,-0.74214 0.35343,-0.66711 0.10969,-1.30724 -0.32302,-1.69618 z m -1.20652,-0.90268 0.763,-1.44021 c 0.0972,0.0275 0.2505,0.0848 0.48742,0.21032 0.44889,0.23782 0.83429,0.62564 0.53041,1.19923 -0.23451,0.44266 -0.76458,0.56905 -1.33817,0.26517 z m -0.28406,0.53618 0.41773,0.2213 c 0.55488,0.29397 0.97508,0.81201 0.64148,1.44171 -0.33361,0.6297 -0.9612,0.60861 -1.54102,0.30143 -0.18704,-0.0991 -0.32713,-0.18129 -0.42321,-0.25615 z"
         style="fill:#ffffff;fill-opacity:1;stroke-width:0.26458332"
         id="path6503"
         inkscape:connector-curvature="0" />
      <path
         d="m 112.11014,291.13479 -1.8941,-0.86289 1.95101,-4.28258 -0.7448,-0.33931 -2.23766,4.91181 2.63889,1.2022 z"
         style="fill:#ffffff;fill-opacity:1;stroke-width:0.26458332"
         id="path6505"
         inkscape:connector-curvature="0" />
      <path
         d="m 112.49955,292.02624 0.75849,0.30748 2.0278,-5.00211 -0.75849,-0.30748 z"
         style="fill:#ffffff;fill-opacity:1;stroke-width:0.26458332"
         id="path6507"
         inkscape:connector-curvature="0" />
      <path
         d="m 117.72905,293.10872 c -0.25709,0.0294 -0.63563,-0.0212 -0.98181,-0.14277 -1.05184,-0.36925 -1.45886,-1.29729 -1.0195,-2.54886 0.46507,-1.32479 1.43107,-1.73344 2.41635,-1.38756 0.37946,0.13321 0.64866,0.32492 0.82663,0.49957 l 0.38845,-0.57402 c -0.11409,-0.1223 -0.42918,-0.37499 -1.01502,-0.58065 -1.41134,-0.49546 -2.83499,0.0666 -3.44262,1.79749 -0.57024,1.62437 0.0522,2.89724 1.47022,3.39503 0.55256,0.19397 1.02267,0.23937 1.2731,0.20763 z"
         style="fill:#ffffff;fill-opacity:1;stroke-width:0.26458332"
         id="path6509"
         inkscape:connector-curvature="0" />
    </g>
    <g
       transform="matrix(0.06315553,0,0,0.06315553,82.311872,154.16074)"
       id="Layer_1"
       style="stroke:none">
      <path
         style="fill:#0b60ad;fill-rule:evenodd;stroke:none;stroke-width:0.72266698"
         inkscape:connector-curvature="0"
         id="path5416"
         d="M 923.152,818.377 793.7,267.22 622.632,786.253 1098.07,490.741 559.805,485.672 983.096,854.193 821.495,332.027 607.661,855.297 1046.06,537.649 490.608,492.528 Z" />
    </g>
    <g
       transform="matrix(0.04706121,0,0,0.04706121,74.959903,239.56797)"
       id="g5380"
       style="fill:#0b60ad;fill-opacity:1;stroke:none">
      <path
         inkscape:connector-curvature="0"
         id="star"
         d="m 1007.195,733.064 -73.56,-56.43 -73.542,56.457 28.313,-90.994 -73.795,-56.092 91.059,0.193 27.935,-91.123 27.964,91.113 91.059,-0.226 -73.776,56.119 z"
         style="fill:#0b60ad;fill-opacity:1;stroke:none"
         bx:origin="0.5 0.5" />
      <path
         inkscape:connector-curvature="0"
         id=""
         d="m 1584.384,733.064 -73.561,-56.43 -73.542,56.457 28.313,-90.994 -73.794,-56.092 91.059,0.193 27.934,-91.123 27.965,91.113 91.059,-0.226 -73.776,56.119 z"
         style="fill:#0b60ad;fill-opacity:1;stroke:none"
         bx:origin="0.5 0.5" />
      <path
         inkscape:connector-curvature="0"
         id="path5374"
         d="m 1296.084,518.853 -73.561,-56.43 -73.542,56.457 28.313,-90.994 -73.794,-56.092 91.059,0.193 27.934,-91.123 27.965,91.113 91.059,-0.226 -73.776,56.119 z"
         style="fill:#0b60ad;fill-opacity:1;stroke:none"
         bx:origin="0.5 0.5" />
      <path
         inkscape:connector-curvature="0"
         id="path5376"
         d="m 1115.195,1075.813 -73.561,-56.43 -73.542,56.457 28.313,-90.994 -73.794,-56.092 91.059,0.193 27.934,-91.124 27.965,91.114 91.059,-0.226 -73.776,56.119 z"
         style="fill:#0b60ad;fill-opacity:1;stroke:none"
         bx:origin="0.5 0.5" />
      <path
         inkscape:connector-curvature="0"
         id="path5378"
         d="m 1476.384,1075.813 -73.561,-56.43 -73.542,56.457 28.313,-90.994 -73.794,-56.092 91.059,0.193 27.934,-91.124 27.965,91.114 91.059,-0.226 -73.776,56.119 z"
         style="fill:#0b60ad;fill-opacity:1;stroke:none"
         bx:origin="0.5 0.5" />
    </g>
    <g
       aria-label="STRATEGIC INTERVENTION, EMERGENCY GUARD, AND ENFORCEMENT"
       style="font-style:normal;font-variant:normal;font-weight:normal;font-stretch:normal;font-size:7.05555534px;line-height:1.25;font-family:'Adobe Heiti Std';-inkscape-font-specification:'Adobe Heiti Std';text-align:start;letter-spacing:0px;word-spacing:0px;text-anchor:start;fill:#ffffff;fill-opacity:1;stroke:none;stroke-width:0.26458332"
       id="text4580"
       transform="rotate(-6.1100687,130.88875,231.84464)">
      <path
         d="m 61.165771,227.31351 c -0.126473,0.22935 -0.264383,0.61367 -0.27893,1.12852 -0.03029,1.07201 0.592177,1.77426 1.445559,1.79838 0.733485,0.0207 1.235469,-0.50859 1.582613,-1.30343 0.286139,-0.63423 0.576021,-0.90132 1.034449,-0.88836 0.486639,0.0137 0.807954,0.3828 0.789819,1.0246 -0.01256,0.44433 -0.165965,0.87761 -0.350454,1.16179 l 0.678934,0.2027 c 0.183692,-0.25597 0.346945,-0.78779 0.361294,-1.29559 0.03428,-1.21307 -0.623854,-1.90221 -1.526605,-1.92772 -0.740538,-0.0209 -1.224829,0.38184 -1.630189,1.23856 -0.315546,0.67575 -0.549803,0.97264 -1.008231,0.95968 -0.345584,-0.01 -0.711806,-0.28833 -0.693672,-0.93013 0.01255,-0.44432 0.163176,-0.77886 0.266896,-0.95239 z"
         style="fill:#ffffff;fill-opacity:1;stroke-width:0.26458332"
         id="path4585"
         inkscape:connector-curvature="0" />
      <path
         d="m 61.356543,222.72446 -0.317777,3.71884 0.695964,0.0595 0.123747,-1.44817 4.681937,0.40008 0.06968,-0.81548 -4.681938,-0.40007 0.124348,-1.4552 z"
         style="fill:#ffffff;fill-opacity:1;stroke-width:0.26458332"
         id="path4587"
         inkscape:connector-curvature="0" />
      <path
         d="m 64.595295,219.91659 c -0.123545,-0.56723 -0.529778,-1.05473 -1.213892,-1.15514 -0.432807,-0.0635 -0.824305,0.0288 -1.109617,0.27213 -0.349355,0.29101 -0.546733,0.76122 -0.649197,1.4593 -0.0707,0.48167 -0.09151,0.96354 -0.07889,1.31481 l 5.270473,0.7736 0.117833,-0.80278 -2.261766,-0.33198 0.07173,-0.48866 c 0.083,-0.56544 0.393156,-0.78377 1.126711,-0.82585 0.675659,-0.0363 1.161813,-0.0933 1.326661,-0.14757 l 0.122956,-0.83769 c -0.217811,0.075 -0.788759,0.12669 -1.510401,0.18478 -0.583885,0.0427 -0.993635,0.21071 -1.198635,0.5871 z m -0.532382,1.44079 -1.835939,-0.26948 c -0.01358,-0.10183 -0.0058,-0.30036 0.03413,-0.57261 0.08504,-0.5794 0.394115,-1.03322 1.08521,-0.93178 0.572422,0.084 0.894886,0.55922 0.796521,1.22937 z"
         style="fill:#ffffff;fill-opacity:1;stroke-width:0.26458332"
         id="path4589"
         inkscape:connector-curvature="0" />
      <path
         d="m 62.657651,215.07215 -0.21177,0.97926 4.926577,2.75456 0.177469,-0.82064 -1.453204,-0.79069 0.348972,-1.6137 1.654535,-0.14028 0.181942,-0.84133 z m 2.852159,1.86563 -1.295153,-0.72042 c -0.304731,-0.15975 -0.673019,-0.32602 -0.980733,-0.47197 l 0.003,-0.0138 c 0.340524,-0.006 0.732303,-0.0149 1.097989,-0.0369 l 1.468708,-0.1155 z"
         style="fill:#ffffff;fill-opacity:1;stroke-width:0.26458332"
         id="path4591"
         inkscape:connector-curvature="0" />
      <path
         d="m 64.176153,209.31878 -1.022459,3.58961 0.67178,0.19135 0.39816,-1.39785 4.519245,1.28726 0.224206,-0.78714 -4.519245,-1.28725 0.400093,-1.40463 z"
         style="fill:#ffffff;fill-opacity:1;stroke-width:0.26458332"
         id="path4593"
         inkscape:connector-curvature="0" />
      <path
         d="m 69.887437,207.21913 -0.698891,2.00543 -1.692289,-0.58976 0.622268,-1.78557 -0.639605,-0.2229 -0.622269,1.78557 -1.472425,-0.51314 0.659419,-1.89217 -0.646268,-0.22522 -0.928758,2.66502 5.096855,1.77625 0.968231,-2.77828 z"
         style="fill:#ffffff;fill-opacity:1;stroke-width:0.26458332"
         id="path4595"
         inkscape:connector-curvature="0" />
      <path
         d="m 69.665525,201.95516 -0.672158,1.58491 0.604086,0.25619 0.363627,-0.85741 1.40304,0.59503 c 0.01163,0.13521 -0.03932,0.38184 -0.177056,0.70662 -0.413213,0.97433 -1.365008,1.37538 -2.61865,0.84371 -1.260137,-0.53442 -1.59191,-1.54114 -1.159414,-2.56094 0.192832,-0.45469 0.403993,-0.71767 0.607093,-0.90743 l -0.545454,-0.43059 c -0.228096,0.19449 -0.491597,0.58089 -0.698204,1.06806 -0.630837,1.48748 -0.11852,2.95396 1.492378,3.63713 0.792457,0.33608 2.616487,0.78777 3.528309,-1.36226 0.250683,-0.59109 0.339179,-1.19732 0.347209,-1.52346 z"
         style="fill:#ffffff;fill-opacity:1;stroke-width:0.26458332"
         id="path4597"
         inkscape:connector-curvature="0" />
      <path
         d="m 72.787202,202.21129 0.358087,-0.73595 -4.853474,-2.36153 -0.358087,0.73595 z"
         style="fill:#ffffff;fill-opacity:1;stroke-width:0.26458332"
         id="path4599"
         inkscape:connector-curvature="0" />
      <path
         d="m 74.538033,197.13649 c -0.0126,0.25845 -0.123833,0.62381 -0.299784,0.94575 -0.534623,0.97822 -1.516305,1.22968 -2.680259,0.59354 -1.232058,-0.67335 -1.478978,-1.69276 -0.978192,-2.60906 0.19287,-0.3529 0.425622,-0.58752 0.626769,-0.73488 L 70.70299,194.8556 c -0.139161,0.0928 -0.439514,0.36284 -0.737278,0.90767 -0.717341,1.31254 -0.393108,2.80839 1.216616,3.68815 1.510664,0.82562 2.867497,0.41737 3.588222,-0.90137 0.280846,-0.51387 0.401725,-0.97044 0.410943,-1.2227 z"
         style="fill:#ffffff;fill-opacity:1;stroke-width:0.26458332"
         id="path4601"
         inkscape:connector-curvature="0" />
      <path
         d="m 76.578731,195.36872 0.442598,-0.68845 -4.540183,-2.91886 -0.442598,0.68845 z"
         style="fill:#ffffff;fill-opacity:1;stroke-width:0.26458332"
         id="path4603"
         inkscape:connector-curvature="0" />
      <path
         d="m 75.498502,187.43679 -0.440948,0.61278 1.615004,1.16213 c 0.698689,0.50276 1.272295,0.88944 1.904988,1.26649 l -0.0066,0.0213 c -0.599877,-0.14482 -1.281054,-0.2612 -1.959927,-0.33248 l -2.851548,-0.31344 -0.519248,0.7216 4.381128,3.15257 0.440948,-0.61278 -1.637912,-1.17861 c -0.767413,-0.55222 -1.342624,-0.94875 -1.922866,-1.31412 l 0.01076,-0.027 c 0.636755,0.15396 1.341748,0.26141 2.006653,0.34002 l 2.878576,0.3242 0.482159,-0.67006 z"
         style="fill:#ffffff;fill-opacity:1;stroke-width:0.26458332"
         id="path4605"
         inkscape:connector-curvature="0" />
      <path
         d="m 78.470821,183.78916 -2.376208,2.87825 0.538653,0.4447 0.925329,-1.12083 3.623665,2.99159 0.521059,-0.63115 -3.623665,-2.99159 0.92982,-1.12628 z"
         style="fill:#ffffff;fill-opacity:1;stroke-width:0.26458332"
         id="path4607"
         inkscape:connector-curvature="0" />
      <path
         d="m 84.542351,184.15482 -1.443277,1.55793 -1.314666,-1.21792 1.285044,-1.38713 -0.496882,-0.46031 -1.285043,1.38713 -1.143863,-1.05968 1.361762,-1.46995 -0.502057,-0.4651 -1.917976,2.07034 3.959526,3.66812 1.999489,-2.15833 z"
         style="fill:#ffffff;fill-opacity:1;stroke-width:0.26458332"
         id="path4609"
         inkscape:connector-curvature="0" />
      <path
         d="m 85.517154,180.56105 c 0.250922,-0.52351 0.229791,-1.15772 -0.248381,-1.65717 -0.302518,-0.31597 -0.668145,-0.48362 -1.042777,-0.46682 -0.454437,0.0151 -0.899012,0.26488 -1.40865,0.75281 -0.351651,0.33667 -0.66405,0.70414 -0.86986,0.9891 l 3.683881,3.84777 0.586084,-0.56112 -1.580897,-1.65123 0.356748,-0.34155 c 0.412807,-0.39523 0.791667,-0.377 1.396381,0.0404 0.555486,0.38636 0.974135,0.63999 1.13754,0.69843 l 0.611567,-0.58551 c -0.217946,-0.0746 -0.700243,-0.38452 -1.305391,-0.78193 -0.486959,-0.32498 -0.913527,-0.44405 -1.306486,-0.27295 z m -1.3051,0.80995 -1.283259,-1.34035 c 0.05183,-0.0887 0.179893,-0.2406 0.378653,-0.4309 0.423,-0.40498 0.945644,-0.57325 1.428695,-0.0687 0.400104,0.4179 0.362683,0.99096 -0.12657,1.45938 z"
         style="fill:#ffffff;fill-opacity:1;stroke-width:0.26458332"
         id="path4611"
         inkscape:connector-curvature="0" />
      <path
         d="m 87.441701,175.1423 1.051614,2.43441 c 0.270268,0.63928 0.564959,1.28568 0.881003,1.85881 l -0.0162,0.0136 c -0.520381,-0.41051 -1.082245,-0.80458 -1.673931,-1.20122 l -2.180196,-1.48531 -0.685789,0.57672 4.731281,3.08279 0.696588,-0.5858 -2.134781,-5.25713 z"
         style="fill:#ffffff;fill-opacity:1;stroke-width:0.26458332"
         id="path4613"
         inkscape:connector-curvature="0" />
      <path
         d="m 94.018169,176.06405 -1.706039,1.26476 -1.067276,-1.43965 1.518999,-1.1261 -0.40338,-0.54412 -1.518998,1.1261 -0.928614,-1.2526 1.609684,-1.19333 -0.407581,-0.54979 -2.267162,1.68075 3.214433,4.33594 2.363516,-1.75218 z"
         style="fill:#ffffff;fill-opacity:1;stroke-width:0.26458332"
         id="path4615"
         inkscape:connector-curvature="0" />
      <path
         d="m 95.437435,169.49917 -0.63488,0.4085 1.076595,1.67323 c 0.465762,0.72388 0.857698,1.29391 1.308141,1.87663 l -0.01398,0.0174 c -0.505039,-0.35463 -1.096137,-0.71261 -1.701631,-1.02777 l -2.538162,-1.3369 -0.747616,0.48103 2.920552,4.53909 0.634879,-0.40849 -1.091866,-1.69697 c -0.511573,-0.79508 -0.901394,-1.37486 -1.307313,-1.9275 l 0.01992,-0.0212 c 0.535994,0.37665 1.152528,0.73505 1.742337,1.05191 l 2.559367,1.35682 0.694214,-0.44667 z"
         style="fill:#ffffff;fill-opacity:1;stroke-width:0.26458332"
         id="path4617"
         inkscape:connector-curvature="0" />
      <path
         d="m 99.541861,167.19511 -3.26641,1.8059 0.337967,0.6113 1.271986,-0.70325 2.273596,4.11234 0.71627,-0.396 -2.273602,-4.11234 1.27816,-0.70666 z"
         style="fill:#ffffff;fill-opacity:1;stroke-width:0.26458332"
         id="path4619"
         inkscape:connector-curvature="0" />
      <path
         d="m 102.70596,171.66476 0.73286,-0.36436 -2.40289,-4.83312 -0.73287,0.36436 z"
         style="fill:#ffffff;fill-opacity:1;stroke-width:0.26458332"
         id="path4621"
         inkscape:connector-curvature="0" />
      <path
         d="m 104.13969,164.94679 c -1.26956,0.54828 -1.69554,1.94654 -1.02138,3.50757 0.64619,1.49626 1.89784,2.17001 3.16092,1.62453 1.20478,-0.52031 1.75339,-1.79477 1.0093,-3.51773 -0.61542,-1.42502 -1.83394,-2.18224 -3.14884,-1.61437 z m 0.23984,0.62653 c 0.88739,-0.38324 1.72154,0.40933 2.12995,1.35502 0.45597,1.05581 0.39787,2.14917 -0.47009,2.52401 -0.85501,0.36925 -1.70565,-0.35471 -2.13923,-1.3587 -0.41961,-0.97159 -0.43393,-2.1259 0.47937,-2.52033 z"
         style="fill:#ffffff;fill-opacity:1;stroke-width:0.26458332"
         id="path4623"
         inkscape:connector-curvature="0" />
      <path
         d="m 111.07145,162.43721 -0.71407,0.24505 0.64583,1.88193 c 0.2794,0.81417 0.52386,1.46131 0.82209,2.13475 l -0.0177,0.0135 c -0.40573,-0.46498 -0.89422,-0.95378 -1.40693,-1.40442 l -2.14542,-1.9044 -0.84086,0.28856 1.75197,5.10525 0.71407,-0.24505 -0.65499,-1.90863 c -0.30688,-0.89425 -0.54695,-1.55035 -0.80914,-2.18394 l 0.0244,-0.0158 c 0.43053,0.49377 0.94363,0.98904 1.44069,1.4376 l 2.16126,1.9288 0.7808,-0.26795 z"
         style="fill:#ffffff;fill-opacity:1;stroke-width:0.26458332"
         id="path4625"
         inkscape:connector-curvature="0" />
      <path
         d="m 113.68045,166.25284 c 0.083,0.62212 0.11285,1.49433 0.0707,2.06424 l 0.52703,-0.20984 c 0.13521,-0.50118 0.23318,-1.43941 0.2354,-2.17403 z"
         style="fill:#ffffff;fill-opacity:1;stroke-width:0.26458332"
         id="path4627"
         inkscape:connector-curvature="0" />
      <path
         d="m 119.85827,165.08845 -2.07566,0.44924 -0.3791,-1.75155 1.8481,-0.4 -0.14329,-0.662 -1.84809,0.39999 -0.32985,-1.52399 1.95843,-0.42387 -0.14477,-0.6689 -2.75836,0.59701 1.14178,5.27535 2.87559,-0.62238 z"
         style="fill:#ffffff;fill-opacity:1;stroke-width:0.26458332"
         id="path4629"
         inkscape:connector-curvature="0" />
      <path
         d="m 124.87103,159.56017 -1.01334,0.14064 -0.44983,2.45583 c -0.11752,0.69301 -0.20086,1.32429 -0.25411,1.91578 l -0.021,0.003 c -0.21426,-0.56861 -0.45744,-1.14033 -0.7443,-1.77009 l -1.08163,-2.2504 -1.00635,0.13967 0.37956,5.40368 0.75477,-0.10475 -0.1877,-2.22488 c -0.0619,-0.75359 -0.13728,-1.60503 -0.21545,-2.27088 l 0.021,-0.003 c 0.22202,0.62451 0.5077,1.29718 0.82134,1.96597 l 1.06358,2.27427 0.608,-0.0844 0.46013,-2.53561 c 0.12955,-0.70893 0.24416,-1.4229 0.3176,-2.07418 l 0.021,-0.003 c 0.0851,0.66488 0.24154,1.48371 0.37735,2.20567 l 0.43113,2.23383 0.78272,-0.10863 z"
         style="fill:#ffffff;fill-opacity:1;stroke-width:0.26458332"
         id="path4631"
         inkscape:connector-curvature="0" />
      <path
         d="m 129.81173,163.95126 -2.11948,0.13412 -0.11317,-1.78854 1.88711,-0.11941 -0.0428,-0.67598 -1.88712,0.11941 -0.0985,-1.55616 1.99977,-0.12654 -0.0432,-0.68303 -2.81659,0.17823 0.34085,5.38672 2.93629,-0.18579 z"
         style="fill:#ffffff;fill-opacity:1;stroke-width:0.26458332"
         id="path4633"
         inkscape:connector-curvature="0" />
      <path
         d="m 132.99334,162.01809 c 0.5425,-0.20664 0.96406,-0.68095 0.96147,-1.37239 -0.002,-0.43744 -0.15121,-0.81083 -0.43436,-1.05671 -0.3398,-0.30212 -0.83416,-0.42726 -1.53971,-0.42462 -0.48683,0.002 -0.96642,0.053 -1.3119,0.11781 l 0.02,5.32691 0.81139,-0.003 -0.009,-2.28599 0.49389,-0.002 c 0.5715,-0.002 0.83358,0.27204 0.98445,0.99115 0.13654,0.66271 0.26531,1.13495 0.3435,1.28988 l 0.84666,-0.003 c -0.1066,-0.20421 -0.24274,-0.7611 -0.40766,-1.46604 -0.12915,-0.57102 -0.35635,-0.95117 -0.75907,-1.09782 z m -1.50402,-0.31186 -0.007,-1.8556 c 0.0987,-0.0286 0.29615,-0.0505 0.57131,-0.0515 0.58561,-0.002 1.08039,0.23584 1.08301,0.93434 0.002,0.57855 -0.4197,0.96819 -1.09703,0.97073 z"
         style="fill:#ffffff;fill-opacity:1;stroke-width:0.26458332"
         id="path4635"
         inkscape:connector-curvature="0" />
      <path
         d="m 138.95102,161.96632 -1.71805,-0.10975 -0.0418,0.65483 0.92944,0.0594 -0.0971,1.5209 c -0.12375,0.0557 -0.37334,0.0893 -0.7254,0.0668 -1.05618,-0.0675 -1.74963,-0.8329 -1.66283,-2.19185 0.0873,-1.36599 0.92744,-2.01225 2.03291,-1.94164 0.49288,0.0315 0.81093,0.14371 1.05722,0.27256 l 0.2258,-0.65722 c -0.25902,-0.15087 -0.71085,-0.27164 -1.23894,-0.30537 -1.61244,-0.103 -2.82672,0.86579 -2.93826,2.61201 -0.0549,0.85902 0.12257,2.72975 2.45321,2.87862 0.64075,0.0409 1.2421,-0.0762 1.55252,-0.17656 z"
         style="fill:#ffffff;fill-opacity:1;stroke-width:0.26458332"
         id="path4637"
         inkscape:connector-curvature="0" />
      <path
         d="m 142.74978,164.68312 -2.10614,-0.27275 0.23017,-1.77727 1.87523,0.24285 0.087,-0.67172 -1.87523,-0.24285 0.20026,-1.54637 1.98718,0.25735 0.0879,-0.67872 -2.79885,-0.36246 -0.69321,5.3528 2.9178,0.37786 z"
         style="fill:#ffffff;fill-opacity:1;stroke-width:0.26458332"
         id="path4639"
         inkscape:connector-curvature="0" />
      <path
         d="m 148.32803,160.94143 -0.74059,-0.14652 -0.38614,1.95184 c -0.16706,0.84441 -0.28049,1.52681 -0.3606,2.25896 l -0.0221,0.003 c -0.11749,-0.60582 -0.29461,-1.27379 -0.51181,-1.92091 l -0.89955,-2.72404 -0.8721,-0.17254 -1.04752,5.29488 0.74059,0.14651 0.39162,-1.97952 c 0.18349,-0.92747 0.30521,-1.61542 0.39651,-2.29502 l 0.0291,-0.001 c 0.12449,0.64317 0.31964,1.32908 0.52437,1.96655 l 0.90099,2.75309 0.8098,0.16021 z"
         style="fill:#ffffff;fill-opacity:1;stroke-width:0.26458332"
         id="path4641"
         inkscape:connector-curvature="0" />
      <path
         d="m 151.82956,166.61326 c -0.25433,0.0477 -0.63552,0.0242 -0.9895,-0.0722 -1.07554,-0.29314 -1.54785,-1.18972 -1.19905,-2.46948 0.3692,-1.35465 1.30353,-1.83129 2.311,-1.55671 0.38801,0.10575 0.67022,0.27774 0.86022,0.43922 l 0.34644,-0.60031 c -0.12255,-0.11384 -0.45489,-0.34337 -1.05393,-0.50663 -1.44313,-0.39332 -2.82298,0.26904 -3.30535,2.03893 -0.45269,1.66097 0.25915,2.8861 1.7091,3.28127 0.565,0.15399 1.03715,0.16567 1.28467,0.11612 z"
         style="fill:#ffffff;fill-opacity:1;stroke-width:0.26458332"
         id="path4643"
         inkscape:connector-curvature="0" />
      <path
         d="m 156.8045,163.43881 -1.06311,1.11955 c -0.2974,0.32312 -0.56771,0.61077 -0.81133,0.90759 l -0.0134,-0.005 c -0.01,-0.40617 -0.0466,-0.77689 -0.0852,-1.20786 l -0.14248,-1.54083 -0.87421,-0.30007 0.48218,3.48504 -0.733,2.13548 0.77411,0.26571 0.73987,-2.1555 2.59405,-2.40675 z"
         style="fill:#ffffff;fill-opacity:1;stroke-width:0.26458332"
         id="path4645"
         inkscape:connector-curvature="0" />
      <path
         d="m 162.667,168.59483 -1.56942,-0.70757 -0.26969,0.59818 0.84903,0.38279 -0.62638,1.38932 c -0.13544,0.009 -0.38086,-0.0479 -0.70247,-0.19287 -0.96481,-0.43499 -1.34438,-1.39555 -0.7847,-2.63694 0.56258,-1.24782 1.57649,-1.5569 2.58633,-1.10162 0.45024,0.203 0.70842,0.42001 0.89357,0.62732 l 0.44273,-0.53565 c -0.18932,-0.23241 -0.56971,-0.50452 -1.05211,-0.72201 -1.47295,-0.66408 -2.95056,-0.18482 -3.66973,1.41034 -0.35379,0.78471 -0.84632,2.59814 1.28269,3.558 0.58532,0.26389 1.18941,0.36598 1.51529,0.38133 z"
         style="fill:#ffffff;fill-opacity:1;stroke-width:0.26458332"
         id="path4647"
         inkscape:connector-curvature="0" />
      <path
         d="m 168.26508,168.75665 -0.71915,-0.39073 -1.55955,2.87041 c -0.51199,0.94234 -1.10628,1.14941 -1.70144,0.82605 -0.54557,-0.29642 -0.7172,-0.9116 -0.20184,-1.86013 l 1.55955,-2.87042 -0.71915,-0.39073 -1.53597,2.82702 c -0.76799,1.41351 -0.42072,2.34092 0.55261,2.86975 1.01054,0.54904 2.03446,0.3345 2.79907,-1.0728 z"
         style="fill:#ffffff;fill-opacity:1;stroke-width:0.26458332"
         id="path4649"
         inkscape:connector-curvature="0" />
      <path
         d="m 171.4618,170.74761 -0.84347,-0.54068 -4.30278,3.65306 0.70685,0.45311 1.24876,-1.08518 1.38994,0.89098 -0.44686,1.59922 0.72467,0.46453 z m -2.74485,2.02019 1.12767,-0.96166 c 0.25618,-0.22968 0.54069,-0.51662 0.78499,-0.75391 l 0.0119,0.008 c -0.11362,0.32106 -0.24202,0.69132 -0.34924,1.04162 l -0.40513,1.41644 z"
         style="fill:#ffffff;fill-opacity:1;stroke-width:0.26458332"
         id="path4651"
         inkscape:connector-curvature="0" />
      <path
         d="m 173.93539,175.92151 c 0.55845,0.15858 1.17991,0.0303 1.5911,-0.52562 0.26014,-0.35169 0.3634,-0.74044 0.28335,-1.10681 -0.0919,-0.44531 -0.4134,-0.84112 -0.98064,-1.26069 -0.3914,-0.28951 -0.80649,-0.53512 -1.1222,-0.68966 l -3.16782,4.28267 0.65233,0.48251 1.35943,-1.83786 0.39707,0.29371 c 0.45947,0.33986 0.50571,0.71632 0.19686,1.38302 -0.28663,0.61293 -0.46564,1.0685 -0.49555,1.23945 l 0.68069,0.5035 c 0.0366,-0.22744 0.26028,-0.75528 0.54939,-1.41903 0.23776,-0.53499 0.28281,-0.97556 0.0476,-1.33384 z m -1.01941,-1.14896 1.10349,-1.49184 c 0.0962,0.036 0.26761,0.13652 0.48883,0.30015 0.47081,0.34825 0.72523,0.83482 0.30984,1.39639 -0.34405,0.46513 -0.91516,0.52537 -1.45972,0.12257 z"
         style="fill:#ffffff;fill-opacity:1;stroke-width:0.26458332"
         id="path4653"
         inkscape:connector-curvature="0" />
      <path
         d="m 173.9131,179.13109 c 0.20337,0.22907 0.4849,0.49699 0.84996,0.80831 0.72473,0.61807 1.46555,0.93458 2.14272,0.8908 0.65727,-0.0422 1.35053,-0.38754 1.98691,-1.13375 l 0.005,-0.005 c 0.77831,-0.91263 1.3335,-2.30301 -0.41661,-3.79554 -0.38652,-0.32964 -0.78362,-0.60338 -1.12009,-0.80687 z m 3.68563,-3.06039 c 0.12568,0.0701 0.30505,0.18596 0.51978,0.3691 0.88579,0.75542 0.96164,1.7103 0.11008,2.70883 -0.96603,1.13274 -1.98675,1.1988 -2.90554,0.40597 -0.14495,-0.12362 -0.29069,-0.25718 -0.38432,-0.36485 z"
         style="fill:#ffffff;fill-opacity:1;stroke-width:0.26458332"
         id="path4655"
         inkscape:connector-curvature="0" />
      <path
         d="m 178.39224,181.73069 c -0.49298,0.38845 -1.22818,0.8587 -1.73997,1.11292 l 0.44913,0.3465 c 0.50012,-0.1391 1.35729,-0.53298 1.99047,-0.90547 z"
         style="fill:#ffffff;fill-opacity:1;stroke-width:0.26458332"
         id="path4657"
         inkscape:connector-curvature="0" />
      <path
         d="m 185.55664,182.77461 -0.67716,-0.73839 -5.09386,2.43133 0.56748,0.6188 1.48473,-0.72978 1.1159,1.21678 -0.84094,1.43178 0.58179,0.63439 z m -3.17017,1.25113 1.33608,-0.64133 c 0.30639,-0.15653 0.65482,-0.36118 0.95167,-0.52812 l 0.01,0.0104 c -0.19194,0.28133 -0.41075,0.60645 -0.60398,0.91769 l -0.75386,1.26575 z"
         style="fill:#ffffff;fill-opacity:1;stroke-width:0.26458332"
         id="path4659"
         inkscape:connector-curvature="0" />
      <path
         d="m 189.80288,187.8923 -0.46854,-0.59196 -1.56011,1.23485 c -0.67494,0.53422 -1.20397,0.97994 -1.73992,1.48514 l -0.0187,-0.0122 c 0.30361,-0.53725 0.60216,-1.16048 0.85669,-1.79386 l 1.08266,-2.65658 -0.55174,-0.69707 -4.23221,3.34984 0.46854,0.59195 1.58224,-1.25235 c 0.74132,-0.58677 1.28026,-1.03135 1.79062,-1.48929 l 0.0231,0.0177 c -0.32252,0.57021 -0.61899,1.2188 -0.87675,1.83673 l -1.10041,2.67963 0.51233,0.64728 z"
         style="fill:#ffffff;fill-opacity:1;stroke-width:0.26458332"
         id="path4661"
         inkscape:connector-curvature="0" />
      <path
         d="m 186.2545,192.15187 c 0.13476,0.27509 0.33447,0.60849 0.60306,1.00604 0.53322,0.78925 1.16253,1.29221 1.82678,1.43097 0.64465,0.13496 1.40497,-0.0126 2.21761,-0.56161 l 0.006,-0.004 c 0.99387,-0.67147 1.9004,-1.86294 0.61275,-3.76884 -0.28439,-0.42094 -0.5939,-0.79084 -0.86376,-1.07684 z m 4.36938,-1.96427 c 0.10238,0.10113 0.24426,0.26072 0.40225,0.49457 0.65173,0.96465 0.46966,1.90508 -0.61775,2.63975 -1.23358,0.83342 -2.23484,0.62433 -2.90837,-0.38519 -0.10665,-0.15785 -0.21139,-0.3255 -0.27285,-0.45427 z"
         style="fill:#ffffff;fill-opacity:1;stroke-width:0.26458332"
         id="path4663"
         inkscape:connector-curvature="0" />
      <path
         d="m 191.8244,199.94564 -1.02536,-1.8598 1.56939,-0.86525 0.91295,1.6559 0.59315,-0.32703 -0.91294,-1.65589 1.3655,-0.75284 0.96745,1.75476 0.59933,-0.33043 -1.3626,-2.47149 -4.72672,2.60597 1.42051,2.57653 z"
         style="fill:#ffffff;fill-opacity:1;stroke-width:0.26458332"
         id="path4665"
         inkscape:connector-curvature="0" />
      <path
         d="m 198.1401,202.23233 -0.31969,-0.68391 -1.80246,0.84257 c -0.77979,0.36451 -1.39721,0.6765 -2.03505,1.04476 l -0.0154,-0.0162 c 0.41913,-0.45294 0.85312,-0.99071 1.24661,-1.54849 l 1.66509,-2.33604 -0.37647,-0.80535 -4.88964,2.2857 0.3197,0.68391 1.82802,-0.85452 c 0.85648,-0.40037 1.48329,-0.70895 2.08535,-1.03712 l 0.0183,0.0226 c -0.44511,0.48066 -0.88293,1.04358 -1.276,1.58559 l -1.68766,2.35438 0.34957,0.74782 z"
         style="fill:#ffffff;fill-opacity:1;stroke-width:0.26458332"
         id="path4667"
         inkscape:connector-curvature="0" />
      <path
         d="m 193.97487,206.33421 2.20942,-0.85936 0.6701,1.72283 0.63126,-0.24554 -0.6701,-1.72282 1.55186,-0.6036 0.72125,1.85434 0.63784,-0.24809 -1.01793,-2.61712 -5.03039,1.95658 z"
         style="fill:#ffffff;fill-opacity:1;stroke-width:0.26458332"
         id="path4669"
         inkscape:connector-curvature="0" />
      <path
         d="m 200.85501,209.35254 c -0.41337,-1.31966 -1.75979,-1.88865 -3.38244,-1.38037 -1.55531,0.48719 -2.35549,1.66204 -1.94422,2.97497 0.39228,1.25233 1.60282,1.93042 3.39379,1.36941 1.48125,-0.46399 2.36101,-1.59722 1.93287,-2.96401 z m -0.64807,0.17343 c 0.28894,0.92241 -0.58602,1.66968 -1.56903,1.9776 -1.09748,0.34377 -2.17888,0.17236 -2.4615,-0.72986 -0.27839,-0.88875 0.53006,-1.65954 1.57367,-1.98645 1.00994,-0.31635 2.15949,-0.21064 2.45686,0.73871 z"
         style="fill:#ffffff;fill-opacity:1;stroke-width:0.26458332"
         id="path4671"
         inkscape:connector-curvature="0" />
      <path
         d="m 199.53842,215.6111 c 0.32428,0.48151 0.88183,0.78453 1.55467,0.62521 0.42567,-0.1008 0.75541,-0.33114 0.93068,-0.66267 0.21719,-0.39946 0.22698,-0.90932 0.0644,-1.59589 -0.11217,-0.47373 -0.27078,-0.92922 -0.41223,-1.25101 l -5.18361,1.22742 0.18696,0.78956 2.22449,-0.52674 0.1138,0.4806 c 0.13168,0.55613 -0.0759,0.87356 -0.74209,1.18356 -0.61449,0.28327 -1.04523,0.51578 -1.17839,0.62706 l 0.19509,0.82389 c 0.17472,-0.15013 0.68622,-0.40901 1.3354,-0.7295 0.52686,-0.25526 0.84558,-0.56275 0.8971,-0.98824 z m -0.0373,-1.53555 1.80568,-0.42757 c 0.0502,0.0896 0.11634,0.27698 0.17975,0.54474 0.13493,0.56986 0.0153,1.10573 -0.6644,1.26668 -0.56299,0.13331 -1.03815,-0.18922 -1.19422,-0.84833 z"
         style="fill:#ffffff;fill-opacity:1;stroke-width:0.26458332"
         id="path4673"
         inkscape:connector-curvature="0" />
      <path
         d="m 198.77986,221.22236 c -0.15021,-0.21069 -0.28922,-0.56641 -0.35054,-0.92814 -0.1863,-1.0991 0.42856,-1.90462 1.73635,-2.1263 1.38431,-0.23465 2.20965,0.41264 2.38416,1.44218 0.0672,0.39651 0.0298,0.72487 -0.0368,0.96516 l 0.69033,0.0619 c 0.0518,-0.15905 0.12026,-0.5571 0.0165,-1.16925 -0.24998,-1.47475 -1.43115,-2.44815 -3.2398,-2.14158 -1.69734,0.28771 -2.50957,1.44872 -2.25842,2.93042 0.0979,0.57737 0.28581,1.01067 0.43485,1.21441 z"
         style="fill:#ffffff;fill-opacity:1;stroke-width:0.26458332"
         id="path4675"
         inkscape:connector-curvature="0" />
      <path
         d="m 199.09748,225.15098 -0.22649,-2.11161 1.78189,-0.19112 0.20166,1.8801 0.67347,-0.0722 -0.20166,-1.88011 1.55039,-0.16628 0.21369,1.99235 0.68049,-0.073 -0.30098,-2.80613 -5.36672,0.57562 0.31377,2.92538 z"
         style="fill:#ffffff;fill-opacity:1;stroke-width:0.26458332"
         id="path4677"
         inkscape:connector-curvature="0" />
      <path
         d="m 204.06668,230.7168 -0.0333,-1.02251 -2.39488,-0.70565 c -0.67681,-0.18976 -1.29582,-0.33904 -1.87843,-0.45421 l -6.9e-4,-0.0211 c 0.58799,-0.15326 1.18212,-0.33496 1.83857,-0.55398 l 2.35168,-0.83893 -0.033,-1.01546 -5.41363,-0.19093 0.0248,0.7616 2.23228,0.0474 c 0.75592,0.0178 1.61057,0.0323 2.28095,0.0246 l 6.9e-4,0.0212 c -0.64441,0.15509 -1.3434,0.36844 -2.04147,0.60999 l -2.37352,0.81846 0.02,0.61351 2.47314,0.72428 c 0.69137,0.2034 1.38933,0.39247 2.02928,0.53401 l 6.8e-4,0.0212 c -0.67015,0.0147 -1.50089,0.0841 -2.23313,0.14325 l -2.26679,0.19377 0.0257,0.78981 z"
         style="fill:#ffffff;fill-opacity:1;stroke-width:0.26458332"
         id="path4679"
         inkscape:connector-curvature="0" />
      <path
         d="m 199.18454,235.16813 0.0876,-2.12192 1.79059,0.0739 -0.078,1.88928 0.67676,0.0279 0.078,-1.88928 1.55795,0.0643 -0.0826,2.00208 0.6838,0.0282 0.11639,-2.81982 -5.3929,-0.2226 -0.12134,2.93966 z"
         style="fill:#ffffff;fill-opacity:1;stroke-width:0.26458332"
         id="path4681"
         inkscape:connector-curvature="0" />
      <path
         d="m 203.40292,240.39455 0.0807,-0.75062 -1.97827,-0.21269 c -0.85584,-0.092 -1.54559,-0.14489 -2.28195,-0.16019 l -0.005,-0.0218 c 0.59311,-0.17041 1.24287,-0.40569 1.86835,-0.67906 l 2.6342,-1.13602 0.095,-0.88391 -5.36657,-0.57699 -0.0807,0.75062 2.00632,0.21571 c 0.94003,0.10107 1.63604,0.16171 2.32103,0.19278 l 0.004,0.0288 c -0.6297,0.18067 -1.29576,0.43548 -1.91271,0.69558 l -2.66301,1.14002 -0.0882,0.82077 z"
         style="fill:#ffffff;fill-opacity:1;stroke-width:0.26458332"
         id="path4683"
         inkscape:connector-curvature="0" />
      <path
         d="m 202.61921,245.03568 0.6454,-3.67616 -0.68798,-0.12079 -0.25133,1.43155 -4.62821,-0.81254 -0.14153,0.80611 4.62822,0.81255 -0.25255,1.4385 z"
         style="fill:#ffffff;fill-opacity:1;stroke-width:0.26458332"
         id="path4685"
         inkscape:connector-curvature="0" />
    </g>
  </g>
</svg>
