<?xml version="1.0" encoding="utf-8"?>
<svg version="1.1" x="0px" y="0px" width="77.695" height="72" viewBox="0 0 77.695 72" enable-background="new 0 0 100 100" id="svg2" xmlns="http://www.w3.org/2000/svg">
  <g id="Calque_1" transform="translate(-14,-14)">
    <polygon points="40.865,61.688 48.765,70.682 49.045,71 91.695,33.529 83.512,24.217 50.039,53.627 38.365,40.344 29.188,48.405 " id="polygon5" style="fill: rgb(16, 154, 237);"/>
  </g>
  <g id="Calque_2" transform="translate(-14,-14)">
    <path d="M 77,77 H 23 V 23 h 54 v 1.541 l 7.47,-6.547 C 82.856,15.586 80.116,14 77,14 H 23 c -4.97,0 -9,4.03 -9,9 v 54 c 0,4.969 4.03,9 9,9 h 54 c 4.971,0 9,-4.031 9,-9 V 43.857 l -9,7.907 V 77 z" id="path8" style="fill: rgb(255, 153, 0);"/>
  </g>
</svg>