<?xml version="1.0" encoding="UTF-8" standalone="no"?>
<!-- Created with Inkscape (http://www.inkscape.org/) -->

<svg
   width="819.8009"
   height="145.60008"
   viewBox="0 0 216.90565 38.523356"
   version="1.1"
   id="svg5"
   xmlns="http://www.w3.org/2000/svg"
   xmlns:svg="http://www.w3.org/2000/svg">
  <defs
     id="defs2" />
  <g
     id="layer1"
     transform="translate(-38.070405,-112.14564)">
    <g
       id="text233"
       style="font-style:italic;font-weight:600;font-size:52.9167px;line-height:1.25;font-family:'Uni Sans';fill:#ff218c;stroke-width:0.264583">
      <path
         d="m 56.379583,112.14564 c -7.302505,0 -15.081259,4.07459 -16.19251,12.06501 l -1.957918,14.39334 c -0.105833,0.635 -0.15875,1.21709 -0.15875,1.79917 0,1.27 0.211667,2.43417 0.687917,3.4925 1.799168,4.55084 6.667504,6.77334 12.117924,6.77334 5.556253,0 11.482924,-2.8575 15.187092,-8.67834 l -5.132919,-2.54 c -2.275418,3.38667 -5.820837,5.08 -9.207506,5.08 -3.122085,0 -5.979587,-1.11125 -7.037921,-3.33375 -0.264583,-0.52917 -0.423333,-1.11125 -0.423333,-1.79917 0,-0.26458 0,-0.52917 0.05292,-0.79375 l 1.957918,-14.39334 c 0.582084,-3.96875 4.921253,-5.92667 9.101672,-5.92667 3.333752,0 6.455838,1.74625 7.778755,5.13292 l 5.820837,-2.69875 c -1.852085,-5.76792 -7.143754,-8.57251 -12.594174,-8.57251 z"
         id="path1799" />
      <path
         d="m 76.75256,139.23899 c 0,-0.26458 0,-0.58208 0.05292,-0.84667 l 3.651252,-25.71751 h -6.138337 l -3.651252,25.71751 c -0.105833,0.68792 -0.15875,1.32292 -0.15875,1.90501 0,1.27 0.211667,2.43416 0.635,3.4925 1.799168,4.55083 6.773338,6.87917 12.276674,6.87917 7.143755,0 15.081259,-4.07459 16.19251,-12.27668 l 3.651256,-25.71751 h -6.138341 l -3.651252,25.71751 c -0.582084,4.23334 -5.027086,6.19126 -9.207505,6.19126 -3.175002,0 -5.979587,-1.11125 -7.143755,-3.43959 -0.264583,-0.58208 -0.370417,-1.21708 -0.370417,-1.905 z"
         id="path1801" />
      <path
         d="m 104.8513,150.13983 h 23.17752 l 0.84666,-6.13834 h -17.09209 l 4.39209,-31.32668 h -6.08542 z"
         id="path1803" />
      <path
         d="m 156.76264,118.81315 0.89958,-6.19126 H 128.7697 l -0.89958,6.19126 h 11.37709 l -4.33917,31.32668 h 6.13834 l 4.33917,-31.32668 z"
         id="path1805" />
      <path
         d="m 164.11808,139.23899 c 0,-0.26458 0,-0.58208 0.0529,-0.84667 l 3.65126,-25.71751 h -6.13834 l -3.65125,25.71751 c -0.10584,0.68792 -0.15875,1.32292 -0.15875,1.90501 0,1.27 0.21166,2.43416 0.635,3.4925 1.79916,4.55083 6.77333,6.87917 12.27667,6.87917 7.14376,0 15.08126,-4.07459 16.19251,-12.27668 l 3.65125,-25.71751 h -6.13833 l -3.65126,25.71751 c -0.58208,4.23334 -5.02708,6.19126 -9.2075,6.19126 -3.175,0 -5.97959,-1.11125 -7.14376,-3.43959 -0.26458,-0.58208 -0.37041,-1.21708 -0.37041,-1.905 z"
         id="path1807" />
      <path
         d="m 197.40266,112.67481 -5.23876,37.46502 h 6.13834 l 2.01083,-14.49917 h 4.49792 l 9.20751,14.49917 h 7.46125 l -9.525,-14.71084 c 5.82083,-0.84667 10.42459,-4.1275 11.43,-11.16542 0.0529,-0.68792 0.10584,-1.37584 0.10584,-2.01084 0,-1.21708 -0.15875,-2.27542 -0.42334,-3.28083 -1.48166,-4.39209 -5.60917,-6.29709 -11.16542,-6.29709 z m 3.65125,17.62126 1.64042,-11.48292 h 8.41375 0.47625 c 0.84667,0 1.5875,0.0529 2.27542,0.21166 1.64042,0.37042 2.80458,1.21709 3.28083,2.64584 0.15875,0.42333 0.21167,0.9525 0.21167,1.53458 0,0.37042 -0.0529,0.74084 -0.10583,1.11125 -0.58209,4.23334 -3.54542,5.97959 -7.77876,5.97959 z"
         id="path1809" />
      <path
         d="m 235.55564,118.76023 h 18.57376 l 0.84667,-6.13834 h -24.7121 l -5.23876,37.51794 h 24.7121 l 0.84667,-6.13834 h -18.57376 l 1.32292,-9.525 h 17.09209 l 0.84667,-6.13834 h -17.0921 z"
         id="path1811" />
    </g>
  </g>
</svg>
