<?xml version="1.0" encoding="UTF-8" standalone="no"?>
<!-- Created with Inkscape (http://www.inkscape.org/) -->

<svg
   width="836.80066"
   height="145.60008"
   viewBox="0 0 221.4035 38.523356"
   version="1.1"
   id="svg5"
   xmlns="http://www.w3.org/2000/svg"
   xmlns:svg="http://www.w3.org/2000/svg">
  <defs
     id="defs2" />
  <g
     id="layer1"
     transform="translate(-37.594155,-112.14564)">
    <g
       id="text233"
       style="font-style:italic;font-weight:600;font-size:52.9167px;line-height:1.25;font-family:'Uni Sans';fill:#ff218c;stroke-width:0.264583">
      <path
         d="m 42.832908,112.67481 -5.238753,37.46502 h 13.440841 c 7.355421,0 14.499175,-3.38667 15.610426,-11.58876 l 2.010835,-14.07584 c 0.105833,-0.68791 0.15875,-1.32291 0.15875,-1.95792 0,-1.21708 -0.211667,-2.32833 -0.582084,-3.33375 -1.693334,-4.445 -6.40292,-6.50875 -11.959174,-6.50875 z m 1.693334,31.32668 3.545419,-25.18834 h 7.355421 c 3.227919,0 5.76792,0.9525 6.826254,3.06916 0.211667,0.52917 0.3175,1.11126 0.3175,1.74626 0,0.26458 0,0.58208 -0.05292,0.84666 l -2.010835,14.07584 c -0.582084,3.96876 -4.392086,5.45042 -8.625422,5.45042 z"
         id="path1772" />
      <path
         d="m 81.726723,118.76023 h 18.573757 l 0.84667,-6.13834 H 76.435053 L 71.1963,150.13983 h 24.712098 l 0.846667,-6.13834 H 78.181304 l 1.322918,-9.525 h 17.092093 l 0.846667,-6.13834 H 80.350889 Z"
         id="path1774" />
      <path
         d="m 112.20675,118.81315 h 18.52085 l 0.84666,-6.13834 h -24.65918 l -5.23875,37.46502 h 6.13834 l 2.01083,-14.65792 h 16.24543 l 0.89958,-6.13834 h -16.24542 z"
         id="path1776" />
      <path
         d="m 142.05173,118.76023 h 18.57376 l 0.84667,-6.13834 h -24.7121 l -5.23875,37.51794 h 24.7121 l 0.84666,-6.13834 h -18.57376 l 1.32292,-9.525 h 17.09209 l 0.84667,-6.13834 H 140.6759 Z"
         id="path1778" />
      <path
         d="m 168.08675,150.13983 2.91042,-20.90209 0.15875,-7.83168 0.37042,-0.10583 2.48709,7.14376 9.73667,21.69584 h 7.14375 l 5.23876,-37.46502 h -6.13834 l -3.01625,21.43126 -0.21167,8.04334 -0.42333,0.10583 -2.80459,-7.46125 -9.89542,-22.11918 h -6.45584 l -5.23875,37.46502 z"
         id="path1780" />
      <path
         d="m 206.34551,123.4169 c 0,-0.26458 0.0529,-0.52917 0.10583,-0.79375 0.58209,-3.175 4.39209,-4.86834 7.99043,-4.86834 3.43958,0 6.13833,1.27 7.24958,4.81542 l 5.87376,-2.43417 c -1.69334,-5.92667 -6.72042,-7.99042 -12.32959,-7.99042 -6.61459,0 -13.49376,3.43959 -14.92251,10.26584 -0.0529,0.58209 -0.10584,1.11125 -0.10584,1.64042 0,1.21708 0.15875,2.2225 0.52917,3.12208 1.69334,4.02167 5.97959,5.82084 10.68917,6.56168 3.49251,0.52916 6.40292,1.27 7.40834,3.38666 0.21167,0.42334 0.3175,0.89959 0.3175,1.48167 0,0.37042 -0.0529,0.74084 -0.10583,1.16417 -0.74083,3.28083 -4.55084,4.70958 -8.36084,4.70958 -3.54542,0 -6.61459,-1.74625 -7.72584,-5.34458 l -5.97958,2.54 c 1.85208,5.97959 7.03792,8.99584 12.75292,8.99584 6.77334,0 14.18168,-3.28084 15.45168,-10.42459 0.15875,-0.9525 0.26458,-1.85209 0.26458,-2.64584 0,-1.05833 -0.15875,-2.01083 -0.47625,-2.80458 -1.64042,-4.445 -6.50875,-5.97959 -11.37709,-6.93209 -2.91042,-0.52917 -5.82084,-1.42875 -6.87917,-3.12208 -0.26459,-0.42334 -0.37042,-0.84667 -0.37042,-1.32292 z"
         id="path1782" />
      <path
         d="m 239.57723,118.76023 h 18.57376 l 0.84667,-6.13834 h -24.7121 l -5.23875,37.51794 h 24.71209 l 0.84667,-6.13834 h -18.57376 l 1.32292,-9.525 h 17.09209 l 0.84667,-6.13834 h -17.0921 z"
         id="path1784" />
    </g>
  </g>
</svg>
