<?xml version="1.0" encoding="UTF-8" standalone="no"?>
<!-- Created with Inkscape (http://www.inkscape.org/) -->

<svg
   width="932.80078"
   height="145.60008"
   viewBox="0 0 246.80353 38.523356"
   version="1.1"
   id="svg5"
   xmlns="http://www.w3.org/2000/svg"
   xmlns:svg="http://www.w3.org/2000/svg">
  <defs
     id="defs2" />
  <g
     id="layer1"
     transform="translate(-34.47213,-167.2875)">
    <g
       id="text354"
       style="font-size:52.9167px;line-height:1.25;font-family:'Uni Sans';fill:#ff218c;stroke-width:0.498151">
      <path
         d="m 39.710883,167.81667 -5.238753,37.46502 h 13.440842 c 7.355421,0 14.499175,-3.38667 15.610426,-11.58875 l 2.010834,-14.07585 c 0.105834,-0.68791 0.15875,-1.32291 0.15875,-1.95791 0,-1.21709 -0.211667,-2.32834 -0.582083,-3.33376 -1.693335,-4.445 -6.402921,-6.50875 -11.959174,-6.50875 z m 1.693335,31.32669 3.545418,-25.18835 h 7.355422 c 3.227918,0 5.76792,0.9525 6.826254,3.06917 0.211666,0.52916 0.3175,1.11125 0.3175,1.74625 0,0.26458 0,0.58208 -0.05292,0.84666 l -2.010834,14.07585 c -0.582084,3.96875 -4.392086,5.45042 -8.625422,5.45042 z"
         style="font-style:italic;font-weight:600;"
         id="path964" />
      <path
         d="m 87.494704,167.2875 c -7.620005,0 -15.71626,4.07459 -16.82751,12.11793 l -2.063752,14.23459 c -0.05292,0.635 -0.105833,1.21708 -0.105833,1.79917 0,1.27 0.211667,2.43416 0.635,3.4925 1.905002,4.60375 7.090838,6.87917 12.858758,6.87917 7.567088,0 15.822093,-4.07459 16.933344,-12.17084 l 2.063749,-14.23459 c 0.0529,-0.58209 0.10584,-1.16417 0.10584,-1.74625 0,-1.32292 -0.21167,-2.48709 -0.68792,-3.54542 -1.905003,-4.49792 -7.143756,-6.82626 -12.911676,-6.82626 z m -12.805841,27.04044 c 0,-0.26459 0,-0.47625 0.05292,-0.74084 l 2.010835,-14.02292 c 0.582084,-4.18042 5.344587,-6.08542 9.895423,-6.08542 3.439585,0 6.667504,1.00541 7.831671,3.33375 0.3175,0.58208 0.47625,1.21708 0.47625,1.95792 0,0.26458 0,0.52916 -0.05292,0.79375 l -2.010835,14.02292 c -0.582084,4.07459 -5.397503,6.08542 -10.001256,6.08542 -3.492502,0 -6.561671,-1.21708 -7.778755,-3.38667 -0.264583,-0.58208 -0.423333,-1.21708 -0.423333,-1.95791 z"
         style="font-style:italic;font-weight:600;"
         id="path966" />
      <path
         d="m 103.36967,205.28169 h 6.08543 l 2.38125,-17.14501 0.37041,-10.37167 h 0.52917 l 1.85209,8.99584 4.28625,13.33501 h 4.81542 l 8.04334,-13.33501 4.39208,-8.83709 h 0.52917 l -2.59292,10.16001 -2.38125,17.19792 h 6.13834 l 5.23875,-37.46502 h -6.87917 l -13.86418,24.34168 -6.87917,-24.34168 h -6.82625 z"
         style="font-style:italic;font-weight:600;"
         id="path968" />
      <path
         d="m 155.49262,173.90209 h 18.57376 l 0.84667,-6.13834 h -24.7121 l -5.23875,37.51794 h 24.71209 l 0.84667,-6.13833 H 151.9472 l 1.32292,-9.52501 h 17.09209 l 0.84667,-6.13834 h -17.0921 z"
         style="font-style:italic;font-weight:600;"
         id="path970" />
      <path
         d="m 183.75014,178.55876 c 0,-0.26458 0.0529,-0.52917 0.10584,-0.79375 0.58208,-3.175 4.39208,-4.86834 7.99042,-4.86834 3.43958,0 6.13834,1.27 7.24959,4.81542 l 5.87375,-2.43417 c -1.69333,-5.92667 -6.72042,-7.99042 -12.32959,-7.99042 -6.61459,0 -13.49376,3.43959 -14.92251,10.26584 -0.0529,0.58209 -0.10583,1.11125 -0.10583,1.64042 0,1.21708 0.15875,2.2225 0.52916,3.12209 1.69334,4.02166 5.97959,5.82083 10.68918,6.56167 3.4925,0.52916 6.40292,1.27 7.40833,3.38666 0.21167,0.42334 0.3175,0.89959 0.3175,1.48167 0,0.37042 -0.0529,0.74084 -0.10583,1.16417 -0.74083,3.28083 -4.55083,4.70959 -8.36084,4.70959 -3.54542,0 -6.61458,-1.74626 -7.72583,-5.34459 l -5.97959,2.54 c 1.85208,5.97959 7.03792,8.99584 12.75292,8.99584 6.77334,0 14.18168,-3.28084 15.45168,-10.42459 0.15875,-0.9525 0.26458,-1.85208 0.26458,-2.64584 0,-1.05833 -0.15875,-2.01083 -0.47625,-2.80458 -1.64042,-4.445 -6.50875,-5.97959 -11.37709,-6.93209 -2.91042,-0.52916 -5.82084,-1.42875 -6.87917,-3.12208 -0.26458,-0.42334 -0.37042,-0.84667 -0.37042,-1.32292 z"
         style="font-style:italic;font-weight:600;"
         id="path972" />
      <path
         d="m 236.77271,173.95501 0.89958,-6.19126 h -28.89252 l -0.89958,6.19126 h 11.37709 l -4.33917,31.32668 h 6.13834 l 4.33917,-31.32668 z"
         style="font-style:italic;font-weight:600;"
         id="path974" />
      <path
         d="m 248.04398,167.81667 h -6.08542 l -5.23875,37.46502 h 6.08542 z"
         style="font-style:italic;font-weight:600;"
         id="path976" />
      <path
         d="m 268.68149,167.2875 c -7.3025,0 -15.08126,4.07459 -16.19251,12.06501 l -1.95791,14.39334 c -0.10584,0.635 -0.15875,1.21709 -0.15875,1.79917 0,1.27 0.21166,2.43417 0.68791,3.4925 1.79917,4.55084 6.66751,6.77334 12.11793,6.77334 5.55625,0 11.48292,-2.8575 15.18709,-8.67834 l -5.13292,-2.54 c -2.27542,3.38667 -5.82084,5.08 -9.20751,5.08 -3.12208,0 -5.97958,-1.11125 -7.03792,-3.33375 -0.26458,-0.52917 -0.42333,-1.11125 -0.42333,-1.79917 0,-0.26458 0,-0.52916 0.0529,-0.79375 l 1.95791,-14.39334 c 0.58209,-3.96875 4.92126,-5.92667 9.10168,-5.92667 3.33375,0 6.45583,1.74625 7.77875,5.13292 l 5.82084,-2.69875 c -1.85209,-5.76792 -7.14376,-8.57251 -12.59418,-8.57251 z"
         style="font-style:italic;font-weight:600;"
         id="path978" />
    </g>
  </g>
</svg>
