<?xml version="1.0" encoding="UTF-8" standalone="no"?>
<!-- Created with Inkscape (http://www.inkscape.org/) -->

<svg
   width="1660.8018"
   height="145.60008"
   viewBox="0 0 439.42045 38.523356"
   version="1.1"
   id="svg5"
   xmlns="http://www.w3.org/2000/svg"
   xmlns:svg="http://www.w3.org/2000/svg">
  <defs
     id="defs2" />
  <g
     id="layer1"
     transform="translate(-39.604989,-112.14564)">
    <g
       id="text233"
       style="font-style:italic;font-weight:600;font-size:52.9167px;line-height:1.25;font-family:'Uni Sans';fill:#ff218c;stroke-width:0.264583">
      <path
         d="m 49.394578,143.10191 c 0,-1.32292 0,-2.48708 -0.05292,-3.4925 -0.05292,-1.74625 -0.105834,-3.4925 -0.05292,-3.4925 l -3.333752,-23.4421 h -6.350004 l 5.60917,37.46502 h 6.508754 l 8.307922,-18.36209 c -0.05292,0 0.370417,-1.11125 0.740834,-2.32834 l 0.79375,-2.32833 h 0.370417 l 0.05292,4.70958 3.386668,18.30918 h 6.508754 l 16.086677,-37.46502 h -6.297088 l -9.842505,23.33626 -1.852085,6.98501 h -0.47625 l -0.3175,-3.4925 c -0.15875,-1.74626 -0.317501,-3.54542 -0.264584,-3.54542 l -3.333752,-17.78001 h -5.13292 l -8.413755,17.67417 -2.169584,7.24959 z"
         id="path1727" />
      <path
         d="m 105.43334,112.14564 c -7.620008,0 -15.716263,4.07459 -16.827513,12.11793 l -2.063752,14.23459 c -0.05292,0.635 -0.105833,1.21708 -0.105833,1.79917 0,1.27 0.211667,2.43416 0.635,3.4925 1.905002,4.60375 7.090838,6.87917 12.858758,6.87917 7.56709,0 15.82209,-4.07459 16.93334,-12.17084 l 2.06375,-14.23459 c 0.0529,-0.58209 0.10584,-1.16417 0.10584,-1.74626 0,-1.32291 -0.21167,-2.48708 -0.68792,-3.54541 -1.905,-4.49792 -7.14375,-6.82626 -12.91167,-6.82626 z m -12.805844,27.04043 c 0,-0.26458 0,-0.47625 0.05292,-0.74083 l 2.010835,-14.02292 c 0.582084,-4.18042 5.344583,-6.08542 9.895423,-6.08542 3.43959,0 6.6675,1.00541 7.83167,3.33375 0.3175,0.58208 0.47625,1.21708 0.47625,1.95792 0,0.26458 0,0.52916 -0.0529,0.79375 l -2.01083,14.02292 c -0.58208,4.07459 -5.3975,6.08542 -10.00126,6.08542 -3.492498,0 -6.561667,-1.21708 -7.778751,-3.38667 -0.264583,-0.58208 -0.423333,-1.21708 -0.423333,-1.95792 z"
         id="path1729" />
      <path
         d="m 126.54706,112.67481 -5.23875,37.46502 h 6.13834 l 2.01083,-14.49917 h 4.49792 l 9.20751,14.49917 h 7.46125 l -9.525,-14.71084 c 5.82083,-0.84667 10.42459,-4.1275 11.43,-11.16542 0.0529,-0.68792 0.10584,-1.37584 0.10584,-2.01084 0,-1.21708 -0.15875,-2.27542 -0.42334,-3.28083 -1.48166,-4.39209 -5.60917,-6.29709 -11.16542,-6.29709 z m 3.65126,17.62126 1.64041,-11.48292 h 8.41376 0.47625 c 0.84667,0 1.5875,0.0529 2.27542,0.21166 1.64042,0.37042 2.80458,1.21709 3.28083,2.64584 0.15875,0.42333 0.21167,0.9525 0.21167,1.53458 0,0.37042 -0.0529,0.74084 -0.10583,1.11125 -0.58209,4.23334 -3.54542,5.97959 -7.77876,5.97959 z"
         id="path1731" />
      <path
         d="m 154.16962,150.13983 h 23.17752 l 0.84666,-6.13834 h -17.09209 l 4.39209,-31.32668 h -6.08542 z"
         id="path1733" />
      <path
         d="m 186.7134,112.67481 -5.23875,37.46502 h 13.44084 c 7.35542,0 14.49917,-3.38667 15.61043,-11.58876 l 2.01083,-14.07584 c 0.10583,-0.68791 0.15875,-1.32291 0.15875,-1.95792 0,-1.21708 -0.21167,-2.32833 -0.58208,-3.33375 -1.69334,-4.445 -6.40292,-6.50875 -11.95918,-6.50875 z m 1.69334,31.32668 3.54541,-25.18834 h 7.35543 c 3.22791,0 5.76792,0.9525 6.82625,3.06916 0.21167,0.52917 0.3175,1.11126 0.3175,1.74626 0,0.26458 0,0.58208 -0.0529,0.84666 l -2.01083,14.07584 c -0.58209,3.96876 -4.39209,5.45042 -8.62542,5.45042 z"
         id="path1735" />
      <path
         d="m 245.76855,112.67481 h -6.40292 l -18.73251,37.46502 h 6.56167 l 4.70959,-9.73667 h 13.44084 l 2.32833,9.73667 h 6.40292 z m -3.70417,6.19125 0.3175,5.92667 1.74625,9.47209 h -9.26042 l 4.33917,-9.36625 2.11667,-6.03251 z"
         id="path1737" />
      <path
         d="m 265.13607,123.4169 c 0,-0.26458 0.0529,-0.52917 0.10583,-0.79375 0.58209,-3.175 4.39209,-4.86834 7.99042,-4.86834 3.43959,0 6.13834,1.27 7.24959,4.81542 l 5.87376,-2.43417 c -1.69334,-5.92667 -6.72043,-7.99042 -12.3296,-7.99042 -6.61458,0 -13.49375,3.43959 -14.9225,10.26584 -0.0529,0.58209 -0.10584,1.11125 -0.10584,1.64042 0,1.21708 0.15875,2.2225 0.52917,3.12208 1.69333,4.02167 5.97959,5.82084 10.68917,6.56168 3.4925,0.52916 6.40292,1.27 7.40834,3.38666 0.21167,0.42334 0.3175,0.89959 0.3175,1.48167 0,0.37042 -0.0529,0.74084 -0.10583,1.16417 -0.74084,3.28083 -4.55084,4.70958 -8.36084,4.70958 -3.54542,0 -6.61459,-1.74625 -7.72584,-5.34458 l -5.97959,2.54 c 1.85209,5.97959 7.03792,8.99584 12.75293,8.99584 6.77334,0 14.18167,-3.28084 15.45167,-10.42459 0.15875,-0.9525 0.26459,-1.85209 0.26459,-2.64584 0,-1.05833 -0.15875,-2.01083 -0.47625,-2.80458 -1.64042,-4.445 -6.50876,-5.97959 -11.37709,-6.93209 -2.91042,-0.52917 -5.82084,-1.42875 -6.87917,-3.12208 -0.26459,-0.42334 -0.37042,-0.84667 -0.37042,-1.32292 z"
         id="path1739" />
      <path
         d="m 296.14529,123.4169 c 0,-0.26458 0.0529,-0.52917 0.10583,-0.79375 0.58208,-3.175 4.39208,-4.86834 7.99042,-4.86834 3.43959,0 6.13834,1.27 7.24959,4.81542 l 5.87375,-2.43417 c -1.69333,-5.92667 -6.72042,-7.99042 -12.32959,-7.99042 -6.61459,0 -13.49376,3.43959 -14.92251,10.26584 -0.0529,0.58209 -0.10583,1.11125 -0.10583,1.64042 0,1.21708 0.15875,2.2225 0.52917,3.12208 1.69333,4.02167 5.97958,5.82084 10.68917,6.56168 3.4925,0.52916 6.40292,1.27 7.40834,3.38666 0.21166,0.42334 0.3175,0.89959 0.3175,1.48167 0,0.37042 -0.0529,0.74084 -0.10584,1.16417 -0.74083,3.28083 -4.55083,4.70958 -8.36084,4.70958 -3.54541,0 -6.61458,-1.74625 -7.72583,-5.34458 l -5.97959,2.54 c 1.85208,5.97959 7.03792,8.99584 12.75292,8.99584 6.77334,0 14.18168,-3.28084 15.45168,-10.42459 0.15875,-0.9525 0.26458,-1.85209 0.26458,-2.64584 0,-1.05833 -0.15875,-2.01083 -0.47625,-2.80458 -1.64041,-4.445 -6.50875,-5.97959 -11.37709,-6.93209 -2.91042,-0.52917 -5.82083,-1.42875 -6.87917,-3.12208 -0.26458,-0.42334 -0.37041,-0.84667 -0.37041,-1.32292 z"
         id="path1741" />
      <path
         d="m 329.37699,118.76023 h 18.57376 l 0.84667,-6.13834 h -24.7121 l -5.23876,37.51794 h 24.7121 l 0.84667,-6.13834 h -18.57376 l 1.32292,-9.525 h 17.09209 l 0.84667,-6.13834 h -17.0921 z"
         id="path1743" />
      <path
         d="m 349.27369,150.13983 h 6.08542 l 2.38125,-17.14501 0.37042,-10.37167 h 0.52917 l 1.85208,8.99584 4.28625,13.33501 h 4.81542 l 8.04334,-13.33501 4.39209,-8.83709 h 0.52916 l -2.59292,10.16 -2.38125,17.19793 h 6.13834 l 5.23875,-37.46502 h -6.87917 l -13.86417,24.34168 -6.87917,-24.34168 h -6.82626 z"
         id="path1745" />
      <path
         d="m 420.23496,136.27566 c -0.10584,-2.59292 -1.21709,-4.92126 -4.02167,-6.19126 2.69875,-1.64041 4.07458,-4.55083 4.445,-7.09083 0.10583,-0.63501 0.15875,-1.21709 0.15875,-1.79917 0,-1.00542 -0.15875,-1.95792 -0.42333,-2.75167 -1.27001,-3.91584 -4.97417,-5.82084 -9.68376,-5.82084 h -14.60501 l -5.23875,37.51794 h 14.55209 c 7.35542,0 13.38792,-2.91042 14.65793,-11.16542 0.10583,-0.79375 0.15875,-1.53459 0.15875,-2.2225 z m -20.10835,-8.67834 1.27,-9.04876 h 8.46667 c 1.48167,0 2.69875,0.3175 3.65125,1.00542 0.79375,0.58208 1.16417,1.37583 1.16417,2.48708 0,0.26459 0,0.47625 -0.0529,0.74084 -0.47626,3.43958 -2.91042,4.81542 -6.03251,4.81542 z m 6.13834,16.66876 h -8.46667 l 1.5875,-11.16543 h 8.46667 0.26458 c 1.95792,0 3.4925,0.42334 4.60375,1.27001 0.89959,0.68791 1.37584,1.79916 1.37584,3.22791 0,0.37042 -0.0529,0.74084 -0.10584,1.16417 -0.42333,3.01625 -2.27541,4.70959 -4.92125,5.23875 -0.74083,0.15875 -1.53458,0.26459 -2.32833,0.26459 z"
         id="path1747" />
      <path
         d="m 423.88624,150.13983 h 23.17751 l 0.84667,-6.13834 h -17.09209 l 4.39208,-31.32668 h -6.08542 z"
         id="path1749" />
      <path
         d="m 460.71627,150.13983 2.01084,-14.55209 16.29834,-22.91293 h -7.14375 l -11.37709,17.03918 -6.66751,-17.03918 h -7.03792 l 9.78959,22.91293 -2.01083,14.55209 z"
         id="path1751" />
    </g>
  </g>
</svg>
