<?xml version="1.0" encoding="UTF-8" standalone="no"?>
<!-- Created with Inkscape (http://www.inkscape.org/) -->

<svg
   width="510"
   height="105"
   viewBox="0 0 134.9375 27.781251"
   version="1.1"
   id="svg5"
   inkscape:version="1.1.1 (3bf5ae0d25, 2021-09-20)"
   sodipodi:docname="Nordpartiet logo.svg"
   xmlns:inkscape="http://www.inkscape.org/namespaces/inkscape"
   xmlns:sodipodi="http://sodipodi.sourceforge.net/DTD/sodipodi-0.dtd"
   xmlns="http://www.w3.org/2000/svg"
   xmlns:svg="http://www.w3.org/2000/svg">
  <sodipodi:namedview
     id="namedview7"
     pagecolor="#ffffff"
     bordercolor="#000000"
     borderopacity="1"
     inkscape:pageshadow="0"
     inkscape:pageopacity="0"
     inkscape:pagecheckerboard="false"
     inkscape:document-units="px"
     showgrid="false"
     units="px"
     inkscape:showpageshadow="false"
     fit-margin-top="0"
     fit-margin-left="0"
     fit-margin-right="0"
     fit-margin-bottom="0"
     borderlayer="true"
     inkscape:zoom="1.0482005"
     inkscape:cx="208.45249"
     inkscape:cy="-26.235439"
     inkscape:window-width="1920"
     inkscape:window-height="1017"
     inkscape:window-x="-8"
     inkscape:window-y="-8"
     inkscape:window-maximized="1"
     inkscape:current-layer="layer1" />
  <defs
     id="defs2" />
  <g
     inkscape:label="Layer 1"
     inkscape:groupmode="layer"
     id="layer1"
     transform="translate(-45.190893,-121.41149)">
    <g
       aria-label="Nordpartiet"
       id="text1772"
       style="font-weight:bold;font-size:28.8531px;line-height:1.25;font-family:'Uni Sans';-inkscape-font-specification:'Uni Sans Bold';fill:#009fe1;stroke-width:0.288531"
       transform="translate(0.60187271,0.66148025)">
      <path
         d="m 56.962957,132.40452 c 0,0.4328 0.375091,3.02958 0.605915,4.32797 l -0.288531,0.0577 -1.442655,-3.69319 -6.463094,-11.1373 h -4.183699 v 20.428 h 4.270258 v -9.95432 l -0.548209,-3.49123 0.288531,-0.0577 1.240684,2.7699 6.232269,10.73336 h 4.529937 v -20.428 h -4.241406 z"
         id="path8888" />
      <path
         d="m 64.147349,137.36726 c 0,3.57778 3.000722,5.30897 6.001445,5.30897 2.971869,0 5.972592,-1.73119 5.972592,-5.30897 v -4.87618 c 0,-3.52008 -3.000723,-5.33782 -5.972592,-5.33782 -3.000723,0 -6.001445,1.81774 -6.001445,5.33782 z m 6.001445,-6.60736 c 0.923299,0 1.962011,0.51935 1.962011,1.4715 v 5.22242 c 0,0.95215 -1.038712,1.61577 -1.962011,1.61577 -0.952152,0 -1.990864,-0.66362 -1.990864,-1.61577 v -5.22242 c 0,-0.95215 1.038712,-1.4715 1.990864,-1.4715 z"
         id="path8890" />
      <path
         d="m 84.517624,127.15326 c -2.712191,0 -5.857179,1.73118 -5.857179,5.30897 v 9.92547 h 4.010581 v -9.86776 c 0,-1.26954 1.269536,-1.93316 2.625632,-1.99087 h 0.201972 c 0.37509,0 0.75018,0.0577 1.125271,0.14427 v -3.23155 c -0.83674,-0.20197 -1.558068,-0.28853 -2.106277,-0.28853 z"
         id="path8892" />
      <path
         d="m 94.269886,142.67623 c 1.875452,0 3.981728,-0.4328 5.828324,-1.12527 v -19.56241 h -4.039431 v 5.68406 c -0.750181,-0.34623 -1.558068,-0.51935 -2.452514,-0.51935 -2.769898,0 -5.539795,1.96201 -5.539795,5.07814 v 5.28012 c 0.317384,3.86632 3.058428,5.16471 6.203416,5.16471 z m 0.201972,-12.32028 c 0.144266,0 0.317384,0 0.46165,0.0289 0.432796,0.0577 0.807886,0.17311 1.125271,0.34623 v 8.65593 c -0.346238,0.17312 -0.750181,0.25968 -1.182978,0.28853 -0.08656,0.0289 -0.201971,0.0289 -0.288531,0.0289 -0.346237,0 -0.692474,-0.0577 -1.009858,-0.14427 -0.807887,-0.23082 -1.471508,-0.77903 -1.500361,-1.67348 v -5.85718 c 0.115412,-0.83674 0.779033,-1.35609 1.58692,-1.58692 0.259678,-0.0577 0.548209,-0.0866 0.807887,-0.0866 z"
         id="path8894" />
      <path
         d="m 108.92723,127.15326 c -1.87545,0 -3.98173,0.4328 -5.82833,1.12527 v 19.59125 h 4.03944 v -5.71291 c 0.75018,0.34624 1.55806,0.51936 2.42366,0.51936 2.79875,0 5.56865,-1.55807 5.56865,-5.07815 v -5.45324 c 0,-3.92402 -3.08729,-4.99158 -6.20342,-4.99158 z m -0.23083,12.43568 c -0.57706,0 -1.12527,-0.11541 -1.55806,-0.34623 v -8.68479 c 0.46165,-0.23082 1.00985,-0.34623 1.61577,-0.34623 1.29839,0 2.36595,0.4905 2.36595,1.73118 v 5.65521 c 0,1.3561 -1.12527,1.99086 -2.42366,1.99086 z"
         id="path8896" />
      <path
         d="m 117.09261,137.94432 c 0,2.88531 1.96201,4.73191 6.20342,4.73191 1.84659,0 3.86631,-0.4328 5.62635,-1.09642 v -9.11758 c 0,-3.60664 -2.91416,-5.30897 -5.88603,-5.30897 -2.07743,0.0288 -3.86632,0.75018 -5.39553,2.51022 l 1.96201,2.10627 c 0.72133,-0.77903 2.01972,-1.38494 3.14499,-1.38494 1.24068,0 2.30824,0.4905 2.30824,2.07742 v 1.06756 c -0.89444,-0.31738 -1.76003,-0.46165 -2.65448,-0.46165 -2.71219,0 -5.30897,1.41381 -5.30897,4.87618 z m 6.0303,-1.93316 c 0.66362,0 1.35609,0.14427 1.81774,0.34624 v 3.02957 c -0.51935,0.14427 -1.09642,0.20197 -1.70233,0.20197 -1.61577,0 -2.3371,-0.69247 -2.3371,-1.76003 0,-1.06757 0.69247,-1.81775 2.22169,-1.81775 z"
         id="path8898" />
      <path
         d="m 137.54944,127.15326 c -2.71219,0 -5.85718,1.73118 -5.85718,5.30897 v 9.92547 h 4.01058 v -9.86776 c 0,-1.26954 1.26954,-1.93316 2.62563,-1.99087 h 0.20197 c 0.37509,0 0.75018,0.0577 1.12528,0.14427 v -3.23155 c -0.83674,-0.20197 -1.55807,-0.28853 -2.10628,-0.28853 z"
         id="path8900" />
      <path
         d="m 146.17646,142.61852 c 0.77903,0 1.58692,-0.14427 2.45251,-0.4328 v -3.28925 c -0.4905,0.0866 -0.89444,0.14427 -1.24068,0.14427 -0.46165,0 -0.83674,-0.0866 -1.12527,-0.23083 -0.4905,-0.25968 -0.72133,-0.83674 -0.72133,-1.70233 v -6.00145 h 2.65449 v -3.66434 h -2.65449 l -0.28853,-3.31811 h -3.6932 v 13.01275 c 0,3.49123 1.70234,5.30897 4.27026,5.48209 z"
         id="path8902" />
      <path
         d="m 152.78377,121.41149 c -1.38494,0 -2.45251,1.09642 -2.45251,2.48137 0,1.4138 1.06757,2.51022 2.45251,2.51022 1.38495,0 2.48137,-1.09642 2.48137,-2.51022 0,-1.38495 -1.09642,-2.48137 -2.48137,-2.48137 z m 2.07743,6.05915 h -4.09714 v 14.91706 h 4.09714 z"
         id="path8904" />
      <path
         d="m 163.60368,142.67623 c 1.76004,0 4.09714,-0.69248 5.22241,-2.82761 l -2.62563,-1.9043 c -0.46165,0.77903 -1.4138,1.12527 -2.3371,1.12527 -1.15413,0 -2.25054,-0.60592 -2.25054,-1.76004 v -0.66362 h 7.81919 v -4.38567 c 0,-3.60664 -2.85646,-5.107 -5.77062,-5.107 -3.00073,0 -6.08801,1.67348 -6.08801,5.28012 v 4.93388 c 0,3.54893 3.02958,5.30897 6.0303,5.30897 z m 2.04857,-9.00217 h -4.03943 v -1.32724 c 0,-1.06757 1.03871,-1.58692 2.07742,-1.58692 1.00986,0 1.96201,0.51935 1.96201,1.55806 z"
         id="path8906" />
      <path
         d="m 176.47214,142.61852 c 0.77903,0 1.58692,-0.14427 2.45251,-0.4328 v -3.28925 c -0.4905,0.0866 -0.89445,0.14427 -1.24068,0.14427 -0.46165,0 -0.83674,-0.0866 -1.12527,-0.23083 -0.49051,-0.25968 -0.72133,-0.83674 -0.72133,-1.70233 v -6.00145 h 2.65448 v -3.66434 h -2.65448 l -0.28853,-3.31811 h -3.6932 v 13.01275 c 0,3.49123 1.70233,5.30897 4.27026,5.48209 z"
         id="path8908" />
    </g>
  </g>
</svg>
