<?xml version="1.0" encoding="UTF-8" standalone="no"?>
<svg
   width="197.23801"
   height="481.5112"
   viewBox="0 0 52.185887 127.39984"
   version="1.1"
   id="svg5"
   xmlns:xlink="http://www.w3.org/1999/xlink"
   xmlns="http://www.w3.org/2000/svg"
   xmlns:svg="http://www.w3.org/2000/svg">
  <defs
     id="defs2">
    <linearGradient
       id="a-9"
       gradientUnits="userSpaceOnUse"
       x1="338.9"
       x2="322.8"
       y1="292.1"
       y2="203.1">
      <stop
         offset="0"
         stop-color="#e6d82f"
         id="stop10848" />
      <stop
         offset="1"
         stop-color="#faf26f"
         id="stop10850" />
    </linearGradient>
    <linearGradient
       id="b"
       gradientUnits="userSpaceOnUse"
       x1="391.9"
       x2="341.2"
       y1="310.6"
       y2="310.6">
      <stop
         offset="0"
         stop-color="#d2c308"
         id="stop10853" />
      <stop
         offset="1"
         stop-color="#e8da34"
         id="stop10855" />
    </linearGradient>
  </defs>
  <g
     id="layer1"
     transform="translate(-106.61779,-62.490349)">
    <g
       id="g2410"
       transform="matrix(0.26458333,0,0,0.26458333,106.21774,62.294877)">
      <polygon
         fill="#72602e"
         stroke="#72602e"
         stroke-width="3"
         stroke-miterlimit="10"
         points="3.012,75.802 100.131,2.617 197.25,75.802 197.25,480.75 3.012,480.75 "
         id="polygon2404"
         style="fill:#000000;fill-opacity:1;stroke:#000000;stroke-opacity:1" />
      <polygon
         fill="#fddd10"
         stroke="#bc8810"
         stroke-width="3"
         stroke-miterlimit="10"
         points="8.012,78.295 100.131,8.878 192.25,78.295 192.25,480.75 183.25,480.75 183.25,82.782 100.131,20.147 17.012,82.782 17.012,480.75 8.012,480.75 "
         id="polygon2406"
         style="fill:#757575;fill-opacity:1;stroke:#fefeff;stroke-opacity:1" />
      <polyline
         fill="none"
         stroke="#bc8810"
         stroke-width="3"
         stroke-miterlimit="10"
         points="8.012,480.75 8.012,78.295     100.131,8.878 192.25,78.295 192.25,480.75   "
         id="polyline2408"
         style="stroke:#ffffff;stroke-opacity:1" />
    </g>
    <g
       id="g53455"
       transform="matrix(0.26458333,0,0,0.26458333,1178.3525,62.294877)">
      <linearGradient
         id="circle53457_1_"
         gradientUnits="userSpaceOnUse"
         x1="-68150.875"
         y1="-366.1821"
         x2="-68130.094"
         y2="-366.1821"
         gradientTransform="matrix(2.4,0,0,-2.4,159585.14,-810.7672)">
        <stop
           offset="0"
           style="stop-color:#DBB110"
           id="stop2702" />
        <stop
           offset="0.188"
           style="stop-color:#E3BC10"
           id="stop2704" />
        <stop
           offset="0.6907"
           style="stop-color:#F6D410"
           id="stop2706" />
        <stop
           offset="1"
           style="stop-color:#FDDD10"
           id="stop2708" />
      </linearGradient>
      <linearGradient
         id="circle53457_2_"
         gradientUnits="userSpaceOnUse"
         x1="-48097.656"
         y1="-243.6113"
         x2="-48098.191"
         y2="-218.6378"
         gradientTransform="matrix(1.8581,0,0,-1.8581,121427.09,-1132.9163)">
        <stop
           offset="0"
           style="stop-color:#DBB110"
           id="stop2711" />
        <stop
           offset="1"
           style="stop-color:#BC8810"
           id="stop2713" />
      </linearGradient>
      <circle
         id="circle53457"
         fill="url(#circle53457_1_)"
         stroke="url(#circle53457_2_)"
         stroke-width="2.6728"
         stroke-linejoin="round"
         cx="-3952.032"
         cy="68.07"
         style="fill:#2e2e2e;fill-opacity:1;stroke:#222222;stroke-opacity:1"
         r="23.857" />
      <circle
         id="circle53459"
         fill="none"
         stroke="#bc8810"
         stroke-width="1.1215"
         stroke-linejoin="round"
         stroke-opacity="0.3922"
         cx="-3952.032"
         cy="68.07"
         r="20.320999"
         style="stroke:#222222;stroke-opacity:1" />
    </g>
    <g
       id="g8164"
       transform="matrix(0.01391445,0,0,0.01391445,124.11508,153.73344)">
      <path
         d="M 0,448.8 H 1235.5 L 236,1175 617.7,0 999.5,1175 Z"
         fill="#d40000"
         id="path8152"
         style="fill:#757575;fill-opacity:1" />
      <path
         d="m 617.7,650 v 228.7 l 352.2,256 z m 0,0 -352.1,484.8 134.3,-414 z M 617.7,49.8 752.6,464.2 617.7,650 Z M 1188.2,464.2 617.7,650 835.5,720.7 Z M 483,464.2 617.6,650 47.3,464.2 Z"
         fill="#a50000"
         id="path8154"
         style="fill:#595959;fill-opacity:1" />
    </g>
    <g
       id="g2984"
       transform="matrix(0.02645833,0,0,0.02645833,126.09615,173.61535)"
       style="fill:none;fill-opacity:1;stroke:#ffffff;stroke-opacity:1">
      <circle
         cx="250"
         cy="250"
         r="40"
         stroke="#000000"
         stroke-width="7"
         fill="none"
         id="circle2838"
         style="fill:none;fill-opacity:1;stroke:#ffffff;stroke-opacity:1" />
      <g
         id="a"
         stroke="#000000"
         stroke-width="7"
         style="fill:none;fill-opacity:1;stroke:#ffffff;stroke-opacity:1">
        <path
           d="M 0,250 H 250"
           id="path2840"
           style="fill:none;fill-opacity:1;stroke:#ffffff;stroke-opacity:1" />
        <path
           d="m 5,200 c 60,0 60,100 0,100"
           fill="none"
           id="path2842"
           style="fill:none;fill-opacity:1;stroke:#ffffff;stroke-opacity:1" />
        <path
           d="m 125,215 v 70 m -25,-70 v 70 m 50,-70 v 70"
           id="path2844"
           style="fill:none;fill-opacity:1;stroke:#ffffff;stroke-opacity:1" />
      </g>
      <use
         xlink:href="#a"
         transform="rotate(45,250,250)"
         id="use2847"
         x="0"
         y="0"
         width="100%"
         height="100%"
         style="fill:none;fill-opacity:1;stroke:#ffffff;stroke-opacity:1" />
      <use
         xlink:href="#a"
         transform="rotate(90,250,250)"
         id="use2849"
         x="0"
         y="0"
         width="100%"
         height="100%"
         style="fill:none;fill-opacity:1;stroke:#ffffff;stroke-opacity:1" />
      <use
         xlink:href="#a"
         transform="rotate(135,250,250)"
         id="use2851"
         x="0"
         y="0"
         width="100%"
         height="100%"
         style="fill:none;fill-opacity:1;stroke:#ffffff;stroke-opacity:1" />
      <use
         xlink:href="#a"
         transform="rotate(180,250,250)"
         id="use2853"
         x="0"
         y="0"
         width="100%"
         height="100%"
         style="fill:none;fill-opacity:1;stroke:#ffffff;stroke-opacity:1" />
      <use
         xlink:href="#a"
         transform="rotate(-45,250,250)"
         id="use2855"
         x="0"
         y="0"
         width="100%"
         height="100%"
         style="fill:none;fill-opacity:1;stroke:#ffffff;stroke-opacity:1" />
      <use
         xlink:href="#a"
         transform="rotate(-90,250,250)"
         id="use2857"
         x="0"
         y="0"
         width="100%"
         height="100%"
         style="fill:none;fill-opacity:1;stroke:#ffffff;stroke-opacity:1" />
      <use
         xlink:href="#a"
         transform="rotate(-135,250,250)"
         id="use2859"
         x="0"
         y="0"
         width="100%"
         height="100%"
         style="fill:none;fill-opacity:1;stroke:#ffffff;stroke-opacity:1" />
    </g>
  </g>
</svg>
