<?xml version="1.0" encoding="UTF-8" standalone="no"?>
<svg
   width="197.23801"
   height="481.5112"
   viewBox="0 0 52.185887 127.39984"
   version="1.1"
   id="svg5"
   xmlns:xlink="http://www.w3.org/1999/xlink"
   xmlns="http://www.w3.org/2000/svg"
   xmlns:svg="http://www.w3.org/2000/svg">
  <defs
     id="defs2">
    <linearGradient
       id="a-9"
       gradientUnits="userSpaceOnUse"
       x1="338.9"
       x2="322.8"
       y1="292.1"
       y2="203.1">
      <stop
         offset="0"
         stop-color="#e6d82f"
         id="stop10848" />
      <stop
         offset="1"
         stop-color="#faf26f"
         id="stop10850" />
    </linearGradient>
    <linearGradient
       id="b"
       gradientUnits="userSpaceOnUse"
       x1="391.9"
       x2="341.2"
       y1="310.6"
       y2="310.6">
      <stop
         offset="0"
         stop-color="#d2c308"
         id="stop10853" />
      <stop
         offset="1"
         stop-color="#e8da34"
         id="stop10855" />
    </linearGradient>
  </defs>
  <g
     id="layer1"
     transform="translate(-106.61779,-62.490349)">
    <g
       id="g2410"
       transform="matrix(0.26458333,0,0,0.26458333,106.21774,62.294877)">
      <polygon
         fill="#72602e"
         stroke="#72602e"
         stroke-width="3"
         stroke-miterlimit="10"
         points="3.012,75.802 100.131,2.617 197.25,75.802 197.25,480.75 3.012,480.75 "
         id="polygon2404"
         style="fill:#000000;fill-opacity:1;stroke:#000000;stroke-opacity:1" />
      <polygon
         fill="#fddd10"
         stroke="#bc8810"
         stroke-width="3"
         stroke-miterlimit="10"
         points="8.012,78.295 100.131,8.878 192.25,78.295 192.25,480.75 183.25,480.75 183.25,82.782 100.131,20.147 17.012,82.782 17.012,480.75 8.012,480.75 "
         id="polygon2406"
         style="fill:#000000;fill-opacity:1;stroke:#0b5fad;stroke-opacity:1" />
      <polyline
         fill="none"
         stroke="#bc8810"
         stroke-width="3"
         stroke-miterlimit="10"
         points="8.012,480.75 8.012,78.295     100.131,8.878 192.25,78.295 192.25,480.75   "
         id="polyline2408"
         style="stroke:#0b5fad;stroke-opacity:1" />
    </g>
    <g
       id="g53455"
       transform="matrix(0.26458333,0,0,0.26458333,1178.3525,62.294877)">
      <linearGradient
         id="circle53457_1_"
         gradientUnits="userSpaceOnUse"
         x1="-68150.875"
         y1="-366.1821"
         x2="-68130.094"
         y2="-366.1821"
         gradientTransform="matrix(2.4,0,0,-2.4,159585.14,-810.7672)">
        <stop
           offset="0"
           style="stop-color:#DBB110"
           id="stop2702" />
        <stop
           offset="0.188"
           style="stop-color:#E3BC10"
           id="stop2704" />
        <stop
           offset="0.6907"
           style="stop-color:#F6D410"
           id="stop2706" />
        <stop
           offset="1"
           style="stop-color:#FDDD10"
           id="stop2708" />
      </linearGradient>
      <linearGradient
         id="circle53457_2_"
         gradientUnits="userSpaceOnUse"
         x1="-48097.656"
         y1="-243.6113"
         x2="-48098.191"
         y2="-218.6378"
         gradientTransform="matrix(1.8581,0,0,-1.8581,121427.09,-1132.9163)">
        <stop
           offset="0"
           style="stop-color:#DBB110"
           id="stop2711" />
        <stop
           offset="1"
           style="stop-color:#BC8810"
           id="stop2713" />
      </linearGradient>
      <circle
         id="circle53457"
         fill="url(#circle53457_1_)"
         stroke="url(#circle53457_2_)"
         stroke-width="2.6728"
         stroke-linejoin="round"
         cx="-3952.032"
         cy="68.07"
         style="fill:#2e2e2e;fill-opacity:1;stroke:#222222;stroke-opacity:1"
         r="23.857" />
      <circle
         id="circle53459"
         fill="none"
         stroke="#bc8810"
         stroke-width="1.1215"
         stroke-linejoin="round"
         stroke-opacity="0.3922"
         cx="-3952.032"
         cy="68.07"
         r="20.320999"
         style="stroke:#222222;stroke-opacity:1" />
    </g>
    <g
       id="g2984"
       transform="matrix(0.02645833,0,0,0.02645833,126.09615,173.61535)"
       style="fill:none;fill-opacity:1;stroke:#ffffff;stroke-opacity:1">
      <circle
         cx="250"
         cy="250"
         r="40"
         stroke="#000000"
         stroke-width="7"
         fill="none"
         id="circle2838"
         style="fill:none;fill-opacity:1;stroke:#ffffff;stroke-opacity:1" />
      <g
         id="a"
         stroke="#000000"
         stroke-width="7"
         style="fill:none;fill-opacity:1;stroke:#ffffff;stroke-opacity:1">
        <path
           d="M 0,250 H 250"
           id="path2840"
           style="fill:none;fill-opacity:1;stroke:#ffffff;stroke-opacity:1" />
        <path
           d="m 5,200 c 60,0 60,100 0,100"
           fill="none"
           id="path2842"
           style="fill:none;fill-opacity:1;stroke:#ffffff;stroke-opacity:1" />
        <path
           d="m 125,215 v 70 m -25,-70 v 70 m 50,-70 v 70"
           id="path2844"
           style="fill:none;fill-opacity:1;stroke:#ffffff;stroke-opacity:1" />
      </g>
      <use
         xlink:href="#a"
         transform="rotate(45,250,250)"
         id="use2847"
         x="0"
         y="0"
         width="100%"
         height="100%"
         style="fill:none;fill-opacity:1;stroke:#ffffff;stroke-opacity:1" />
      <use
         xlink:href="#a"
         transform="rotate(90,250,250)"
         id="use2849"
         x="0"
         y="0"
         width="100%"
         height="100%"
         style="fill:none;fill-opacity:1;stroke:#ffffff;stroke-opacity:1" />
      <use
         xlink:href="#a"
         transform="rotate(135,250,250)"
         id="use2851"
         x="0"
         y="0"
         width="100%"
         height="100%"
         style="fill:none;fill-opacity:1;stroke:#ffffff;stroke-opacity:1" />
      <use
         xlink:href="#a"
         transform="rotate(180,250,250)"
         id="use2853"
         x="0"
         y="0"
         width="100%"
         height="100%"
         style="fill:none;fill-opacity:1;stroke:#ffffff;stroke-opacity:1" />
      <use
         xlink:href="#a"
         transform="rotate(-45,250,250)"
         id="use2855"
         x="0"
         y="0"
         width="100%"
         height="100%"
         style="fill:none;fill-opacity:1;stroke:#ffffff;stroke-opacity:1" />
      <use
         xlink:href="#a"
         transform="rotate(-90,250,250)"
         id="use2857"
         x="0"
         y="0"
         width="100%"
         height="100%"
         style="fill:none;fill-opacity:1;stroke:#ffffff;stroke-opacity:1" />
      <use
         xlink:href="#a"
         transform="rotate(-135,250,250)"
         id="use2859"
         x="0"
         y="0"
         width="100%"
         height="100%"
         style="fill:none;fill-opacity:1;stroke:#ffffff;stroke-opacity:1" />
    </g>
    <g
       transform="matrix(0.00562377,0,0,-0.00562377,110.14721,167.79087)"
       id="g42"
       stroke="none"
       fill="#000000"
       style="fill:#ffffff;fill-opacity:1">
      <path
         d="m 3185,9110 c -247,-35 -462,-116 -655,-244 -314,-210 -535,-535 -735,-1081 -130,-355 -260,-602 -374,-709 -87,-80 -175,-111 -434,-151 -87,-14 -167,-30 -177,-35 -47,-25 -12,-59 90,-87 52,-14 107,-17 270,-18 h 205 l 75,40 c 176,95 281,239 580,805 244,462 344,610 550,824 165,171 301,269 525,378 l 109,53 h 137 136 l 96,-48 c 223,-110 374,-264 482,-490 73,-151 79,-188 105,-662 11,-207 25,-288 63,-382 52,-128 163,-258 289,-340 l 71,-46 206,6 c 113,3 285,15 381,27 361,43 468,52 575,48 l 110,-3 118,-58 c 195,-96 279,-198 362,-441 42,-124 55,-199 62,-356 5,-116 2,-162 -11,-230 -32,-155 -123,-331 -257,-497 -35,-43 -252,-269 -484,-503 -447,-452 -489,-502 -571,-674 -105,-222 -120,-437 -48,-666 29,-92 82,-181 94,-159 10,18 30,296 30,417 0,80 2,88 45,171 131,254 265,398 755,811 113,95 248,217 301,270 189,193 348,471 393,693 19,89 22,362 6,501 -36,309 -330,788 -574,935 -110,66 -189,76 -311,40 -113,-33 -455,-40 -455,-9 0,11 128,180 308,407 71,90 191,249 268,354 239,329 281,369 385,369 55,0 78,-18 132,-102 40,-64 62,-79 93,-68 89,34 123,246 59,375 -31,65 -124,153 -197,189 -110,53 -163,61 -413,61 -146,0 -260,-5 -311,-13 -79,-14 -81,-13 -142,12 -179,76 -348,73 -511,-7 -90,-43 -217,-169 -261,-257 -33,-65 -33,-66 -38,-240 -5,-211 -5,-212 -144,-346 -106,-103 -172,-154 -200,-154 -15,0 -18,8 -18,58 0,31 5,91 11,132 5,41 10,123 10,182 0,89 -5,121 -26,185 -102,305 -401,619 -678,714 -52,18 -90,22 -232,25 -93,1 -197,-1 -230,-6 z m 2287,-427 115,-62 143,40 c 125,34 157,39 249,39 162,0 289,-40 392,-121 41,-33 105,-117 95,-126 -3,-3 -24,11 -47,31 -88,75 -172,73 -353,-9 -67,-29 -172,-71 -234,-92 l -113,-38 -57,31 c -31,17 -95,52 -141,79 -142,82 -217,72 -286,-39 -26,-43 -30,-59 -30,-120 0,-56 6,-84 29,-133 43,-94 63,-108 149,-108 85,1 128,20 326,147 140,90 181,112 188,104 8,-8 -54,-87 -207,-266 -73,-85 -171,-204 -218,-265 -121,-156 -150,-185 -186,-185 -83,0 -316,200 -380,327 -24,47 -20,87 14,146 17,30 30,62 30,73 0,31 -45,95 -86,124 -39,26 -39,27 -39,91 0,158 161,346 331,388 22,6 75,9 120,7 77,-2 85,-5 196,-63 z M 4531,7612 c 15,-9 96,-79 180,-154 85,-76 187,-162 228,-190 41,-29 79,-61 85,-70 29,-47 -65,-90 -184,-85 -142,7 -265,97 -391,289 -95,143 -117,206 -81,228 24,15 129,4 163,-18 z"
         id="path14"
         style="fill:#ffffff;fill-opacity:1" />
      <path
         d="m 3205,8614 c -88,-22 -214,-86 -297,-153 -88,-71 -305,-292 -371,-378 -70,-91 -132,-195 -246,-413 -209,-398 -310,-547 -506,-749 -254,-261 -359,-321 -658,-376 -78,-14 -146,-30 -151,-35 -14,-14 89,-58 176,-76 53,-12 106,-15 193,-11 106,4 132,9 225,42 360,127 501,271 800,815 282,513 393,675 583,856 301,286 582,286 742,0 81,-145 122,-327 150,-666 19,-232 31,-316 57,-393 47,-144 140,-292 252,-402 156,-154 257,-183 682,-200 l 150,-6 115,55 114,56 h 181 180 l 80,-39 c 146,-72 271,-196 295,-295 17,-71 5,-231 -26,-345 -78,-288 -195,-418 -780,-870 -264,-205 -385,-325 -447,-446 -108,-213 -150,-418 -133,-659 6,-90 9,-106 20,-95 8,8 67,118 133,244 138,267 183,344 260,440 88,111 279,295 507,490 270,230 452,412 532,531 68,103 136,266 152,364 19,112 14,326 -9,416 -71,280 -285,482 -545,513 -94,11 -199,-1 -433,-50 -168,-35 -221,-41 -363,-46 -133,-5 -181,-2 -240,11 -202,45 -313,151 -439,419 -78,167 -79,173 -95,490 -14,273 -16,291 -44,377 -144,428 -465,664 -796,584 z"
         id="path16"
         style="fill:#ffffff;fill-opacity:1" />
      <path
         d="m 3250,8082 c -203,-68 -345,-189 -507,-432 -28,-41 -110,-180 -183,-309 -155,-277 -253,-424 -384,-579 -101,-120 -116,-141 -116,-166 0,-40 159,1 304,77 153,81 227,167 519,607 195,294 285,412 360,471 67,54 108,69 181,69 67,0 87,-10 194,-97 66,-54 112,-60 112,-14 0,16 -18,64 -40,108 -29,59 -58,97 -112,149 -129,125 -212,154 -328,116 z"
         id="path18"
         style="fill:#ffffff;fill-opacity:1" />
      <path
         d="m 3475,7626 c -120,-38 -201,-119 -390,-390 -49,-70 -132,-177 -185,-238 -254,-291 -244,-272 -142,-266 130,7 264,90 512,318 216,198 232,209 366,225 90,11 111,17 126,35 64,79 -52,287 -177,319 -53,13 -59,13 -110,-3 z"
         id="path20"
         style="fill:#ffffff;fill-opacity:1" />
      <path
         d="m 3700,6988 c -11,-13 -28,-47 -37,-77 -30,-104 14,-241 123,-380 174,-222 517,-394 680,-341 42,14 132,72 177,115 49,47 60,41 -249,114 -157,37 -217,60 -304,117 -81,53 -136,117 -217,254 -113,190 -132,220 -142,220 -6,0 -20,-10 -31,-22 z"
         id="path22"
         style="fill:#ffffff;fill-opacity:1" />
      <path
         d="m 3466,6638 c -36,-51 -11,-206 53,-342 72,-152 174,-258 316,-327 177,-86 402,-90 446,-8 16,31 -13,66 -97,113 -245,138 -315,193 -451,356 -124,149 -206,230 -231,230 -11,0 -28,-10 -36,-22 z"
         id="path24"
         style="fill:#ffffff;fill-opacity:1" />
      <path
         d="m 3200,6531 c -55,-18 -134,-65 -335,-201 -835,-564 -1084,-699 -1377,-745 -21,-3 -38,-10 -38,-14 0,-15 115,-60 199,-77 181,-36 487,24 752,148 264,124 652,374 803,517 84,80 109,134 114,246 3,65 0,95 -10,108 -15,20 -72,30 -108,18 z"
         id="path26"
         style="fill:#ffffff;fill-opacity:1" />
      <path
         d="m 5042,6404 c -29,-20 -44,-58 -81,-198 -37,-142 -69,-212 -161,-357 -92,-143 -119,-207 -120,-280 0,-61 38,-206 71,-271 25,-49 38,-41 50,31 11,72 61,166 153,287 179,236 204,274 225,336 31,95 43,187 39,292 -3,89 -5,97 -32,125 -26,27 -78,51 -111,51 -6,0 -21,-7 -33,-16 z"
         id="path28"
         style="fill:#ffffff;fill-opacity:1" />
      <path
         d="m 5306,6399 c 107,-134 139,-210 139,-334 0,-71 -4,-88 -33,-146 -43,-86 -120,-183 -318,-399 -224,-246 -277,-309 -323,-388 -50,-86 -93,-212 -89,-260 3,-32 7,-37 31,-40 24,-3 49,17 190,156 89,88 221,209 292,268 272,227 374,354 464,580 64,159 87,313 60,395 -16,47 -84,115 -147,146 -43,21 -71,26 -165,31 -95,4 -110,3 -101,-9 z"
         id="path30"
         style="fill:#ffffff;fill-opacity:1" />
      <path
         d="m 3347,6115 c -57,-20 -92,-45 -747,-535 -336,-252 -638,-486 -679,-526 -72,-70 -74,-74 -59,-96 28,-42 58,-50 155,-38 75,9 104,18 198,64 234,116 558,360 889,669 220,206 316,332 316,416 0,52 -20,64 -73,46 z"
         id="path32"
         style="fill:#ffffff;fill-opacity:1" />
      <path
         d="M 3442,5914 C 3259,5758 2340,4556 2340,4474 c 0,-26 59,-47 113,-40 198,27 355,177 791,760 281,375 366,511 366,585 0,64 -71,171 -114,171 -7,0 -31,-16 -54,-36 z"
         id="path34"
         style="fill:#ffffff;fill-opacity:1" />
      <path
         d="m 4225,5758 c -2,-7 -6,-94 -9,-193 -4,-150 -9,-196 -30,-274 -14,-52 -23,-98 -20,-103 3,-4 16,-8 30,-8 35,0 92,64 144,159 63,118 75,108 40,-34 -31,-125 -29,-130 38,-96 47,24 97,76 115,120 30,71 -16,174 -137,309 -110,121 -159,156 -171,120 z"
         id="path36"
         style="fill:#ffffff;fill-opacity:1" />
      <path
         d="m 3696,5705 c -111,-115 -317,-456 -496,-820 -175,-357 -295,-688 -288,-800 3,-50 3,-50 39,-53 82,-7 208,156 359,463 215,439 510,1137 510,1208 0,27 -28,57 -54,57 -10,0 -41,-25 -70,-55 z"
         id="path38"
         style="fill:#ffffff;fill-opacity:1" />
      <path
         d="m 3901,5638 c -73,-78 -214,-465 -310,-847 -66,-262 -74,-335 -69,-641 3,-235 5,-259 24,-301 27,-57 90,-129 114,-129 30,0 40,42 125,526 68,385 108,592 185,954 74,344 83,401 70,434 -9,24 -15,26 -64,26 -44,0 -59,-5 -75,-22 z"
         id="path40"
         style="fill:#ffffff;fill-opacity:1" />
    </g>
  </g>
</svg>
