<?xml version="1.0" encoding="UTF-8" standalone="no"?>
<svg
   width="425"
   height="110"
   viewBox="0 0 112.44791 29.104168"
   version="1.1"
   id="svg5"
   xmlns="http://www.w3.org/2000/svg"
   xmlns:svg="http://www.w3.org/2000/svg">
  <defs
     id="defs2" />
  <g
     id="layer1">
    <g
       id="text1901"
       style="font-size:36.7988px;line-height:1.25;font-family:'Uni Sans';-inkscape-font-specification:'Uni Sans';stroke-width:0.919972"
       transform="translate(-102.06218,-93.583248)">
      <path
         d="m 111.84621,118.347 h -0.0736 l -1.61915,-5.26223 -3.82708,-11.15004 h -3.0543 l 6.73418,19.06178 h 3.49589 l 6.73418,-19.06178 h -3.0175 l -3.82708,11.07644 z"
         id="path11037"
         style="fill:#4f4f4f;fill-opacity:1" />
      <path
         d="m 133.18942,110.25126 c -1.43515,-0.62558 -2.9807,-0.91997 -4.56305,-0.91997 -3.67988,0 -7.17577,1.87674 -7.17577,6.07181 0,4.04786 2.98071,5.9614 6.80778,5.9614 h 0.40479 c 1.14076,0 2.31832,-0.1104 3.49589,-0.29439 1.32475,-0.18399 2.64951,-0.51518 3.97427,-0.99357 v -12.36439 c 0,-4.12147 -3.53269,-6.1454 -7.21257,-6.1454 -2.39192,0 -5.00464,1.03036 -6.77098,2.9807 l 1.83994,1.80314 c 1.14076,-1.43515 2.9807,-2.06073 4.71025,-2.06073 2.24473,0 4.48945,1.21436 4.48945,3.42229 z m -4.26866,1.39836 c 1.58235,0 3.0911,0.33119 4.26866,0.73597 v 6.1086 c -0.77277,0.184 -1.58235,0.2944 -2.42872,0.33119 -0.55198,0.0368 -1.06716,0.0368 -1.61915,0.0368 h -0.80957 c -2.24473,-0.0368 -3.97427,-0.99356 -3.97427,-3.45908 0,-2.75991 2.20793,-3.75348 4.56305,-3.75348 z"
         id="path11039"
         style="fill:#4f4f4f;fill-opacity:1" />
      <path
         d="m 146.87854,118.60459 c -2.46552,0 -3.53268,-1.36155 -3.53268,-3.45909 V 95.274151 h -2.94391 V 115.1455 c 0,3.93748 2.31833,6.219 6.47659,6.219 z"
         id="path11041"
         style="fill:#4f4f4f;fill-opacity:1" />
      <path
         d="m 152.39831,114.70392 1.98713,-1.98714 6.77098,8.27973 h 3.71668 l -8.42692,-10.37726 8.61092,-8.68452 h -3.82708 l -8.83171,8.83172 v -15.4555 h -2.94391 v 25.68556 h 2.94391 z"
         id="path11043"
         style="fill:#4f4f4f;fill-opacity:1" />
      <path
         d="m 174.07279,118.60459 c -2.46552,0 -3.53268,-1.36155 -3.53268,-3.45909 V 95.274151 H 167.5962 V 115.1455 c 0,3.93748 2.31833,6.219 6.47659,6.219 z"
         id="path11045"
         style="fill:#0b5fad;fill-opacity:1" />
      <path
         d="m 183.71403,121.3645 c 1.54555,0 3.90067,-0.1104 7.43335,-1.39835 v -18.03142 h -2.9439 v 16.00748 c -1.28796,0.44159 -2.75991,0.62558 -4.48945,0.62558 -2.13433,0 -4.26866,-1.28796 -4.26866,-3.49588 v -13.13718 h -2.94391 v 13.10038 c 0,4.19506 3.60628,6.32939 7.21257,6.32939 z"
         id="path11047"
         style="fill:#0b5fad;fill-opacity:1" />
      <path
         d="m 202.88616,94.906163 c -3.97428,0 -7.10217,2.134331 -7.10217,6.366197 v 19.72415 h 2.9439 v -15.82348 h 3.90067 v -2.64951 h -3.90067 v -1.25116 c 0,-2.207932 1.50875,-3.49589 4.15827,-3.49589 z"
         id="path11049"
         style="fill:#0b5fad;fill-opacity:1" />
      <path
         d="m 212.15944,121.3645 c 0.40478,0 0.73597,-0.0368 1.14076,-0.0736 v -2.53911 c -0.36799,0.0736 -0.69918,0.11039 -1.03037,0.11039 -0.36799,0 -0.69918,-0.0368 -1.03036,-0.14719 -1.80315,-0.44159 -2.83351,-1.95034 -2.83351,-3.60628 v -10.45086 h 3.90067 v -2.72312 h -3.90067 v -4.820639 h -2.90711 v 17.994619 c 0,3.93747 2.79671,6.25579 6.66059,6.25579 z"
         id="path11051"
         style="fill:#0b5fad;fill-opacity:1" />
    </g>
  </g>
</svg>
