<?xml version="1.0" encoding="UTF-8" standalone="no"?>
<!-- Created with Inkscape (http://www.inkscape.org/) -->

<svg
   width="1080"
   height="50"
   viewBox="0 0 285.74999 13.229167"
   version="1.1"
   id="svg962"
   inkscape:version="1.1.1 (3bf5ae0d25, 2021-09-20)"
   sodipodi:docname="Jay PM 06 22 campaign accountability title (text path).svg"
   xmlns:inkscape="http://www.inkscape.org/namespaces/inkscape"
   xmlns:sodipodi="http://sodipodi.sourceforge.net/DTD/sodipodi-0.dtd"
   xmlns="http://www.w3.org/2000/svg"
   xmlns:svg="http://www.w3.org/2000/svg">
  <sodipodi:namedview
     id="namedview964"
     pagecolor="#505050"
     bordercolor="#ffffff"
     borderopacity="1"
     inkscape:pageshadow="0"
     inkscape:pageopacity="0"
     inkscape:pagecheckerboard="1"
     inkscape:document-units="px"
     showgrid="false"
     units="px"
     showborder="false"
     inkscape:showpageshadow="false"
     borderlayer="true"
     inkscape:zoom="1.0435185"
     inkscape:cx="540.00001"
     inkscape:cy="159.55635"
     inkscape:window-width="1920"
     inkscape:window-height="1017"
     inkscape:window-x="-8"
     inkscape:window-y="-8"
     inkscape:window-maximized="1"
     inkscape:current-layer="layer1" />
  <defs
     id="defs959">
    <style
       type="text/css"
       id="current-color-scheme">
      .ColorScheme-Text {
        color:#4d4d4d;
      }
      </style>
  </defs>
  <g
     inkscape:label="Layer 1"
     inkscape:groupmode="layer"
     id="layer1">
    <rect
       style="fill:#0b60ad;fill-opacity:1;stroke-width:1.38665;stop-color:#000000"
       id="rect1045"
       width="285.75"
       height="13.229167"
       x="-7.0000016e-07"
       y="-1.9135314e-07" />
    <g
       aria-label="ACCOUNTABILITY"
       id="text15664-7-8"
       style="font-style:italic;font-weight:900;font-size:13.2292px;line-height:1.25;font-family:'Uni Sans';-inkscape-font-specification:'Uni Sans Heavy Italic';text-align:center;text-anchor:middle;fill:none;stroke:#ffffff;stroke-width:0.396875">
      <path
         d="m 96.387664,1.9314461 h -2.15636 L 89.654001,11.29772 h 2.540006 l 0.83344,-1.8785465 h 2.500318 l 0.357189,1.8785465 h 2.540006 z m -2.526778,5.3842845 1.031878,-2.7384444 h 0.0926 l 0.277813,2.7384444 z"
         id="path14757" />
      <path
         d="m 103.92829,8.3740667 c -0.3175,0.595314 -0.92604,0.8466688 -1.46844,0.8466688 -0.67469,0 -1.24355,-0.3704176 -1.15094,-0.99219 l 0.44979,-3.2279249 c 0.10583,-0.6217724 0.76729,-1.0186484 1.44198,-1.0186484 0.56886,0 1.11126,0.2248964 1.32292,0.7540644 l 2.0373,-0.7805228 c -0.52917,-1.6536501 -1.82563,-2.1563597 -2.9898,-2.1563597 -1.86532,0 -3.902613,1.0847944 -4.180426,3.2014665 l -0.449793,3.2279249 c -0.277813,2.1299015 1.389069,3.2014665 3.241159,3.2014665 1.17739,0 2.52677,-0.463022 3.67771,-2.1034429 z"
         id="path14759" />
      <path
         d="m 111.61445,8.3740667 c -0.3175,0.595314 -0.92605,0.8466688 -1.46844,0.8466688 -0.67469,0 -1.24355,-0.3704176 -1.15094,-0.99219 l 0.44979,-3.2279249 c 0.10583,-0.6217724 0.76729,-1.0186484 1.44198,-1.0186484 0.56886,0 1.11125,0.2248964 1.32292,0.7540644 l 2.0373,-0.7805228 c -0.52917,-1.6536501 -1.82563,-2.1563597 -2.9898,-2.1563597 -1.86532,0 -3.90262,1.0847944 -4.18043,3.2014665 l -0.44979,3.2279249 c -0.27781,2.1299015 1.38906,3.2014665 3.24115,3.2014665 1.1774,0 2.52678,-0.463022 3.67772,-2.1034429 z"
         id="path14761" />
      <path
         d="m 114.3132,8.2153163 c -0.31751,2.1563597 1.4949,3.2146957 3.42636,3.2146957 2.05052,0 4.02168,-1.058336 4.33918,-3.2146957 l 0.46302,-3.2014665 c 0.3175,-2.1563597 -1.4949,-3.2146957 -3.43959,-3.2146957 -1.9447,0 -4.00845,1.058336 -4.32595,3.2146957 z m 2.83104,-3.2014665 c 0.10584,-0.7011476 0.93928,-1.058336 1.70657,-1.058336 0.78052,0 1.42875,0.3571884 1.32292,1.058336 l -0.46302,3.1353205 c -0.10583,0.7408352 -0.93927,1.0847944 -1.70657,1.0847944 -0.71437,0 -1.42875,-0.3439592 -1.32292,-1.0186484 z"
         id="path14763" />
      <path
         d="m 126.53697,1.9314461 h -2.39449 l -0.87312,6.204495 c -0.3175,2.1960469 1.40229,3.2940709 3.26761,3.2940709 1.87855,0 3.88938,-1.098024 4.20688,-3.2940709 l 0.87313,-6.204495 h -2.39448 l -0.87313,6.204495 c -0.10583,0.7408352 -0.79375,1.124482 -1.4949,1.124482 -0.67469,0 -1.29646,-0.3836468 -1.19063,-1.124482 z"
         id="path14765" />
      <path
         d="m 131.70957,11.29772 h 2.36803 l 0.51594,-3.7438637 -0.0265,-1.8124005 0.0529,-0.013229 0.55563,1.8785465 1.60073,3.6909469 h 2.39449 l 1.30969,-9.3662739 h -2.3548 l -0.59531,4.2465733 0.0265,1.6139625 -0.0529,0.013229 -0.52917,-1.8785465 -1.70657,-3.9952185 h -2.24896 z"
         id="path14767" />
      <path
         d="m 148.52386,4.0878058 0.31751,-2.1695889 h -7.44804 l -0.3175,2.1695889 h 2.52677 l -0.99219,7.2099142 h 2.39449 l 0.99219,-7.2099142 z"
         id="path14769" />
      <path
         d="M 153.28636,1.9314461 H 151.13 l -4.5773,9.3662739 h 2.54 l 0.83344,-1.8785465 h 2.50032 l 0.35719,1.8785465 h 2.54001 z m -2.52678,5.3842845 1.03188,-2.7384444 h 0.0926 l 0.27781,2.7384444 z"
         id="path14771" />
      <path
         d="m 163.64483,4.7889534 c 0.3175,-1.7859421 -0.87313,-2.8575073 -2.64584,-2.8575073 h -3.7571 L 155.9322,11.29772 h 3.82324 c 2.07699,0 3.20147,-0.899586 3.66449,-2.4209437 0.21167,-0.7143768 0.23813,-1.9314633 -0.96573,-2.5664649 0.72761,-0.3439592 1.12448,-1.0847944 1.19063,-1.521358 z m -4.53762,0.8069812 0.23813,-1.6668792 h 1.37583 c 1.19063,0 0.92605,1.6668792 -0.23812,1.6668792 z m -0.50271,3.6248009 0.26459,-1.9182341 h 1.37583 c 1.41553,0 1.16417,1.9182341 -0.26458,1.9182341 z"
         id="path14773" />
      <path
         d="m 167.8517,1.9314461 h -2.36803 l -1.30969,9.3662739 h 2.36803 z"
         id="path14775" />
      <path
         d="m 168.02366,11.29772 h 6.19126 l 0.3175,-2.3415685 h -3.81001 l 0.99219,-7.0247054 h -2.38125 z"
         id="path14777" />
      <path
         d="m 178.79222,1.9314461 h -2.36803 L 175.1145,11.29772 h 2.36803 z"
         id="path14779" />
      <path
         d="m 186.83555,4.0878058 0.3175,-2.1695889 h -7.44804 l -0.3175,2.1695889 h 2.52678 L 180.9221,11.29772 h 2.39449 l 0.99219,-7.2099142 z"
         id="path14781" />
      <path
         d="m 191.50545,11.29772 0.51594,-3.6909469 4.0746,-5.675327 h -2.77814 l -2.16959,3.2940709 -1.21708,-3.2940709 h -2.75168 l 2.47387,5.675327 -0.51594,3.6909469 z"
         id="path14783" />
    </g>
  </g>
</svg>
