<?xml version="1.0" encoding="UTF-8" standalone="no"?>
<svg
   width="657.42859"
   height="994.2113"
   viewBox="0 0 173.94464 263.05175"
   version="1.1"
   id="svg5"
   xmlns="http://www.w3.org/2000/svg"
   xmlns:svg="http://www.w3.org/2000/svg">
  <g
     id="layer1"
     transform="translate(-44.204186,-7.321784)">
    <path
       style="display:inline;fill:#000000;fill-opacity:1;stroke:none;stroke-width:0.977326;stroke-linecap:round;stroke-linejoin:round;stroke-miterlimit:4;stroke-dasharray:none;stroke-dashoffset:0;stroke-opacity:1"
       id="path2836"
       d="m 131.34329,7.321784 c -27.65612,0 -54.212195,5.517918 -78.914796,11.390864 V 49.642853 C 72.603166,44.844209 109.0152,36.890527 131.60278,36.890527 c 22.26589,0 58.36945,7.884827 78.32185,12.563588 V 18.624571 C 185.30212,12.797795 158.85557,7.321784 131.34329,7.321784 Z" />
    <path
       id="path12"
       d="m 218.04483,135.25696 c -0.91043,17.94637 -3.11222,33.63823 -6.62308,47.20166 -3.9388,15.21665 -8.54548,26.64398 -15.27384,37.88834 -8.56652,14.31626 -19.24388,25.18654 -32.67445,33.26479 -2.33389,1.40381 -4.65966,2.63731 -13.0175,6.90408 -3.08504,1.57494 -8.67892,4.43722 -12.43081,6.36061 l -6.82165,3.49708 -4.45704,-2.31204 c -2.45136,-1.27161 -4.49702,-2.31203 -4.54588,-2.31203 -0.0489,0 -2.26007,-1.12911 -4.91382,-2.50914 -2.65372,-1.38003 -7.30147,-3.77202 -10.3283,-5.31554 -3.02683,-1.54352 -6.69396,-3.52669 -8.149167,-4.40704 -14.204844,-8.59345 -25.601242,-20.59783 -34.171465,-35.99451 -2.976563,-5.34748 -4.642247,-8.84282 -7.422409,-15.5755 -1.107176,-2.68124 -3.962771,-11.21993 -5.177102,-15.48043 -1.153187,-4.04594 -3.243474,-13.36785 -4.221295,-18.82533 -4.223123,-23.57032 -4.774353,-54.90141 -1.493017,-84.859836 0.228414,-2.085324 0.41529,-3.858172 0.41529,-3.93969 0,-0.08152 0.738187,-0.265031 1.640416,-0.407789 1.91008,-0.302234 8.119507,-1.865599 10.432627,-2.626654 14.232518,-4.682755 25.572084,-13.442344 30.74609,-23.750786 l 0.751099,-1.496348 3.591692,-0.46396 c 26.126591,-4.008385 53.980591,-2.601791 78.250571,0.46396 l 0.60876,1.197454 c 1.45121,2.766123 2.66715,4.677939 4.17089,6.557814 7.83611,9.796272 20.16082,16.626139 35.85175,19.867615 l 2.74307,0.658694 0.14925,0.644586 c 0.50869,2.51094 1.86521,18.612881 2.29812,27.27889 0.18984,3.80029 0.24307,25.10286 0.0712,28.49105 z"
       style="fill:#000000;stroke-width:0.211667" />
    <g
       transform="translate(0.05639574,-6.0475488)"
       id="Njord"
       style="font-size:25.4407px;line-height:1.25;font-family:'Uni Sans';-inkscape-font-specification:'Uni Sans';text-align:center;text-anchor:middle;fill:#ffffff;stroke-width:0.636019">
      <path
         d="m 90.688863,23.146064 2.270087,-0.357795 10.89834,12.417219 -0.24421,0.365456 -2.22413,-14.11135 2.47869,-0.390673 2.81013,17.829384 -2.29462,0.361662 -10.840923,-12.212484 0.244213,-0.365456 2.19125,13.902747 -2.478689,0.390673 z"
         style="font-family:Bahnschrift;-inkscape-font-specification:Bahnschrift"
         id="path50960" />
      <path
         d="m 113.61891,38.263779 q -1.43272,0.154011 -2.69318,-0.297704 -1.26045,-0.451715 -2.12672,-1.420567 l 1.90331,-1.70385 q 0.41089,0.568027 1.10134,0.831138 0.69045,0.263112 1.55503,0.170175 1.46977,-0.157994 2.17434,-1.158272 0.71693,-1.001606 0.53902,-2.656648 l -1.31573,-12.239903 2.51961,-0.270846 1.31706,12.252254 q 0.20048,1.86501 -0.31206,3.256941 -0.51255,1.39193 -1.69801,2.219013 -1.18545,0.827083 -2.96401,1.018269 z"
         style="font-family:Bahnschrift;-inkscape-font-specification:Bahnschrift"
         id="path50962" />
      <path
         d="m 129.64094,37.096349 q -1.88792,0.03124 -3.34226,-0.764677 -1.45455,-0.808336 -2.27433,-2.298066 -0.80756,-1.502356 -0.84044,-3.489639 l -0.0847,-5.117253 q -0.0329,-1.987282 0.72474,-3.503112 0.76984,-1.528456 2.19706,-2.372049 1.42701,-0.856013 3.31493,-0.887251 1.88792,-0.03124 3.34246,0.777098 1.45435,0.795915 2.26191,2.298271 0.81978,1.48973 0.85266,3.477013 l 0.0847,5.117253 q 0.0329,1.987283 -0.73696,3.515738 -0.75762,1.51583 -2.18463,2.371844 -1.42722,0.843593 -3.31514,0.87483 z m -0.0413,-2.496524 q 1.11784,-0.0185 1.95422,-0.529291 0.84859,-0.523421 1.29294,-1.450143 0.45656,-0.939348 0.43642,-2.156559 l -0.0875,-5.29114 q -0.0201,-1.217211 -0.50733,-2.12852 -0.47497,-0.923935 -1.34021,-1.406575 -0.85302,-0.495267 -1.97087,-0.476771 -1.11784,0.0185 -1.96643,0.541917 -0.83638,0.510796 -1.29294,1.450144 -0.44435,0.926722 -0.42421,2.143932 l 0.0875,5.291141 q 0.0201,1.21721 0.49511,2.141145 0.48719,0.911309 1.34021,1.406576 0.86524,0.48264 1.98309,0.464144 z"
         style="font-family:Bahnschrift;-inkscape-font-specification:Bahnschrift"
         id="path50964" />
      <path
         d="m 141.90506,27.214906 6.13263,0.594942 q 0.71712,0.06957 1.30709,-0.22265 0.58997,-0.29222 0.94789,-0.894005 0.37147,-0.61295 0.45184,-1.44135 v 0 q 0.0804,-0.828399 -0.16757,-1.488959 -0.23436,-0.671724 -0.75716,-1.071898 -0.51044,-0.398974 -1.23993,-0.469743 l -6.13263,-0.594943 0.2327,-2.398649 6.03372,0.585347 q 1.55788,0.151135 2.67011,0.908022 1.12458,0.758087 1.65237,2.007421 0.54135,1.238168 0.39142,2.78369 v 0 q -0.14994,1.545521 -0.92039,2.668909 -0.76925,1.111024 -2.01859,1.638811 -1.23697,0.528986 -2.78249,0.379051 l -6.03371,-0.585347 z m -0.32555,-8.094009 2.52229,0.244694 -1.74524,17.989869 -2.52229,-0.244694 z m 5.04304,10.411265 2.5651,-0.325258 3.75264,9.175312 -2.99213,-0.290274 z"
         style="font-family:Bahnschrift;-inkscape-font-specification:Bahnschrift"
         id="path50966" />
      <path
         d="m 158.38481,36.797342 4.03796,0.630616 q 1.97602,0.3086 3.21518,-0.541421 1.25334,-0.860377 1.54469,-2.725941 l 0.82038,-5.253035 q 0.29135,-1.865564 -0.6419,-3.054852 -0.91905,-1.199645 -2.89508,-1.508244 l -4.03796,-0.630617 0.37185,-2.381048 3.96432,0.619115 q 2.14786,0.335435 3.55284,1.321794 1.40499,0.986359 1.9785,2.546942 0.57351,1.560583 0.25724,3.585702 l -0.7897,5.05666 q -0.31627,2.025118 -1.33831,3.336522 -1.02203,1.311403 -2.67313,1.820487 -1.63883,0.511002 -3.78669,0.175568 l -3.95205,-0.617199 z m 0.72139,-15.729056 2.50378,0.39102 -2.78698,17.845591 -2.50378,-0.39102 z"
         style="font-family:Bahnschrift;-inkscape-font-specification:Bahnschrift"
         id="path50968" />
    </g>
    <g
       style="display:inline"
       id="g3692"
       transform="matrix(0.41436287,0,0,0.41436287,2.6972397,46.079653)">
      <path
         id="path9478"
         d="m 310.00675,67.79011 c -17.89411,6e-6 -32.41703,16.441487 -32.417,36.69952 1e-5,20.25803 14.52292,36.6995 32.41702,36.69949 17.8941,-1e-5 32.41702,-16.44149 32.41699,-36.69952 0,-20.258026 -14.52291,-36.699497 -32.41701,-36.69949 z m 0,15.302 c 10.43823,-4e-6 18.92296,9.580313 18.92296,21.3975 2e-5,11.81718 -8.48472,21.4228 -18.92294,21.4228 -10.43823,1e-5 -18.90062,-9.6056 -18.90063,-21.42279 -10e-6,-11.817184 8.46238,-21.397506 18.90061,-21.39751 z"
         style="fill:#ffffff;fill-opacity:1;fill-rule:evenodd;stroke:#989898;stroke-width:1.56004;stroke-miterlimit:4;stroke-dasharray:none;stroke-opacity:1" />
      <path
         id="path11290"
         d="m 310.0291,107.52472 c -5.69067,0 -12.07745,9.36244 -12.08633,18.25584 1.08275,98.93141 -2.84186,197.61021 -3.75736,296.48068 -41.53505,-13.33469 -51.75992,-18.84203 -73.8781,-46.97535 6.52492,-2.89888 20.21745,-4.99753 30.965,-6.63719 -23.86288,-11.12784 -45.71498,-28.28805 -67.73517,-44.94399 0.66932,14.38321 -2.43715,60.52288 -4.44249,81.75286 7.35108,-7.11168 9.13435,-15.48854 16.8302,-15.91146 47.38623,65.441 101.32874,39.37676 113.83629,87.70526 h 0.4915 c 13.29017,-46.42203 81.62472,-35.75366 114.71105,-88.14999 2.11637,-3.35152 10.12548,10.01442 16.26761,20.26691 -2.32373,-36.18447 -0.26012,-60.50815 -0.84131,-85.06328 -14.39012,13.28168 -52.14879,41.04387 -67.6228,53.35972 22.12559,-1.54143 34.62232,-3.88929 32.85581,-2.09695 -27.11376,27.51001 -32.34463,29.44469 -81.1374,47.16601 -1.90846,-19.41612 -3.68384,-186.28815 -4.17956,-297.4284 0.005,-0.075 -0.004,-0.15235 -10e-6,-0.22764 0.0263,-0.46898 0.0447,-0.9368 0.0447,-1.41638 -10e-6,-8.90518 -4.62549,-16.13665 -10.32162,-16.13665 z"
         style="fill:#ffffff;fill-opacity:1;fill-rule:evenodd;stroke:#989898;stroke-width:1.56004;stroke-miterlimit:4;stroke-dasharray:none;stroke-opacity:1" />
      <g
         transform="matrix(0.714915,-2.532215e-7,2.866745e-7,0.809362,-315.8025,-56.57317)"
         id="g12214"
         style="fill:#ffffff;fill-opacity:1;stroke:#989898;stroke-width:2.05087;stroke-miterlimit:4;stroke-dasharray:none;stroke-opacity:1">
        <path
           style="display:inline;fill:#ffffff;fill-opacity:1;fill-rule:evenodd;stroke:#989898;stroke-width:2.05087;stroke-miterlimit:4;stroke-dasharray:none;stroke-opacity:1"
           d="m 782.96875,249.65625 -15.375,30.78125 c 33.27399,13.13981 69.50887,20.375 107.4375,20.375 38.17673,0 74.64136,-7.32136 108.09375,-20.625 l -16.40625,-30.40625 c -28.84431,9.50741 -59.67163,14.65625 -91.6875,14.65625 -32.15561,0 -63.10963,-5.19411 -92.0625,-14.78125 z"
           id="path9483" />
        <rect
           style="display:inline;fill:#ffffff;fill-opacity:1;fill-rule:evenodd;stroke:#989898;stroke-width:2.05087;stroke-miterlimit:4;stroke-dasharray:none;stroke-opacity:1"
           id="rect11286"
           width="7.5573497"
           height="55.420628"
           x="-736.60876"
           y="638.88129"
           transform="matrix(-0.895595,0.44487,0.44487,0.895595,0,0)"
           ry="4.8969808"
           rx="5.2769198" />
        <rect
           style="display:inline;fill:#ffffff;fill-opacity:1;fill-rule:evenodd;stroke:#989898;stroke-width:2.05087;stroke-miterlimit:4;stroke-dasharray:none;stroke-opacity:1"
           id="rect11288"
           width="7.5573478"
           height="55.420612"
           x="-714.48407"
           y="633.69897"
           transform="matrix(-0.895595,0.44487,0.44487,0.895595,0,0)"
           ry="4.8969798"
           rx="5.2769184" />
        <rect
           style="fill:#ffffff;fill-opacity:1;fill-rule:evenodd;stroke:#989898;stroke-width:2.05087;stroke-miterlimit:4;stroke-dasharray:none;stroke-opacity:1"
           id="rect10397"
           width="7.5573525"
           height="55.42065"
           x="830.74225"
           y="-141.02827"
           transform="rotate(26.415026)"
           ry="4.8969827"
           rx="5.2769217" />
        <rect
           style="display:inline;fill:#ffffff;fill-opacity:1;fill-rule:evenodd;stroke:#989898;stroke-width:2.05087;stroke-miterlimit:4;stroke-dasharray:none;stroke-opacity:1"
           id="rect11284"
           width="7.5573506"
           height="55.420635"
           x="852.86694"
           y="-146.21059"
           transform="rotate(26.415026)"
           ry="4.8969812"
           rx="5.2769203" />
      </g>
    </g>
  </g>
  <g
     id="layer1-2"
     transform="matrix(0.88194444,0,0,0.88194444,20.28178,87.369289)"
     style="stroke:#ffffff;stroke-opacity:1">
    <path
       d="M 2,60 V 0"
       style="fill:none;fill-opacity:0.75;fill-rule:evenodd;stroke:#ffffff;stroke-width:4;stroke-linecap:butt;stroke-linejoin:miter;stroke-miterlimit:4;stroke-dasharray:none;stroke-opacity:1"
       id="path23299" />
    <path
       d="M 0,2 H 4 L 22,18"
       style="fill:none;fill-opacity:0.75;fill-rule:evenodd;stroke:#ffffff;stroke-width:4;stroke-linecap:butt;stroke-linejoin:miter;stroke-miterlimit:4;stroke-dasharray:none;stroke-opacity:1"
       id="path23301" />
  </g>
  <g
     id="layer1-8"
     transform="matrix(0.87589763,0,0,0.87589763,126.20167,87.732097)"
     style="stroke:#ffffff;stroke-opacity:1">
    <path
       d="M 1,1 20,20 39,1"
       style="fill:none;fill-opacity:0.75;fill-rule:evenodd;stroke:#ffffff;stroke-width:4;stroke-linecap:butt;stroke-linejoin:miter;stroke-miterlimit:4;stroke-dasharray:none;stroke-opacity:1"
       id="path5127" />
    <path
       d="M 20,0 V 60"
       style="fill:none;fill-opacity:0.75;fill-rule:evenodd;stroke:#ffffff;stroke-width:4;stroke-linecap:butt;stroke-linejoin:miter;stroke-miterlimit:4;stroke-dasharray:none;stroke-opacity:1"
       id="path5129" />
  </g>
</svg>
