<?xml version="1.0" encoding="UTF-8" standalone="no"?>
<svg
   width="657.42859"
   height="994.2113"
   viewBox="0 0 173.94464 263.05175"
   version="1.1"
   id="svg5"
   xmlns="http://www.w3.org/2000/svg"
   xmlns:svg="http://www.w3.org/2000/svg">
  <path
     style="display:inline;fill:#000000;fill-opacity:1;stroke:none;stroke-width:0.977326;stroke-linecap:round;stroke-linejoin:round;stroke-miterlimit:4;stroke-dasharray:none;stroke-dashoffset:0;stroke-opacity:1"
     id="path2836"
     d="M 87.139104,0 C 59.482984,0 32.926909,5.517918 8.224308,11.390864 V 42.321069 C 28.39898,37.522425 64.811014,29.568743 87.398594,29.568743 c 22.265886,0 58.369446,7.884827 78.321846,12.563588 V 11.302787 C 141.09793,5.476011 114.65138,0 87.139104,0 Z" />
  <path
     id="path12"
     d="m 173.84064,127.93518 c -0.91043,17.94637 -3.11222,33.63823 -6.62308,47.20166 -3.9388,15.21665 -8.54548,26.64398 -15.27384,37.88834 -8.56652,14.31626 -19.24388,25.18654 -32.67445,33.26479 -2.33389,1.40381 -4.65966,2.63731 -13.0175,6.90408 -3.08504,1.57494 -8.678916,4.43722 -12.430806,6.36061 l -6.82165,3.49708 -4.45704,-2.31204 c -2.45136,-1.27161 -4.49702,-2.31203 -4.54588,-2.31203 -0.0489,0 -2.26007,-1.12911 -4.91382,-2.50914 -2.65372,-1.38003 -7.30147,-3.77202 -10.3283,-5.31554 -3.02683,-1.54352 -6.69396,-3.52669 -8.149167,-4.40704 C 40.400263,237.6025 29.003865,225.59812 20.433642,210.20144 17.457079,204.85396 15.791395,201.35862 13.011233,194.62594 11.904057,191.9447 9.048462,183.40601 7.834131,179.14551 6.680944,175.09957 4.590657,165.77766 3.612836,160.32018 -0.610287,136.74986 -1.161517,105.41877 2.119819,75.46034 c 0.228414,-2.085324 0.41529,-3.858172 0.41529,-3.93969 0,-0.08152 0.738187,-0.265031 1.640416,-0.407789 1.91008,-0.302234 8.119507,-1.865599 10.432627,-2.626654 14.232518,-4.682755 25.572084,-13.442344 30.74609,-23.750786 l 0.751099,-1.496348 3.591692,-0.46396 c 26.126591,-4.008385 53.980587,-2.601791 78.250567,0.46396 l 0.60876,1.197454 c 1.45121,2.766123 2.66715,4.677939 4.17089,6.557814 7.83611,9.796272 20.16082,16.626139 35.85175,19.867615 l 2.74307,0.658694 0.14925,0.644586 c 0.50869,2.51094 1.86521,18.612881 2.29812,27.27889 0.18984,3.800294 0.24307,25.102864 0.0712,28.491054 z"
     style="fill:#000000;stroke-width:0.211667" />
  <g
     transform="translate(0.056396,-6.0475488)"
     id="text3098"
     style="font-size:25.4407px;line-height:1.25;font-family:Bahnschrift;-inkscape-font-specification:Bahnschrift;text-align:center;text-anchor:middle;fill:#ffffff;stroke-width:0.636019">
    <path
       d="m 35.979186,17.768248 2.261302,-0.409665 11.179721,12.164496 -0.235784,0.37095 -2.546563,-14.05674 2.469097,-0.44731 3.217527,17.760386 -2.285748,0.414093 -11.11763,-11.961128 0.235784,-0.370951 2.508918,13.848945 -2.469097,0.44731 z"
       id="path3088" />
    <path
       d="m 59.244605,32.295484 q -1.426207,0.205788 -2.702191,-0.19999 -1.275984,-0.405779 -2.176765,-1.342628 l 1.840362,-1.771651 q 0.431184,0.552777 1.130712,0.790715 0.699528,0.237938 1.56017,0.113756 1.463092,-0.211111 2.130981,-1.236245 0.680184,-1.026908 0.442463,-2.674423 l -1.758069,-12.184234 2.508157,-0.361903 1.759844,12.196529 q 0.267879,1.856528 -0.193928,3.266105 -0.461807,1.409577 -1.61654,2.279042 -1.154733,0.869466 -2.925196,1.124927 z"
       id="path3090" />
    <path
       d="m 67.56149,21.832318 q -0.33813,-4.521484 1.89901,-7.254906 2.236213,-2.74581 6.076377,-3.032989 2.514689,-0.188056 4.623731,0.862543 2.109042,1.0506 3.323181,3.127304 1.2256,2.063391 1.429405,4.788668 0.206583,2.762441 -0.74526,5.026038 -0.951842,2.263597 -2.9115,3.543724 -1.960584,1.26774 -4.32662,1.444679 -2.564239,0.191761 -4.676061,-0.896001 -2.111821,-1.087762 -3.312646,-3.153005 -1.200825,-2.065243 -1.379617,-4.456055 z m 2.480304,-0.148114 q 0.245492,3.282721 2.146272,5.046481 1.912241,1.750447 4.57558,1.551274 2.71289,-0.202878 4.316883,-2.241192 1.61638,-2.039241 1.354213,-5.54494 -0.165823,-2.217385 -1.044677,-3.80843 -0.867393,-1.604359 -2.384371,-2.400268 -1.505517,-0.809224 -3.301723,-0.674899 -2.551851,0.190835 -4.266061,2.087909 -1.702749,1.883761 -1.396116,5.984065 z m 8.908818,8.190631 q -0.673671,0.486371 -1.022829,1.147784 -0.335845,0.672874 -0.286747,1.329419 0.03891,0.52028 0.350689,0.858214 0.311781,0.337935 0.955937,0.289763 0.284916,-0.02131 0.575734,-0.130254 0.291745,-0.09656 0.529307,-0.25135 l 0.118577,1.585616 q -0.871873,0.501193 -1.652294,0.559555 -0.631769,0.04725 -1.116394,-0.103366 -0.483699,-0.138224 -0.829864,-0.436217 -0.33285,-0.286531 -0.52446,-0.68328 -0.179222,-0.397675 -0.214424,-0.868404 -0.05929,-0.792809 0.326451,-1.631354 0.386666,-0.826158 1.155151,-1.543843 z"
       id="path3092" />
    <path
       d="m 90.676082,19.506357 6.15083,0.361087 q 0.71925,0.04222 1.297673,-0.27224 0.578423,-0.314464 0.913172,-0.929437 0.347877,-0.626645 0.396653,-1.457503 v 0 q 0.04878,-0.830858 -0.224118,-1.481502 -0.259764,-0.662317 -0.797419,-1.042301 -0.525255,-0.379256 -1.256906,-0.422208 l -6.15083,-0.361087 0.141232,-2.405769 6.051623,0.355264 q 1.562509,0.09173 2.702736,0.805732 1.152622,0.714733 1.727582,1.943072 0.58809,1.216667 0.49709,2.766775 v 0 q -0.091,1.550108 -0.81814,2.702008 -0.7264,1.139498 -1.95474,1.714455 -1.215938,0.575685 -2.766047,0.484686 L 90.53485,21.912125 Z m -0.63339,-8.075751 2.529777,0.148511 -1.059238,18.043261 -2.529777,-0.148511 z m 5.435662,10.211768 2.550863,-0.422656 4.099153,9.025827 -3.001007,-0.176176 z"
       id="path3094" />
    <path
       d="m 108.12337,28.657188 4.04902,0.555209 q 1.98144,0.271697 3.20453,-0.601283 1.23708,-0.883599 1.49359,-2.754272 l 0.72228,-5.267419 q 0.25651,-1.870673 -0.69875,-3.042351 -0.94127,-1.182299 -2.9227,-1.453996 l -4.04903,-0.555208 0.32739,-2.387569 3.97518,0.545083 q 2.15374,0.295323 3.57687,1.255311 1.42313,0.959989 2.02565,2.509606 0.60251,1.549617 0.32406,3.580281 l -0.69527,5.070506 q -0.27845,2.030665 -1.27585,3.360898 -0.99741,1.330234 -2.63873,1.870019 -1.62902,0.541473 -3.78275,0.246149 l -3.96287,-0.543395 z m 0.42796,-15.739773 2.51064,0.344263 -2.45372,17.894458 -2.51064,-0.344262 z m 5.33193,8.755736 -0.29363,2.141427 -8.24573,-1.130667 0.29364,-2.141427 z"
       id="path3096" />
    <path
       d="m 125.24254,23.491285 6.06394,1.091629 q 0.70909,0.12765 1.32088,-0.11563 0.61178,-0.243281 1.01744,-0.813971 0.42008,-0.580714 0.56754,-1.399836 v 0 q 0.14746,-0.819122 -0.0459,-1.497654 -0.17897,-0.688557 -0.6675,-1.129915 -0.47631,-0.439158 -1.19762,-0.569009 l -6.06395,-1.091629 0.42697,-2.371786 5.96614,1.074023 q 1.54044,0.277309 2.58743,1.122127 1.05922,0.84702 1.48368,2.135132 0.43888,1.278087 0.16377,2.806299 v 0 q -0.27511,1.528212 -1.13435,2.585233 -0.85705,1.044795 -2.14516,1.469249 -1.27589,0.426654 -2.8041,0.151545 l -5.96614,-1.074022 z m 0.33367,-8.093678 2.49404,0.448977 -3.20226,17.788389 -2.49404,-0.448976 z m 4.17978,10.786849 2.58305,-0.115606 2.99415,9.450064 -2.95862,-0.532609 z"
       id="path3098" />
  </g>
  <g
     style="display:inline"
     id="g3692"
     transform="matrix(0.41436287,0,0,0.41436287,-41.506946,38.757869)">
    <path
       id="path9478"
       d="m 310.00675,67.79011 c -17.89411,6e-6 -32.41703,16.441487 -32.417,36.69952 1e-5,20.25803 14.52292,36.6995 32.41702,36.69949 17.8941,-1e-5 32.41702,-16.44149 32.41699,-36.69952 0,-20.258026 -14.52291,-36.699497 -32.41701,-36.69949 z m 0,15.302 c 10.43823,-4e-6 18.92296,9.580313 18.92296,21.3975 2e-5,11.81718 -8.48472,21.4228 -18.92294,21.4228 -10.43823,1e-5 -18.90062,-9.6056 -18.90063,-21.42279 -10e-6,-11.817184 8.46238,-21.397506 18.90061,-21.39751 z"
       style="fill:#ffffff;fill-opacity:1;fill-rule:evenodd;stroke:#989898;stroke-width:1.56004;stroke-miterlimit:4;stroke-dasharray:none;stroke-opacity:1" />
    <path
       id="path11290"
       d="m 310.0291,107.52472 c -5.69067,0 -12.07745,9.36244 -12.08633,18.25584 1.08275,98.93141 -2.84186,197.61021 -3.75736,296.48068 -41.53505,-13.33469 -51.75992,-18.84203 -73.8781,-46.97535 6.52492,-2.89888 20.21745,-4.99753 30.965,-6.63719 -23.86288,-11.12784 -45.71498,-28.28805 -67.73517,-44.94399 0.66932,14.38321 -2.43715,60.52288 -4.44249,81.75286 7.35108,-7.11168 9.13435,-15.48854 16.8302,-15.91146 47.38623,65.441 101.32874,39.37676 113.83629,87.70526 h 0.4915 c 13.29017,-46.42203 81.62472,-35.75366 114.71105,-88.14999 2.11637,-3.35152 10.12548,10.01442 16.26761,20.26691 -2.32373,-36.18447 -0.26012,-60.50815 -0.84131,-85.06328 -14.39012,13.28168 -52.14879,41.04387 -67.6228,53.35972 22.12559,-1.54143 34.62232,-3.88929 32.85581,-2.09695 -27.11376,27.51001 -32.34463,29.44469 -81.1374,47.16601 -1.90846,-19.41612 -3.68384,-186.28815 -4.17956,-297.4284 0.005,-0.075 -0.004,-0.15235 -10e-6,-0.22764 0.0263,-0.46898 0.0447,-0.9368 0.0447,-1.41638 -10e-6,-8.90518 -4.62549,-16.13665 -10.32162,-16.13665 z"
       style="fill:#ffffff;fill-opacity:1;fill-rule:evenodd;stroke:#989898;stroke-width:1.56004;stroke-miterlimit:4;stroke-dasharray:none;stroke-opacity:1" />
    <g
       transform="matrix(0.714915,-2.532215e-7,2.866745e-7,0.809362,-315.8025,-56.57317)"
       id="g12214"
       style="fill:#ffffff;fill-opacity:1;stroke:#989898;stroke-width:2.05087;stroke-miterlimit:4;stroke-dasharray:none;stroke-opacity:1">
      <path
         style="display:inline;fill:#ffffff;fill-opacity:1;fill-rule:evenodd;stroke:#989898;stroke-width:2.05087;stroke-miterlimit:4;stroke-dasharray:none;stroke-opacity:1"
         d="m 782.96875,249.65625 -15.375,30.78125 c 33.27399,13.13981 69.50887,20.375 107.4375,20.375 38.17673,0 74.64136,-7.32136 108.09375,-20.625 l -16.40625,-30.40625 c -28.84431,9.50741 -59.67163,14.65625 -91.6875,14.65625 -32.15561,0 -63.10963,-5.19411 -92.0625,-14.78125 z"
         id="path9483" />
      <rect
         style="display:inline;fill:#ffffff;fill-opacity:1;fill-rule:evenodd;stroke:#989898;stroke-width:2.05087;stroke-miterlimit:4;stroke-dasharray:none;stroke-opacity:1"
         id="rect11286"
         width="7.5573497"
         height="55.420628"
         x="-736.60876"
         y="638.88129"
         transform="matrix(-0.895595,0.44487,0.44487,0.895595,0,0)"
         ry="4.8969808"
         rx="5.2769198" />
      <rect
         style="display:inline;fill:#ffffff;fill-opacity:1;fill-rule:evenodd;stroke:#989898;stroke-width:2.05087;stroke-miterlimit:4;stroke-dasharray:none;stroke-opacity:1"
         id="rect11288"
         width="7.5573478"
         height="55.420612"
         x="-714.48407"
         y="633.69897"
         transform="matrix(-0.895595,0.44487,0.44487,0.895595,0,0)"
         ry="4.8969798"
         rx="5.2769184" />
      <rect
         style="fill:#ffffff;fill-opacity:1;fill-rule:evenodd;stroke:#989898;stroke-width:2.05087;stroke-miterlimit:4;stroke-dasharray:none;stroke-opacity:1"
         id="rect10397"
         width="7.5573525"
         height="55.42065"
         x="830.74225"
         y="-141.02827"
         transform="rotate(26.415026)"
         ry="4.8969827"
         rx="5.2769217" />
      <rect
         style="display:inline;fill:#ffffff;fill-opacity:1;fill-rule:evenodd;stroke:#989898;stroke-width:2.05087;stroke-miterlimit:4;stroke-dasharray:none;stroke-opacity:1"
         id="rect11284"
         width="7.5573506"
         height="55.420635"
         x="852.86694"
         y="-146.21059"
         transform="rotate(26.415026)"
         ry="4.8969812"
         rx="5.2769203" />
    </g>
  </g>
  <g
     id="layer1-2"
     transform="matrix(0.88194444,0,0,0.88194444,20.28178,87.369289)"
     style="stroke:#ffffff;stroke-opacity:1">
    <path
       d="M 2,60 V 0"
       style="fill:none;fill-opacity:0.75;fill-rule:evenodd;stroke:#ffffff;stroke-width:4;stroke-linecap:butt;stroke-linejoin:miter;stroke-miterlimit:4;stroke-dasharray:none;stroke-opacity:1"
       id="path23299" />
    <path
       d="M 0,2 H 4 L 22,18"
       style="fill:none;fill-opacity:0.75;fill-rule:evenodd;stroke:#ffffff;stroke-width:4;stroke-linecap:butt;stroke-linejoin:miter;stroke-miterlimit:4;stroke-dasharray:none;stroke-opacity:1"
       id="path23301" />
  </g>
  <g
     id="layer1-8"
     transform="matrix(0.87589763,0,0,0.87589763,126.20167,87.732097)"
     style="stroke:#ffffff;stroke-opacity:1">
    <path
       d="M 1,1 20,20 39,1"
       style="fill:none;fill-opacity:0.75;fill-rule:evenodd;stroke:#ffffff;stroke-width:4;stroke-linecap:butt;stroke-linejoin:miter;stroke-miterlimit:4;stroke-dasharray:none;stroke-opacity:1"
       id="path5127" />
    <path
       d="M 20,0 V 60"
       style="fill:none;fill-opacity:0.75;fill-rule:evenodd;stroke:#ffffff;stroke-width:4;stroke-linecap:butt;stroke-linejoin:miter;stroke-miterlimit:4;stroke-dasharray:none;stroke-opacity:1"
       id="path5129" />
  </g>
</svg>
