<?xml version="1.0" encoding="UTF-8" standalone="no"?>
<svg
   width="657.42859"
   height="994.2113"
   viewBox="0 0 173.94464 263.05175"
   version="1.1"
   id="svg5"
   xmlns:xlink="http://www.w3.org/1999/xlink"
   xmlns="http://www.w3.org/2000/svg"
   xmlns:svg="http://www.w3.org/2000/svg">
  <g
     id="layer1"
     transform="translate(-44.204186,-7.321784)">
    <path
       style="display:inline;fill:#000000;fill-opacity:1;stroke:none;stroke-width:0.977326;stroke-linecap:round;stroke-linejoin:round;stroke-miterlimit:4;stroke-dasharray:none;stroke-dashoffset:0;stroke-opacity:1"
       id="path2836"
       d="m 131.34329,7.321784 c -27.65612,0 -54.212195,5.517918 -78.914796,11.390864 V 49.642853 C 72.603166,44.844209 109.0152,36.890527 131.60278,36.890527 c 22.26589,0 58.36945,7.884827 78.32185,12.563588 V 18.624571 C 185.30212,12.797795 158.85557,7.321784 131.34329,7.321784 Z" />
    <path
       id="path12"
       d="m 218.04483,135.25696 c -0.91043,17.94637 -3.11222,33.63823 -6.62308,47.20166 -3.9388,15.21665 -8.54548,26.64398 -15.27384,37.88834 -8.56652,14.31626 -19.24388,25.18654 -32.67445,33.26479 -2.33389,1.40381 -4.65966,2.63731 -13.0175,6.90408 -3.08504,1.57494 -8.67892,4.43722 -12.43081,6.36061 l -6.82165,3.49708 -4.45704,-2.31204 c -2.45136,-1.27161 -4.49702,-2.31203 -4.54588,-2.31203 -0.0489,0 -2.26007,-1.12911 -4.91382,-2.50914 -2.65372,-1.38003 -7.30147,-3.77202 -10.3283,-5.31554 -3.02683,-1.54352 -6.69396,-3.52669 -8.149167,-4.40704 -14.204844,-8.59345 -25.601242,-20.59783 -34.171465,-35.99451 -2.976563,-5.34748 -4.642247,-8.84282 -7.422409,-15.5755 -1.107176,-2.68124 -3.962771,-11.21993 -5.177102,-15.48043 -1.153187,-4.04594 -3.243474,-13.36785 -4.221295,-18.82533 -4.223123,-23.57032 -4.774353,-54.90141 -1.493017,-84.859836 0.228414,-2.085324 0.41529,-3.858172 0.41529,-3.93969 0,-0.08152 0.738187,-0.265031 1.640416,-0.407789 1.91008,-0.302234 8.119507,-1.865599 10.432627,-2.626654 14.232518,-4.682755 25.572084,-13.442344 30.74609,-23.750786 l 0.751099,-1.496348 3.591692,-0.46396 c 26.126591,-4.008385 53.980591,-2.601791 78.250571,0.46396 l 0.60876,1.197454 c 1.45121,2.766123 2.66715,4.677939 4.17089,6.557814 7.83611,9.796272 20.16082,16.626139 35.85175,19.867615 l 2.74307,0.658694 0.14925,0.644586 c 0.50869,2.51094 1.86521,18.612881 2.29812,27.27889 0.18984,3.80029 0.24307,25.10286 0.0712,28.49105 z"
       style="fill:#000000;stroke-width:0.211667" />
    <text
       xml:space="preserve"
       style="font-size:25.4407px;line-height:1.25;font-family:Bahnschrift;-inkscape-font-specification:Bahnschrift;text-align:center;text-anchor:middle;fill:#ffffff;fill-opacity:1;stroke-width:0.636019;font-weight:normal;font-style:normal;font-stretch:normal;font-variant:normal"
       id="text3098"
       transform="translate(0.05639574,-6.0475488)"><textPath
         xlink:href="#path2836"
         startOffset="50%"
         id="textPath28935">NJǪRÐR<tspan
   id="tspan3096"
   style="font-style:normal;font-variant:normal;font-weight:normal;font-stretch:normal;font-family:Bahnschrift;-inkscape-font-specification:Bahnschrift;text-align:center;text-anchor:middle;fill:#ffffff;fill-opacity:1;stroke-width:0.636019" /></textPath></text>
    <g
       style="display:inline"
       id="g3692"
       transform="matrix(0.41436287,0,0,0.41436287,2.6972397,46.079653)">
      <path
         id="path9478"
         d="m 310.00675,67.79011 c -17.89411,6e-6 -32.41703,16.441487 -32.417,36.69952 1e-5,20.25803 14.52292,36.6995 32.41702,36.69949 17.8941,-1e-5 32.41702,-16.44149 32.41699,-36.69952 0,-20.258026 -14.52291,-36.699497 -32.41701,-36.69949 z m 0,15.302 c 10.43823,-4e-6 18.92296,9.580313 18.92296,21.3975 2e-5,11.81718 -8.48472,21.4228 -18.92294,21.4228 -10.43823,1e-5 -18.90062,-9.6056 -18.90063,-21.42279 -10e-6,-11.817184 8.46238,-21.397506 18.90061,-21.39751 z"
         style="fill:#ffffff;fill-opacity:1;fill-rule:evenodd;stroke:#989898;stroke-width:1.56004;stroke-miterlimit:4;stroke-dasharray:none;stroke-opacity:1" />
      <path
         id="path11290"
         d="m 310.0291,107.52472 c -5.69067,0 -12.07745,9.36244 -12.08633,18.25584 1.08275,98.93141 -2.84186,197.61021 -3.75736,296.48068 -41.53505,-13.33469 -51.75992,-18.84203 -73.8781,-46.97535 6.52492,-2.89888 20.21745,-4.99753 30.965,-6.63719 -23.86288,-11.12784 -45.71498,-28.28805 -67.73517,-44.94399 0.66932,14.38321 -2.43715,60.52288 -4.44249,81.75286 7.35108,-7.11168 9.13435,-15.48854 16.8302,-15.91146 47.38623,65.441 101.32874,39.37676 113.83629,87.70526 h 0.4915 c 13.29017,-46.42203 81.62472,-35.75366 114.71105,-88.14999 2.11637,-3.35152 10.12548,10.01442 16.26761,20.26691 -2.32373,-36.18447 -0.26012,-60.50815 -0.84131,-85.06328 -14.39012,13.28168 -52.14879,41.04387 -67.6228,53.35972 22.12559,-1.54143 34.62232,-3.88929 32.85581,-2.09695 -27.11376,27.51001 -32.34463,29.44469 -81.1374,47.16601 -1.90846,-19.41612 -3.68384,-186.28815 -4.17956,-297.4284 0.005,-0.075 -0.004,-0.15235 -10e-6,-0.22764 0.0263,-0.46898 0.0447,-0.9368 0.0447,-1.41638 -10e-6,-8.90518 -4.62549,-16.13665 -10.32162,-16.13665 z"
         style="fill:#ffffff;fill-opacity:1;fill-rule:evenodd;stroke:#989898;stroke-width:1.56004;stroke-miterlimit:4;stroke-dasharray:none;stroke-opacity:1" />
      <g
         transform="matrix(0.714915,-2.532215e-7,2.866745e-7,0.809362,-315.8025,-56.57317)"
         id="g12214"
         style="fill:#ffffff;fill-opacity:1;stroke:#989898;stroke-width:2.05087;stroke-miterlimit:4;stroke-dasharray:none;stroke-opacity:1">
        <path
           style="display:inline;fill:#ffffff;fill-opacity:1;fill-rule:evenodd;stroke:#989898;stroke-width:2.05087;stroke-miterlimit:4;stroke-dasharray:none;stroke-opacity:1"
           d="m 782.96875,249.65625 -15.375,30.78125 c 33.27399,13.13981 69.50887,20.375 107.4375,20.375 38.17673,0 74.64136,-7.32136 108.09375,-20.625 l -16.40625,-30.40625 c -28.84431,9.50741 -59.67163,14.65625 -91.6875,14.65625 -32.15561,0 -63.10963,-5.19411 -92.0625,-14.78125 z"
           id="path9483" />
        <rect
           style="display:inline;fill:#ffffff;fill-opacity:1;fill-rule:evenodd;stroke:#989898;stroke-width:2.05087;stroke-miterlimit:4;stroke-dasharray:none;stroke-opacity:1"
           id="rect11286"
           width="7.5573497"
           height="55.420628"
           x="-736.60876"
           y="638.88129"
           transform="matrix(-0.895595,0.44487,0.44487,0.895595,0,0)"
           ry="4.8969808"
           rx="5.2769198" />
        <rect
           style="display:inline;fill:#ffffff;fill-opacity:1;fill-rule:evenodd;stroke:#989898;stroke-width:2.05087;stroke-miterlimit:4;stroke-dasharray:none;stroke-opacity:1"
           id="rect11288"
           width="7.5573478"
           height="55.420612"
           x="-714.48407"
           y="633.69897"
           transform="matrix(-0.895595,0.44487,0.44487,0.895595,0,0)"
           ry="4.8969798"
           rx="5.2769184" />
        <rect
           style="fill:#ffffff;fill-opacity:1;fill-rule:evenodd;stroke:#989898;stroke-width:2.05087;stroke-miterlimit:4;stroke-dasharray:none;stroke-opacity:1"
           id="rect10397"
           width="7.5573525"
           height="55.42065"
           x="830.74225"
           y="-141.02827"
           transform="rotate(26.415026)"
           ry="4.8969827"
           rx="5.2769217" />
        <rect
           style="display:inline;fill:#ffffff;fill-opacity:1;fill-rule:evenodd;stroke:#989898;stroke-width:2.05087;stroke-miterlimit:4;stroke-dasharray:none;stroke-opacity:1"
           id="rect11284"
           width="7.5573506"
           height="55.420635"
           x="852.86694"
           y="-146.21059"
           transform="rotate(26.415026)"
           ry="4.8969812"
           rx="5.2769203" />
      </g>
    </g>
  </g>
</svg>
