<?xml version="1.0" encoding="UTF-8" standalone="no"?>
<svg
   width="657.42859"
   height="994.2113"
   viewBox="0 0 173.94464 263.05175"
   version="1.1"
   id="svg5"
   xmlns="http://www.w3.org/2000/svg"
   xmlns:svg="http://www.w3.org/2000/svg">
  <g
     id="layer1"
     transform="translate(-44.204186,-7.321784)">
    <path
       style="display:inline;fill:#000000;fill-opacity:1;stroke:none;stroke-width:0.977326;stroke-linecap:round;stroke-linejoin:round;stroke-miterlimit:4;stroke-dasharray:none;stroke-dashoffset:0;stroke-opacity:1"
       id="path2836"
       d="m 131.34329,7.321784 c -27.65612,0 -54.212195,5.517918 -78.914796,11.390864 V 49.642853 C 72.603166,44.844209 109.0152,36.890527 131.60278,36.890527 c 22.26589,0 58.36945,7.884827 78.32185,12.563588 V 18.624571 C 185.30212,12.797795 158.85557,7.321784 131.34329,7.321784 Z" />
    <path
       id="path12"
       d="m 218.04483,135.25696 c -0.91043,17.94637 -3.11222,33.63823 -6.62308,47.20166 -3.9388,15.21665 -8.54548,26.64398 -15.27384,37.88834 -8.56652,14.31626 -19.24388,25.18654 -32.67445,33.26479 -2.33389,1.40381 -4.65966,2.63731 -13.0175,6.90408 -3.08504,1.57494 -8.67892,4.43722 -12.43081,6.36061 l -6.82165,3.49708 -4.45704,-2.31204 c -2.45136,-1.27161 -4.49702,-2.31203 -4.54588,-2.31203 -0.0489,0 -2.26007,-1.12911 -4.91382,-2.50914 -2.65372,-1.38003 -7.30147,-3.77202 -10.3283,-5.31554 -3.02683,-1.54352 -6.69396,-3.52669 -8.149167,-4.40704 -14.204844,-8.59345 -25.601242,-20.59783 -34.171465,-35.99451 -2.976563,-5.34748 -4.642247,-8.84282 -7.422409,-15.5755 -1.107176,-2.68124 -3.962771,-11.21993 -5.177102,-15.48043 -1.153187,-4.04594 -3.243474,-13.36785 -4.221295,-18.82533 -4.223123,-23.57032 -4.774353,-54.90141 -1.493017,-84.859836 0.228414,-2.085324 0.41529,-3.858172 0.41529,-3.93969 0,-0.08152 0.738187,-0.265031 1.640416,-0.407789 1.91008,-0.302234 8.119507,-1.865599 10.432627,-2.626654 14.232518,-4.682755 25.572084,-13.442344 30.74609,-23.750786 l 0.751099,-1.496348 3.591692,-0.46396 c 26.126591,-4.008385 53.980591,-2.601791 78.250571,0.46396 l 0.60876,1.197454 c 1.45121,2.766123 2.66715,4.677939 4.17089,6.557814 7.83611,9.796272 20.16082,16.626139 35.85175,19.867615 l 2.74307,0.658694 0.14925,0.644586 c 0.50869,2.51094 1.86521,18.612881 2.29812,27.27889 0.18984,3.80029 0.24307,25.10286 0.0712,28.49105 z"
       style="fill:#000000;stroke-width:0.211667" />
    <g
       transform="translate(0.05639574,-6.0475488)"
       id="Njord"
       style="font-size:25.4407px;line-height:1.25;font-family:Bahnschrift;-inkscape-font-specification:Bahnschrift;text-align:center;text-anchor:middle;fill:#ffffff;stroke-width:0.636019">
      <path
         d="m 80.183372,25.090033 2.261302,-0.409665 11.179721,12.164496 -0.235784,0.37095 -2.546563,-14.05674 2.469097,-0.44731 3.217527,17.760386 -2.285748,0.414093 -11.11763,-11.961128 0.235784,-0.370951 2.508918,13.848945 -2.469097,0.44731 z"
         id="path6469" />
      <path
         d="m 103.44879,39.617265 q -1.42621,0.205788 -2.70219,-0.19999 -1.275985,-0.405779 -2.176766,-1.342628 l 1.840366,-1.77165 q 0.43118,0.552776 1.13071,0.790714 0.69953,0.237938 1.56017,0.113756 1.46309,-0.21111 2.13098,-1.236244 0.68018,-1.026909 0.44246,-2.674424 l -1.75807,-12.184234 2.50816,-0.361903 1.75984,12.196529 q 0.26788,1.856528 -0.19392,3.266105 -0.46181,1.409577 -1.61654,2.279042 -1.15474,0.869466 -2.9252,1.124927 z"
         id="path6471" />
      <path
         d="m 111.76568,29.154099 q -0.33813,-4.521484 1.89901,-7.254906 2.23622,-2.74581 6.07638,-3.032989 2.51469,-0.188055 4.62373,0.862544 2.10904,1.050599 3.32318,3.127304 1.2256,2.06339 1.42941,4.788668 0.20658,2.762441 -0.74526,5.026037 -0.95185,2.263597 -2.9115,3.543724 -1.96059,1.26774 -4.32662,1.444679 -2.56424,0.191762 -4.67606,-0.896001 -2.11182,-1.087762 -3.31265,-3.153005 -1.20082,-2.065243 -1.37962,-4.456055 z m 2.48031,-0.148114 q 0.24549,3.282721 2.14627,5.046482 1.91224,1.750446 4.57558,1.551274 2.71289,-0.202878 4.31688,-2.241193 1.61638,-2.039241 1.35422,-5.544939 -0.16583,-2.217385 -1.04468,-3.80843 -0.86739,-1.604359 -2.38437,-2.400269 -1.50552,-0.809224 -3.30173,-0.674898 -2.55185,0.190835 -4.26606,2.087909 -1.70275,1.88376 -1.39611,5.984064 z m 8.90882,8.190631 q -0.67368,0.486371 -1.02283,1.147784 -0.33585,0.672875 -0.28675,1.329419 0.0389,0.52028 0.35069,0.858215 0.31178,0.337934 0.95594,0.289762 0.28491,-0.02131 0.57573,-0.130253 0.29174,-0.09656 0.52931,-0.251351 l 0.11857,1.585616 q -0.87187,0.501193 -1.65229,0.559555 -0.63177,0.04725 -1.1164,-0.103366 -0.48369,-0.138224 -0.82986,-0.436216 -0.33285,-0.286531 -0.52446,-0.68328 -0.17922,-0.397675 -0.21442,-0.868405 -0.0593,-0.792808 0.32645,-1.631354 0.38666,-0.826158 1.15515,-1.543843 z"
         id="path6473" />
      <path
         d="m 134.88028,26.828142 6.15083,0.361088 q 0.71925,0.04222 1.29767,-0.272241 0.57842,-0.314464 0.91317,-0.929436 0.34788,-0.626646 0.39665,-1.457504 v 0 q 0.0488,-0.830858 -0.22411,-1.481502 -0.25977,-0.662317 -0.79742,-1.042301 -0.52526,-0.379256 -1.25691,-0.422208 l -6.15083,-0.361087 0.14123,-2.405769 6.05163,0.355264 q 1.5625,0.09173 2.70273,0.805732 1.15263,0.714733 1.72759,1.943073 0.58808,1.216666 0.49708,2.766774 v 0 q -0.091,1.550108 -0.81813,2.702008 -0.72641,1.139498 -1.95475,1.714455 -1.21594,0.575686 -2.76604,0.484686 l -6.05163,-0.355264 z m -0.63339,-8.075751 2.52977,0.148511 -1.05924,18.043261 -2.52977,-0.148511 z m 5.43566,10.211768 2.55086,-0.422656 4.09916,9.025827 -3.00101,-0.176176 z"
         id="path6475" />
      <path
         d="m 152.32757,35.978972 4.04902,0.555208 q 1.98143,0.271697 3.20452,-0.601283 1.23708,-0.883599 1.49359,-2.754272 l 0.72228,-5.267419 q 0.25651,-1.870673 -0.69875,-3.042351 -0.94126,-1.182299 -2.9227,-1.453996 l -4.04902,-0.555208 0.32739,-2.387569 3.97517,0.545083 q 2.15374,0.295323 3.57687,1.255311 1.42314,0.959989 2.02565,2.509606 0.60251,1.549617 0.32407,3.580281 l -0.69528,5.070507 q -0.27845,2.030664 -1.27585,3.360898 -0.99741,1.330233 -2.63873,1.870018 -1.62901,0.541473 -3.78275,0.24615 l -3.96287,-0.543396 z m 0.42795,-15.739774 2.51064,0.344263 -2.45372,17.894458 -2.51063,-0.344262 z m 5.33194,8.755736 -0.29364,2.141428 -8.24573,-1.130668 0.29364,-2.141427 z"
         id="path6477" />
      <path
         d="m 169.44673,30.813066 6.06395,1.091629 q 0.70909,0.12765 1.32087,-0.11563 0.61178,-0.243281 1.01744,-0.81397 0.42009,-0.580715 0.56755,-1.399837 v 0 q 0.14745,-0.819121 -0.0459,-1.497654 -0.17898,-0.688557 -0.66751,-1.129915 -0.47631,-0.439158 -1.19762,-0.569009 l -6.06395,-1.091629 0.42697,-2.371785 5.96614,1.074022 q 1.54044,0.277309 2.58744,1.122128 1.05922,0.847019 1.48367,2.135131 0.43888,1.278087 0.16377,2.806299 v 0 q -0.27511,1.528212 -1.13435,2.585233 -0.85705,1.044796 -2.14516,1.469249 -1.27588,0.426654 -2.8041,0.151546 l -5.96614,-1.074023 z m 0.33367,-8.093677 2.49405,0.448976 -3.20226,17.788389 -2.49405,-0.448976 z m 4.17978,10.786849 2.58306,-0.115607 2.99414,9.450064 -2.95862,-0.532609 z"
         id="path6479" />
    </g>
    <g
       style="display:inline"
       id="g3692"
       transform="matrix(0.41436287,0,0,0.41436287,2.6972397,46.079653)">
      <path
         id="path9478"
         d="m 310.00675,67.79011 c -17.89411,6e-6 -32.41703,16.441487 -32.417,36.69952 1e-5,20.25803 14.52292,36.6995 32.41702,36.69949 17.8941,-1e-5 32.41702,-16.44149 32.41699,-36.69952 0,-20.258026 -14.52291,-36.699497 -32.41701,-36.69949 z m 0,15.302 c 10.43823,-4e-6 18.92296,9.580313 18.92296,21.3975 2e-5,11.81718 -8.48472,21.4228 -18.92294,21.4228 -10.43823,1e-5 -18.90062,-9.6056 -18.90063,-21.42279 -10e-6,-11.817184 8.46238,-21.397506 18.90061,-21.39751 z"
         style="fill:#ffffff;fill-opacity:1;fill-rule:evenodd;stroke:#989898;stroke-width:1.56004;stroke-miterlimit:4;stroke-dasharray:none;stroke-opacity:1" />
      <path
         id="path11290"
         d="m 310.0291,107.52472 c -5.69067,0 -12.07745,9.36244 -12.08633,18.25584 1.08275,98.93141 -2.84186,197.61021 -3.75736,296.48068 -41.53505,-13.33469 -51.75992,-18.84203 -73.8781,-46.97535 6.52492,-2.89888 20.21745,-4.99753 30.965,-6.63719 -23.86288,-11.12784 -45.71498,-28.28805 -67.73517,-44.94399 0.66932,14.38321 -2.43715,60.52288 -4.44249,81.75286 7.35108,-7.11168 9.13435,-15.48854 16.8302,-15.91146 47.38623,65.441 101.32874,39.37676 113.83629,87.70526 h 0.4915 c 13.29017,-46.42203 81.62472,-35.75366 114.71105,-88.14999 2.11637,-3.35152 10.12548,10.01442 16.26761,20.26691 -2.32373,-36.18447 -0.26012,-60.50815 -0.84131,-85.06328 -14.39012,13.28168 -52.14879,41.04387 -67.6228,53.35972 22.12559,-1.54143 34.62232,-3.88929 32.85581,-2.09695 -27.11376,27.51001 -32.34463,29.44469 -81.1374,47.16601 -1.90846,-19.41612 -3.68384,-186.28815 -4.17956,-297.4284 0.005,-0.075 -0.004,-0.15235 -10e-6,-0.22764 0.0263,-0.46898 0.0447,-0.9368 0.0447,-1.41638 -10e-6,-8.90518 -4.62549,-16.13665 -10.32162,-16.13665 z"
         style="fill:#ffffff;fill-opacity:1;fill-rule:evenodd;stroke:#989898;stroke-width:1.56004;stroke-miterlimit:4;stroke-dasharray:none;stroke-opacity:1" />
      <g
         transform="matrix(0.714915,-2.532215e-7,2.866745e-7,0.809362,-315.8025,-56.57317)"
         id="g12214"
         style="fill:#ffffff;fill-opacity:1;stroke:#989898;stroke-width:2.05087;stroke-miterlimit:4;stroke-dasharray:none;stroke-opacity:1">
        <path
           style="display:inline;fill:#ffffff;fill-opacity:1;fill-rule:evenodd;stroke:#989898;stroke-width:2.05087;stroke-miterlimit:4;stroke-dasharray:none;stroke-opacity:1"
           d="m 782.96875,249.65625 -15.375,30.78125 c 33.27399,13.13981 69.50887,20.375 107.4375,20.375 38.17673,0 74.64136,-7.32136 108.09375,-20.625 l -16.40625,-30.40625 c -28.84431,9.50741 -59.67163,14.65625 -91.6875,14.65625 -32.15561,0 -63.10963,-5.19411 -92.0625,-14.78125 z"
           id="path9483" />
        <rect
           style="display:inline;fill:#ffffff;fill-opacity:1;fill-rule:evenodd;stroke:#989898;stroke-width:2.05087;stroke-miterlimit:4;stroke-dasharray:none;stroke-opacity:1"
           id="rect11286"
           width="7.5573497"
           height="55.420628"
           x="-736.60876"
           y="638.88129"
           transform="matrix(-0.895595,0.44487,0.44487,0.895595,0,0)"
           ry="4.8969808"
           rx="5.2769198" />
        <rect
           style="display:inline;fill:#ffffff;fill-opacity:1;fill-rule:evenodd;stroke:#989898;stroke-width:2.05087;stroke-miterlimit:4;stroke-dasharray:none;stroke-opacity:1"
           id="rect11288"
           width="7.5573478"
           height="55.420612"
           x="-714.48407"
           y="633.69897"
           transform="matrix(-0.895595,0.44487,0.44487,0.895595,0,0)"
           ry="4.8969798"
           rx="5.2769184" />
        <rect
           style="fill:#ffffff;fill-opacity:1;fill-rule:evenodd;stroke:#989898;stroke-width:2.05087;stroke-miterlimit:4;stroke-dasharray:none;stroke-opacity:1"
           id="rect10397"
           width="7.5573525"
           height="55.42065"
           x="830.74225"
           y="-141.02827"
           transform="rotate(26.415026)"
           ry="4.8969827"
           rx="5.2769217" />
        <rect
           style="display:inline;fill:#ffffff;fill-opacity:1;fill-rule:evenodd;stroke:#989898;stroke-width:2.05087;stroke-miterlimit:4;stroke-dasharray:none;stroke-opacity:1"
           id="rect11284"
           width="7.5573506"
           height="55.420635"
           x="852.86694"
           y="-146.21059"
           transform="rotate(26.415026)"
           ry="4.8969812"
           rx="5.2769203" />
      </g>
    </g>
  </g>
</svg>
