<?xml version="1.0" encoding="UTF-8" standalone="no"?>
<svg
   width="200"
   height="55"
   viewBox="0 0 52.916665 14.552084"
   version="1.1"
   id="svg5"
   xmlns="http://www.w3.org/2000/svg"
   xmlns:svg="http://www.w3.org/2000/svg">
  <g
     id="layer1">
    <path
       id="rect2487-4"
       style="fill:#daa638;fill-opacity:1;stroke-width:0.169254"
       d="M 2.2727237e-8,-4.7718752e-7 H 2.6458334 V 14.552084 H 2.2727237e-8 Z" />
    <path
       id="rect2487-4-0"
       style="fill:#ffffff;fill-opacity:1;stroke-width:0.169254"
       d="M 2.6458334,-4.7718752e-7 H 5.2916668 V 14.552084 H 2.6458334 Z" />
    <path
       id="rect2487-4-2"
       style="fill:#daa638;fill-opacity:1;stroke-width:0.169254"
       d="M 5.2916668,-4.7718752e-7 H 7.9375002 V 14.552084 H 5.2916668 Z" />
    <path
       id="rect2487-4-2-3"
       style="fill:#ffffff;fill-opacity:1;stroke-width:0.169254"
       d="m 10.583333,-7e-7 h 2.645833 V 14.552084 h -2.645833 z" />
    <path
       id="rect2487-4-1"
       style="fill:#daa638;fill-opacity:1;stroke-width:0.586314"
       d="M 10.583333,-4.7718752e-7 H 42.333335 V 14.552084 H 10.583333 Z" />
    <path
       id="rect2487-4-0-8"
       style="fill:#daa638;fill-opacity:1;stroke-width:0.169254"
       d="m 44.979168,-6.4125001e-7 h 2.645833 V 14.552084 h -2.645833 z" />
    <path
       id="rect2487-4-6"
       style="fill:#ffffff;fill-opacity:1;stroke-width:0.169254"
       d="m 47.625001,-6.4125001e-7 h 2.645833 V 14.552084 h -2.645833 z" />
    <path
       id="rect2487-4-6-7"
       style="fill:#ffffff;fill-opacity:1;stroke-width:0.169254"
       d="m 42.333335,-6.4125001e-7 h 2.645833 V 14.552084 h -2.645833 z" />
    <path
       id="rect2487-4-0-4"
       style="fill:#daa638;fill-opacity:1;stroke-width:0.169254"
       d="m 50.270834,-6.4125001e-7 h 2.645833 V 14.552084 h -2.645833 z" />
    <path
       id="rect2487-4-0-3"
       style="fill:#fffefd;fill-opacity:1;stroke-width:0.169254"
       d="M 7.9375002,-7e-7 H 10.583333 V 14.552084 H 7.9375002 Z" />
    <g
       id="g2937"
       style="fill:#000000;fill-opacity:0.35023">
      <path
         id="rect1083"
         style="fill:#000000;fill-opacity:0.35023;stroke-width:0.198004"
         d="M -4.4638898e-7,0 H 52.916667 V 0.58208334 H -4.4638898e-7 Z" />
      <path
         id="rect1083-3"
         style="fill:#000000;fill-opacity:0.35023;stroke-width:0.198004"
         d="M -4.4638898e-7,1.1641666 H 52.916666 V 1.7462499 H -4.4638898e-7 Z" />
      <path
         id="rect1083-2"
         style="fill:#000000;fill-opacity:0.35023;stroke-width:0.198004"
         d="M -4.4638898e-7,2.3283332 H 52.916667 V 2.9104165 H -4.4638898e-7 Z" />
      <path
         id="rect1083-7"
         style="fill:#000000;fill-opacity:0.35023;stroke-width:0.198004"
         d="M -4.4638898e-7,3.4924998 H 52.916667 V 4.0745831 H -4.4638898e-7 Z" />
      <path
         id="rect1083-6"
         style="fill:#000000;fill-opacity:0.35023;stroke-width:0.198004"
         d="M -4.4638898e-7,4.6566664 H 52.916667 V 5.2387497 H -4.4638898e-7 Z" />
      <path
         id="rect1083-45"
         style="fill:#000000;fill-opacity:0.35023;stroke-width:0.198004"
         d="M -4.4638898e-7,5.820833 H 52.916667 V 6.4029163 H -4.4638898e-7 Z" />
      <path
         id="rect1083-78"
         style="fill:#000000;fill-opacity:0.35023;stroke-width:0.198004"
         d="M -4.4638898e-7,6.9849996 H 52.916667 V 7.5670829 H -4.4638898e-7 Z" />
      <path
         id="rect1083-25"
         style="fill:#000000;fill-opacity:0.35023;stroke-width:0.198004"
         d="M -4.4638898e-7,8.1491662 H 52.916667 v 0.582083 H -4.4638898e-7 Z" />
      <path
         id="rect1083-9"
         style="fill:#000000;fill-opacity:0.35023;stroke-width:0.198004"
         d="M -4.4638898e-7,9.3133322 H 52.916667 v 0.582083 H -4.4638898e-7 Z" />
      <path
         id="rect1083-22"
         style="fill:#000000;fill-opacity:0.35023;stroke-width:0.198004"
         d="M -4.4638898e-7,10.477498 H 52.916667 v 0.582083 H -4.4638898e-7 Z" />
      <path
         id="rect1083-33"
         style="fill:#000000;fill-opacity:0.35023;stroke-width:0.198004"
         d="M -4.4638898e-7,11.641664 H 52.916667 v 0.582083 H -4.4638898e-7 Z" />
      <path
         id="rect1083-1"
         style="fill:#000000;fill-opacity:0.35023;stroke-width:0.198004"
         d="M -4.4638898e-7,12.80583 H 52.916667 v 0.582083 H -4.4638898e-7 Z" />
      <path
         id="rect1083-95"
         style="fill:#000000;fill-opacity:0.35023;stroke-width:0.198004"
         d="M -4.4638898e-7,13.969996 H 52.916667 v 0.582083 H -4.4638898e-7 Z" />
    </g>
  </g>
</svg>
