<?xml version="1.0" encoding="UTF-8" standalone="no"?>
<svg
   width="200"
   height="55.000004"
   viewBox="0 0 52.916665 14.552085"
   version="1.1"
   id="svg5"
   xmlns="http://www.w3.org/2000/svg"
   xmlns:svg="http://www.w3.org/2000/svg">
  <g
     id="layer1"
     transform="translate(-313.37321,-68.284696)">
    <rect
       style="fill:#0b60ad;fill-opacity:1;stroke:none;stroke-width:1.32292;stroke-miterlimit:4;stroke-dasharray:none;stroke-opacity:1"
       id="rect2716"
       width="51.593662"
       height="13.229071"
       x="314.0347"
       y="68.946205" />
    <rect
       style="fill:none;fill-opacity:1;stroke:#ffffff;stroke-width:1.32292;stroke-miterlimit:4;stroke-dasharray:none;stroke-opacity:1"
       id="rect1568"
       width="48.947895"
       height="10.583311"
       x="315.3576"
       y="70.269081" />
    <path
       id="rect1200"
       style="fill:none;stroke:#000000;stroke-width:1.32301;stroke-opacity:1"
       d="m 314.03471,68.946203 h 51.59366 v 13.229071 h -51.59366 z" />
    <text
       xml:space="preserve"
       style="font-size:10.5833px;line-height:1.25;font-family:'Uni Sans';-inkscape-font-specification:'Uni Sans';stroke-width:0.264583"
       x="336.84976"
       y="76.215118"
       id="text4363"><tspan
         id="tspan4361"
         style="stroke-width:0.264583"></tspan></text>
    <g
       id="layer1-8"
       transform="matrix(0.13138465,0,0,0.13138465,337.20385,71.646409)"
       style="stroke:#ffffff;stroke-opacity:1">
      <path
         d="M 1,1 20,20 39,1"
         style="fill:none;fill-opacity:0.75;fill-rule:evenodd;stroke:#ffffff;stroke-width:4;stroke-linecap:butt;stroke-linejoin:miter;stroke-miterlimit:4;stroke-dasharray:none;stroke-opacity:1"
         id="path5127" />
      <path
         d="M 20,0 V 60"
         style="fill:none;fill-opacity:0.75;fill-rule:evenodd;stroke:#ffffff;stroke-width:4;stroke-linecap:butt;stroke-linejoin:miter;stroke-miterlimit:4;stroke-dasharray:none;stroke-opacity:1"
         id="path5129" />
    </g>
    <g
       id="g2937"
       style="fill:#000000;fill-opacity:0.35023"
       transform="translate(313.37321,68.284699)">
      <path
         id="rect1083"
         style="fill:#000000;fill-opacity:0.35023;stroke-width:0.198004"
         d="M -4.4638898e-7,0 H 52.916667 V 0.58208334 H -4.4638898e-7 Z" />
      <path
         id="rect1083-3"
         style="fill:#000000;fill-opacity:0.35023;stroke-width:0.198004"
         d="M -4.4638898e-7,1.1641666 H 52.916666 V 1.7462499 H -4.4638898e-7 Z" />
      <path
         id="rect1083-2"
         style="fill:#000000;fill-opacity:0.35023;stroke-width:0.198004"
         d="M -4.4638898e-7,2.3283332 H 52.916667 V 2.9104165 H -4.4638898e-7 Z" />
      <path
         id="rect1083-7"
         style="fill:#000000;fill-opacity:0.35023;stroke-width:0.198004"
         d="M -4.4638898e-7,3.4924998 H 52.916667 V 4.0745831 H -4.4638898e-7 Z" />
      <path
         id="rect1083-6"
         style="fill:#000000;fill-opacity:0.35023;stroke-width:0.198004"
         d="M -4.4638898e-7,4.6566664 H 52.916667 V 5.2387497 H -4.4638898e-7 Z" />
      <path
         id="rect1083-45"
         style="fill:#000000;fill-opacity:0.35023;stroke-width:0.198004"
         d="M -4.4638898e-7,5.820833 H 52.916667 V 6.4029163 H -4.4638898e-7 Z" />
      <path
         id="rect1083-78"
         style="fill:#000000;fill-opacity:0.35023;stroke-width:0.198004"
         d="M -4.4638898e-7,6.9849996 H 52.916667 V 7.5670829 H -4.4638898e-7 Z" />
      <path
         id="rect1083-25"
         style="fill:#000000;fill-opacity:0.35023;stroke-width:0.198004"
         d="M -4.4638898e-7,8.1491662 H 52.916667 v 0.582083 H -4.4638898e-7 Z" />
      <path
         id="rect1083-9"
         style="fill:#000000;fill-opacity:0.35023;stroke-width:0.198004"
         d="M -4.4638898e-7,9.3133322 H 52.916667 v 0.582083 H -4.4638898e-7 Z" />
      <path
         id="rect1083-22"
         style="fill:#000000;fill-opacity:0.35023;stroke-width:0.198004"
         d="M -4.4638898e-7,10.477498 H 52.916667 v 0.582083 H -4.4638898e-7 Z" />
      <path
         id="rect1083-33"
         style="fill:#000000;fill-opacity:0.35023;stroke-width:0.198004"
         d="M -4.4638898e-7,11.641664 H 52.916667 v 0.582083 H -4.4638898e-7 Z" />
      <path
         id="rect1083-1"
         style="fill:#000000;fill-opacity:0.35023;stroke-width:0.198004"
         d="M -4.4638898e-7,12.80583 H 52.916667 v 0.582083 H -4.4638898e-7 Z" />
      <path
         id="rect1083-95"
         style="fill:#000000;fill-opacity:0.35023;stroke-width:0.198004"
         d="M -4.4638898e-7,13.969996 H 52.916667 v 0.582083 H -4.4638898e-7 Z" />
    </g>
  </g>
</svg>
