<?xml version="1.0" encoding="UTF-8" standalone="no"?>
<svg
   width="200"
   height="55"
   viewBox="0 0 52.916665 14.552084"
   version="1.1"
   id="svg5"
   xmlns="http://www.w3.org/2000/svg"
   xmlns:svg="http://www.w3.org/2000/svg">
  <defs
     id="defs2" />
  <g
     id="layer1">
    <path
       id="rect843"
       style="fill:#daa638;fill-opacity:1;stroke-width:0.276597"
       d="M 2.2727233e-8,-2.8125001e-7 H 52.916667 V 14.552084 H 2.2727233e-8 Z" />
    <path
       d="m 26.458331,13.229167 c 1.663719,-1.054468 4.458061,-1.218498 4.680672,-1.230213 0.222609,-0.01172 0.22261,-0.199177 0.22261,-0.199177 l 3e-6,-1.8746113 c -3.883963,0.07615 -3.655494,-0.749228 -3.655494,-0.749228 l 1e-6,-5.4147896 c 0,0 -0.01213,-1.63455 0.843574,-1.651633 0.02663,-5.3e-4 0,-0.7865974 0,-0.7865974 l -4.182729,-1e-6 c 0,0 -0.01536,0.7860444 1e-6,0.7865984 0.861234,0.03107 0.843577,1.651632 0.843577,1.651632 l -2e-6,5.4147906 c 0,0 0.228469,0.8253843 -3.655493,0.749228 l 1e-6,1.8746113 c 0,0 -1e-6,0.187461 0.222613,0.199177 0.22261,0.01172 3.016951,0.175743 4.680671,1.230213 z"
       id="Thors_hammer"
       style="fill:#ffffff;fill-opacity:1;stroke-width:0.05395" />
    <g
       id="g2937"
       style="fill:#000000;fill-opacity:0.3502304">
      <path
         id="rect1083"
         style="fill-opacity:0.3502304;stroke-width:0.198004;fill:#000000"
         d="M -4.4638898e-7,0 H 52.916667 V 0.58208334 H -4.4638898e-7 Z" />
      <path
         id="rect1083-3"
         style="fill-opacity:0.3502304;stroke-width:0.198004;fill:#000000"
         d="M -4.4638898e-7,1.1641666 H 52.916666 V 1.7462499 H -4.4638898e-7 Z" />
      <path
         id="rect1083-2"
         style="fill-opacity:0.3502304;stroke-width:0.198004;fill:#000000"
         d="M -4.4638898e-7,2.3283332 H 52.916667 V 2.9104165 H -4.4638898e-7 Z" />
      <path
         id="rect1083-7"
         style="fill-opacity:0.3502304;stroke-width:0.198004;fill:#000000"
         d="M -4.4638898e-7,3.4924998 H 52.916667 V 4.0745831 H -4.4638898e-7 Z" />
      <path
         id="rect1083-6"
         style="fill-opacity:0.3502304;stroke-width:0.198004;fill:#000000"
         d="M -4.4638898e-7,4.6566664 H 52.916667 V 5.2387497 H -4.4638898e-7 Z" />
      <path
         id="rect1083-45"
         style="fill-opacity:0.3502304;stroke-width:0.198004;fill:#000000"
         d="M -4.4638898e-7,5.820833 H 52.916667 V 6.4029163 H -4.4638898e-7 Z" />
      <path
         id="rect1083-78"
         style="fill-opacity:0.3502304;stroke-width:0.198004;fill:#000000"
         d="M -4.4638898e-7,6.9849996 H 52.916667 V 7.5670829 H -4.4638898e-7 Z" />
      <path
         id="rect1083-25"
         style="fill-opacity:0.3502304;stroke-width:0.198004;fill:#000000"
         d="M -4.4638898e-7,8.1491662 H 52.916667 v 0.582083 H -4.4638898e-7 Z" />
      <path
         id="rect1083-9"
         style="fill-opacity:0.3502304;stroke-width:0.198004;fill:#000000"
         d="M -4.4638898e-7,9.3133322 H 52.916667 v 0.582083 H -4.4638898e-7 Z" />
      <path
         id="rect1083-22"
         style="fill-opacity:0.3502304;stroke-width:0.198004;fill:#000000"
         d="M -4.4638898e-7,10.477498 H 52.916667 v 0.582083 H -4.4638898e-7 Z" />
      <path
         id="rect1083-33"
         style="fill-opacity:0.3502304;stroke-width:0.198004;fill:#000000"
         d="M -4.4638898e-7,11.641664 H 52.916667 v 0.582083 H -4.4638898e-7 Z" />
      <path
         id="rect1083-1"
         style="fill-opacity:0.3502304;stroke-width:0.198004;fill:#000000"
         d="M -4.4638898e-7,12.80583 H 52.916667 v 0.582083 H -4.4638898e-7 Z" />
      <path
         id="rect1083-95"
         style="fill-opacity:0.3502304;stroke-width:0.198004;fill:#000000"
         d="M -4.4638898e-7,13.969996 H 52.916667 v 0.582083 H -4.4638898e-7 Z" />
    </g>
  </g>
</svg>
