<?xml version="1.0" encoding="UTF-8" standalone="no"?>
<svg
   width="230"
   height="125"
   viewBox="0 0 60.854164 33.07292"
   version="1.1"
   id="svg5"
   xmlns="http://www.w3.org/2000/svg"
   xmlns:svg="http://www.w3.org/2000/svg">
  <style>
    path {
      background-color: black;
      color-scheme:light dark;
    }
    @media (prefers-color-scheme:dark) {
      path {
        background-color: white;
      }
    }
  </style>
  <g
     id="layer1"
     transform="translate(-92.583422,-111.18777)">
    <g
       id="VKS">
      <path
         d="m 98.468093,143.87421 h 6.846487 l 5.79743,-32.63124 h -5.02444 l -4.14102,26.72338 -4.030593,-26.72338 h -5.134865 z"
         id="V" />
      <path
         d="m 127.67608,143.87421 h 5.52136 l -7.78512,-16.95058 7.50905,-15.68066 h -5.41094 l -7.12255,15.68066 z m -12.80956,0 h 5.02444 v -32.63124 h -5.02444 z"
         id="K" />
      <path
         d="m 144.01925,144.2607 c 5.46615,0 9.22067,-2.31897 9.22067,-9.27588 0,-5.96307 -2.0429,-7.34341 -7.01213,-9.22067 -2.76068,-1.04906 -5.41093,-1.93248 -5.41093,-5.96307 0,-3.14718 0.99384,-4.63795 3.53367,-4.63795 2.4294,0 3.53367,1.54599 3.53367,4.91401 v 2.31898 h 4.96923 v -3.75453 c 0,-4.8588 -3.03675,-7.45383 -8.55811,-7.45383 -6.40478,0 -8.61332,2.65025 -8.61332,8.77896 0,5.07965 2.09811,7.39862 5.85264,8.9446 4.36187,1.82205 6.40477,2.31897 6.40477,6.79127 0,4.0306 -1.54598,5.2453 -3.75452,5.2453 -2.09812,0 -3.53367,-1.2147 -3.53367,-5.96307 v -2.26376 h -5.19008 v 1.87726 c 0,7.56426 3.09196,9.66238 8.55811,9.66238 z"
         id="S" />
    </g>
  </g>
</svg>
