<?xml version="1.0" encoding="UTF-8" standalone="no"?>
<svg
   width="230"
   height="190"
   viewBox="0 0 60.854164 50.270837"
   version="1.1"
   id="svg5"
   xmlns="http://www.w3.org/2000/svg"
   xmlns:svg="http://www.w3.org/2000/svg">
  <g
     id="layer1"
     transform="translate(-92.978728,-111.40409)">
    <g
       id="VKS"
       transform="translate(0.39530378,0.58501066)">
      <path
         d="m 98.468093,143.87421 h 6.846487 l 5.79743,-32.63124 h -5.02444 l -4.14102,26.72338 -4.030593,-26.72338 h -5.134865 z"
         id="V" />
      <path
         d="m 127.67608,143.87421 h 5.52136 l -7.78512,-16.95058 7.50905,-15.68066 h -5.41094 l -7.12255,15.68066 z m -12.80956,0 h 5.02444 v -32.63124 h -5.02444 z"
         id="K" />
      <path
         d="m 144.01925,144.2607 c 5.46615,0 9.22067,-2.31897 9.22067,-9.27588 0,-5.96307 -2.0429,-7.34341 -7.01213,-9.22067 -2.76068,-1.04906 -5.41093,-1.93248 -5.41093,-5.96307 0,-3.14718 0.99384,-4.63795 3.53367,-4.63795 2.4294,0 3.53367,1.54599 3.53367,4.91401 v 2.31898 h 4.96923 v -3.75453 c 0,-4.8588 -3.03675,-7.45383 -8.55811,-7.45383 -6.40478,0 -8.61332,2.65025 -8.61332,8.77896 0,5.07965 2.09811,7.39862 5.85264,8.9446 4.36187,1.82205 6.40477,2.31897 6.40477,6.79127 0,4.0306 -1.54598,5.2453 -3.75452,5.2453 -2.09812,0 -3.53367,-1.2147 -3.53367,-5.96307 v -2.26376 h -5.19008 v 1.87726 c 0,7.56426 3.09196,9.66238 8.55811,9.66238 z"
         id="S" />
    </g>
    <g
       id="Nyheter"
       transform="translate(0.39530378,-1.0426166)">
      <path
         d="m 92.781076,162.34886 h 0.60208 v -13.1956 l 5.719768,13.1956 h 0.602081 v -14.82624 h -0.576994 v 13.47156 l -5.795028,-13.47156 h -0.551907 z"
         id="N" />
      <path
         d="m 104.94811,162.34886 h 0.60208 v -6.62289 l 2.98531,-8.20335 h -0.65225 l -2.55884,7.30023 -0.0502,0.17561 -0.0502,-0.17561 -2.35815,-7.30023 h -0.67734 l 2.75954,8.17827 z"
         id="Y" />
      <path
         d="m 111.04416,162.34886 h 0.60208 v -7.5511 h 5.74486 v 7.5511 h 0.57699 v -14.82624 h -0.57699 v 6.77341 h -5.74486 v -6.77341 h -0.60208 z"
         id="H" />
      <path
         d="m 121.8816,162.34886 h 6.09606 v -0.47665 h -5.4689 v -7.09953 h 4.21457 v -0.47665 h -4.21457 v -6.29676 h 5.4689 v -0.47665 h -6.09606 z"
         id="E1" />
      <path
         d="m 131.59014,162.34886 h 0.60208 v -14.34959 h 2.70936 v -0.47665 h -5.94555 v 0.47665 h 2.63411 z"
         id="T" />
      <path
         d="m 137.15938,162.34886 h 6.09607 v -0.47665 h -5.4689 v -7.09953 h 4.21456 v -0.47665 h -4.21456 v -6.29676 h 5.4689 v -0.47665 h -6.09607 z"
         id="E2" />
      <path
         d="m 145.88954,162.34886 h 0.60208 v -7.19988 h 2.53376 c 1.25433,0 1.73098,1.1289 2.05711,2.15745 l 1.55537,5.04243 h 0.60208 l -1.60555,-5.0926 c -0.40138,-1.32959 -0.77768,-2.05711 -1.58046,-2.23271 1.53029,-0.10035 2.6341,-0.92821 2.6341,-2.60902 v -2.4585 c 0,-1.80624 -1.22924,-2.43341 -2.68427,-2.43341 h -4.11422 z m 0.60208,-7.62636 v -6.74832 h 3.48705 c 1.10382,0 2.10728,0.65226 2.10728,2.0822 v 2.15745 c 0,1.83133 -0.90312,2.50867 -2.6341,2.50867 z"
         id="R" />
    </g>
  </g>
</svg>
