<?xml version="1.0" encoding="UTF-8" standalone="no"?>
<svg
   width="600"
   height="400"
   viewBox="0 0 158.74999 105.83334"
   version="1.1"
   id="svg5"
   xmlns:xlink="http://www.w3.org/1999/xlink"
   xmlns="http://www.w3.org/2000/svg"
   xmlns:svg="http://www.w3.org/2000/svg">
  <g
     id="layer1">
    <path
       id="rect940"
       style="fill:#0b60ad;fill-opacity:1;stroke:none;stroke-width:0.087498"
       d="M 7.4999955e-7,1.7499997e-6 H 7.9375007 V 105.83333 H 7.4999955e-7 Z" />
    <path
       id="rect940-7"
       style="fill:#000000;fill-opacity:1;stroke:none;stroke-width:0.087498;stroke-opacity:1"
       d="M 7.9375007,-2.5e-6 H 15.875001 V 105.83333 H 7.9375007 Z" />
    <path
       id="rect940-7-9"
       style="fill:#ffffff;fill-opacity:1;stroke:none;stroke-width:0.087498;stroke-opacity:1"
       d="m 15.875001,-2e-6 h 7.9375 V 105.83333 h -7.9375 z" />
    <path
       id="rect940-7-6"
       style="fill:#000000;fill-opacity:1;stroke:none;stroke-width:0.360763;stroke-opacity:1"
       d="M 23.812501,6.6666646e-7 H 158.75 V 105.83333 H 23.812501 Z" />
    <g
       id="g2984"
       transform="matrix(0.15875,0,0,0.15875,51.59375,13.229165)"
       style="fill:none;fill-opacity:1;stroke:#ffffff;stroke-opacity:1">
      <circle
         cx="250"
         cy="250"
         r="40"
         stroke="#000000"
         stroke-width="7"
         fill="none"
         id="circle2838"
         style="fill:none;fill-opacity:1;stroke:#ffffff;stroke-opacity:1" />
      <g
         id="a"
         stroke="#000000"
         stroke-width="7"
         style="fill:none;fill-opacity:1;stroke:#ffffff;stroke-opacity:1">
        <path
           d="M 0,250 H 250"
           id="path2840"
           style="fill:none;fill-opacity:1;stroke:#ffffff;stroke-opacity:1" />
        <path
           d="m 5,200 c 60,0 60,100 0,100"
           fill="none"
           id="path2842"
           style="fill:none;fill-opacity:1;stroke:#ffffff;stroke-opacity:1" />
        <path
           d="m 125,215 v 70 m -25,-70 v 70 m 50,-70 v 70"
           id="path2844"
           style="fill:none;fill-opacity:1;stroke:#ffffff;stroke-opacity:1" />
      </g>
      <use
         xlink:href="#a"
         transform="rotate(45,250,250)"
         id="use2847"
         x="0"
         y="0"
         width="100%"
         height="100%"
         style="fill:none;fill-opacity:1;stroke:#ffffff;stroke-opacity:1" />
      <use
         xlink:href="#a"
         transform="rotate(90,250,250)"
         id="use2849"
         x="0"
         y="0"
         width="100%"
         height="100%"
         style="fill:none;fill-opacity:1;stroke:#ffffff;stroke-opacity:1" />
      <use
         xlink:href="#a"
         transform="rotate(135,250,250)"
         id="use2851"
         x="0"
         y="0"
         width="100%"
         height="100%"
         style="fill:none;fill-opacity:1;stroke:#ffffff;stroke-opacity:1" />
      <use
         xlink:href="#a"
         transform="rotate(180,250,250)"
         id="use2853"
         x="0"
         y="0"
         width="100%"
         height="100%"
         style="fill:none;fill-opacity:1;stroke:#ffffff;stroke-opacity:1" />
      <use
         xlink:href="#a"
         transform="rotate(-45,250,250)"
         id="use2855"
         x="0"
         y="0"
         width="100%"
         height="100%"
         style="fill:none;fill-opacity:1;stroke:#ffffff;stroke-opacity:1" />
      <use
         xlink:href="#a"
         transform="rotate(-90,250,250)"
         id="use2857"
         x="0"
         y="0"
         width="100%"
         height="100%"
         style="fill:none;fill-opacity:1;stroke:#ffffff;stroke-opacity:1" />
      <use
         xlink:href="#a"
         transform="rotate(-135,250,250)"
         id="use2859"
         x="0"
         y="0"
         width="100%"
         height="100%"
         style="fill:none;fill-opacity:1;stroke:#ffffff;stroke-opacity:1" />
    </g>
  </g>
</svg>
